<svg xmlns="http://www.w3.org/2000/svg" xmlns:xlink="http://www.w3.org/1999/xlink" id="body_2" preserveAspectRatio="xMinYMin meet" viewBox="0 0 793 1123"><defs><clipPath id="1"><path id="" clip-rule="evenodd" transform="matrix(1 0 0 1 0 0)" d="M0 842L0 0L0 0L595 0L595 0L595 842L595 842L0 842z" /></clipPath><clipPath id="2"><path id="" clip-rule="evenodd" transform="matrix(1 0 0 1 0 0)" d="M-2 825L598 825L598 825L598 15L598 15L-2 15z" /></clipPath><clipPath id="3"><path id="" clip-rule="evenodd" transform="matrix(1 0 0 1 0 0)" d="M-2 15L598 15L598 15L598 825L598 825L-2 825z" /></clipPath></defs><g transform="matrix(1.3333333 0 0 1.3333334 0 0)"><g clip-path="url(#1)"><g clip-path="url(#2)"><g clip-path="url(#3)"><path id="1" transform="matrix(1 0 0 -1 0 842)" d="M-2 288.125L598 288.125L598 17L-2 17z" stroke="none" fill="#FFFFFF" fill-rule="nonzero" /><path id="2" transform="matrix(1 0 0 -1 0 842)" d="M-2 827L598 827L598 743.375L-2 743.375z" stroke="none" fill="#FFFFFF" fill-rule="nonzero" /><path id="3" transform="matrix(1 0 0 -1 0 842)" d="M-2 743.375L598 743.375L598 555.125L-2 555.125z" stroke="none" fill="#FFFFFF" fill-rule="nonzero" /><path id="4" transform="matrix(1 0 0 -1 0 842)" d="M-2 555.125L598 555.125L598 441.125L-2 441.125z" stroke="none" fill="#FFFFFF" fill-rule="nonzero" /><path id="5" transform="matrix(1 0 0 -1 0 842)" d="M-2 441.125L598 441.125L598 428.75L-2 428.75z" stroke="none" fill="#FFFFFF" fill-rule="nonzero" /><path id="6" transform="matrix(1 0 0 -1 0 842)" d="M-2 428.75L598 428.75L598 288.125L-2 288.125z" stroke="none" fill="#FFFFFF" fill-rule="nonzero" /><path id="7" transform="matrix(1 0 0 -1 0 842)" d="M28 401.375L568 401.375L568 300.5L28 300.5z" stroke="none" fill="#DFDFDF" fill-rule="nonzero" /><path id="846" transform="matrix(1 0 0 -1 0 842)" d="M93 410.5L133 410.5" stroke="#0000EE" stroke-width="1" fill="none" /><path id="853" transform="matrix(1 0 0 -1 0 842)" d="M145 410.5L161 410.5" stroke="#0000EE" stroke-width="1" fill="none" /><path id="875" transform="matrix(1 0 0 -1 0 842)" d="M311 410.5L327 410.5" stroke="#0000EE" stroke-width="1" fill="none" /></g></g></g></g></svg>