<svg xmlns="http://www.w3.org/2000/svg" xmlns:xlink="http://www.w3.org/1999/xlink" id="body_1" preserveAspectRatio="xMinYMin meet" viewBox="0 0 1123 1589"><defs><clipPath id="1"><path id="" clip-rule="evenodd" transform="matrix(1 0 0 1 0 0)" d="M0 1192L0 -0.079956055L0 -0.079956055L842.88 -0.079956055L842.88 -0.079956055L842.88 1192L842.88 1192L0 1192z" /></clipPath><clipPath id="2"><path id="" clip-rule="evenodd" transform="matrix(1 0 0 1 0 0)" d="M28.999998 28.920044L813.99994 28.920044L813.99994 28.920044L813.99994 1162.8923L813.99994 1162.8923L28.999998 1162.8923z" /></clipPath><clipPath id="3"><path id="" clip-rule="evenodd" transform="matrix(1 0 0 1 0 0)" d="M71.77724 109.97168L771.2227 109.97168L771.2227 109.97168L771.2227 110.72217L771.2227 110.72217L71.77724 110.72217z" /></clipPath><clipPath id="4"><path id="" clip-rule="evenodd" transform="matrix(1 0 0 1 0 0)" d="M28.999998 28.920044L813.99994 28.920044L813.99994 28.920044L813.99994 1162.8923L813.99994 1162.8923L28.999998 1162.8923z" /></clipPath><clipPath id="5"><path id="" clip-rule="evenodd" transform="matrix(1 0 0 1 0 0)" d="M71.77724 238.3034L771.2227 238.3034L771.2227 238.3034L771.2227 239.05383L771.2227 239.05383L71.77724 239.05383z" /></clipPath><clipPath id="6"><path id="" clip-rule="evenodd" transform="matrix(1 0 0 1 0 0)" d="M28.999998 28.920044L813.99994 28.920044L813.99994 28.920044L813.99994 1162.8923L813.99994 1162.8923L28.999998 1162.8923z" /></clipPath><clipPath id="7"><path id="" clip-rule="evenodd" transform="matrix(1 0 0 1 0 0)" d="M71.77724 377.89233L771.2227 377.89233L771.2227 377.89233L771.2227 378.64276L771.2227 378.64276L71.77724 378.64276z" /></clipPath><clipPath id="8"><path id="" clip-rule="evenodd" transform="matrix(1 0 0 1 0 0)" d="M28.999998 28.920044L813.99994 28.920044L813.99994 28.920044L813.99994 1162.8923L813.99994 1162.8923L28.999998 1162.8923z" /></clipPath><clipPath id="9"><path id="" clip-rule="evenodd" transform="matrix(1 0 0 1 0 0)" d="M71.77724 577.5195L771.2227 577.5195L771.2227 577.5195L771.2227 578.26996L771.2227 578.26996L71.77724 578.26996z" /></clipPath><clipPath id="10"><path id="" clip-rule="evenodd" transform="matrix(1 0 0 1 0 0)" d="M28.999998 28.920044L813.99994 28.920044L813.99994 28.920044L813.99994 1162.8923L813.99994 1162.8923L28.999998 1162.8923z" /></clipPath><clipPath id="11"><path id="" clip-rule="evenodd" transform="matrix(1 0 0 1 0 0)" d="M60.520073 855.19635L61.270554 855.19635L61.270554 855.19635L61.270554 855.94684L61.270554 855.94684L60.520073 855.94684z" /></clipPath><clipPath id="12"><path id="" clip-rule="evenodd" transform="matrix(1 0 0 1 0 0)" d="M60.520073 855.19635L61.270554 855.19635L61.270554 855.19635L61.270554 855.94684L61.270554 855.94684L60.520073 855.94684z" /></clipPath><clipPath id="13"><path id="" clip-rule="evenodd" transform="matrix(1 0 0 1 0 0)" d="M28.999998 28.920044L813.99994 28.920044L813.99994 28.920044L813.99994 1162.8923L813.99994 1162.8923L28.999998 1162.8923z" /></clipPath><clipPath id="14"><path id="" clip-rule="evenodd" transform="matrix(1 0 0 1 0 0)" d="M28.999998 28.920044L813.99994 28.920044L813.99994 28.920044L813.99994 1162.9199L813.99994 1162.9199L28.999998 1162.9199z" /></clipPath><clipPath id="15"><path id="" clip-rule="evenodd" transform="matrix(1 0 0 1 0 0)" d="M28.999998 28.920044L813.99994 28.920044L813.99994 28.920044L813.99994 1162.8923L813.99994 1162.8923L28.999998 1162.8923z" /></clipPath><clipPath id="16"><path id="" clip-rule="evenodd" transform="matrix(1 0 0 1 0 0)" d="M278.26547 931.3698L275.3834 931.3698L275.3834 931.3698L275.3834 933.096L275.3834 933.096L278.26547 933.096L278.26547 933.096L278.26547 931.3698zM813.99994 28.920044L28.999998 28.920044L28.999998 28.920044L28.999998 1162.8923L28.999998 1162.8923L813.99994 1162.8923L813.99994 1162.8923L813.99994 28.920044z" /></clipPath><clipPath id="17"><path id="" clip-rule="evenodd" transform="matrix(1 0 0 1 0 0)" d="M292.09097 931.3698L289.35922 931.3698L289.35922 931.3698L289.35922 933.096L289.35922 933.096L292.09097 933.096L292.09097 933.096L292.09097 931.3698zM813.99994 28.920044L28.999998 28.920044L28.999998 28.920044L28.999998 1162.8923L28.999998 1162.8923L813.99994 1162.8923L813.99994 1162.8923L813.99994 28.920044z" /></clipPath><clipPath id="18"><path id="" clip-rule="evenodd" transform="matrix(1 0 0 1 0 0)" d="M450.51694 931.3698L447.67557 931.3698L447.67557 931.3698L447.67557 933.096L447.67557 933.096L450.51694 933.096L450.51694 933.096L450.51694 931.3698zM813.99994 28.920044L28.999998 28.920044L28.999998 28.920044L28.999998 1162.8923L28.999998 1162.8923L813.99994 1162.8923L813.99994 1162.8923L813.99994 28.920044z" /></clipPath><clipPath id="19"><path id="" clip-rule="evenodd" transform="matrix(1 0 0 1 0 0)" d="M28.999998 28.920044L813.99994 28.920044L813.99994 28.920044L813.99994 1162.8923L813.99994 1162.8923L28.999998 1162.8923z" /></clipPath></defs><g transform="matrix(1.3333334 0 0 1.3333334 0 0)"><g clip-path="url(#1)"><g clip-path="url(#2)"><path id="1" transform="matrix(1 0 0 -1 0 1192)" d="M615.8738 880.9002L771.2227 880.9002L771.2227 880.1498L615.8738 880.1498z" stroke="none" fill="#CDCDCD" fill-rule="nonzero" /><path id="2" transform="matrix(1 0 0 -1 0 1192)" d="M471.782 880.9002L615.8738 880.9002L615.8738 880.1498L471.782 880.1498z" stroke="none" fill="#CDCDCD" fill-rule="nonzero" /><path id="3" transform="matrix(1 0 0 -1 0 1192)" d="M303.67493 880.9002L471.782 880.9002L471.782 880.1498L303.67493 880.1498z" stroke="none" fill="#CDCDCD" fill-rule="nonzero" /><path id="4" transform="matrix(1 0 0 -1 0 1192)" d="M104.79827 880.9002L303.67493 880.9002L303.67493 880.1498L104.79827 880.1498z" stroke="none" fill="#CDCDCD" fill-rule="nonzero" /><path id="5" transform="matrix(1 0 0 -1 0 1192)" d="M71.777245 880.9002L104.79827 880.9002L104.79827 880.1498L71.777245 880.1498z" stroke="none" fill="#CDCDCD" fill-rule="nonzero" /><path id="6" transform="matrix(1 0 0 -1 0 1192)" d="M615.8738 911.6698L771.2227 911.6698L771.2227 910.9193L615.8738 910.9193z" stroke="none" fill="#CDCDCD" fill-rule="nonzero" /><path id="7" transform="matrix(1 0 0 -1 0 1192)" d="M471.782 911.6698L615.8738 911.6698L615.8738 910.9193L471.782 910.9193z" stroke="none" fill="#CDCDCD" fill-rule="nonzero" /><path id="8" transform="matrix(1 0 0 -1 0 1192)" d="M303.67493 911.6698L471.782 911.6698L471.782 910.9193L303.67493 910.9193z" stroke="none" fill="#CDCDCD" fill-rule="nonzero" /><path id="9" transform="matrix(1 0 0 -1 0 1192)" d="M104.79827 911.6698L303.67493 911.6698L303.67493 910.9193L104.79827 910.9193z" stroke="none" fill="#CDCDCD" fill-rule="nonzero" /><path id="10" transform="matrix(1 0 0 -1 0 1192)" d="M71.777245 911.6698L104.79827 911.6698L104.79827 910.9193L71.777245 910.9193z" stroke="none" fill="#CDCDCD" fill-rule="nonzero" /><path id="11" transform="matrix(1 0 0 -1 0 1192)" d="M71.777245 712.04266L771.2227 712.04266L771.2227 711.2922L71.777245 711.2922z" stroke="none" fill="#CDCDCD" fill-rule="nonzero" /><path id="12" transform="matrix(1 0 0 -1 0 1192)" d="M71.777245 681.2731L771.2227 681.2731L771.2227 680.5226L71.777245 680.5226z" stroke="none" fill="#CDCDCD" fill-rule="nonzero" /><path id="13" transform="matrix(1 0 0 -1 0 1192)" d="M725.44354 712.04266L771.2227 712.04266L771.2227 711.2922L725.44354 711.2922z" stroke="none" fill="#CDCDCD" fill-rule="nonzero" /><path id="14" transform="matrix(1 0 0 -1 0 1192)" d="M681.91583 712.04266L725.44354 712.04266L725.44354 711.2922L681.91583 711.2922z" stroke="none" fill="#CDCDCD" fill-rule="nonzero" /><path id="15" transform="matrix(1 0 0 -1 0 1192)" d="M595.61084 712.04266L681.91583 712.04266L681.91583 711.2922L595.61084 711.2922z" stroke="none" fill="#CDCDCD" fill-rule="nonzero" /><path id="16" transform="matrix(1 0 0 -1 0 1192)" d="M547.58026 712.04266L595.61084 712.04266L595.61084 711.2922L547.58026 711.2922z" stroke="none" fill="#CDCDCD" fill-rule="nonzero" /><path id="17" transform="matrix(1 0 0 -1 0 1192)" d="M495.7973 712.04266L547.58026 712.04266L547.58026 711.2922L495.7973 711.2922z" stroke="none" fill="#CDCDCD" fill-rule="nonzero" /><path id="18" transform="matrix(1 0 0 -1 0 1192)" d="M377.97226 712.04266L495.7973 712.04266L495.7973 711.2922L377.97226 711.2922z" stroke="none" fill="#CDCDCD" fill-rule="nonzero" /><path id="19" transform="matrix(1 0 0 -1 0 1192)" d="M333.69406 712.04266L377.97226 712.04266L377.97226 711.2922L333.69406 711.2922z" stroke="none" fill="#CDCDCD" fill-rule="nonzero" /><path id="20" transform="matrix(1 0 0 -1 0 1192)" d="M183.59846 712.04266L333.69406 712.04266L333.69406 711.2922L183.59846 711.2922z" stroke="none" fill="#CDCDCD" fill-rule="nonzero" /><path id="21" transform="matrix(1 0 0 -1 0 1192)" d="M71.777245 712.04266L183.59846 712.04266L183.59846 711.2922L71.777245 711.2922z" stroke="none" fill="#CDCDCD" fill-rule="nonzero" /><path id="22" transform="matrix(1 0 0 -1 0 1192)" d="M725.44354 772.08093L771.2227 772.08093L771.2227 771.33044L725.44354 771.33044z" stroke="none" fill="#CDCDCD" fill-rule="nonzero" /><path id="23" transform="matrix(1 0 0 -1 0 1192)" d="M681.91583 772.08093L725.44354 772.08093L725.44354 771.33044L681.91583 771.33044z" stroke="none" fill="#CDCDCD" fill-rule="nonzero" /><path id="24" transform="matrix(1 0 0 -1 0 1192)" d="M595.61084 772.08093L681.91583 772.08093L681.91583 771.33044L595.61084 771.33044z" stroke="none" fill="#CDCDCD" fill-rule="nonzero" /><path id="25" transform="matrix(1 0 0 -1 0 1192)" d="M547.58026 772.08093L595.61084 772.08093L595.61084 771.33044L547.58026 771.33044z" stroke="none" fill="#CDCDCD" fill-rule="nonzero" /><path id="26" transform="matrix(1 0 0 -1 0 1192)" d="M495.7973 772.08093L547.58026 772.08093L547.58026 771.33044L495.7973 771.33044z" stroke="none" fill="#CDCDCD" fill-rule="nonzero" /><path id="27" transform="matrix(1 0 0 -1 0 1192)" d="M377.97226 772.08093L495.7973 772.08093L495.7973 771.33044L377.97226 771.33044z" stroke="none" fill="#CDCDCD" fill-rule="nonzero" /><path id="28" transform="matrix(1 0 0 -1 0 1192)" d="M333.69406 772.08093L377.97226 772.08093L377.97226 771.33044L333.69406 771.33044z" stroke="none" fill="#CDCDCD" fill-rule="nonzero" /><path id="29" transform="matrix(1 0 0 -1 0 1192)" d="M183.59846 772.08093L333.69406 772.08093L333.69406 771.33044L183.59846 771.33044z" stroke="none" fill="#CDCDCD" fill-rule="nonzero" /><path id="30" transform="matrix(1 0 0 -1 0 1192)" d="M71.777245 772.08093L183.59846 772.08093L183.59846 771.33044L71.777245 771.33044z" stroke="none" fill="#CDCDCD" fill-rule="nonzero" /><path id="31" transform="matrix(1 0 0 -1 0 1192)" d="M28.999998 301.5312L813.99994 301.5312L813.99994 300.0302L28.999998 300.0302z" stroke="none" fill="#F1F1F1" fill-rule="nonzero" /><path id="32" transform="matrix(1 0 0 -1 0 1192)" d="M28.999998 246.74628L813.99994 246.74628L813.99994 245.2453L28.999998 245.2453z" stroke="none" fill="#F1F1F1" fill-rule="nonzero" /></g><g clip-path="url(#3)"><path id="52" transform="matrix(1 0 0 -1 0 1192)" d="M768.97125 1082.0283L771.2227 1082.0283L771.2227 1081.2778L768.97125 1081.2778M765.2229 1082.0283L767.47437 1082.0283L767.47437 1081.2778L765.2229 1081.2778M761.47455 1082.0283L763.726 1082.0283L763.726 1081.2778L761.47455 1081.2778M757.7262 1082.0283L759.97766 1082.0283L759.97766 1081.2778L757.7262 1081.2778M753.97784 1082.0283L756.22925 1082.0283L756.22925 1081.2778L753.97784 1081.2778M750.2295 1082.0283L752.4809 1082.0283L752.4809 1081.2778L750.2295 1081.2778M746.48114 1082.0283L748.7326 1082.0283L748.7326 1081.2778L746.48114 1081.2778M742.7328 1082.0283L744.98425 1082.0283L744.98425 1081.2778L742.7328 1081.2778M738.98444 1082.0283L741.2359 1082.0283L741.2359 1081.2778L738.98444 1081.2778M735.2361 1082.0283L737.48755 1082.0283L737.48755 1081.2778L735.2361 1081.2778M731.48773 1082.0283L733.7392 1082.0283L733.7392 1081.2778L731.48773 1081.2778M727.7394 1082.0283L729.9908 1082.0283L729.9908 1081.2778L727.7394 1081.2778M723.991 1082.0283L726.24243 1082.0283L726.24243 1081.2778L723.991 1081.2778M720.2427 1082.0283L722.4941 1082.0283L722.4941 1081.2778L720.2427 1081.2778M716.4943 1082.0283L718.7457 1082.0283L718.7457 1081.2778L716.4943 1081.2778M712.7459 1082.0283L714.9974 1082.0283L714.9974 1081.2778L712.7459 1081.2778M708.99756 1082.0283L711.249 1082.0283L711.249 1081.2778L708.99756 1081.2778M705.2492 1082.0283L707.5007 1082.0283L707.5007 1081.2778L705.2492 1081.2778M701.5009 1082.0283L703.7523 1082.0283L703.7523 1081.2778L701.5009 1081.2778M697.75256 1082.0283L700.00397 1082.0283L700.00397 1081.2778L697.75256 1081.2778M694.0042 1082.0283L696.2556 1082.0283L696.2556 1081.2778L694.0042 1081.2778M690.25586 1082.0283L692.50726 1082.0283L692.50726 1081.2778L690.25586 1081.2778M686.50745 1082.0283L688.7589 1082.0283L688.7589 1081.2778L686.50745 1081.2778M682.7591 1082.0283L685.01056 1082.0283L685.01056 1081.2778L682.7591 1081.2778M679.01074 1082.0283L681.2622 1082.0283L681.2622 1081.2778L679.01074 1081.2778M675.2624 1082.0283L677.51385 1082.0283L677.51385 1081.2778L675.2624 1081.2778M671.51404 1082.0283L673.76544 1082.0283L673.76544 1081.2778L671.51404 1081.2778M667.7657 1082.0283L670.0171 1082.0283L670.0171 1081.2778L667.7657 1081.2778M664.01733 1082.0283L666.26874 1082.0283L666.26874 1081.2778L664.01733 1081.2778M660.269 1082.0283L662.52045 1082.0283L662.52045 1081.2778L660.269 1081.2778M656.5206 1082.0283L658.7721 1082.0283L658.7721 1081.2778L656.5206 1081.2778M652.7723 1082.0283L655.02374 1082.0283L655.02374 1081.2778L652.7723 1081.2778M649.0239 1082.0283L651.2754 1082.0283L651.2754 1081.2778L649.0239 1081.2778M645.2756 1082.0283L647.527 1082.0283L647.527 1081.2778L645.2756 1081.2778M641.5272 1082.0283L643.7786 1082.0283L643.7786 1081.2778L641.5272 1081.2778M637.7789 1082.0283L640.0303 1082.0283L640.0303 1081.2778L637.7789 1081.2778M634.0305 1082.0283L636.2819 1082.0283L636.2819 1081.2778L634.0305 1081.2778M630.2821 1082.0283L632.53357 1082.0283L632.53357 1081.2778L630.2821 1081.2778M626.53375 1082.0283L628.7852 1082.0283L628.7852 1081.2778L626.53375 1081.2778M622.7854 1082.0283L625.03687 1082.0283L625.03687 1081.2778L622.7854 1081.2778M619.03705 1082.0283L621.2885 1082.0283L621.2885 1081.2778L619.03705 1081.2778M615.28876 1082.0283L617.54016 1082.0283L617.54016 1081.2778L615.28876 1081.2778M611.5404 1082.0283L613.7918 1082.0283L613.7918 1081.2778L611.5404 1081.2778M607.79205 1082.0283L610.04346 1082.0283L610.04346 1081.2778L607.79205 1081.2778M604.04364 1082.0283L606.2951 1082.0283L606.2951 1081.2778L604.04364 1081.2778M600.2953 1082.0283L602.54675 1082.0283L602.54675 1081.2778L600.2953 1081.2778M596.54694 1082.0283L598.7984 1082.0283L598.7984 1081.2778L596.54694 1081.2778M592.7986 1082.0283L595.05005 1082.0283L595.05005 1081.2778L592.7986 1081.2778M589.05023 1082.0283L591.30164 1082.0283L591.30164 1081.2778L589.05023 1081.2778M585.3019 1082.0283L587.5533 1082.0283L587.5533 1081.2778L585.3019 1081.2778M581.5535 1082.0283L583.80493 1082.0283L583.80493 1081.2778L581.5535 1081.2778M577.8052 1082.0283L580.0566 1082.0283L580.0566 1081.2778L577.8052 1081.2778M574.0568 1082.0283L576.3082 1082.0283L576.3082 1081.2778L574.0568 1081.2778M570.3085 1082.0283L572.55994 1082.0283L572.55994 1081.2778L570.3085 1081.2778M566.5601 1082.0283L568.8116 1082.0283L568.8116 1081.2778L566.5601 1081.2778M562.81177 1082.0283L565.0632 1082.0283L565.0632 1081.2778L562.81177 1081.2778M559.0634 1082.0283L561.3148 1082.0283L561.3148 1081.2778L559.0634 1081.2778M555.31506 1082.0283L557.56647 1082.0283L557.56647 1081.2778L555.31506 1081.2778M551.5667 1082.0283L553.8181 1082.0283L553.8181 1081.2778L551.5667 1081.2778M547.8183 1082.0283L550.06976 1082.0283L550.06976 1081.2778L547.8183 1081.2778M544.06995 1082.0283L546.3214 1082.0283L546.3214 1081.2778L544.06995 1081.2778M540.3216 1082.0283L542.57306 1082.0283L542.57306 1081.2778L540.3216 1081.2778M536.57324 1082.0283L538.82465 1082.0283L538.82465 1081.2778L536.57324 1081.2778M532.8249 1082.0283L535.0763 1082.0283L535.0763 1081.2778L532.8249 1081.2778M529.07654 1082.0283L531.328 1082.0283L531.328 1081.2778L529.07654 1081.2778M525.3282 1082.0283L527.57965 1082.0283L527.57965 1081.2778L525.3282 1081.2778M521.57983 1082.0283L523.8313 1082.0283L523.8313 1081.2778L521.57983 1081.2778M517.8315 1082.0283L520.08295 1082.0283L520.08295 1081.2778L517.8315 1081.2778M514.0831 1082.0283L516.33453 1082.0283L516.33453 1081.2778L514.0831 1081.2778M510.33478 1082.0283L512.5862 1082.0283L512.5862 1081.2778L510.33478 1081.2778M506.58643 1082.0283L508.83786 1082.0283L508.83786 1081.2778L506.58643 1081.2778M502.83807 1082.0283L505.0895 1082.0283L505.0895 1081.2778L502.83807 1081.2778M499.08972 1082.0283L501.34116 1082.0283L501.34116 1081.2778L499.08972 1081.2778M495.34134 1082.0283L497.59277 1082.0283L497.59277 1081.2778L495.34134 1081.2778M491.593 1082.0283L493.84442 1082.0283L493.84442 1081.2778L491.593 1081.2778M487.84464 1082.0283L490.09607 1082.0283L490.09607 1081.2778L487.84464 1081.2778M484.0963 1082.0283L486.34775 1082.0283L486.34775 1081.2778L484.0963 1081.2778M480.34796 1082.0283L482.5994 1082.0283L482.5994 1081.2778L480.34796 1081.2778M476.5996 1082.0283L478.85104 1082.0283L478.85104 1081.2778L476.5996 1081.2778M472.85123 1082.0283L475.10266 1082.0283L475.10266 1081.2778L472.85123 1081.2778M469.10287 1082.0283L471.3543 1082.0283L471.3543 1081.2778L469.10287 1081.2778M465.35452 1082.0283L467.60596 1082.0283L467.60596 1081.2778L465.35452 1081.2778M461.60617 1082.0283L463.8576 1082.0283L463.8576 1081.2778L461.60617 1081.2778M457.85782 1082.0283L460.10925 1082.0283L460.10925 1081.2778L457.85782 1081.2778M454.10944 1082.0283L456.36087 1082.0283L456.36087 1081.2778L454.10944 1081.2778M450.36115 1082.0283L452.61258 1082.0283L452.61258 1081.2778L450.36115 1081.2778M446.61276 1082.0283L448.8642 1082.0283L448.8642 1081.2778L446.61276 1081.2778M442.8644 1082.0283L445.11584 1082.0283L445.11584 1081.2778L442.8644 1081.2778M439.11606 1082.0283L441.3675 1082.0283L441.3675 1081.2778L439.11606 1081.2778M435.3677 1082.0283L437.61914 1082.0283L437.61914 1081.2778L435.3677 1081.2778M431.61932 1082.0283L433.87076 1082.0283L433.87076 1081.2778L431.61932 1081.2778M427.87097 1082.0283L430.1224 1082.0283L430.1224 1081.2778L427.87097 1081.2778M424.12262 1082.0283L426.37405 1082.0283L426.37405 1081.2778L424.12262 1081.2778M420.37427 1082.0283L422.6257 1082.0283L422.6257 1081.2778L420.37427 1081.2778M416.62592 1082.0283L418.87735 1082.0283L418.87735 1081.2778L416.62592 1081.2778M412.87753 1082.0283L415.12897 1082.0283L415.12897 1081.2778L412.87753 1081.2778M409.1292 1082.0283L411.38065 1082.0283L411.38065 1081.2778L409.1292 1081.2778M405.38086 1082.0283L407.6323 1082.0283L407.6323 1081.2778L405.38086 1081.2778M401.63248 1082.0283L403.8839 1082.0283L403.8839 1081.2778L401.63248 1081.2778M397.88412 1082.0283L400.13556 1082.0283L400.13556 1081.2778L397.88412 1081.2778M394.13577 1082.0283L396.3872 1082.0283L396.3872 1081.2778L394.13577 1081.2778M390.38742 1082.0283L392.63885 1082.0283L392.63885 1081.2778L390.38742 1081.2778M386.63907 1082.0283L388.8905 1082.0283L388.8905 1081.2778L386.63907 1081.2778M382.89072 1082.0283L385.14215 1082.0283L385.14215 1081.2778L382.89072 1081.2778M379.14236 1082.0283L381.3938 1082.0283L381.3938 1081.2778L379.14236 1081.2778M375.394 1082.0283L377.64545 1082.0283L377.64545 1081.2778L375.394 1081.2778M371.64563 1082.0283L373.89706 1082.0283L373.89706 1081.2778L371.64563 1081.2778M367.89728 1082.0283L370.1487 1082.0283L370.1487 1081.2778L367.89728 1081.2778M364.14896 1082.0283L366.4004 1082.0283L366.4004 1081.2778L364.14896 1081.2778M360.40057 1082.0283L362.652 1082.0283L362.652 1081.2778L360.40057 1081.2778M356.65222 1082.0283L358.90366 1082.0283L358.90366 1081.2778L356.65222 1081.2778M352.90387 1082.0283L355.1553 1082.0283L355.1553 1081.2778L352.90387 1081.2778M349.15552 1082.0283L351.40695 1082.0283L351.40695 1081.2778L349.15552 1081.2778M345.40717 1082.0283L347.65857 1082.0283L347.65857 1081.2778L345.40717 1081.2778M341.6588 1082.0283L343.91025 1082.0283L343.91025 1081.2778L341.6588 1081.2778M337.91046 1082.0283L340.1619 1082.0283L340.1619 1081.2778L337.91046 1081.2778M334.1621 1082.0283L336.41354 1082.0283L336.41354 1081.2778L334.1621 1081.2778M330.41373 1082.0283L332.66516 1082.0283L332.66516 1081.2778L330.41373 1081.2778M326.66537 1082.0283L328.9168 1082.0283L328.9168 1081.2778L326.66537 1081.2778M322.91702 1082.0283L325.16846 1082.0283L325.16846 1081.2778L322.91702 1081.2778M319.16867 1082.0283L321.4201 1082.0283L321.4201 1081.2778L319.16867 1081.2778M315.42032 1082.0283L317.67175 1082.0283L317.67175 1081.2778L315.42032 1081.2778M311.67197 1082.0283L313.9234 1082.0283L313.9234 1081.2778L311.67197 1081.2778M307.9236 1082.0283L310.17505 1082.0283L310.17505 1081.2778L307.9236 1081.2778M304.17526 1082.0283L306.4267 1082.0283L306.4267 1081.2778L304.17526 1081.2778M300.4269 1082.0283L302.67834 1082.0283L302.67834 1081.2778L300.4269 1081.2778M296.67856 1082.0283L298.93 1082.0283L298.93 1081.2778L296.67856 1081.2778M292.9302 1082.0283L295.18164 1082.0283L295.18164 1081.2778L292.9302 1081.2778M289.18182 1082.0283L291.43326 1082.0283L291.43326 1081.2778L289.18182 1081.2778M285.43347 1082.0283L287.6849 1082.0283L287.6849 1081.2778L285.43347 1081.2778M281.68512 1082.0283L283.93655 1082.0283L283.93655 1081.2778L281.68512 1081.2778M277.93677 1082.0283L280.1882 1082.0283L280.1882 1081.2778L277.93677 1081.2778M274.18842 1082.0283L276.43985 1082.0283L276.43985 1081.2778L274.18842 1081.2778M270.44006 1082.0283L272.6915 1082.0283L272.6915 1081.2778L270.44006 1081.2778M266.6917 1082.0283L268.9431 1082.0283L268.9431 1081.2778L266.6917 1081.2778M262.94333 1082.0283L265.19476 1082.0283L265.19476 1081.2778L262.94333 1081.2778M259.195 1082.0283L261.44644 1082.0283L261.44644 1081.2778L259.195 1081.2778M255.44666 1082.0283L257.6981 1082.0283L257.6981 1081.2778L255.44666 1081.2778M251.69829 1082.0283L253.94972 1082.0283L253.94972 1081.2778L251.69829 1081.2778M247.94994 1082.0283L250.20137 1082.0283L250.20137 1081.2778L247.94994 1081.2778M244.20157 1082.0283L246.453 1082.0283L246.453 1081.2778L244.20157 1081.2778M240.45322 1082.0283L242.70465 1082.0283L242.70465 1081.2778L240.45322 1081.2778M236.70485 1082.0283L238.95628 1082.0283L238.95628 1081.2778L236.70485 1081.2778M232.9565 1082.0283L235.20793 1082.0283L235.20793 1081.2778L232.9565 1081.2778M229.20816 1082.0283L231.4596 1082.0283L231.4596 1081.2778L229.20816 1081.2778M225.45981 1082.0283L227.71124 1082.0283L227.71124 1081.2778L225.45981 1081.2778M221.71144 1082.0283L223.96288 1082.0283L223.96288 1081.2778L221.71144 1081.2778M217.96309 1082.0283L220.21452 1082.0283L220.21452 1081.2778L217.96309 1081.2778M214.21474 1082.0283L216.46617 1082.0283L216.46617 1081.2778L214.21474 1081.2778M210.46637 1082.0283L212.7178 1082.0283L212.7178 1081.2778L210.46637 1081.2778M206.71803 1082.0283L208.96947 1082.0283L208.96947 1081.2778L206.71803 1081.2778M202.96967 1082.0283L205.2211 1082.0283L205.2211 1081.2778L202.96967 1081.2778M199.22131 1082.0283L201.47275 1082.0283L201.47275 1081.2778L199.22131 1081.2778M195.47296 1082.0283L197.7244 1082.0283L197.7244 1081.2778L195.47296 1081.2778M191.72461 1082.0283L193.97604 1082.0283L193.97604 1081.2778L191.72461 1081.2778M187.97624 1082.0283L190.22768 1082.0283L190.22768 1081.2778L187.97624 1081.2778M184.2279 1082.0283L186.47934 1082.0283L186.47934 1081.2778L184.2279 1081.2778M180.47954 1082.0283L182.73097 1082.0283L182.73097 1081.2778L180.47954 1081.2778M176.73119 1082.0283L178.98262 1082.0283L178.98262 1081.2778L176.73119 1081.2778M172.98283 1082.0283L175.23427 1082.0283L175.23427 1081.2778L172.98283 1081.2778M169.23448 1082.0283L171.4859 1082.0283L171.4859 1081.2778L169.23448 1081.2778M165.48613 1082.0283L167.73756 1082.0283L167.73756 1081.2778L165.48613 1081.2778M161.73776 1082.0283L163.9892 1082.0283L163.9892 1081.2778L161.73776 1081.2778M157.98941 1082.0283L160.24084 1082.0283L160.24084 1081.2778L157.98941 1081.2778M154.24104 1082.0283L156.49248 1082.0283L156.49248 1081.2778L154.24104 1081.2778M150.49269 1082.0283L152.74413 1082.0283L152.74413 1081.2778L150.49269 1081.2778M146.74434 1082.0283L148.99577 1082.0283L148.99577 1081.2778L146.74434 1081.2778M142.99599 1082.0283L145.24742 1082.0283L145.24742 1081.2778L142.99599 1081.2778M139.24763 1082.0283L141.49907 1082.0283L141.49907 1081.2778L139.24763 1081.2778M135.49927 1082.0283L137.7507 1082.0283L137.7507 1081.2778L135.49927 1081.2778M131.75092 1082.0283L134.00235 1082.0283L134.00235 1081.2778L131.75092 1081.2778M128.00256 1082.0283L130.254 1082.0283L130.254 1081.2778L128.00256 1081.2778M124.25421 1082.0283L126.505646 1082.0283L126.505646 1081.2778L124.25421 1081.2778M120.50586 1082.0283L122.75729 1082.0283L122.75729 1081.2778L120.50586 1081.2778M116.75751 1082.0283L119.00894 1082.0283L119.00894 1081.2778L116.75751 1081.2778M113.00915 1082.0283L115.26058 1082.0283L115.26058 1081.2778L113.00915 1081.2778M109.260796 1082.0283L111.51223 1082.0283L111.51223 1081.2778L109.260796 1081.2778M105.51244 1082.0283L107.76388 1082.0283L107.76388 1081.2778L105.51244 1081.2778M101.764084 1082.0283L104.01552 1082.0283L104.01552 1081.2778L101.764084 1081.2778M98.01573 1082.0283L100.26716 1082.0283L100.26716 1081.2778L98.01573 1081.2778M94.26737 1082.0283L96.51881 1082.0283L96.51881 1081.2778L94.26737 1081.2778M90.51901 1082.0283L92.77045 1082.0283L92.77045 1081.2778L90.51901 1081.2778M86.77066 1082.0283L89.022095 1082.0283L89.022095 1081.2778L86.77066 1081.2778M83.02231 1082.0283L85.27374 1082.0283L85.27374 1081.2778L83.02231 1081.2778M79.27396 1082.0283L81.52539 1082.0283L81.52539 1081.2778L79.27396 1081.2778M75.5256 1082.0283L77.77703 1082.0283L77.77703 1081.2778L75.5256 1081.2778M71.777245 1082.0283L74.02868 1082.0283L74.02868 1081.2778L71.777245 1081.2778" stroke="none" fill="#AEAEAE" fill-rule="nonzero" /></g><g clip-path="url(#4)"></g><g clip-path="url(#5)"><path id="70" transform="matrix(1 0 0 -1 0 1192)" d="M768.97125 953.6966L771.2227 953.6966L771.2227 952.9461L768.97125 952.9461M765.2229 953.6966L767.47437 953.6966L767.47437 952.9461L765.2229 952.9461M761.47455 953.6966L763.726 953.6966L763.726 952.9461L761.47455 952.9461M757.7262 953.6966L759.97766 953.6966L759.97766 952.9461L757.7262 952.9461M753.97784 953.6966L756.22925 953.6966L756.22925 952.9461L753.97784 952.9461M750.2295 953.6966L752.4809 953.6966L752.4809 952.9461L750.2295 952.9461M746.48114 953.6966L748.7326 953.6966L748.7326 952.9461L746.48114 952.9461M742.7328 953.6966L744.98425 953.6966L744.98425 952.9461L742.7328 952.9461M738.98444 953.6966L741.2359 953.6966L741.2359 952.9461L738.98444 952.9461M735.2361 953.6966L737.48755 953.6966L737.48755 952.9461L735.2361 952.9461M731.48773 953.6966L733.7392 953.6966L733.7392 952.9461L731.48773 952.9461M727.7394 953.6966L729.9908 953.6966L729.9908 952.9461L727.7394 952.9461M723.991 953.6966L726.24243 953.6966L726.24243 952.9461L723.991 952.9461M720.2427 953.6966L722.4941 953.6966L722.4941 952.9461L720.2427 952.9461M716.4943 953.6966L718.7457 953.6966L718.7457 952.9461L716.4943 952.9461M712.7459 953.6966L714.9974 953.6966L714.9974 952.9461L712.7459 952.9461M708.99756 953.6966L711.249 953.6966L711.249 952.9461L708.99756 952.9461M705.2492 953.6966L707.5007 953.6966L707.5007 952.9461L705.2492 952.9461M701.5009 953.6966L703.7523 953.6966L703.7523 952.9461L701.5009 952.9461M697.75256 953.6966L700.00397 953.6966L700.00397 952.9461L697.75256 952.9461M694.0042 953.6966L696.2556 953.6966L696.2556 952.9461L694.0042 952.9461M690.25586 953.6966L692.50726 953.6966L692.50726 952.9461L690.25586 952.9461M686.50745 953.6966L688.7589 953.6966L688.7589 952.9461L686.50745 952.9461M682.7591 953.6966L685.01056 953.6966L685.01056 952.9461L682.7591 952.9461M679.01074 953.6966L681.2622 953.6966L681.2622 952.9461L679.01074 952.9461M675.2624 953.6966L677.51385 953.6966L677.51385 952.9461L675.2624 952.9461M671.51404 953.6966L673.76544 953.6966L673.76544 952.9461L671.51404 952.9461M667.7657 953.6966L670.0171 953.6966L670.0171 952.9461L667.7657 952.9461M664.01733 953.6966L666.26874 953.6966L666.26874 952.9461L664.01733 952.9461M660.269 953.6966L662.52045 953.6966L662.52045 952.9461L660.269 952.9461M656.5206 953.6966L658.7721 953.6966L658.7721 952.9461L656.5206 952.9461M652.7723 953.6966L655.02374 953.6966L655.02374 952.9461L652.7723 952.9461M649.0239 953.6966L651.2754 953.6966L651.2754 952.9461L649.0239 952.9461M645.2756 953.6966L647.527 953.6966L647.527 952.9461L645.2756 952.9461M641.5272 953.6966L643.7786 953.6966L643.7786 952.9461L641.5272 952.9461M637.7789 953.6966L640.0303 953.6966L640.0303 952.9461L637.7789 952.9461M634.0305 953.6966L636.2819 953.6966L636.2819 952.9461L634.0305 952.9461M630.2821 953.6966L632.53357 953.6966L632.53357 952.9461L630.2821 952.9461M626.53375 953.6966L628.7852 953.6966L628.7852 952.9461L626.53375 952.9461M622.7854 953.6966L625.03687 953.6966L625.03687 952.9461L622.7854 952.9461M619.03705 953.6966L621.2885 953.6966L621.2885 952.9461L619.03705 952.9461M615.28876 953.6966L617.54016 953.6966L617.54016 952.9461L615.28876 952.9461M611.5404 953.6966L613.7918 953.6966L613.7918 952.9461L611.5404 952.9461M607.79205 953.6966L610.04346 953.6966L610.04346 952.9461L607.79205 952.9461M604.04364 953.6966L606.2951 953.6966L606.2951 952.9461L604.04364 952.9461M600.2953 953.6966L602.54675 953.6966L602.54675 952.9461L600.2953 952.9461M596.54694 953.6966L598.7984 953.6966L598.7984 952.9461L596.54694 952.9461M592.7986 953.6966L595.05005 953.6966L595.05005 952.9461L592.7986 952.9461M589.05023 953.6966L591.30164 953.6966L591.30164 952.9461L589.05023 952.9461M585.3019 953.6966L587.5533 953.6966L587.5533 952.9461L585.3019 952.9461M581.5535 953.6966L583.80493 953.6966L583.80493 952.9461L581.5535 952.9461M577.8052 953.6966L580.0566 953.6966L580.0566 952.9461L577.8052 952.9461M574.0568 953.6966L576.3082 953.6966L576.3082 952.9461L574.0568 952.9461M570.3085 953.6966L572.55994 953.6966L572.55994 952.9461L570.3085 952.9461M566.5601 953.6966L568.8116 953.6966L568.8116 952.9461L566.5601 952.9461M562.81177 953.6966L565.0632 953.6966L565.0632 952.9461L562.81177 952.9461M559.0634 953.6966L561.3148 953.6966L561.3148 952.9461L559.0634 952.9461M555.31506 953.6966L557.56647 953.6966L557.56647 952.9461L555.31506 952.9461M551.5667 953.6966L553.8181 953.6966L553.8181 952.9461L551.5667 952.9461M547.8183 953.6966L550.06976 953.6966L550.06976 952.9461L547.8183 952.9461M544.06995 953.6966L546.3214 953.6966L546.3214 952.9461L544.06995 952.9461M540.3216 953.6966L542.57306 953.6966L542.57306 952.9461L540.3216 952.9461M536.57324 953.6966L538.82465 953.6966L538.82465 952.9461L536.57324 952.9461M532.8249 953.6966L535.0763 953.6966L535.0763 952.9461L532.8249 952.9461M529.07654 953.6966L531.328 953.6966L531.328 952.9461L529.07654 952.9461M525.3282 953.6966L527.57965 953.6966L527.57965 952.9461L525.3282 952.9461M521.57983 953.6966L523.8313 953.6966L523.8313 952.9461L521.57983 952.9461M517.8315 953.6966L520.08295 953.6966L520.08295 952.9461L517.8315 952.9461M514.0831 953.6966L516.33453 953.6966L516.33453 952.9461L514.0831 952.9461M510.33478 953.6966L512.5862 953.6966L512.5862 952.9461L510.33478 952.9461M506.58643 953.6966L508.83786 953.6966L508.83786 952.9461L506.58643 952.9461M502.83807 953.6966L505.0895 953.6966L505.0895 952.9461L502.83807 952.9461M499.08972 953.6966L501.34116 953.6966L501.34116 952.9461L499.08972 952.9461M495.34134 953.6966L497.59277 953.6966L497.59277 952.9461L495.34134 952.9461M491.593 953.6966L493.84442 953.6966L493.84442 952.9461L491.593 952.9461M487.84464 953.6966L490.09607 953.6966L490.09607 952.9461L487.84464 952.9461M484.0963 953.6966L486.34775 953.6966L486.34775 952.9461L484.0963 952.9461M480.34796 953.6966L482.5994 953.6966L482.5994 952.9461L480.34796 952.9461M476.5996 953.6966L478.85104 953.6966L478.85104 952.9461L476.5996 952.9461M472.85123 953.6966L475.10266 953.6966L475.10266 952.9461L472.85123 952.9461M469.10287 953.6966L471.3543 953.6966L471.3543 952.9461L469.10287 952.9461M465.35452 953.6966L467.60596 953.6966L467.60596 952.9461L465.35452 952.9461M461.60617 953.6966L463.8576 953.6966L463.8576 952.9461L461.60617 952.9461M457.85782 953.6966L460.10925 953.6966L460.10925 952.9461L457.85782 952.9461M454.10944 953.6966L456.36087 953.6966L456.36087 952.9461L454.10944 952.9461M450.36115 953.6966L452.61258 953.6966L452.61258 952.9461L450.36115 952.9461M446.61276 953.6966L448.8642 953.6966L448.8642 952.9461L446.61276 952.9461M442.8644 953.6966L445.11584 953.6966L445.11584 952.9461L442.8644 952.9461M439.11606 953.6966L441.3675 953.6966L441.3675 952.9461L439.11606 952.9461M435.3677 953.6966L437.61914 953.6966L437.61914 952.9461L435.3677 952.9461M431.61932 953.6966L433.87076 953.6966L433.87076 952.9461L431.61932 952.9461M427.87097 953.6966L430.1224 953.6966L430.1224 952.9461L427.87097 952.9461M424.12262 953.6966L426.37405 953.6966L426.37405 952.9461L424.12262 952.9461M420.37427 953.6966L422.6257 953.6966L422.6257 952.9461L420.37427 952.9461M416.62592 953.6966L418.87735 953.6966L418.87735 952.9461L416.62592 952.9461M412.87753 953.6966L415.12897 953.6966L415.12897 952.9461L412.87753 952.9461M409.1292 953.6966L411.38065 953.6966L411.38065 952.9461L409.1292 952.9461M405.38086 953.6966L407.6323 953.6966L407.6323 952.9461L405.38086 952.9461M401.63248 953.6966L403.8839 953.6966L403.8839 952.9461L401.63248 952.9461M397.88412 953.6966L400.13556 953.6966L400.13556 952.9461L397.88412 952.9461M394.13577 953.6966L396.3872 953.6966L396.3872 952.9461L394.13577 952.9461M390.38742 953.6966L392.63885 953.6966L392.63885 952.9461L390.38742 952.9461M386.63907 953.6966L388.8905 953.6966L388.8905 952.9461L386.63907 952.9461M382.89072 953.6966L385.14215 953.6966L385.14215 952.9461L382.89072 952.9461M379.14236 953.6966L381.3938 953.6966L381.3938 952.9461L379.14236 952.9461M375.394 953.6966L377.64545 953.6966L377.64545 952.9461L375.394 952.9461M371.64563 953.6966L373.89706 953.6966L373.89706 952.9461L371.64563 952.9461M367.89728 953.6966L370.1487 953.6966L370.1487 952.9461L367.89728 952.9461M364.14896 953.6966L366.4004 953.6966L366.4004 952.9461L364.14896 952.9461M360.40057 953.6966L362.652 953.6966L362.652 952.9461L360.40057 952.9461M356.65222 953.6966L358.90366 953.6966L358.90366 952.9461L356.65222 952.9461M352.90387 953.6966L355.1553 953.6966L355.1553 952.9461L352.90387 952.9461M349.15552 953.6966L351.40695 953.6966L351.40695 952.9461L349.15552 952.9461M345.40717 953.6966L347.65857 953.6966L347.65857 952.9461L345.40717 952.9461M341.6588 953.6966L343.91025 953.6966L343.91025 952.9461L341.6588 952.9461M337.91046 953.6966L340.1619 953.6966L340.1619 952.9461L337.91046 952.9461M334.1621 953.6966L336.41354 953.6966L336.41354 952.9461L334.1621 952.9461M330.41373 953.6966L332.66516 953.6966L332.66516 952.9461L330.41373 952.9461M326.66537 953.6966L328.9168 953.6966L328.9168 952.9461L326.66537 952.9461M322.91702 953.6966L325.16846 953.6966L325.16846 952.9461L322.91702 952.9461M319.16867 953.6966L321.4201 953.6966L321.4201 952.9461L319.16867 952.9461M315.42032 953.6966L317.67175 953.6966L317.67175 952.9461L315.42032 952.9461M311.67197 953.6966L313.9234 953.6966L313.9234 952.9461L311.67197 952.9461M307.9236 953.6966L310.17505 953.6966L310.17505 952.9461L307.9236 952.9461M304.17526 953.6966L306.4267 953.6966L306.4267 952.9461L304.17526 952.9461M300.4269 953.6966L302.67834 953.6966L302.67834 952.9461L300.4269 952.9461M296.67856 953.6966L298.93 953.6966L298.93 952.9461L296.67856 952.9461M292.9302 953.6966L295.18164 953.6966L295.18164 952.9461L292.9302 952.9461M289.18182 953.6966L291.43326 953.6966L291.43326 952.9461L289.18182 952.9461M285.43347 953.6966L287.6849 953.6966L287.6849 952.9461L285.43347 952.9461M281.68512 953.6966L283.93655 953.6966L283.93655 952.9461L281.68512 952.9461M277.93677 953.6966L280.1882 953.6966L280.1882 952.9461L277.93677 952.9461M274.18842 953.6966L276.43985 953.6966L276.43985 952.9461L274.18842 952.9461M270.44006 953.6966L272.6915 953.6966L272.6915 952.9461L270.44006 952.9461M266.6917 953.6966L268.9431 953.6966L268.9431 952.9461L266.6917 952.9461M262.94333 953.6966L265.19476 953.6966L265.19476 952.9461L262.94333 952.9461M259.195 953.6966L261.44644 953.6966L261.44644 952.9461L259.195 952.9461M255.44666 953.6966L257.6981 953.6966L257.6981 952.9461L255.44666 952.9461M251.69829 953.6966L253.94972 953.6966L253.94972 952.9461L251.69829 952.9461M247.94994 953.6966L250.20137 953.6966L250.20137 952.9461L247.94994 952.9461M244.20157 953.6966L246.453 953.6966L246.453 952.9461L244.20157 952.9461M240.45322 953.6966L242.70465 953.6966L242.70465 952.9461L240.45322 952.9461M236.70485 953.6966L238.95628 953.6966L238.95628 952.9461L236.70485 952.9461M232.9565 953.6966L235.20793 953.6966L235.20793 952.9461L232.9565 952.9461M229.20816 953.6966L231.4596 953.6966L231.4596 952.9461L229.20816 952.9461M225.45981 953.6966L227.71124 953.6966L227.71124 952.9461L225.45981 952.9461M221.71144 953.6966L223.96288 953.6966L223.96288 952.9461L221.71144 952.9461M217.96309 953.6966L220.21452 953.6966L220.21452 952.9461L217.96309 952.9461M214.21474 953.6966L216.46617 953.6966L216.46617 952.9461L214.21474 952.9461M210.46637 953.6966L212.7178 953.6966L212.7178 952.9461L210.46637 952.9461M206.71803 953.6966L208.96947 953.6966L208.96947 952.9461L206.71803 952.9461M202.96967 953.6966L205.2211 953.6966L205.2211 952.9461L202.96967 952.9461M199.22131 953.6966L201.47275 953.6966L201.47275 952.9461L199.22131 952.9461M195.47296 953.6966L197.7244 953.6966L197.7244 952.9461L195.47296 952.9461M191.72461 953.6966L193.97604 953.6966L193.97604 952.9461L191.72461 952.9461M187.97624 953.6966L190.22768 953.6966L190.22768 952.9461L187.97624 952.9461M184.2279 953.6966L186.47934 953.6966L186.47934 952.9461L184.2279 952.9461M180.47954 953.6966L182.73097 953.6966L182.73097 952.9461L180.47954 952.9461M176.73119 953.6966L178.98262 953.6966L178.98262 952.9461L176.73119 952.9461M172.98283 953.6966L175.23427 953.6966L175.23427 952.9461L172.98283 952.9461M169.23448 953.6966L171.4859 953.6966L171.4859 952.9461L169.23448 952.9461M165.48613 953.6966L167.73756 953.6966L167.73756 952.9461L165.48613 952.9461M161.73776 953.6966L163.9892 953.6966L163.9892 952.9461L161.73776 952.9461M157.98941 953.6966L160.24084 953.6966L160.24084 952.9461L157.98941 952.9461M154.24104 953.6966L156.49248 953.6966L156.49248 952.9461L154.24104 952.9461M150.49269 953.6966L152.74413 953.6966L152.74413 952.9461L150.49269 952.9461M146.74434 953.6966L148.99577 953.6966L148.99577 952.9461L146.74434 952.9461M142.99599 953.6966L145.24742 953.6966L145.24742 952.9461L142.99599 952.9461M139.24763 953.6966L141.49907 953.6966L141.49907 952.9461L139.24763 952.9461M135.49927 953.6966L137.7507 953.6966L137.7507 952.9461L135.49927 952.9461M131.75092 953.6966L134.00235 953.6966L134.00235 952.9461L131.75092 952.9461M128.00256 953.6966L130.254 953.6966L130.254 952.9461L128.00256 952.9461M124.25421 953.6966L126.505646 953.6966L126.505646 952.9461L124.25421 952.9461M120.50586 953.6966L122.75729 953.6966L122.75729 952.9461L120.50586 952.9461M116.75751 953.6966L119.00894 953.6966L119.00894 952.9461L116.75751 952.9461M113.00915 953.6966L115.26058 953.6966L115.26058 952.9461L113.00915 952.9461M109.260796 953.6966L111.51223 953.6966L111.51223 952.9461L109.260796 952.9461M105.51244 953.6966L107.76388 953.6966L107.76388 952.9461L105.51244 952.9461M101.764084 953.6966L104.01552 953.6966L104.01552 952.9461L101.764084 952.9461M98.01573 953.6966L100.26716 953.6966L100.26716 952.9461L98.01573 952.9461M94.26737 953.6966L96.51881 953.6966L96.51881 952.9461L94.26737 952.9461M90.51901 953.6966L92.77045 953.6966L92.77045 952.9461L90.51901 952.9461M86.77066 953.6966L89.022095 953.6966L89.022095 952.9461L86.77066 952.9461M83.02231 953.6966L85.27374 953.6966L85.27374 952.9461L83.02231 952.9461M79.27396 953.6966L81.52539 953.6966L81.52539 952.9461L79.27396 952.9461M75.5256 953.6966L77.77703 953.6966L77.77703 952.9461L75.5256 952.9461M71.777245 953.6966L74.02868 953.6966L74.02868 952.9461L71.777245 952.9461" stroke="none" fill="#AEAEAE" fill-rule="nonzero" /></g><g clip-path="url(#6)"></g><g clip-path="url(#7)"><path id="104" transform="matrix(1 0 0 -1 0 1192)" d="M768.97125 814.10767L771.2227 814.10767L771.2227 813.3572L768.97125 813.3572M765.2229 814.10767L767.47437 814.10767L767.47437 813.3572L765.2229 813.3572M761.47455 814.10767L763.726 814.10767L763.726 813.3572L761.47455 813.3572M757.7262 814.10767L759.97766 814.10767L759.97766 813.3572L757.7262 813.3572M753.97784 814.10767L756.22925 814.10767L756.22925 813.3572L753.97784 813.3572M750.2295 814.10767L752.4809 814.10767L752.4809 813.3572L750.2295 813.3572M746.48114 814.10767L748.7326 814.10767L748.7326 813.3572L746.48114 813.3572M742.7328 814.10767L744.98425 814.10767L744.98425 813.3572L742.7328 813.3572M738.98444 814.10767L741.2359 814.10767L741.2359 813.3572L738.98444 813.3572M735.2361 814.10767L737.48755 814.10767L737.48755 813.3572L735.2361 813.3572M731.48773 814.10767L733.7392 814.10767L733.7392 813.3572L731.48773 813.3572M727.7394 814.10767L729.9908 814.10767L729.9908 813.3572L727.7394 813.3572M723.991 814.10767L726.24243 814.10767L726.24243 813.3572L723.991 813.3572M720.2427 814.10767L722.4941 814.10767L722.4941 813.3572L720.2427 813.3572M716.4943 814.10767L718.7457 814.10767L718.7457 813.3572L716.4943 813.3572M712.7459 814.10767L714.9974 814.10767L714.9974 813.3572L712.7459 813.3572M708.99756 814.10767L711.249 814.10767L711.249 813.3572L708.99756 813.3572M705.2492 814.10767L707.5007 814.10767L707.5007 813.3572L705.2492 813.3572M701.5009 814.10767L703.7523 814.10767L703.7523 813.3572L701.5009 813.3572M697.75256 814.10767L700.00397 814.10767L700.00397 813.3572L697.75256 813.3572M694.0042 814.10767L696.2556 814.10767L696.2556 813.3572L694.0042 813.3572M690.25586 814.10767L692.50726 814.10767L692.50726 813.3572L690.25586 813.3572M686.50745 814.10767L688.7589 814.10767L688.7589 813.3572L686.50745 813.3572M682.7591 814.10767L685.01056 814.10767L685.01056 813.3572L682.7591 813.3572M679.01074 814.10767L681.2622 814.10767L681.2622 813.3572L679.01074 813.3572M675.2624 814.10767L677.51385 814.10767L677.51385 813.3572L675.2624 813.3572M671.51404 814.10767L673.76544 814.10767L673.76544 813.3572L671.51404 813.3572M667.7657 814.10767L670.0171 814.10767L670.0171 813.3572L667.7657 813.3572M664.01733 814.10767L666.26874 814.10767L666.26874 813.3572L664.01733 813.3572M660.269 814.10767L662.52045 814.10767L662.52045 813.3572L660.269 813.3572M656.5206 814.10767L658.7721 814.10767L658.7721 813.3572L656.5206 813.3572M652.7723 814.10767L655.02374 814.10767L655.02374 813.3572L652.7723 813.3572M649.0239 814.10767L651.2754 814.10767L651.2754 813.3572L649.0239 813.3572M645.2756 814.10767L647.527 814.10767L647.527 813.3572L645.2756 813.3572M641.5272 814.10767L643.7786 814.10767L643.7786 813.3572L641.5272 813.3572M637.7789 814.10767L640.0303 814.10767L640.0303 813.3572L637.7789 813.3572M634.0305 814.10767L636.2819 814.10767L636.2819 813.3572L634.0305 813.3572M630.2821 814.10767L632.53357 814.10767L632.53357 813.3572L630.2821 813.3572M626.53375 814.10767L628.7852 814.10767L628.7852 813.3572L626.53375 813.3572M622.7854 814.10767L625.03687 814.10767L625.03687 813.3572L622.7854 813.3572M619.03705 814.10767L621.2885 814.10767L621.2885 813.3572L619.03705 813.3572M615.28876 814.10767L617.54016 814.10767L617.54016 813.3572L615.28876 813.3572M611.5404 814.10767L613.7918 814.10767L613.7918 813.3572L611.5404 813.3572M607.79205 814.10767L610.04346 814.10767L610.04346 813.3572L607.79205 813.3572M604.04364 814.10767L606.2951 814.10767L606.2951 813.3572L604.04364 813.3572M600.2953 814.10767L602.54675 814.10767L602.54675 813.3572L600.2953 813.3572M596.54694 814.10767L598.7984 814.10767L598.7984 813.3572L596.54694 813.3572M592.7986 814.10767L595.05005 814.10767L595.05005 813.3572L592.7986 813.3572M589.05023 814.10767L591.30164 814.10767L591.30164 813.3572L589.05023 813.3572M585.3019 814.10767L587.5533 814.10767L587.5533 813.3572L585.3019 813.3572M581.5535 814.10767L583.80493 814.10767L583.80493 813.3572L581.5535 813.3572M577.8052 814.10767L580.0566 814.10767L580.0566 813.3572L577.8052 813.3572M574.0568 814.10767L576.3082 814.10767L576.3082 813.3572L574.0568 813.3572M570.3085 814.10767L572.55994 814.10767L572.55994 813.3572L570.3085 813.3572M566.5601 814.10767L568.8116 814.10767L568.8116 813.3572L566.5601 813.3572M562.81177 814.10767L565.0632 814.10767L565.0632 813.3572L562.81177 813.3572M559.0634 814.10767L561.3148 814.10767L561.3148 813.3572L559.0634 813.3572M555.31506 814.10767L557.56647 814.10767L557.56647 813.3572L555.31506 813.3572M551.5667 814.10767L553.8181 814.10767L553.8181 813.3572L551.5667 813.3572M547.8183 814.10767L550.06976 814.10767L550.06976 813.3572L547.8183 813.3572M544.06995 814.10767L546.3214 814.10767L546.3214 813.3572L544.06995 813.3572M540.3216 814.10767L542.57306 814.10767L542.57306 813.3572L540.3216 813.3572M536.57324 814.10767L538.82465 814.10767L538.82465 813.3572L536.57324 813.3572M532.8249 814.10767L535.0763 814.10767L535.0763 813.3572L532.8249 813.3572M529.07654 814.10767L531.328 814.10767L531.328 813.3572L529.07654 813.3572M525.3282 814.10767L527.57965 814.10767L527.57965 813.3572L525.3282 813.3572M521.57983 814.10767L523.8313 814.10767L523.8313 813.3572L521.57983 813.3572M517.8315 814.10767L520.08295 814.10767L520.08295 813.3572L517.8315 813.3572M514.0831 814.10767L516.33453 814.10767L516.33453 813.3572L514.0831 813.3572M510.33478 814.10767L512.5862 814.10767L512.5862 813.3572L510.33478 813.3572M506.58643 814.10767L508.83786 814.10767L508.83786 813.3572L506.58643 813.3572M502.83807 814.10767L505.0895 814.10767L505.0895 813.3572L502.83807 813.3572M499.08972 814.10767L501.34116 814.10767L501.34116 813.3572L499.08972 813.3572M495.34134 814.10767L497.59277 814.10767L497.59277 813.3572L495.34134 813.3572M491.593 814.10767L493.84442 814.10767L493.84442 813.3572L491.593 813.3572M487.84464 814.10767L490.09607 814.10767L490.09607 813.3572L487.84464 813.3572M484.0963 814.10767L486.34775 814.10767L486.34775 813.3572L484.0963 813.3572M480.34796 814.10767L482.5994 814.10767L482.5994 813.3572L480.34796 813.3572M476.5996 814.10767L478.85104 814.10767L478.85104 813.3572L476.5996 813.3572M472.85123 814.10767L475.10266 814.10767L475.10266 813.3572L472.85123 813.3572M469.10287 814.10767L471.3543 814.10767L471.3543 813.3572L469.10287 813.3572M465.35452 814.10767L467.60596 814.10767L467.60596 813.3572L465.35452 813.3572M461.60617 814.10767L463.8576 814.10767L463.8576 813.3572L461.60617 813.3572M457.85782 814.10767L460.10925 814.10767L460.10925 813.3572L457.85782 813.3572M454.10944 814.10767L456.36087 814.10767L456.36087 813.3572L454.10944 813.3572M450.36115 814.10767L452.61258 814.10767L452.61258 813.3572L450.36115 813.3572M446.61276 814.10767L448.8642 814.10767L448.8642 813.3572L446.61276 813.3572M442.8644 814.10767L445.11584 814.10767L445.11584 813.3572L442.8644 813.3572M439.11606 814.10767L441.3675 814.10767L441.3675 813.3572L439.11606 813.3572M435.3677 814.10767L437.61914 814.10767L437.61914 813.3572L435.3677 813.3572M431.61932 814.10767L433.87076 814.10767L433.87076 813.3572L431.61932 813.3572M427.87097 814.10767L430.1224 814.10767L430.1224 813.3572L427.87097 813.3572M424.12262 814.10767L426.37405 814.10767L426.37405 813.3572L424.12262 813.3572M420.37427 814.10767L422.6257 814.10767L422.6257 813.3572L420.37427 813.3572M416.62592 814.10767L418.87735 814.10767L418.87735 813.3572L416.62592 813.3572M412.87753 814.10767L415.12897 814.10767L415.12897 813.3572L412.87753 813.3572M409.1292 814.10767L411.38065 814.10767L411.38065 813.3572L409.1292 813.3572M405.38086 814.10767L407.6323 814.10767L407.6323 813.3572L405.38086 813.3572M401.63248 814.10767L403.8839 814.10767L403.8839 813.3572L401.63248 813.3572M397.88412 814.10767L400.13556 814.10767L400.13556 813.3572L397.88412 813.3572M394.13577 814.10767L396.3872 814.10767L396.3872 813.3572L394.13577 813.3572M390.38742 814.10767L392.63885 814.10767L392.63885 813.3572L390.38742 813.3572M386.63907 814.10767L388.8905 814.10767L388.8905 813.3572L386.63907 813.3572M382.89072 814.10767L385.14215 814.10767L385.14215 813.3572L382.89072 813.3572M379.14236 814.10767L381.3938 814.10767L381.3938 813.3572L379.14236 813.3572M375.394 814.10767L377.64545 814.10767L377.64545 813.3572L375.394 813.3572M371.64563 814.10767L373.89706 814.10767L373.89706 813.3572L371.64563 813.3572M367.89728 814.10767L370.1487 814.10767L370.1487 813.3572L367.89728 813.3572M364.14896 814.10767L366.4004 814.10767L366.4004 813.3572L364.14896 813.3572M360.40057 814.10767L362.652 814.10767L362.652 813.3572L360.40057 813.3572M356.65222 814.10767L358.90366 814.10767L358.90366 813.3572L356.65222 813.3572M352.90387 814.10767L355.1553 814.10767L355.1553 813.3572L352.90387 813.3572M349.15552 814.10767L351.40695 814.10767L351.40695 813.3572L349.15552 813.3572M345.40717 814.10767L347.65857 814.10767L347.65857 813.3572L345.40717 813.3572M341.6588 814.10767L343.91025 814.10767L343.91025 813.3572L341.6588 813.3572M337.91046 814.10767L340.1619 814.10767L340.1619 813.3572L337.91046 813.3572M334.1621 814.10767L336.41354 814.10767L336.41354 813.3572L334.1621 813.3572M330.41373 814.10767L332.66516 814.10767L332.66516 813.3572L330.41373 813.3572M326.66537 814.10767L328.9168 814.10767L328.9168 813.3572L326.66537 813.3572M322.91702 814.10767L325.16846 814.10767L325.16846 813.3572L322.91702 813.3572M319.16867 814.10767L321.4201 814.10767L321.4201 813.3572L319.16867 813.3572M315.42032 814.10767L317.67175 814.10767L317.67175 813.3572L315.42032 813.3572M311.67197 814.10767L313.9234 814.10767L313.9234 813.3572L311.67197 813.3572M307.9236 814.10767L310.17505 814.10767L310.17505 813.3572L307.9236 813.3572M304.17526 814.10767L306.4267 814.10767L306.4267 813.3572L304.17526 813.3572M300.4269 814.10767L302.67834 814.10767L302.67834 813.3572L300.4269 813.3572M296.67856 814.10767L298.93 814.10767L298.93 813.3572L296.67856 813.3572M292.9302 814.10767L295.18164 814.10767L295.18164 813.3572L292.9302 813.3572M289.18182 814.10767L291.43326 814.10767L291.43326 813.3572L289.18182 813.3572M285.43347 814.10767L287.6849 814.10767L287.6849 813.3572L285.43347 813.3572M281.68512 814.10767L283.93655 814.10767L283.93655 813.3572L281.68512 813.3572M277.93677 814.10767L280.1882 814.10767L280.1882 813.3572L277.93677 813.3572M274.18842 814.10767L276.43985 814.10767L276.43985 813.3572L274.18842 813.3572M270.44006 814.10767L272.6915 814.10767L272.6915 813.3572L270.44006 813.3572M266.6917 814.10767L268.9431 814.10767L268.9431 813.3572L266.6917 813.3572M262.94333 814.10767L265.19476 814.10767L265.19476 813.3572L262.94333 813.3572M259.195 814.10767L261.44644 814.10767L261.44644 813.3572L259.195 813.3572M255.44666 814.10767L257.6981 814.10767L257.6981 813.3572L255.44666 813.3572M251.69829 814.10767L253.94972 814.10767L253.94972 813.3572L251.69829 813.3572M247.94994 814.10767L250.20137 814.10767L250.20137 813.3572L247.94994 813.3572M244.20157 814.10767L246.453 814.10767L246.453 813.3572L244.20157 813.3572M240.45322 814.10767L242.70465 814.10767L242.70465 813.3572L240.45322 813.3572M236.70485 814.10767L238.95628 814.10767L238.95628 813.3572L236.70485 813.3572M232.9565 814.10767L235.20793 814.10767L235.20793 813.3572L232.9565 813.3572M229.20816 814.10767L231.4596 814.10767L231.4596 813.3572L229.20816 813.3572M225.45981 814.10767L227.71124 814.10767L227.71124 813.3572L225.45981 813.3572M221.71144 814.10767L223.96288 814.10767L223.96288 813.3572L221.71144 813.3572M217.96309 814.10767L220.21452 814.10767L220.21452 813.3572L217.96309 813.3572M214.21474 814.10767L216.46617 814.10767L216.46617 813.3572L214.21474 813.3572M210.46637 814.10767L212.7178 814.10767L212.7178 813.3572L210.46637 813.3572M206.71803 814.10767L208.96947 814.10767L208.96947 813.3572L206.71803 813.3572M202.96967 814.10767L205.2211 814.10767L205.2211 813.3572L202.96967 813.3572M199.22131 814.10767L201.47275 814.10767L201.47275 813.3572L199.22131 813.3572M195.47296 814.10767L197.7244 814.10767L197.7244 813.3572L195.47296 813.3572M191.72461 814.10767L193.97604 814.10767L193.97604 813.3572L191.72461 813.3572M187.97624 814.10767L190.22768 814.10767L190.22768 813.3572L187.97624 813.3572M184.2279 814.10767L186.47934 814.10767L186.47934 813.3572L184.2279 813.3572M180.47954 814.10767L182.73097 814.10767L182.73097 813.3572L180.47954 813.3572M176.73119 814.10767L178.98262 814.10767L178.98262 813.3572L176.73119 813.3572M172.98283 814.10767L175.23427 814.10767L175.23427 813.3572L172.98283 813.3572M169.23448 814.10767L171.4859 814.10767L171.4859 813.3572L169.23448 813.3572M165.48613 814.10767L167.73756 814.10767L167.73756 813.3572L165.48613 813.3572M161.73776 814.10767L163.9892 814.10767L163.9892 813.3572L161.73776 813.3572M157.98941 814.10767L160.24084 814.10767L160.24084 813.3572L157.98941 813.3572M154.24104 814.10767L156.49248 814.10767L156.49248 813.3572L154.24104 813.3572M150.49269 814.10767L152.74413 814.10767L152.74413 813.3572L150.49269 813.3572M146.74434 814.10767L148.99577 814.10767L148.99577 813.3572L146.74434 813.3572M142.99599 814.10767L145.24742 814.10767L145.24742 813.3572L142.99599 813.3572M139.24763 814.10767L141.49907 814.10767L141.49907 813.3572L139.24763 813.3572M135.49927 814.10767L137.7507 814.10767L137.7507 813.3572L135.49927 813.3572M131.75092 814.10767L134.00235 814.10767L134.00235 813.3572L131.75092 813.3572M128.00256 814.10767L130.254 814.10767L130.254 813.3572L128.00256 813.3572M124.25421 814.10767L126.505646 814.10767L126.505646 813.3572L124.25421 813.3572M120.50586 814.10767L122.75729 814.10767L122.75729 813.3572L120.50586 813.3572M116.75751 814.10767L119.00894 814.10767L119.00894 813.3572L116.75751 813.3572M113.00915 814.10767L115.26058 814.10767L115.26058 813.3572L113.00915 813.3572M109.260796 814.10767L111.51223 814.10767L111.51223 813.3572L109.260796 813.3572M105.51244 814.10767L107.76388 814.10767L107.76388 813.3572L105.51244 813.3572M101.764084 814.10767L104.01552 814.10767L104.01552 813.3572L101.764084 813.3572M98.01573 814.10767L100.26716 814.10767L100.26716 813.3572L98.01573 813.3572M94.26737 814.10767L96.51881 814.10767L96.51881 813.3572L94.26737 813.3572M90.51901 814.10767L92.77045 814.10767L92.77045 813.3572L90.51901 813.3572M86.77066 814.10767L89.022095 814.10767L89.022095 813.3572L86.77066 813.3572M83.02231 814.10767L85.27374 814.10767L85.27374 813.3572L83.02231 813.3572M79.27396 814.10767L81.52539 814.10767L81.52539 813.3572L79.27396 813.3572M75.5256 814.10767L77.77703 814.10767L77.77703 813.3572L75.5256 813.3572M71.777245 814.10767L74.02868 814.10767L74.02868 813.3572L71.777245 813.3572" stroke="none" fill="#AEAEAE" fill-rule="nonzero" /></g><g clip-path="url(#8)"></g><g clip-path="url(#9)"><path id="120" transform="matrix(1 0 0 -1 0 1192)" d="M768.97125 614.4805L771.2227 614.4805L771.2227 613.73004L768.97125 613.73004M765.2229 614.4805L767.47437 614.4805L767.47437 613.73004L765.2229 613.73004M761.47455 614.4805L763.726 614.4805L763.726 613.73004L761.47455 613.73004M757.7262 614.4805L759.97766 614.4805L759.97766 613.73004L757.7262 613.73004M753.97784 614.4805L756.22925 614.4805L756.22925 613.73004L753.97784 613.73004M750.2295 614.4805L752.4809 614.4805L752.4809 613.73004L750.2295 613.73004M746.48114 614.4805L748.7326 614.4805L748.7326 613.73004L746.48114 613.73004M742.7328 614.4805L744.98425 614.4805L744.98425 613.73004L742.7328 613.73004M738.98444 614.4805L741.2359 614.4805L741.2359 613.73004L738.98444 613.73004M735.2361 614.4805L737.48755 614.4805L737.48755 613.73004L735.2361 613.73004M731.48773 614.4805L733.7392 614.4805L733.7392 613.73004L731.48773 613.73004M727.7394 614.4805L729.9908 614.4805L729.9908 613.73004L727.7394 613.73004M723.991 614.4805L726.24243 614.4805L726.24243 613.73004L723.991 613.73004M720.2427 614.4805L722.4941 614.4805L722.4941 613.73004L720.2427 613.73004M716.4943 614.4805L718.7457 614.4805L718.7457 613.73004L716.4943 613.73004M712.7459 614.4805L714.9974 614.4805L714.9974 613.73004L712.7459 613.73004M708.99756 614.4805L711.249 614.4805L711.249 613.73004L708.99756 613.73004M705.2492 614.4805L707.5007 614.4805L707.5007 613.73004L705.2492 613.73004M701.5009 614.4805L703.7523 614.4805L703.7523 613.73004L701.5009 613.73004M697.75256 614.4805L700.00397 614.4805L700.00397 613.73004L697.75256 613.73004M694.0042 614.4805L696.2556 614.4805L696.2556 613.73004L694.0042 613.73004M690.25586 614.4805L692.50726 614.4805L692.50726 613.73004L690.25586 613.73004M686.50745 614.4805L688.7589 614.4805L688.7589 613.73004L686.50745 613.73004M682.7591 614.4805L685.01056 614.4805L685.01056 613.73004L682.7591 613.73004M679.01074 614.4805L681.2622 614.4805L681.2622 613.73004L679.01074 613.73004M675.2624 614.4805L677.51385 614.4805L677.51385 613.73004L675.2624 613.73004M671.51404 614.4805L673.76544 614.4805L673.76544 613.73004L671.51404 613.73004M667.7657 614.4805L670.0171 614.4805L670.0171 613.73004L667.7657 613.73004M664.01733 614.4805L666.26874 614.4805L666.26874 613.73004L664.01733 613.73004M660.269 614.4805L662.52045 614.4805L662.52045 613.73004L660.269 613.73004M656.5206 614.4805L658.7721 614.4805L658.7721 613.73004L656.5206 613.73004M652.7723 614.4805L655.02374 614.4805L655.02374 613.73004L652.7723 613.73004M649.0239 614.4805L651.2754 614.4805L651.2754 613.73004L649.0239 613.73004M645.2756 614.4805L647.527 614.4805L647.527 613.73004L645.2756 613.73004M641.5272 614.4805L643.7786 614.4805L643.7786 613.73004L641.5272 613.73004M637.7789 614.4805L640.0303 614.4805L640.0303 613.73004L637.7789 613.73004M634.0305 614.4805L636.2819 614.4805L636.2819 613.73004L634.0305 613.73004M630.2821 614.4805L632.53357 614.4805L632.53357 613.73004L630.2821 613.73004M626.53375 614.4805L628.7852 614.4805L628.7852 613.73004L626.53375 613.73004M622.7854 614.4805L625.03687 614.4805L625.03687 613.73004L622.7854 613.73004M619.03705 614.4805L621.2885 614.4805L621.2885 613.73004L619.03705 613.73004M615.28876 614.4805L617.54016 614.4805L617.54016 613.73004L615.28876 613.73004M611.5404 614.4805L613.7918 614.4805L613.7918 613.73004L611.5404 613.73004M607.79205 614.4805L610.04346 614.4805L610.04346 613.73004L607.79205 613.73004M604.04364 614.4805L606.2951 614.4805L606.2951 613.73004L604.04364 613.73004M600.2953 614.4805L602.54675 614.4805L602.54675 613.73004L600.2953 613.73004M596.54694 614.4805L598.7984 614.4805L598.7984 613.73004L596.54694 613.73004M592.7986 614.4805L595.05005 614.4805L595.05005 613.73004L592.7986 613.73004M589.05023 614.4805L591.30164 614.4805L591.30164 613.73004L589.05023 613.73004M585.3019 614.4805L587.5533 614.4805L587.5533 613.73004L585.3019 613.73004M581.5535 614.4805L583.80493 614.4805L583.80493 613.73004L581.5535 613.73004M577.8052 614.4805L580.0566 614.4805L580.0566 613.73004L577.8052 613.73004M574.0568 614.4805L576.3082 614.4805L576.3082 613.73004L574.0568 613.73004M570.3085 614.4805L572.55994 614.4805L572.55994 613.73004L570.3085 613.73004M566.5601 614.4805L568.8116 614.4805L568.8116 613.73004L566.5601 613.73004M562.81177 614.4805L565.0632 614.4805L565.0632 613.73004L562.81177 613.73004M559.0634 614.4805L561.3148 614.4805L561.3148 613.73004L559.0634 613.73004M555.31506 614.4805L557.56647 614.4805L557.56647 613.73004L555.31506 613.73004M551.5667 614.4805L553.8181 614.4805L553.8181 613.73004L551.5667 613.73004M547.8183 614.4805L550.06976 614.4805L550.06976 613.73004L547.8183 613.73004M544.06995 614.4805L546.3214 614.4805L546.3214 613.73004L544.06995 613.73004M540.3216 614.4805L542.57306 614.4805L542.57306 613.73004L540.3216 613.73004M536.57324 614.4805L538.82465 614.4805L538.82465 613.73004L536.57324 613.73004M532.8249 614.4805L535.0763 614.4805L535.0763 613.73004L532.8249 613.73004M529.07654 614.4805L531.328 614.4805L531.328 613.73004L529.07654 613.73004M525.3282 614.4805L527.57965 614.4805L527.57965 613.73004L525.3282 613.73004M521.57983 614.4805L523.8313 614.4805L523.8313 613.73004L521.57983 613.73004M517.8315 614.4805L520.08295 614.4805L520.08295 613.73004L517.8315 613.73004M514.0831 614.4805L516.33453 614.4805L516.33453 613.73004L514.0831 613.73004M510.33478 614.4805L512.5862 614.4805L512.5862 613.73004L510.33478 613.73004M506.58643 614.4805L508.83786 614.4805L508.83786 613.73004L506.58643 613.73004M502.83807 614.4805L505.0895 614.4805L505.0895 613.73004L502.83807 613.73004M499.08972 614.4805L501.34116 614.4805L501.34116 613.73004L499.08972 613.73004M495.34134 614.4805L497.59277 614.4805L497.59277 613.73004L495.34134 613.73004M491.593 614.4805L493.84442 614.4805L493.84442 613.73004L491.593 613.73004M487.84464 614.4805L490.09607 614.4805L490.09607 613.73004L487.84464 613.73004M484.0963 614.4805L486.34775 614.4805L486.34775 613.73004L484.0963 613.73004M480.34796 614.4805L482.5994 614.4805L482.5994 613.73004L480.34796 613.73004M476.5996 614.4805L478.85104 614.4805L478.85104 613.73004L476.5996 613.73004M472.85123 614.4805L475.10266 614.4805L475.10266 613.73004L472.85123 613.73004M469.10287 614.4805L471.3543 614.4805L471.3543 613.73004L469.10287 613.73004M465.35452 614.4805L467.60596 614.4805L467.60596 613.73004L465.35452 613.73004M461.60617 614.4805L463.8576 614.4805L463.8576 613.73004L461.60617 613.73004M457.85782 614.4805L460.10925 614.4805L460.10925 613.73004L457.85782 613.73004M454.10944 614.4805L456.36087 614.4805L456.36087 613.73004L454.10944 613.73004M450.36115 614.4805L452.61258 614.4805L452.61258 613.73004L450.36115 613.73004M446.61276 614.4805L448.8642 614.4805L448.8642 613.73004L446.61276 613.73004M442.8644 614.4805L445.11584 614.4805L445.11584 613.73004L442.8644 613.73004M439.11606 614.4805L441.3675 614.4805L441.3675 613.73004L439.11606 613.73004M435.3677 614.4805L437.61914 614.4805L437.61914 613.73004L435.3677 613.73004M431.61932 614.4805L433.87076 614.4805L433.87076 613.73004L431.61932 613.73004M427.87097 614.4805L430.1224 614.4805L430.1224 613.73004L427.87097 613.73004M424.12262 614.4805L426.37405 614.4805L426.37405 613.73004L424.12262 613.73004M420.37427 614.4805L422.6257 614.4805L422.6257 613.73004L420.37427 613.73004M416.62592 614.4805L418.87735 614.4805L418.87735 613.73004L416.62592 613.73004M412.87753 614.4805L415.12897 614.4805L415.12897 613.73004L412.87753 613.73004M409.1292 614.4805L411.38065 614.4805L411.38065 613.73004L409.1292 613.73004M405.38086 614.4805L407.6323 614.4805L407.6323 613.73004L405.38086 613.73004M401.63248 614.4805L403.8839 614.4805L403.8839 613.73004L401.63248 613.73004M397.88412 614.4805L400.13556 614.4805L400.13556 613.73004L397.88412 613.73004M394.13577 614.4805L396.3872 614.4805L396.3872 613.73004L394.13577 613.73004M390.38742 614.4805L392.63885 614.4805L392.63885 613.73004L390.38742 613.73004M386.63907 614.4805L388.8905 614.4805L388.8905 613.73004L386.63907 613.73004M382.89072 614.4805L385.14215 614.4805L385.14215 613.73004L382.89072 613.73004M379.14236 614.4805L381.3938 614.4805L381.3938 613.73004L379.14236 613.73004M375.394 614.4805L377.64545 614.4805L377.64545 613.73004L375.394 613.73004M371.64563 614.4805L373.89706 614.4805L373.89706 613.73004L371.64563 613.73004M367.89728 614.4805L370.1487 614.4805L370.1487 613.73004L367.89728 613.73004M364.14896 614.4805L366.4004 614.4805L366.4004 613.73004L364.14896 613.73004M360.40057 614.4805L362.652 614.4805L362.652 613.73004L360.40057 613.73004M356.65222 614.4805L358.90366 614.4805L358.90366 613.73004L356.65222 613.73004M352.90387 614.4805L355.1553 614.4805L355.1553 613.73004L352.90387 613.73004M349.15552 614.4805L351.40695 614.4805L351.40695 613.73004L349.15552 613.73004M345.40717 614.4805L347.65857 614.4805L347.65857 613.73004L345.40717 613.73004M341.6588 614.4805L343.91025 614.4805L343.91025 613.73004L341.6588 613.73004M337.91046 614.4805L340.1619 614.4805L340.1619 613.73004L337.91046 613.73004M334.1621 614.4805L336.41354 614.4805L336.41354 613.73004L334.1621 613.73004M330.41373 614.4805L332.66516 614.4805L332.66516 613.73004L330.41373 613.73004M326.66537 614.4805L328.9168 614.4805L328.9168 613.73004L326.66537 613.73004M322.91702 614.4805L325.16846 614.4805L325.16846 613.73004L322.91702 613.73004M319.16867 614.4805L321.4201 614.4805L321.4201 613.73004L319.16867 613.73004M315.42032 614.4805L317.67175 614.4805L317.67175 613.73004L315.42032 613.73004M311.67197 614.4805L313.9234 614.4805L313.9234 613.73004L311.67197 613.73004M307.9236 614.4805L310.17505 614.4805L310.17505 613.73004L307.9236 613.73004M304.17526 614.4805L306.4267 614.4805L306.4267 613.73004L304.17526 613.73004M300.4269 614.4805L302.67834 614.4805L302.67834 613.73004L300.4269 613.73004M296.67856 614.4805L298.93 614.4805L298.93 613.73004L296.67856 613.73004M292.9302 614.4805L295.18164 614.4805L295.18164 613.73004L292.9302 613.73004M289.18182 614.4805L291.43326 614.4805L291.43326 613.73004L289.18182 613.73004M285.43347 614.4805L287.6849 614.4805L287.6849 613.73004L285.43347 613.73004M281.68512 614.4805L283.93655 614.4805L283.93655 613.73004L281.68512 613.73004M277.93677 614.4805L280.1882 614.4805L280.1882 613.73004L277.93677 613.73004M274.18842 614.4805L276.43985 614.4805L276.43985 613.73004L274.18842 613.73004M270.44006 614.4805L272.6915 614.4805L272.6915 613.73004L270.44006 613.73004M266.6917 614.4805L268.9431 614.4805L268.9431 613.73004L266.6917 613.73004M262.94333 614.4805L265.19476 614.4805L265.19476 613.73004L262.94333 613.73004M259.195 614.4805L261.44644 614.4805L261.44644 613.73004L259.195 613.73004M255.44666 614.4805L257.6981 614.4805L257.6981 613.73004L255.44666 613.73004M251.69829 614.4805L253.94972 614.4805L253.94972 613.73004L251.69829 613.73004M247.94994 614.4805L250.20137 614.4805L250.20137 613.73004L247.94994 613.73004M244.20157 614.4805L246.453 614.4805L246.453 613.73004L244.20157 613.73004M240.45322 614.4805L242.70465 614.4805L242.70465 613.73004L240.45322 613.73004M236.70485 614.4805L238.95628 614.4805L238.95628 613.73004L236.70485 613.73004M232.9565 614.4805L235.20793 614.4805L235.20793 613.73004L232.9565 613.73004M229.20816 614.4805L231.4596 614.4805L231.4596 613.73004L229.20816 613.73004M225.45981 614.4805L227.71124 614.4805L227.71124 613.73004L225.45981 613.73004M221.71144 614.4805L223.96288 614.4805L223.96288 613.73004L221.71144 613.73004M217.96309 614.4805L220.21452 614.4805L220.21452 613.73004L217.96309 613.73004M214.21474 614.4805L216.46617 614.4805L216.46617 613.73004L214.21474 613.73004M210.46637 614.4805L212.7178 614.4805L212.7178 613.73004L210.46637 613.73004M206.71803 614.4805L208.96947 614.4805L208.96947 613.73004L206.71803 613.73004M202.96967 614.4805L205.2211 614.4805L205.2211 613.73004L202.96967 613.73004M199.22131 614.4805L201.47275 614.4805L201.47275 613.73004L199.22131 613.73004M195.47296 614.4805L197.7244 614.4805L197.7244 613.73004L195.47296 613.73004M191.72461 614.4805L193.97604 614.4805L193.97604 613.73004L191.72461 613.73004M187.97624 614.4805L190.22768 614.4805L190.22768 613.73004L187.97624 613.73004M184.2279 614.4805L186.47934 614.4805L186.47934 613.73004L184.2279 613.73004M180.47954 614.4805L182.73097 614.4805L182.73097 613.73004L180.47954 613.73004M176.73119 614.4805L178.98262 614.4805L178.98262 613.73004L176.73119 613.73004M172.98283 614.4805L175.23427 614.4805L175.23427 613.73004L172.98283 613.73004M169.23448 614.4805L171.4859 614.4805L171.4859 613.73004L169.23448 613.73004M165.48613 614.4805L167.73756 614.4805L167.73756 613.73004L165.48613 613.73004M161.73776 614.4805L163.9892 614.4805L163.9892 613.73004L161.73776 613.73004M157.98941 614.4805L160.24084 614.4805L160.24084 613.73004L157.98941 613.73004M154.24104 614.4805L156.49248 614.4805L156.49248 613.73004L154.24104 613.73004M150.49269 614.4805L152.74413 614.4805L152.74413 613.73004L150.49269 613.73004M146.74434 614.4805L148.99577 614.4805L148.99577 613.73004L146.74434 613.73004M142.99599 614.4805L145.24742 614.4805L145.24742 613.73004L142.99599 613.73004M139.24763 614.4805L141.49907 614.4805L141.49907 613.73004L139.24763 613.73004M135.49927 614.4805L137.7507 614.4805L137.7507 613.73004L135.49927 613.73004M131.75092 614.4805L134.00235 614.4805L134.00235 613.73004L131.75092 613.73004M128.00256 614.4805L130.254 614.4805L130.254 613.73004L128.00256 613.73004M124.25421 614.4805L126.505646 614.4805L126.505646 613.73004L124.25421 613.73004M120.50586 614.4805L122.75729 614.4805L122.75729 613.73004L120.50586 613.73004M116.75751 614.4805L119.00894 614.4805L119.00894 613.73004L116.75751 613.73004M113.00915 614.4805L115.26058 614.4805L115.26058 613.73004L113.00915 613.73004M109.260796 614.4805L111.51223 614.4805L111.51223 613.73004L109.260796 613.73004M105.51244 614.4805L107.76388 614.4805L107.76388 613.73004L105.51244 613.73004M101.764084 614.4805L104.01552 614.4805L104.01552 613.73004L101.764084 613.73004M98.01573 614.4805L100.26716 614.4805L100.26716 613.73004L98.01573 613.73004M94.26737 614.4805L96.51881 614.4805L96.51881 613.73004L94.26737 613.73004M90.51901 614.4805L92.77045 614.4805L92.77045 613.73004L90.51901 613.73004M86.77066 614.4805L89.022095 614.4805L89.022095 613.73004L86.77066 613.73004M83.02231 614.4805L85.27374 614.4805L85.27374 613.73004L83.02231 613.73004M79.27396 614.4805L81.52539 614.4805L81.52539 613.73004L79.27396 613.73004M75.5256 614.4805L77.77703 614.4805L77.77703 613.73004L75.5256 613.73004M71.777245 614.4805L74.02868 614.4805L74.02868 613.73004L71.777245 613.73004" stroke="none" fill="#AEAEAE" fill-rule="nonzero" /></g><g clip-path="url(#10)"><g transform="matrix(0.75047797 0 -0 0.75047797 80.782974 428.17438)"><g transform="matrix(1 0 0 1 0 0)"><image x="0" y="0" xlink:href="img_01.png" width="22" height="22" /></g></g><path id="670" transform="matrix(1 0 0 -1 0 1192)" d="M629.7576 349.56177L629.7576 374.32758C 629.75757 374.67596 629.8242 375.01105 629.9575 375.3329C 630.09076 375.65472 630.2806 375.93872 630.5269 376.18494C 630.7732 376.43127 631.05725 376.62103 631.379 376.75433C 631.7008 376.88763 632.03595 376.95422 632.3843 376.95422L632.3843 376.95422L699.9273 376.95422C 700.2756 376.95422 700.6106 376.88763 700.9324 376.75433C 701.2542 376.62103 701.53827 376.43127 701.7846 376.18494C 702.0308 375.93872 702.2206 375.65472 702.35394 375.3329C 702.4873 375.01105 702.55396 374.67596 702.55396 374.32758L702.55396 374.32758L702.55396 349.56177C 702.55396 349.21356 702.4873 348.87842 702.354 348.55664C 702.22064 348.2348 702.0308 347.9508 701.7846 347.70447C 701.53827 347.4582 701.2542 347.26837 700.9324 347.13507C 700.6106 347.00177 700.2756 346.93518 699.9273 346.93512L699.9273 346.93512L632.3843 346.93512C 632.03595 346.93518 631.7008 347.00177 631.379 347.13507C 631.05725 347.26837 630.7732 347.4582 630.5269 347.70447C 630.2806 347.9508 630.09076 348.2348 629.9575 348.55664C 629.8242 348.87842 629.75757 349.21356 629.7576 349.56177z" stroke="#ADADAD" stroke-width="0.75047797" fill="none" /><path id="676" transform="matrix(1 0 0 -1 0 1192)" d="M706.3064 349.56177L706.3064 374.32758C 706.30634 374.67596 706.373 375.01105 706.5062 375.3329C 706.6395 375.65472 706.82935 375.93872 707.0756 376.18494C 707.3219 376.43127 707.60596 376.62103 707.9278 376.75433C 708.2496 376.88763 708.5847 376.95422 708.93304 376.95422L708.93304 376.95422L779.47797 376.95422C 779.8263 376.95422 780.1613 376.88763 780.48315 376.75433C 780.80493 376.62103 781.0889 376.43127 781.33527 376.18494C 781.58154 375.93872 781.7713 375.65472 781.9046 375.3329C 782.0379 375.01105 782.1046 374.67596 782.1046 374.32758L782.1046 374.32758L782.1046 349.56177C 782.1046 349.21356 782.0379 348.87842 781.9046 348.55664C 781.7713 348.2348 781.58154 347.9508 781.33527 347.70447C 781.0889 347.4582 780.8049 347.26837 780.4831 347.13507C 780.1613 347.00177 779.8263 346.93518 779.47797 346.93512L779.47797 346.93512L708.93304 346.93512C 708.5847 346.93518 708.2496 347.00177 707.9278 347.13507C 707.60596 347.26837 707.3219 347.4582 707.0756 347.70447C 706.82935 347.9508 706.6395 348.2348 706.5062 348.55664C 706.373 348.87842 706.30634 349.21356 706.3064 349.56177z" stroke="#CCCCCC" stroke-width="0.75047797" fill="none" /></g><g clip-path="url(#11)"><path id="681" transform="matrix(1 0 0 -1 0 1192)" d="M60.520073 336.8036L62.02103 336.8036L62.02103 335.30264L60.520073 335.30264z" stroke="none" fill="#FFFFFF" fill-rule="nonzero" /></g><g clip-path="url(#12)"><path id="682" transform="matrix(1 0 0 -1 0 1192)" d="M73.090576 335.30264C 74.685776 335.29984 76.21675 335.36813 77.683495 335.50754C 79.09188 335.64258 80.3403 335.8302 81.42876 336.07037C 82.53662 336.31726 83.392006 336.60162 83.9949 336.92352C 84.59779 337.2454 84.90303 337.58066 84.9106 337.92932C 84.922745 338.2846 84.606415 338.62482 83.961624 338.94998C 83.36635 339.26483 82.522064 339.54224 81.42876 339.78226C 80.34768 340.02527 79.09813 340.2129 77.680115 340.3451C 76.218094 340.48828 74.68824 340.5586 73.090576 340.556L73.090576 340.556L70.530685 340.556C 69.51158 340.78064 68.35997 340.96426 67.07587 341.10684C 65.89387 341.2397 64.526115 341.30646 62.95912 341.30646C 61.86746 341.30896 60.803658 341.27194 59.76771 341.1954C 58.79847 341.12485 57.92041 341.0228 57.126778 340.88995C 56.318153 340.75317 55.606697 340.59482 54.99242 340.4149C 54.355663 340.22382 53.809692 340.0207 53.354504 339.8055L53.354504 339.8055L49.450516 339.8055C 47.11243 339.8016 45.11653 339.61597 43.46283 339.24866C 42.691887 339.07678 42.093002 338.87915 41.666183 338.6558C 41.227154 338.43063 41.00764 338.18823 41.00764 337.92932C 41.00764 337.6704 41.227154 337.42648 41.666183 337.1961C 42.105213 336.96945 42.70635 336.77057 43.46283 336.59872C 44.2362 336.4306 45.13114 336.2978 46.15104 336.19946C 47.191204 336.1019 48.288776 336.05313 49.450516 336.05313L49.450516 336.05313L52.2468 336.05313C 52.7939 335.82648 53.435555 335.61935 54.171776 335.43173C 54.91475 335.24786 55.738773 335.0895 56.653984 334.95667C 58.576813 334.68414 60.678528 334.54932 62.95912 334.55215C 64.50409 334.5501 65.990036 334.6149 67.41696 334.74655C 68.80834 334.87936 70.08491 335.06473 71.24327 335.3034L71.24327 335.3034L73.090576 335.3034L73.090576 335.3034L73.090576 335.30264zM73.090576 341.30646C 75.1844 341.30646 77.15329 341.2164 79.00059 341.0363C 80.82034 340.86566 82.43012 340.6255 83.82991 340.31583C 85.201035 340.0104 86.28172 339.65317 87.071976 339.24265C 87.88249 338.83215 88.28775 338.39462 88.28775 337.92932C 88.28775 337.46402 87.88249 337.0265 87.071976 336.61597C 86.302734 336.2111 85.22005 335.853 83.82391 335.54172C 82.42778 335.2304 80.82001 334.98862 79.00059 334.81635C 77.11276 334.63748 75.14276 334.54944 73.090576 334.55215L73.090576 334.55215L72.48268 334.55215C 69.70979 334.05032 66.53528 333.80014 62.95912 333.8017C 61.675804 333.8017 60.426254 333.83472 59.21048 333.9015C 58.015984 333.97165 56.873383 334.07123 55.782677 334.2002C 54.6995 334.3308 53.697617 334.48718 52.777008 334.66925C 51.84926 334.85962 51.02974 335.07077 50.318443 335.30264L50.318443 335.30264L49.450516 335.30264C 47.848267 335.30038 46.30941 335.36868 44.83395 335.50754C 43.422195 335.64178 42.173397 335.8296 41.087547 336.0709C 40.0017 336.31216 39.15667 336.5897 38.552452 336.9034C 37.927307 337.23126 37.619987 337.57324 37.63049 337.92932C 37.63168 338.18735 37.799694 338.43988 38.134533 338.68692C 38.469376 338.934 38.956913 339.16513 39.597153 339.38037C 40.23739 339.59564 41.00331 339.7859 41.89492 339.95117C 42.78653 340.11642 43.766205 340.24976 44.83395 340.3511C 46.309334 340.49002 47.84819 340.55832 49.450516 340.556L49.450516 340.556L51.274178 340.556C 51.868557 340.78638 52.591267 340.99353 53.435555 341.1774C 54.695457 341.4592 56.150784 341.67633 57.801537 341.8288C 59.45229 341.98126 61.171486 342.0573 62.95912 342.05695C 64.61392 342.05695 66.20119 341.9924 67.734406 341.8633C 69.28114 341.73425 70.6624 341.54813 71.878174 341.30646L71.878174 341.30646L73.090576 341.30646zM37.63049 331.55026C 38.570187 331.554 39.361565 331.47968 40.004627 331.32736C 40.690033 331.18445 41.024372 331.0086 41.00764 330.79977C 41.011795 330.69812 40.92399 330.60056 40.74422 330.50708C 40.38117 330.32196 39.783413 330.18887 38.950954 330.10785C 38.52926 330.06775 38.089104 330.04825 37.63049 330.0493C 37.173046 330.04834 36.734016 330.06787 36.3134 330.10785C 35.911263 330.14648 35.551033 330.19928 35.23271 330.26617C 34.93041 330.33685 34.691757 330.41693 34.516754 330.50635C 34.33642 330.60004 34.24861 330.69788 34.253338 330.79977C 34.242184 331.0066 34.56864 331.18243 35.23271 331.32736C 35.887302 331.47852 36.68656 331.5528 37.63049 331.55026zM46.073364 332.30072C 46.541847 332.2996 46.9381 332.3366 47.262123 332.4118C 47.600517 332.4838 47.76712 332.57187 47.76194 332.67596C 47.767124 332.7801 47.600517 332.86813 47.262123 332.94012C 46.9381 333.01535 46.541847 333.05237 46.073364 333.0512C 45.604885 333.05237 45.208633 333.01535 44.88461 332.94012C 44.546215 332.86813 44.37961 332.7801 44.38479 332.67596C 44.38479 332.57465 44.55365 332.48608 44.88461 332.4118C 45.208633 332.3366 45.604885 332.2996 46.073364 332.30072zM46.073364 333.8017C 47.090515 333.8015 48.023376 333.73914 48.871956 333.6145C 49.720535 333.48987 50.344536 333.32364 50.743965 333.11575C 51.007385 332.97916 51.13909 332.83206 51.13909 332.67596C 51.138344 332.44995 50.857567 332.24265 50.296753 332.05405C 49.735947 331.86548 48.98782 331.7268 48.052376 331.63806C 47.420006 331.5784 46.760338 331.54913 46.073364 331.55026C 45.056213 331.5504 44.123352 331.61282 43.274773 331.73743C 42.426193 331.86206 41.802193 332.02832 41.402767 332.23618C 41.134216 332.3767 41.002506 332.52332 41.00764 332.67596C 41.008385 332.902 41.28916 333.1093 41.849976 333.29788C 42.41078 333.48645 43.158913 333.62512 44.094357 333.71387C 44.708996 333.77243 45.37092 333.8017 46.073364 333.8017z" stroke="none" fill="#101010" fill-rule="nonzero" /></g><g clip-path="url(#13)"><path id="683" transform="matrix(1 0 0 -1 0 1192)" d="M190.42313 260.25488L272.29556 260.25488L272.29556 259.5044L190.42313 259.5044z" stroke="none" fill="#000000" fill-rule="nonzero" /></g><g clip-path="url(#14)"><g clip-path="url(#15)"><g clip-path="url(#16)"><g clip-path="url(#17)"><g clip-path="url(#18)"><path id="700" transform="matrix(1 0 0 -1 0 1192)" d="M272.29556 260.25488L451.03833 260.25488L451.03833 259.5044L272.29556 259.5044z" stroke="none" fill="#000000" fill-rule="nonzero" /></g></g></g></g></g><g clip-path="url(#19)"></g></g></g></svg>