<svg xmlns="http://www.w3.org/2000/svg" xmlns:xlink="http://www.w3.org/1999/xlink" id="body_2" preserveAspectRatio="xMinYMin meet" viewBox="0 0 816 1056"><defs><clipPath id="1"><path id="" clip-rule="evenodd" transform="matrix(1 0 0 1 0 0)" d="M0 792L0 0L0 0L612 0L612 0L612 792L612 792L0 792z" /></clipPath><clipPath id="2"><path id="" clip-rule="evenodd" transform="matrix(1 0 0 1 0 0)" d="M0 792L612 792L612 792L612 0L612 0L0 0z" /></clipPath><clipPath id="3"><path id="" clip-rule="evenodd" transform="matrix(1 0 0 1 0 0)" d="M0 792L612 792L612 792L612 0L612 0L0 0z" /></clipPath><clipPath id="4"><path id="" clip-rule="evenodd" transform="matrix(1 0 0 1 0 0)" d="M54 54L558 54L558 54L558 715.699L558 715.699L54 715.699z" /></clipPath><clipPath id="5"><path id="" clip-rule="evenodd" transform="matrix(1 0 0 1 0 0)" d="M54 54L558 54L558 54L558 715.699L558 715.699L54 715.699z" /></clipPath><clipPath id="6"><path id="" clip-rule="evenodd" transform="matrix(1 0 0 1 0 0)" d="M54 54L558 54L558 54L558 715.699L558 715.699L54 715.699z" /></clipPath><clipPath id="7"><path id="" clip-rule="evenodd" transform="matrix(1 0 0 1 0 0)" d="M54 54L558 54L558 54L558 715.699L558 715.699L54 715.699z" /></clipPath><clipPath id="8"><path id="" clip-rule="evenodd" transform="matrix(1 0 0 1 0 0)" d="M0 0L612 0L612 0L612 792L612 792L0 792z" /></clipPath><clipPath id="9"><path id="" clip-rule="evenodd" transform="matrix(1 0 0 1 0 0)" d="M0 0L612 0L612 0L612 792L612 792L0 792z" /></clipPath><clipPath id="10"><path id="" clip-rule="evenodd" transform="matrix(1 0 0 1 0 0)" d="M0 0L612 0L612 0L612 792L612 792L0 792z" /></clipPath><clipPath id="11"><path id="" clip-rule="evenodd" transform="matrix(1 0 0 1 0 0)" d="M0 0L612 0L612 0L612 792L612 792L0 792z" /></clipPath><clipPath id="12"><path id="" clip-rule="evenodd" transform="matrix(1 0 0 1 0 0)" d="M0 792L612 792L612 792L612 0L612 0L0 0z" /></clipPath><pattern patternTransform="matrix(0.24 0 0 -0.24 163 656.96)" id="1954" x="0" y="0" width="6000" height="6000" patternUnits="userSpaceOnUse"><image x="0" y="0" width="6000" height="6000" xlink:href="img_18.png" /></pattern><clipPath id="13"><path id="" clip-rule="evenodd" transform="matrix(1 0 0 1 0 0)" d="M0 792L612 792L612 792L612 0L612 0L0 0z" /></clipPath><pattern patternTransform="matrix(0.24 0 0 -0.24 216 656.96)" id="2350" x="0" y="0" width="6000" height="6000" patternUnits="userSpaceOnUse"><image x="0" y="0" width="6000" height="6000" xlink:href="img_19.png" /></pattern><clipPath id="14"><path id="" clip-rule="evenodd" transform="matrix(1 0 0 1 0 0)" d="M0 792L612 792L612 792L612 0L612 0L0 0z" /></clipPath><pattern patternTransform="matrix(0.24 0 0 -0.24 337 656.96)" id="2746" x="0" y="0" width="6000" height="6000" patternUnits="userSpaceOnUse"><image x="0" y="0" width="6000" height="6000" xlink:href="img_20.png" /></pattern><clipPath id="15"><path id="" clip-rule="evenodd" transform="matrix(1 0 0 1 0 0)" d="M0 792L612 792L612 792L612 0L612 0L0 0z" /></clipPath><pattern patternTransform="matrix(0.24 0 0 -0.24 431 656.96)" id="3142" x="0" y="0" width="6000" height="6000" patternUnits="userSpaceOnUse"><image x="0" y="0" width="6000" height="6000" xlink:href="img_21.png" /></pattern><clipPath id="16"><path id="" clip-rule="evenodd" transform="matrix(1 0 0 1 0 0)" d="M0 792L612 792L612 792L612 0L612 0L0 0z" /></clipPath><pattern patternTransform="matrix(0.24 0 0 -0.24 85 655.8)" id="3538" x="0" y="0" width="6000" height="6000" patternUnits="userSpaceOnUse"><image x="0" y="0" width="6000" height="6000" xlink:href="img_22.png" /></pattern><clipPath id="17"><path id="" clip-rule="evenodd" transform="matrix(1 0 0 1 0 0)" d="M0 792L612 792L612 792L612 0L612 0L0 0z" /></clipPath><pattern patternTransform="matrix(0.24 0 0 -0.24 85 622.88)" id="3932" x="0" y="0" width="6000" height="6000" patternUnits="userSpaceOnUse"><image x="0" y="0" width="6000" height="6000" xlink:href="img_23.png" /></pattern><clipPath id="18"><path id="" clip-rule="evenodd" transform="matrix(1 0 0 1 0 0)" d="M0 792L612 792L612 792L612 0L612 0L0 0z" /></clipPath><pattern patternTransform="matrix(0.24 0 0 -0.24 70 405.84)" id="4327" x="0" y="0" width="6000" height="6000" patternUnits="userSpaceOnUse"><image x="0" y="0" width="6000" height="6000" xlink:href="img_15.png" /></pattern><clipPath id="19"><path id="" clip-rule="evenodd" transform="matrix(1 0 0 1 0 0)" d="M0 792L612 792L612 792L612 0L612 0L0 0z" /></clipPath><pattern patternTransform="matrix(0.24 0 0 -0.24 190 358.96)" id="4722" x="0" y="0" width="5951" height="5951" patternUnits="userSpaceOnUse"><image x="0" y="0" width="5951" height="5951" xlink:href="img_24.png" /></pattern><clipPath id="20"><path id="" clip-rule="evenodd" transform="matrix(1 0 0 1 0 0)" d="M0 792L612 792L612 792L612 0L612 0L0 0z" /></clipPath><pattern patternTransform="matrix(0.24 0 0 -0.24 290 358.96)" id="5118" x="0" y="0" width="5951" height="5951" patternUnits="userSpaceOnUse"><image x="0" y="0" width="5951" height="5951" xlink:href="img_25.png" /></pattern><clipPath id="21"><path id="" clip-rule="evenodd" transform="matrix(1 0 0 1 0 0)" d="M0 792L612 792L612 792L612 0L612 0L0 0z" /></clipPath><pattern patternTransform="matrix(0.24 0 0 -0.24 409 358.96)" id="5514" x="0" y="0" width="5951" height="5951" patternUnits="userSpaceOnUse"><image x="0" y="0" width="5951" height="5951" xlink:href="img_26.png" /></pattern><clipPath id="22"><path id="" clip-rule="evenodd" transform="matrix(1 0 0 1 0 0)" d="M0 792L612 792L612 792L612 0L612 0L0 0z" /></clipPath><pattern patternTransform="matrix(0.24 0 0 -0.24 85 357.8)" id="5910" x="0" y="0" width="6000" height="6000" patternUnits="userSpaceOnUse"><image x="0" y="0" width="6000" height="6000" xlink:href="img_27.png" /></pattern><clipPath id="23"><path id="" clip-rule="evenodd" transform="matrix(1 0 0 1 0 0)" d="M0 792L612 792L612 792L612 0L612 0L0 0z" /></clipPath><pattern patternTransform="matrix(0.24 0 0 -0.24 85 335.92)" id="6304" x="0" y="0" width="6000" height="6000" patternUnits="userSpaceOnUse"><image x="0" y="0" width="6000" height="6000" xlink:href="img_28.png" /></pattern><clipPath id="24"><path id="" clip-rule="evenodd" transform="matrix(1 0 0 1 0 0)" d="M0 792L612 792L612 792L612 0L612 0L0 0z" /></clipPath><pattern patternTransform="matrix(0.24 0 0 -0.24 70 207.84)" id="6699" x="0" y="0" width="6000" height="6000" patternUnits="userSpaceOnUse"><image x="0" y="0" width="6000" height="6000" xlink:href="img_29.png" /></pattern><clipPath id="25"><path id="" clip-rule="evenodd" transform="matrix(1 0 0 1 0 0)" d="M0 792L612 792L612 792L612 0L612 0L0 0z" /></clipPath><pattern patternTransform="matrix(0.24 0 0 -0.24 136 76.92)" id="7094" x="0" y="0" width="6000" height="6000" patternUnits="userSpaceOnUse"><image x="0" y="0" width="6000" height="6000" xlink:href="img_30.png" /></pattern></defs><g transform="matrix(1.3333334 0 0 1.3333334 0 0)"><g clip-path="url(#1)"><g><g clip-path="url(#2)"><g><g clip-path="url(#3)"><g clip-path="url(#4)"><path id="1" transform="matrix(1 0 0 -1 0 792)" d="M54 738L558 738L558 76.301025L54 76.301025z" stroke="none" fill="#FFFFFF" fill-rule="nonzero" /><path id="2" transform="matrix(1 0 0 -1 0 792)" d="M69.75 738L542.25 738L542.25 76.301025L69.75 76.301025z" stroke="none" fill="#FFFFFF" fill-rule="nonzero" /><path id="3" transform="matrix(1 0 0 -1 0 792)" d="M84.5 692.5L527.5 692.5L527.5 692.5L527.5 622.5L527.5 622.5L84.5 622.5z" stroke="#999999" stroke-width="1" fill="none" /></g><g clip-path="url(#5)"><path id="4" transform="matrix(1 0 0 -1 0 792)" d="M84.5 382.5L527.5 382.5L527.5 382.5L527.5 335.5L527.5 335.5L84.5 335.5z" stroke="#999999" stroke-width="1" fill="none" /></g><g clip-path="url(#6)"><path id="5" transform="matrix(1 0 0 -1 0 792)" d="M71 136L71 76L541 76L541 136zM542 137L542 76L70 76L70 137z" stroke="none" fill="#729196" fill-rule="nonzero" /></g><g clip-path="url(#7)"><path id="649" transform="matrix(1 0 0 -1 0 792)" d="M114 503.5L193 503.5" stroke="#0000EE" stroke-width="1" fill="none" /><path id="1731" transform="matrix(1 0 0 -1 0 792)" d="M284 115.5L418 115.5" stroke="#0061AA" stroke-width="1" fill="none" /><path id="1769" transform="matrix(1 0 0 -1 0 792)" d="M276 101.5L412 101.5" stroke="#0061AA" stroke-width="1" fill="none" /></g><g clip-path="url(#8)"></g><g clip-path="url(#9)"></g><g clip-path="url(#10)"></g><g clip-path="url(#11)"></g></g></g><g><g clip-path="url(#12)"><path id="1880" transform="matrix(1 0 0 -1 0 792)" d="M0 0L612 0L612 792L0 792z" stroke="none" fill="url(#1954)" /></g></g><g><g clip-path="url(#13)"><path id="1881" transform="matrix(1 0 0 -1 0 792)" d="M0 0L612 0L612 792L0 792z" stroke="none" fill="url(#2350)" /></g></g><g><g clip-path="url(#14)"><path id="1882" transform="matrix(1 0 0 -1 0 792)" d="M0 0L612 0L612 792L0 792z" stroke="none" fill="url(#2746)" /></g></g><g><g clip-path="url(#15)"><path id="1883" transform="matrix(1 0 0 -1 0 792)" d="M0 0L612 0L612 792L0 792z" stroke="none" fill="url(#3142)" /></g></g><g><g clip-path="url(#16)"><path id="1884" transform="matrix(1 0 0 -1 0 792)" d="M0 0L612 0L612 792L0 792z" stroke="none" fill="url(#3538)" /></g></g><g><g clip-path="url(#17)"><path id="1885" transform="matrix(1 0 0 -1 0 792)" d="M0 0L612 0L612 792L0 792z" stroke="none" fill="url(#3932)" /></g></g><g><g clip-path="url(#18)"><path id="1886" transform="matrix(1 0 0 -1 0 792)" d="M0 0L612 0L612 792L0 792z" stroke="none" fill="url(#4327)" /></g></g><g><g clip-path="url(#19)"><path id="1887" transform="matrix(1 0 0 -1 0 792)" d="M0 0L612 0L612 792L0 792z" stroke="none" fill="url(#4722)" /></g></g><g><g clip-path="url(#20)"><path id="1888" transform="matrix(1 0 0 -1 0 792)" d="M0 0L612 0L612 792L0 792z" stroke="none" fill="url(#5118)" /></g></g><g><g clip-path="url(#21)"><path id="1889" transform="matrix(1 0 0 -1 0 792)" d="M0 0L612 0L612 792L0 792z" stroke="none" fill="url(#5514)" /></g></g><g><g clip-path="url(#22)"><path id="1890" transform="matrix(1 0 0 -1 0 792)" d="M0 0L612 0L612 792L0 792z" stroke="none" fill="url(#5910)" /></g></g><g><g clip-path="url(#23)"><path id="1891" transform="matrix(1 0 0 -1 0 792)" d="M0 0L612 0L612 792L0 792z" stroke="none" fill="url(#6304)" /></g></g><g><g clip-path="url(#24)"><path id="1892" transform="matrix(1 0 0 -1 0 792)" d="M0 0L612 0L612 792L0 792z" stroke="none" fill="url(#6699)" /></g></g><g><g clip-path="url(#25)"><path id="1893" transform="matrix(1 0 0 -1 0 792)" d="M0 0L612 0L612 792L0 792z" stroke="none" fill="url(#7094)" /></g></g></g></g></g></g></svg>