<svg xmlns="http://www.w3.org/2000/svg" xmlns:xlink="http://www.w3.org/1999/xlink" id="body_3" preserveAspectRatio="xMinYMin meet" viewBox="0 0 816 1056"><defs><clipPath id="1"><path id="" clip-rule="evenodd" transform="matrix(1 0 0 1 0 0)" d="M0 792L0 0L0 0L612 0L612 0L612 792L612 792L0 792z" /></clipPath><clipPath id="2"><path id="" clip-rule="evenodd" transform="matrix(1 0 0 1 0 0)" d="M0 792L612 792L612 792L612 0L612 0L0 0z" /></clipPath><clipPath id="3"><path id="" clip-rule="evenodd" transform="matrix(1 0 0 1 0 0)" d="M0 792L612 792L612 792L612 0L612 0L0 0z" /></clipPath><clipPath id="4"><path id="" clip-rule="evenodd" transform="matrix(1 0 0 1 0 0)" d="M54 54L558 54L558 54L558 715.699L558 715.699L54 715.699z" /></clipPath><clipPath id="5"><path id="" clip-rule="evenodd" transform="matrix(1 0 0 1 0 0)" d="M54 54L558 54L558 54L558 715.699L558 715.699L54 715.699z" /></clipPath><clipPath id="6"><path id="" clip-rule="evenodd" transform="matrix(1 0 0 1 0 0)" d="M137 55L270 55L270 55L270 118L270 118L137 118z" /></clipPath><pattern patternTransform="matrix(1 0 0 -1 137 674)" id="988" x="0" y="0" width="1600" height="1600" patternUnits="userSpaceOnUse"><image x="0" y="0" width="1600" height="1600" xlink:href="img_32.png" /></pattern><clipPath id="7"><path id="" clip-rule="evenodd" transform="matrix(1 0 0 1 0 0)" d="M54 54L558 54L558 54L558 715.699L558 715.699L54 715.699z" /></clipPath><pattern patternTransform="matrix(0.75 0 0 -0.75 93.425 667.5)" id="1390" x="0" y="0" width="1958" height="1958" patternUnits="userSpaceOnUse"><image x="0" y="0" width="1958" height="1958" xlink:href="img_33.png" /></pattern><clipPath id="8"><path id="" clip-rule="evenodd" transform="matrix(1 0 0 1 0 0)" d="M0 0L612 0L612 0L612 792L612 792L0 792z" /></clipPath><clipPath id="9"><path id="" clip-rule="evenodd" transform="matrix(1 0 0 1 0 0)" d="M0 0L612 0L612 0L612 792L612 792L0 792z" /></clipPath><clipPath id="10"><path id="" clip-rule="evenodd" transform="matrix(1 0 0 1 0 0)" d="M0 0L612 0L612 0L612 792L612 792L0 792z" /></clipPath><clipPath id="11"><path id="" clip-rule="evenodd" transform="matrix(1 0 0 1 0 0)" d="M0 0L612 0L612 0L612 792L612 792L0 792z" /></clipPath><clipPath id="12"><path id="" clip-rule="evenodd" transform="matrix(1 0 0 1 0 0)" d="M0 792L612 792L612 792L612 0L612 0L0 0z" /></clipPath><pattern patternTransform="matrix(0.24 0 0 -0.24 136 673.88)" id="2414" x="0" y="0" width="6000" height="6000" patternUnits="userSpaceOnUse"><image x="0" y="0" width="6000" height="6000" xlink:href="img_34.png" /></pattern><clipPath id="13"><path id="" clip-rule="evenodd" transform="matrix(1 0 0 1 0 0)" d="M0 792L612 792L612 792L612 0L612 0L0 0z" /></clipPath><pattern patternTransform="matrix(0.24 0 0 -0.24 269 673.88)" id="2810" x="0" y="0" width="6000" height="6000" patternUnits="userSpaceOnUse"><image x="0" y="0" width="6000" height="6000" xlink:href="img_35.png" /></pattern><clipPath id="14"><path id="" clip-rule="evenodd" transform="matrix(1 0 0 1 0 0)" d="M0 792L612 792L612 792L612 0L612 0L0 0z" /></clipPath><pattern patternTransform="matrix(0.24 0 0 -0.24 136 632)" id="3206" x="0" y="0" width="6000" height="6000" patternUnits="userSpaceOnUse"><image x="0" y="0" width="6000" height="6000" xlink:href="img_36.png" /></pattern></defs><g transform="matrix(1.3333334 0 0 1.3333334 0 0)"><g clip-path="url(#1)"><g><g clip-path="url(#2)"><g><g clip-path="url(#3)"><g clip-path="url(#4)"><path id="1" transform="matrix(1 0 0 -1 0 792)" d="M54 738L558 738L558 76.301025L54 76.301025z" stroke="none" fill="#FFFFFF" fill-rule="nonzero" /><path id="2" transform="matrix(1 0 0 -1 0 792)" d="M69.75 738L542.25 738L542.25 529.75L69.75 529.75z" stroke="none" fill="#FFFFFF" fill-rule="nonzero" /><path id="3" transform="matrix(1 0 0 -1 0 792)" d="M71 738L71 624L541 624L541 738zM542 738L542 623L70 623L70 738z" stroke="none" fill="#729196" fill-rule="nonzero" /></g><g clip-path="url(#5)"><g clip-path="url(#6)"><path id="4" transform="matrix(1 0 0 -1 0 792)" d="M0 0L612 0L612 792L0 792z" stroke="none" fill="url(#988)" /></g></g><g clip-path="url(#7)"><path id="5" transform="matrix(1 0 0 -1 0 792)" d="M69.75 529.75L542.25 529.75L542.25 477.75L69.75 477.75z" stroke="none" fill="#FFFFFF" fill-rule="nonzero" /><path id="6" transform="matrix(1 0 0 -1 0 792)" d="M93.426 701.25L124.176 701.25L124.176 667.5L93.426 667.5z" stroke="none" fill="url(#1390)" /><path id="105" transform="matrix(1 0 0 -1 0 792)" d="M312 724.5L421 724.5" stroke="#0061AA" stroke-width="1" fill="none" /><path id="505" transform="matrix(1 0 0 -1 0 792)" d="M125 493.5L234 493.5" stroke="#0000EE" stroke-width="1" fill="none" /></g><g clip-path="url(#8)"></g><g clip-path="url(#9)"></g><g clip-path="url(#10)"></g><g clip-path="url(#11)"></g></g></g><g><g clip-path="url(#12)"><path id="639" transform="matrix(1 0 0 -1 0 792)" d="M0 0L612 0L612 792L0 792z" stroke="none" fill="url(#2414)" /></g></g><g><g clip-path="url(#13)"><path id="640" transform="matrix(1 0 0 -1 0 792)" d="M0 0L612 0L612 792L0 792z" stroke="none" fill="url(#2810)" /></g></g><g><g clip-path="url(#14)"><path id="641" transform="matrix(1 0 0 -1 0 792)" d="M0 0L612 0L612 792L0 792z" stroke="none" fill="url(#3206)" /></g></g></g></g></g></g></svg>