<svg xmlns="http://www.w3.org/2000/svg" xmlns:xlink="http://www.w3.org/1999/xlink" id="body_1" preserveAspectRatio="xMinYMin meet" viewBox="0 0 793 1123"><defs><clipPath id="1"><path id="" clip-rule="evenodd" transform="matrix(1 0 0 1 0 0)" d="M0 842L0 0L0 0L595 0L595 0L595 842L595 842L0 842z" /></clipPath><clipPath id="2"><path id="" clip-rule="evenodd" transform="matrix(1 0 0 1 0 0)" d="M-2 825L598 825L598 825L598 15L598 15L-2 15z" /></clipPath><clipPath id="3"><path id="" clip-rule="evenodd" transform="matrix(1 0 0 1 0 0)" d="M-2 15L598 15L598 15L598 825L598 825L-2 825z" /></clipPath><clipPath id="4"><path id="" clip-rule="evenodd" transform="matrix(1 0 0 1 0 0)" d="M567.25 443L568 443L568 443L568 443.75L568 443.75L567.25 443.75z" /></clipPath><clipPath id="5"><path id="" clip-rule="evenodd" transform="matrix(1 0 0 1 0 0)" d="M568 443L568 444.5L568 444.5L567.25 443.75z" /></clipPath><clipPath id="6"><path id="" clip-rule="evenodd" transform="matrix(1 0 0 1 0 0)" d="M28 443L568 443L568 443L567.25 443.75L567.25 443.75L28.75 443.75z" /></clipPath><clipPath id="7"><path id="" clip-rule="evenodd" transform="matrix(1 0 0 1 0 0)" d="M28 443.75L28.75 443.75L28.75 443.75L28.75 444.5L28.75 444.5L28 444.5z" /></clipPath><clipPath id="8"><path id="" clip-rule="evenodd" transform="matrix(1 0 0 1 0 0)" d="M28 444.5L28 443L28 443L28.75 443.75z" /></clipPath><clipPath id="9"><path id="" clip-rule="evenodd" transform="matrix(1 0 0 1 0 0)" d="M568 444.5L28 444.5L28 444.5L28.75 443.75L28.75 443.75L567.25 443.75z" /></clipPath><clipPath id="10"><path id="" clip-rule="evenodd" transform="matrix(1 0 0 1 0 0)" d="M28.75 443L567.25 443L567.25 443L567.25 443.75L567.25 443.75L28.75 443.75z" /></clipPath><clipPath id="11"><path id="" clip-rule="evenodd" transform="matrix(1 0 0 1 0 0)" d="M28.75 443.75L567.25 443.75L567.25 443.75L567.25 444.5L567.25 444.5L28.75 444.5z" /></clipPath><clipPath id="12"><path id="" clip-rule="evenodd" transform="matrix(1 0 0 1 0 0)" d="M567.25 467.75L568 467.75L568 467.75L568 468.5L568 468.5L567.25 468.5z" /></clipPath><clipPath id="13"><path id="" clip-rule="evenodd" transform="matrix(1 0 0 1 0 0)" d="M568 467.75L568 469.25L568 469.25L567.25 468.5z" /></clipPath><clipPath id="14"><path id="" clip-rule="evenodd" transform="matrix(1 0 0 1 0 0)" d="M28 467.75L568 467.75L568 467.75L567.25 468.5L567.25 468.5L28.75 468.5z" /></clipPath><clipPath id="15"><path id="" clip-rule="evenodd" transform="matrix(1 0 0 1 0 0)" d="M28 468.5L28.75 468.5L28.75 468.5L28.75 469.25L28.75 469.25L28 469.25z" /></clipPath><clipPath id="16"><path id="" clip-rule="evenodd" transform="matrix(1 0 0 1 0 0)" d="M28 469.25L28 467.75L28 467.75L28.75 468.5z" /></clipPath><clipPath id="17"><path id="" clip-rule="evenodd" transform="matrix(1 0 0 1 0 0)" d="M568 469.25L28 469.25L28 469.25L28.75 468.5L28.75 468.5L567.25 468.5z" /></clipPath><clipPath id="18"><path id="" clip-rule="evenodd" transform="matrix(1 0 0 1 0 0)" d="M28.75 467.75L567.25 467.75L567.25 467.75L567.25 468.5L567.25 468.5L28.75 468.5z" /></clipPath><clipPath id="19"><path id="" clip-rule="evenodd" transform="matrix(1 0 0 1 0 0)" d="M28.75 468.5L567.25 468.5L567.25 468.5L567.25 469.25L567.25 469.25L28.75 469.25z" /></clipPath><clipPath id="20"><path id="" clip-rule="evenodd" transform="matrix(1 0 0 1 0 0)" d="M567.25 637.10156L568 637.10156L568 637.10156L568 637.85156L568 637.85156L567.25 637.85156z" /></clipPath><clipPath id="21"><path id="" clip-rule="evenodd" transform="matrix(1 0 0 1 0 0)" d="M568 637.10156L568 638.60156L568 638.60156L567.25 637.85156z" /></clipPath><clipPath id="22"><path id="" clip-rule="evenodd" transform="matrix(1 0 0 1 0 0)" d="M28 637.10156L568 637.10156L568 637.10156L567.25 637.85156L567.25 637.85156L28.75 637.85156z" /></clipPath><clipPath id="23"><path id="" clip-rule="evenodd" transform="matrix(1 0 0 1 0 0)" d="M28 637.85156L28.75 637.85156L28.75 637.85156L28.75 638.60156L28.75 638.60156L28 638.60156z" /></clipPath><clipPath id="24"><path id="" clip-rule="evenodd" transform="matrix(1 0 0 1 0 0)" d="M28 638.60156L28 637.10156L28 637.10156L28.75 637.85156z" /></clipPath><clipPath id="25"><path id="" clip-rule="evenodd" transform="matrix(1 0 0 1 0 0)" d="M568 638.60156L28 638.60156L28 638.60156L28.75 637.85156L28.75 637.85156L567.25 637.85156z" /></clipPath><clipPath id="26"><path id="" clip-rule="evenodd" transform="matrix(1 0 0 1 0 0)" d="M28.75 637.10156L567.25 637.10156L567.25 637.10156L567.25 637.85156L567.25 637.85156L28.75 637.85156z" /></clipPath><clipPath id="27"><path id="" clip-rule="evenodd" transform="matrix(1 0 0 1 0 0)" d="M28.75 637.85156L567.25 637.85156L567.25 637.85156L567.25 638.60156L567.25 638.60156L28.75 638.60156z" /></clipPath><clipPath id="28"><path id="" clip-rule="evenodd" transform="matrix(1 0 0 1 0 0)" d="M567.25 670.85156L568 670.85156L568 670.85156L568 671.60156L568 671.60156L567.25 671.60156z" /></clipPath><clipPath id="29"><path id="" clip-rule="evenodd" transform="matrix(1 0 0 1 0 0)" d="M568 670.85156L568 672.35156L568 672.35156L567.25 671.60156z" /></clipPath><clipPath id="30"><path id="" clip-rule="evenodd" transform="matrix(1 0 0 1 0 0)" d="M28 670.85156L568 670.85156L568 670.85156L567.25 671.60156L567.25 671.60156L28.75 671.60156z" /></clipPath><clipPath id="31"><path id="" clip-rule="evenodd" transform="matrix(1 0 0 1 0 0)" d="M28 671.60156L28.75 671.60156L28.75 671.60156L28.75 672.35156L28.75 672.35156L28 672.35156z" /></clipPath><clipPath id="32"><path id="" clip-rule="evenodd" transform="matrix(1 0 0 1 0 0)" d="M28 672.35156L28 670.85156L28 670.85156L28.75 671.60156z" /></clipPath><clipPath id="33"><path id="" clip-rule="evenodd" transform="matrix(1 0 0 1 0 0)" d="M568 672.35156L28 672.35156L28 672.35156L28.75 671.60156L28.75 671.60156L567.25 671.60156z" /></clipPath><clipPath id="34"><path id="" clip-rule="evenodd" transform="matrix(1 0 0 1 0 0)" d="M28.75 670.85156L567.25 670.85156L567.25 670.85156L567.25 671.60156L567.25 671.60156L28.75 671.60156z" /></clipPath><clipPath id="35"><path id="" clip-rule="evenodd" transform="matrix(1 0 0 1 0 0)" d="M28.75 671.60156L567.25 671.60156L567.25 671.60156L567.25 672.35156L567.25 672.35156L28.75 672.35156z" /></clipPath><clipPath id="36"><path id="" clip-rule="evenodd" transform="matrix(1 0 0 1 0 0)" d="M567.25 692.22656L568 692.22656L568 692.22656L568 692.97656L568 692.97656L567.25 692.97656z" /></clipPath><clipPath id="37"><path id="" clip-rule="evenodd" transform="matrix(1 0 0 1 0 0)" d="M568 692.22656L568 693.72656L568 693.72656L567.25 692.97656z" /></clipPath><clipPath id="38"><path id="" clip-rule="evenodd" transform="matrix(1 0 0 1 0 0)" d="M28 692.22656L568 692.22656L568 692.22656L567.25 692.97656L567.25 692.97656L28.75 692.97656z" /></clipPath><clipPath id="39"><path id="" clip-rule="evenodd" transform="matrix(1 0 0 1 0 0)" d="M28 692.97656L28.75 692.97656L28.75 692.97656L28.75 693.72656L28.75 693.72656L28 693.72656z" /></clipPath><clipPath id="40"><path id="" clip-rule="evenodd" transform="matrix(1 0 0 1 0 0)" d="M28 693.72656L28 692.22656L28 692.22656L28.75 692.97656z" /></clipPath><clipPath id="41"><path id="" clip-rule="evenodd" transform="matrix(1 0 0 1 0 0)" d="M568 693.72656L28 693.72656L28 693.72656L28.75 692.97656L28.75 692.97656L567.25 692.97656z" /></clipPath><clipPath id="42"><path id="" clip-rule="evenodd" transform="matrix(1 0 0 1 0 0)" d="M28.75 692.22656L567.25 692.22656L567.25 692.22656L567.25 692.97656L567.25 692.97656L28.75 692.97656z" /></clipPath><clipPath id="43"><path id="" clip-rule="evenodd" transform="matrix(1 0 0 1 0 0)" d="M28.75 692.97656L567.25 692.97656L567.25 692.97656L567.25 693.72656L567.25 693.72656L28.75 693.72656z" /></clipPath><clipPath id="44"><path id="" clip-rule="evenodd" transform="matrix(1 0 0 1 0 0)" d="M567.25 725.97656L568 725.97656L568 725.97656L568 726.72656L568 726.72656L567.25 726.72656z" /></clipPath><clipPath id="45"><path id="" clip-rule="evenodd" transform="matrix(1 0 0 1 0 0)" d="M568 725.97656L568 727.47656L568 727.47656L567.25 726.72656z" /></clipPath><clipPath id="46"><path id="" clip-rule="evenodd" transform="matrix(1 0 0 1 0 0)" d="M28 725.97656L568 725.97656L568 725.97656L567.25 726.72656L567.25 726.72656L28.75 726.72656z" /></clipPath><clipPath id="47"><path id="" clip-rule="evenodd" transform="matrix(1 0 0 1 0 0)" d="M28 726.72656L28.75 726.72656L28.75 726.72656L28.75 727.47656L28.75 727.47656L28 727.47656z" /></clipPath><clipPath id="48"><path id="" clip-rule="evenodd" transform="matrix(1 0 0 1 0 0)" d="M28 727.47656L28 725.97656L28 725.97656L28.75 726.72656z" /></clipPath><clipPath id="49"><path id="" clip-rule="evenodd" transform="matrix(1 0 0 1 0 0)" d="M568 727.47656L28 727.47656L28 727.47656L28.75 726.72656L28.75 726.72656L567.25 726.72656z" /></clipPath><clipPath id="50"><path id="" clip-rule="evenodd" transform="matrix(1 0 0 1 0 0)" d="M28.75 725.97656L567.25 725.97656L567.25 725.97656L567.25 726.72656L567.25 726.72656L28.75 726.72656z" /></clipPath><clipPath id="51"><path id="" clip-rule="evenodd" transform="matrix(1 0 0 1 0 0)" d="M28.75 726.72656L567.25 726.72656L567.25 726.72656L567.25 727.47656L567.25 727.47656L28.75 727.47656z" /></clipPath><clipPath id="52"><path id="" clip-rule="evenodd" transform="matrix(1 0 0 1 0 0)" d="M567.25 747.35156L568 747.35156L568 747.35156L568 748.10156L568 748.10156L567.25 748.10156z" /></clipPath><clipPath id="53"><path id="" clip-rule="evenodd" transform="matrix(1 0 0 1 0 0)" d="M568 747.35156L568 748.85156L568 748.85156L567.25 748.10156z" /></clipPath><clipPath id="54"><path id="" clip-rule="evenodd" transform="matrix(1 0 0 1 0 0)" d="M28 747.35156L568 747.35156L568 747.35156L567.25 748.10156L567.25 748.10156L28.75 748.10156z" /></clipPath><clipPath id="55"><path id="" clip-rule="evenodd" transform="matrix(1 0 0 1 0 0)" d="M28 748.10156L28.75 748.10156L28.75 748.10156L28.75 748.85156L28.75 748.85156L28 748.85156z" /></clipPath><clipPath id="56"><path id="" clip-rule="evenodd" transform="matrix(1 0 0 1 0 0)" d="M28 748.85156L28 747.35156L28 747.35156L28.75 748.10156z" /></clipPath><clipPath id="57"><path id="" clip-rule="evenodd" transform="matrix(1 0 0 1 0 0)" d="M568 748.85156L28 748.85156L28 748.85156L28.75 748.10156L28.75 748.10156L567.25 748.10156z" /></clipPath><clipPath id="58"><path id="" clip-rule="evenodd" transform="matrix(1 0 0 1 0 0)" d="M28.75 747.35156L567.25 747.35156L567.25 747.35156L567.25 748.10156L567.25 748.10156L28.75 748.10156z" /></clipPath><clipPath id="59"><path id="" clip-rule="evenodd" transform="matrix(1 0 0 1 0 0)" d="M28.75 748.10156L567.25 748.10156L567.25 748.10156L567.25 748.85156L567.25 748.85156L28.75 748.85156z" /></clipPath><clipPath id="60"><path id="" clip-rule="evenodd" transform="matrix(1 0 0 1 0 0)" d="M421.72656 52.125L521.47656 52.125L521.47656 52.125L521.47656 78.375L521.47656 78.375L421.72656 78.375z" /></clipPath><clipPath id="61"><path id="" clip-rule="evenodd" transform="matrix(1 0 0 1 0 0)" d="M534.28906 52.125L560.53906 52.125L560.53906 52.125L560.53906 78.375L560.53906 78.375L534.28906 78.375z" /></clipPath><clipPath id="62"><path id="" clip-rule="evenodd" transform="matrix(1 0 0 1 0 0)" d="M33.03906 27.375L115.53906 27.375L115.53906 27.375L115.53906 109.875L115.53906 109.875L33.03906 109.875z" /></clipPath><clipPath id="63"><path id="" clip-rule="evenodd" transform="matrix(1 0 0 1 0 0)" d="M33.03906 27.375L115.53906 27.375L115.53906 27.375L115.53906 109.875L115.53906 109.875L33.03906 109.875z" /></clipPath><mask id="m1"><clipPath id="64"><path id="" clip-rule="evenodd" transform="matrix(1 0 0 1 0 0)" d="M33.0375 27.375L481.5375 27.375L481.5375 27.375L481.5375 647.625L481.5375 647.625L33.0375 647.625z" /></clipPath><g><g><g clip-path="url(#64)"><path id="236" transform="matrix(1 0 0 -1 0 842)" d="M33.0375 814.625L481.5375 814.625L481.5375 194.375L33.0375 194.375z" stroke="none" fill="#000000" fill-rule="nonzero" /></g></g></g></mask><clipPath id="65"><path id="" clip-rule="evenodd" transform="matrix(1 0 0 1 0 0)" d="M33.0375 27.375L481.5375 27.375L481.5375 27.375L481.5375 647.625L481.5375 647.625L33.0375 647.625z" /></clipPath><clipPath id="66"><path id="" clip-rule="evenodd" transform="matrix(1 0 0 1 0 0)" d="M33.038876 27.375061L115.53845 27.375061L115.53845 27.375061L115.53845 109.87463L115.53845 109.87463L33.038876 109.87463z" /></clipPath></defs><g transform="matrix(1.3333333 0 0 1.3333334 0 0)"><g clip-path="url(#1)"><g clip-path="url(#2)"><g clip-path="url(#3)"><path id="1" transform="matrix(1 0 0 -1 0 842)" d="M-2 34.648438L598 34.648438L598 17L-2 17z" stroke="none" fill="#FFFFFF" fill-rule="nonzero" /><path id="2" transform="matrix(1 0 0 -1 0 842)" d="M-2 827L598 827L598 719.75L-2 719.75z" stroke="none" fill="#FFFFFF" fill-rule="nonzero" /><path id="3" transform="matrix(1 0 0 -1 0 842)" d="M-2 719.75L598 719.75L598 475.125L-2 475.125z" stroke="none" fill="#FFFFFF" fill-rule="nonzero" /><path id="4" transform="matrix(1 0 0 -1 0 842)" d="M28 654.375L568 654.375L568 495.75L28 495.75z" stroke="none" fill="#FFEB00" fill-rule="nonzero" /><path id="5" transform="matrix(1 0 0 -1 0 842)" d="M-2 475.125L598 475.125L598 276.75L-2 276.75z" stroke="none" fill="#FFFFFF" fill-rule="nonzero" /><path id="6" transform="matrix(1 0 0 -1 0 842)" d="M28 399L28.75 399L28.75 398.25L28 398.25z" stroke="none" fill="#474747" fill-rule="nonzero" /><g clip-path="url(#4)"><g clip-path="url(#5)"><path id="7" transform="matrix(1 0 0 -1 0 842)" d="M567.25 399L568 399L568 397.5L567.25 397.5z" stroke="none" fill="#D8D8D8" fill-rule="nonzero" /></g><g clip-path="url(#6)"><path id="8" transform="matrix(1 0 0 -1 0 842)" d="M28 399L568 399L568 398.25L28 398.25z" stroke="none" fill="#474747" fill-rule="nonzero" /></g></g><path id="9" transform="matrix(1 0 0 -1 0 842)" d="M567.25 398.25L568 398.25L568 397.5L567.25 397.5z" stroke="none" fill="#D8D8D8" fill-rule="nonzero" /><g clip-path="url(#7)"><g clip-path="url(#8)"><path id="10" transform="matrix(1 0 0 -1 0 842)" d="M28 399L28.75 399L28.75 397.5L28 397.5z" stroke="none" fill="#474747" fill-rule="nonzero" /></g><g clip-path="url(#9)"><path id="11" transform="matrix(1 0 0 -1 0 842)" d="M28 398.25L568 398.25L568 397.5L28 397.5z" stroke="none" fill="#D8D8D8" fill-rule="nonzero" /></g></g><g clip-path="url(#10)"><path id="12" transform="matrix(1 0 0 -1 0 842)" d="M28 399L568 399L568 398.25L28 398.25z" stroke="none" fill="#474747" fill-rule="nonzero" /></g><path id="13" transform="matrix(1 0 0 -1 0 842)" d="M567.25 399L568 399L568 397.5L567.25 397.5z" stroke="none" fill="#D8D8D8" fill-rule="nonzero" /><g clip-path="url(#11)"><path id="14" transform="matrix(1 0 0 -1 0 842)" d="M28 398.25L568 398.25L568 397.5L28 397.5z" stroke="none" fill="#D8D8D8" fill-rule="nonzero" /></g><path id="15" transform="matrix(1 0 0 -1 0 842)" d="M28 399L28.75 399L28.75 397.5L28 397.5z" stroke="none" fill="#474747" fill-rule="nonzero" /><path id="16" transform="matrix(1 0 0 -1 0 842)" d="M28 374.25L28.75 374.25L28.75 373.5L28 373.5z" stroke="none" fill="#474747" fill-rule="nonzero" /><g clip-path="url(#12)"><g clip-path="url(#13)"><path id="17" transform="matrix(1 0 0 -1 0 842)" d="M567.25 374.25L568 374.25L568 372.75L567.25 372.75z" stroke="none" fill="#D8D8D8" fill-rule="nonzero" /></g><g clip-path="url(#14)"><path id="18" transform="matrix(1 0 0 -1 0 842)" d="M28 374.25L568 374.25L568 373.5L28 373.5z" stroke="none" fill="#474747" fill-rule="nonzero" /></g></g><path id="19" transform="matrix(1 0 0 -1 0 842)" d="M567.25 373.5L568 373.5L568 372.75L567.25 372.75z" stroke="none" fill="#D8D8D8" fill-rule="nonzero" /><g clip-path="url(#15)"><g clip-path="url(#16)"><path id="20" transform="matrix(1 0 0 -1 0 842)" d="M28 374.25L28.75 374.25L28.75 372.75L28 372.75z" stroke="none" fill="#474747" fill-rule="nonzero" /></g><g clip-path="url(#17)"><path id="21" transform="matrix(1 0 0 -1 0 842)" d="M28 373.5L568 373.5L568 372.75L28 372.75z" stroke="none" fill="#D8D8D8" fill-rule="nonzero" /></g></g><g clip-path="url(#18)"><path id="22" transform="matrix(1 0 0 -1 0 842)" d="M28 374.25L568 374.25L568 373.5L28 373.5z" stroke="none" fill="#474747" fill-rule="nonzero" /></g><path id="23" transform="matrix(1 0 0 -1 0 842)" d="M567.25 374.25L568 374.25L568 372.75L567.25 372.75z" stroke="none" fill="#D8D8D8" fill-rule="nonzero" /><g clip-path="url(#19)"><path id="24" transform="matrix(1 0 0 -1 0 842)" d="M28 373.5L568 373.5L568 372.75L28 372.75z" stroke="none" fill="#D8D8D8" fill-rule="nonzero" /></g><path id="25" transform="matrix(1 0 0 -1 0 842)" d="M28 374.25L28.75 374.25L28.75 372.75L28 372.75z" stroke="none" fill="#474747" fill-rule="nonzero" /><path id="26" transform="matrix(1 0 0 -1 0 842)" d="M-2 276.75L598 276.75L598 34.648438L-2 34.648438z" stroke="none" fill="#FFFFFF" fill-rule="nonzero" /><path id="27" transform="matrix(1 0 0 -1 0 842)" d="M28 204.89844L28.75 204.89844L28.75 204.14844L28 204.14844z" stroke="none" fill="#474747" fill-rule="nonzero" /><g clip-path="url(#20)"><g clip-path="url(#21)"><path id="28" transform="matrix(1 0 0 -1 0 842)" d="M567.25 204.89844L568 204.89844L568 203.39844L567.25 203.39844z" stroke="none" fill="#D8D8D8" fill-rule="nonzero" /></g><g clip-path="url(#22)"><path id="29" transform="matrix(1 0 0 -1 0 842)" d="M28 204.89844L568 204.89844L568 204.14844L28 204.14844z" stroke="none" fill="#474747" fill-rule="nonzero" /></g></g><path id="30" transform="matrix(1 0 0 -1 0 842)" d="M567.25 204.14844L568 204.14844L568 203.39844L567.25 203.39844z" stroke="none" fill="#D8D8D8" fill-rule="nonzero" /><g clip-path="url(#23)"><g clip-path="url(#24)"><path id="31" transform="matrix(1 0 0 -1 0 842)" d="M28 204.89844L28.75 204.89844L28.75 203.39844L28 203.39844z" stroke="none" fill="#474747" fill-rule="nonzero" /></g><g clip-path="url(#25)"><path id="32" transform="matrix(1 0 0 -1 0 842)" d="M28 204.14844L568 204.14844L568 203.39844L28 203.39844z" stroke="none" fill="#D8D8D8" fill-rule="nonzero" /></g></g><g clip-path="url(#26)"><path id="33" transform="matrix(1 0 0 -1 0 842)" d="M28 204.89844L568 204.89844L568 204.14844L28 204.14844z" stroke="none" fill="#474747" fill-rule="nonzero" /></g><path id="34" transform="matrix(1 0 0 -1 0 842)" d="M567.25 204.89844L568 204.89844L568 203.39844L567.25 203.39844z" stroke="none" fill="#D8D8D8" fill-rule="nonzero" /><g clip-path="url(#27)"><path id="35" transform="matrix(1 0 0 -1 0 842)" d="M28 204.14844L568 204.14844L568 203.39844L28 203.39844z" stroke="none" fill="#D8D8D8" fill-rule="nonzero" /></g><path id="36" transform="matrix(1 0 0 -1 0 842)" d="M28 204.89844L28.75 204.89844L28.75 203.39844L28 203.39844z" stroke="none" fill="#474747" fill-rule="nonzero" /><path id="37" transform="matrix(1 0 0 -1 0 842)" d="M28 171.14844L28.75 171.14844L28.75 170.39844L28 170.39844z" stroke="none" fill="#474747" fill-rule="nonzero" /><g clip-path="url(#28)"><g clip-path="url(#29)"><path id="38" transform="matrix(1 0 0 -1 0 842)" d="M567.25 171.14844L568 171.14844L568 169.64844L567.25 169.64844z" stroke="none" fill="#D8D8D8" fill-rule="nonzero" /></g><g clip-path="url(#30)"><path id="39" transform="matrix(1 0 0 -1 0 842)" d="M28 171.14844L568 171.14844L568 170.39844L28 170.39844z" stroke="none" fill="#474747" fill-rule="nonzero" /></g></g><path id="40" transform="matrix(1 0 0 -1 0 842)" d="M567.25 170.39844L568 170.39844L568 169.64844L567.25 169.64844z" stroke="none" fill="#D8D8D8" fill-rule="nonzero" /><g clip-path="url(#31)"><g clip-path="url(#32)"><path id="41" transform="matrix(1 0 0 -1 0 842)" d="M28 171.14844L28.75 171.14844L28.75 169.64844L28 169.64844z" stroke="none" fill="#474747" fill-rule="nonzero" /></g><g clip-path="url(#33)"><path id="42" transform="matrix(1 0 0 -1 0 842)" d="M28 170.39844L568 170.39844L568 169.64844L28 169.64844z" stroke="none" fill="#D8D8D8" fill-rule="nonzero" /></g></g><g clip-path="url(#34)"><path id="43" transform="matrix(1 0 0 -1 0 842)" d="M28 171.14844L568 171.14844L568 170.39844L28 170.39844z" stroke="none" fill="#474747" fill-rule="nonzero" /></g><path id="44" transform="matrix(1 0 0 -1 0 842)" d="M567.25 171.14844L568 171.14844L568 169.64844L567.25 169.64844z" stroke="none" fill="#D8D8D8" fill-rule="nonzero" /><g clip-path="url(#35)"><path id="45" transform="matrix(1 0 0 -1 0 842)" d="M28 170.39844L568 170.39844L568 169.64844L28 169.64844z" stroke="none" fill="#D8D8D8" fill-rule="nonzero" /></g><path id="46" transform="matrix(1 0 0 -1 0 842)" d="M28 171.14844L28.75 171.14844L28.75 169.64844L28 169.64844z" stroke="none" fill="#474747" fill-rule="nonzero" /><path id="47" transform="matrix(1 0 0 -1 0 842)" d="M28 149.77344L28.75 149.77344L28.75 149.02344L28 149.02344z" stroke="none" fill="#474747" fill-rule="nonzero" /><g clip-path="url(#36)"><g clip-path="url(#37)"><path id="48" transform="matrix(1 0 0 -1 0 842)" d="M567.25 149.77344L568 149.77344L568 148.27344L567.25 148.27344z" stroke="none" fill="#D8D8D8" fill-rule="nonzero" /></g><g clip-path="url(#38)"><path id="49" transform="matrix(1 0 0 -1 0 842)" d="M28 149.77344L568 149.77344L568 149.02344L28 149.02344z" stroke="none" fill="#474747" fill-rule="nonzero" /></g></g><path id="50" transform="matrix(1 0 0 -1 0 842)" d="M567.25 149.02344L568 149.02344L568 148.27344L567.25 148.27344z" stroke="none" fill="#D8D8D8" fill-rule="nonzero" /><g clip-path="url(#39)"><g clip-path="url(#40)"><path id="51" transform="matrix(1 0 0 -1 0 842)" d="M28 149.77344L28.75 149.77344L28.75 148.27344L28 148.27344z" stroke="none" fill="#474747" fill-rule="nonzero" /></g><g clip-path="url(#41)"><path id="52" transform="matrix(1 0 0 -1 0 842)" d="M28 149.02344L568 149.02344L568 148.27344L28 148.27344z" stroke="none" fill="#D8D8D8" fill-rule="nonzero" /></g></g><g clip-path="url(#42)"><path id="53" transform="matrix(1 0 0 -1 0 842)" d="M28 149.77344L568 149.77344L568 149.02344L28 149.02344z" stroke="none" fill="#474747" fill-rule="nonzero" /></g><path id="54" transform="matrix(1 0 0 -1 0 842)" d="M567.25 149.77344L568 149.77344L568 148.27344L567.25 148.27344z" stroke="none" fill="#D8D8D8" fill-rule="nonzero" /><g clip-path="url(#43)"><path id="55" transform="matrix(1 0 0 -1 0 842)" d="M28 149.02344L568 149.02344L568 148.27344L28 148.27344z" stroke="none" fill="#D8D8D8" fill-rule="nonzero" /></g><path id="56" transform="matrix(1 0 0 -1 0 842)" d="M28 149.77344L28.75 149.77344L28.75 148.27344L28 148.27344z" stroke="none" fill="#474747" fill-rule="nonzero" /><path id="57" transform="matrix(1 0 0 -1 0 842)" d="M28 116.02344L28.75 116.02344L28.75 115.27344L28 115.27344z" stroke="none" fill="#474747" fill-rule="nonzero" /><g clip-path="url(#44)"><g clip-path="url(#45)"><path id="58" transform="matrix(1 0 0 -1 0 842)" d="M567.25 116.02344L568 116.02344L568 114.52344L567.25 114.52344z" stroke="none" fill="#D8D8D8" fill-rule="nonzero" /></g><g clip-path="url(#46)"><path id="59" transform="matrix(1 0 0 -1 0 842)" d="M28 116.02344L568 116.02344L568 115.27344L28 115.27344z" stroke="none" fill="#474747" fill-rule="nonzero" /></g></g><path id="60" transform="matrix(1 0 0 -1 0 842)" d="M567.25 115.27344L568 115.27344L568 114.52344L567.25 114.52344z" stroke="none" fill="#D8D8D8" fill-rule="nonzero" /><g clip-path="url(#47)"><g clip-path="url(#48)"><path id="61" transform="matrix(1 0 0 -1 0 842)" d="M28 116.02344L28.75 116.02344L28.75 114.52344L28 114.52344z" stroke="none" fill="#474747" fill-rule="nonzero" /></g><g clip-path="url(#49)"><path id="62" transform="matrix(1 0 0 -1 0 842)" d="M28 115.27344L568 115.27344L568 114.52344L28 114.52344z" stroke="none" fill="#D8D8D8" fill-rule="nonzero" /></g></g><g clip-path="url(#50)"><path id="63" transform="matrix(1 0 0 -1 0 842)" d="M28 116.02344L568 116.02344L568 115.27344L28 115.27344z" stroke="none" fill="#474747" fill-rule="nonzero" /></g><path id="64" transform="matrix(1 0 0 -1 0 842)" d="M567.25 116.02344L568 116.02344L568 114.52344L567.25 114.52344z" stroke="none" fill="#D8D8D8" fill-rule="nonzero" /><g clip-path="url(#51)"><path id="65" transform="matrix(1 0 0 -1 0 842)" d="M28 115.27344L568 115.27344L568 114.52344L28 114.52344z" stroke="none" fill="#D8D8D8" fill-rule="nonzero" /></g><path id="66" transform="matrix(1 0 0 -1 0 842)" d="M28 116.02344L28.75 116.02344L28.75 114.52344L28 114.52344z" stroke="none" fill="#474747" fill-rule="nonzero" /><path id="67" transform="matrix(1 0 0 -1 0 842)" d="M28 94.64844L28.75 94.64844L28.75 93.89844L28 93.89844z" stroke="none" fill="#474747" fill-rule="nonzero" /><g clip-path="url(#52)"><g clip-path="url(#53)"><path id="68" transform="matrix(1 0 0 -1 0 842)" d="M567.25 94.64844L568 94.64844L568 93.14844L567.25 93.14844z" stroke="none" fill="#D8D8D8" fill-rule="nonzero" /></g><g clip-path="url(#54)"><path id="69" transform="matrix(1 0 0 -1 0 842)" d="M28 94.64844L568 94.64844L568 93.89844L28 93.89844z" stroke="none" fill="#474747" fill-rule="nonzero" /></g></g><path id="70" transform="matrix(1 0 0 -1 0 842)" d="M567.25 93.89844L568 93.89844L568 93.14844L567.25 93.14844z" stroke="none" fill="#D8D8D8" fill-rule="nonzero" /><g clip-path="url(#55)"><g clip-path="url(#56)"><path id="71" transform="matrix(1 0 0 -1 0 842)" d="M28 94.64844L28.75 94.64844L28.75 93.14844L28 93.14844z" stroke="none" fill="#474747" fill-rule="nonzero" /></g><g clip-path="url(#57)"><path id="72" transform="matrix(1 0 0 -1 0 842)" d="M28 93.89844L568 93.89844L568 93.14844L28 93.14844z" stroke="none" fill="#D8D8D8" fill-rule="nonzero" /></g></g><g clip-path="url(#58)"><path id="73" transform="matrix(1 0 0 -1 0 842)" d="M28 94.64844L568 94.64844L568 93.89844L28 93.89844z" stroke="none" fill="#474747" fill-rule="nonzero" /></g><path id="74" transform="matrix(1 0 0 -1 0 842)" d="M567.25 94.64844L568 94.64844L568 93.14844L567.25 93.14844z" stroke="none" fill="#D8D8D8" fill-rule="nonzero" /><g clip-path="url(#59)"><path id="75" transform="matrix(1 0 0 -1 0 842)" d="M28 93.89844L568 93.89844L568 93.14844L28 93.14844z" stroke="none" fill="#D8D8D8" fill-rule="nonzero" /></g><path id="76" transform="matrix(1 0 0 -1 0 842)" d="M28 94.64844L28.75 94.64844L28.75 93.14844L28 93.14844z" stroke="none" fill="#474747" fill-rule="nonzero" /><path id="77" transform="matrix(1 0 0 -1 0 842)" d="M216.97656 814.625L562.96484 814.625L562.96484 789.875L216.97656 789.875z" stroke="none" fill="#FFFFFF" fill-rule="nonzero" /><path id="78" transform="matrix(1 0 0 -1 0 842)" d="M216.97656 789.875L562.96484 789.875L562.96484 762.625L216.97656 762.625z" stroke="none" fill="#FFFFFF" fill-rule="nonzero" /><g clip-path="url(#60)"><g transform="matrix(0.28177965 0 -0 0.2763158 421.72656 52.125)"><g transform="matrix(1 0 0 1 0 0)"><image x="0" y="0" xlink:href="img_01.png" width="354" height="95" /></g></g></g><g clip-path="url(#61)"><g transform="matrix(0.2763158 0 -0 0.2763158 534.28906 52.125)"><g transform="matrix(1 0 0 1 0 0)"><image x="0" y="0" xlink:href="img_02.png" width="95" height="95" /></g></g></g><path id="229" transform="matrix(1 0 0 -1 0 842)" d="M525 475.125L568 475.125L568 455.25L525 455.25z" stroke="none" fill="#FFD313" fill-rule="nonzero" /><g clip-path="url(#62)"><g clip-path="url(#63)"><g mask="url(#m1)"><g><g clip-path="url(#65)"><g clip-path="url(#66)"><path id="237" transform="matrix(1 0 0 -1 0 842)" d="M114.62781 773.37524C 114.62781 751.1019 96.561584 733.03174 74.28833 733.03174C 52.01111 733.03174 33.944824 751.1019 33.944824 773.37524C 33.944824 795.6485 52.01111 813.7187 74.28833 813.7187C 96.561584 813.7187 114.62781 795.6485 114.62781 773.37524" stroke="none" fill="#FFFFFF" fill-rule="nonzero" /><path id="238" transform="matrix(1 0 0 -1 0 842)" d="M74.37036 747.3871C 88.72577 747.3871 100.44043 759.01984 100.44043 773.4573C 100.44043 787.8126 88.80774 799.5274 74.37036 799.5274C 60.015015 799.5274 48.300232 787.89465 48.300232 773.4573C 48.300232 759.01984 59.932922 747.3871 74.37036 747.3871" stroke="none" fill="#FFE900" fill-rule="nonzero" /><path id="239" transform="matrix(1 0 0 -1 0 842)" d="M99.12012 774.7776L101.592834 775.4377L103.57324 767.3518L107.370056 768.26196L107.288086 770.4885L106.21387 770.2385L104.72955 776.1799L107.370056 776.84L106.70996 779.8088L104.069275 779.1486L103.24512 782.44934L100.35846 780.4689L100.850586 778.40643L98.37793 777.7463L99.03815 774.7776" stroke="none" fill="#1D1D1B" fill-rule="nonzero" /><path id="240" transform="matrix(1 0 0 -1 0 842)" d="M61.995422 775.7658L65.21033 775.7658C 64.96417 778.65643 62.48767 779.1486 61.003235 779.1486C 58.776733 779.1486 56.796326 777.7463 56.796326 775.4377C 56.796326 773.95337 57.952515 773.0471 59.35486 772.63306C 61.41736 771.80884 62.241577 771.7268 62.241577 770.9846C 62.241577 770.4885 61.66339 770.1565 61.085327 770.1565C 60.921265 770.1565 60.015015 770.1565 59.850952 771.1487L59.850952 771.1487L56.63214 771.1487C 56.96039 768.26196 59.43683 767.51587 61.085327 767.51587C 63.47986 767.51587 65.54236 768.9221 65.54236 771.31274C 65.54236 773.62134 63.56183 774.19946 61.745483 774.69556C 60.921265 774.94165 60.096985 775.2737 60.096985 775.7658C 60.096985 776.09784 60.34314 776.5119 61.003235 776.5119C 61.913452 776.59393 61.995422 776.01587 61.995422 775.7658M73.62811 774.61346L76.92505 774.61346C 76.35083 777.2541 74.03833 779.1486 71.15161 779.1486C 67.93292 779.1486 65.460266 776.59393 65.460266 773.37524C 65.460266 770.1565 68.01489 767.6018 71.2337 767.6018C 74.20233 767.6018 76.35083 769.57837 76.92505 772.05493L76.92505 772.05493L73.62811 772.05493C 73.2962 771.3948 72.635925 770.57056 71.315674 770.57056C 69.74927 770.57056 68.76105 771.7268 68.76105 773.2932C 68.76105 774.0354 69.00708 774.7776 69.503174 775.2737C 69.99542 775.7658 70.65552 776.09784 71.397766 776.01587C 72.553955 776.1799 73.21411 775.35565 73.62811 774.61346M85.342896 773.37524C 85.342896 771.80884 84.186646 770.6526 82.70233 770.6526C 81.29999 770.6526 80.06171 771.80884 80.06171 773.37524C 80.06171 774.94165 81.217896 776.09784 82.70233 776.09784C 84.104675 776.09784 85.342896 774.94165 85.342896 773.37524M88.55774 773.37524C 88.55774 776.01587 86.66327 779.1486 82.70233 779.1486C 78.741455 779.1486 76.84302 776.01587 76.84302 773.37524C 76.84302 770.7346 78.741455 767.6018 82.70233 767.6018C 86.66327 767.6018 88.55774 770.7346 88.55774 773.37524M97.05768 773.37524C 97.05768 771.80884 95.90143 770.6526 94.417114 770.6526C 93.01477 770.6526 91.77649 771.80884 91.77649 773.37524C 91.77649 774.94165 92.93268 776.09784 94.417114 776.09784C 95.90143 776.09784 97.05768 774.94165 97.05768 773.37524M98.706116 777.5002C 97.71777 778.48846 96.31543 779.1486 94.499084 779.1486C 90.53815 779.1486 88.63977 776.01587 88.63977 773.37524C 88.63977 770.7346 90.53815 767.6018 94.499084 767.6018C 98.46002 767.6018 100.35846 770.7346 100.35846 773.37524C 100.35846 774.5315 100.02643 775.68384 99.36627 776.67596z" stroke="none" fill="#1D1D1B" fill-rule="nonzero" /></g></g></g></g></g></g><path id="880" transform="matrix(1 0 0 -1 0 842)" d="M350 545.5L382 545.5" stroke="#0000EE" stroke-width="1" fill="none" /><path id="934" transform="matrix(1 0 0 -1 0 842)" d="M294 533.5L326 533.5" stroke="#0000EE" stroke-width="1" fill="none" /><path id="1002" transform="matrix(1 0 0 -1 0 842)" d="M400 521.5L448 521.5" stroke="#0000EE" stroke-width="1" fill="none" /></g></g></g></g></svg>