<svg xmlns="http://www.w3.org/2000/svg" xmlns:xlink="http://www.w3.org/1999/xlink" id="body_3" preserveAspectRatio="xMinYMin meet" viewBox="0 0 793 1121"><defs><clipPath id="1"><path id="" clip-rule="evenodd" transform="matrix(1 0 0 1 0 0)" d="M0 841L0 -0.9500122L0 -0.9500122L595.35 -0.9500122L595.35 -0.9500122L595.35 841L595.35 841L0 841z" /></clipPath><clipPath id="2"><path id="" clip-rule="evenodd" transform="matrix(1 0 0 1 0 0)" d="M22.3999 555.451L572.6 555.451L572.6 555.451L572.6 13.200989L572.6 13.200989L22.3999 13.200989L22.3999 13.200989L22.3999 555.451z" /></clipPath><clipPath id="3"><path id="" clip-rule="evenodd" transform="matrix(1 0 0 1 0 0)" d="M22.3999 13.209961L572.1492 13.209961L572.1492 13.209961L572.1492 555.45996L572.1492 555.45996L22.3999 555.45996L22.3999 555.45996L22.3999 13.209961z" /></clipPath><clipPath id="4"><path id="" clip-rule="evenodd" transform="matrix(1 0 0 1 0 0)" d="M22.3999 -634.80005L41.899902 -634.80005L41.899902 -634.80005L41.899902 -622.05005L41.899902 -622.05005L22.3999 -622.05005z" /></clipPath><clipPath id="5"><path id="" clip-rule="evenodd" transform="matrix(1 0 0 1 0 0)" d="M41.9 -634.80005L44.9 -634.80005L44.9 -634.80005L44.9 -622.05005L44.9 -622.05005L41.9 -622.05005z" /></clipPath><clipPath id="6"><path id="" clip-rule="evenodd" transform="matrix(1 0 0 1 0 0)" d="M44.9 -634.80005L47.9 -634.80005L47.9 -634.80005L47.9 -622.05005L47.9 -622.05005L44.9 -622.05005z" /></clipPath><clipPath id="7"><path id="" clip-rule="evenodd" transform="matrix(1 0 0 1 0 0)" d="M47.9 -634.80005L50.9 -634.80005L50.9 -634.80005L50.9 -622.05005L50.9 -622.05005L47.9 -622.05005z" /></clipPath><clipPath id="8"><path id="" clip-rule="evenodd" transform="matrix(1 0 0 1 0 0)" d="M50.9 -634.80005L146.9 -634.80005L146.9 -634.80005L146.9 -622.05005L146.9 -622.05005L50.9 -622.05005z" /></clipPath><clipPath id="9"><path id="" clip-rule="evenodd" transform="matrix(1 0 0 1 0 0)" d="M146.899 -634.80005L149.899 -634.80005L149.899 -634.80005L149.899 -622.05005L149.899 -622.05005L146.899 -622.05005z" /></clipPath><clipPath id="10"><path id="" clip-rule="evenodd" transform="matrix(1 0 0 1 0 0)" d="M149.899 -634.80005L193.399 -634.80005L193.399 -634.80005L193.399 -622.05005L193.399 -622.05005L149.899 -622.05005z" /></clipPath><clipPath id="11"><path id="" clip-rule="evenodd" transform="matrix(1 0 0 1 0 0)" d="M193.399 -634.80005L196.399 -634.80005L196.399 -634.80005L196.399 -622.05005L196.399 -622.05005L193.399 -622.05005z" /></clipPath><clipPath id="12"><path id="" clip-rule="evenodd" transform="matrix(1 0 0 1 0 0)" d="M196.399 -634.80005L232.399 -634.80005L232.399 -634.80005L232.399 -622.05005L232.399 -622.05005L196.399 -622.05005z" /></clipPath><clipPath id="13"><path id="" clip-rule="evenodd" transform="matrix(1 0 0 1 0 0)" d="M22.3999 -634.80005L232.3999 -634.80005L232.3999 -634.80005L232.3999 -600.30005L232.3999 -600.30005L22.3999 -600.30005z" /></clipPath><clipPath id="14"><path id="" clip-rule="evenodd" transform="matrix(1 0 0 1 0 0)" d="M32.9 -587.55005L52.4 -587.55005L52.4 -587.55005L52.4 -574.80005L52.4 -574.80005L32.9 -574.80005z" /></clipPath><clipPath id="15"><path id="" clip-rule="evenodd" transform="matrix(1 0 0 1 0 0)" d="M52.4 -587.55005L55.4 -587.55005L55.4 -587.55005L55.4 -574.80005L55.4 -574.80005L52.4 -574.80005z" /></clipPath><clipPath id="16"><path id="" clip-rule="evenodd" transform="matrix(1 0 0 1 0 0)" d="M55.4 -587.55005L58.4 -587.55005L58.4 -587.55005L58.4 -574.80005L58.4 -574.80005L55.4 -574.80005z" /></clipPath><clipPath id="17"><path id="" clip-rule="evenodd" transform="matrix(1 0 0 1 0 0)" d="M58.4 -587.55005L61.4 -587.55005L61.4 -587.55005L61.4 -574.80005L61.4 -574.80005L58.4 -574.80005z" /></clipPath><clipPath id="18"><path id="" clip-rule="evenodd" transform="matrix(1 0 0 1 0 0)" d="M61.4 -587.55005L155.9 -587.55005L155.9 -587.55005L155.9 -574.80005L155.9 -574.80005L61.4 -574.80005z" /></clipPath><clipPath id="19"><path id="" clip-rule="evenodd" transform="matrix(1 0 0 1 0 0)" d="M155.899 -587.55005L158.899 -587.55005L158.899 -587.55005L158.899 -574.80005L158.899 -574.80005L155.899 -574.80005z" /></clipPath><clipPath id="20"><path id="" clip-rule="evenodd" transform="matrix(1 0 0 1 0 0)" d="M158.899 -587.55005L167.899 -587.55005L167.899 -587.55005L167.899 -574.80005L167.899 -574.80005L158.899 -574.80005z" /></clipPath><clipPath id="21"><path id="" clip-rule="evenodd" transform="matrix(1 0 0 1 0 0)" d="M167.899 -587.55005L170.899 -587.55005L170.899 -587.55005L170.899 -574.80005L170.899 -574.80005L167.899 -574.80005z" /></clipPath><clipPath id="22"><path id="" clip-rule="evenodd" transform="matrix(1 0 0 1 0 0)" d="M170.899 -587.55005L180.649 -587.55005L180.649 -587.55005L180.649 -574.80005L180.649 -574.80005L170.899 -574.80005z" /></clipPath><clipPath id="23"><path id="" clip-rule="evenodd" transform="matrix(1 0 0 1 0 0)" d="M180.649 -587.55005L183.649 -587.55005L183.649 -587.55005L183.649 -574.80005L183.649 -574.80005L180.649 -574.80005z" /></clipPath><clipPath id="24"><path id="" clip-rule="evenodd" transform="matrix(1 0 0 1 0 0)" d="M183.649 -587.55005L267.649 -587.55005L267.649 -587.55005L267.649 -574.80005L267.649 -574.80005L183.649 -574.80005z" /></clipPath><clipPath id="25"><path id="" clip-rule="evenodd" transform="matrix(1 0 0 1 0 0)" d="M267.649 -587.55005L270.649 -587.55005L270.649 -587.55005L270.649 -574.80005L270.649 -574.80005L267.649 -574.80005z" /></clipPath><clipPath id="26"><path id="" clip-rule="evenodd" transform="matrix(1 0 0 1 0 0)" d="M270.649 -587.55005L359.149 -587.55005L359.149 -587.55005L359.149 -574.80005L359.149 -574.80005L270.649 -574.80005z" /></clipPath><clipPath id="27"><path id="" clip-rule="evenodd" transform="matrix(1 0 0 1 0 0)" d="M22.3999 -587.55005L359.1499 -587.55005L359.1499 -587.55005L359.1499 -553.05005L359.1499 -553.05005L22.3999 -553.05005z" /></clipPath><clipPath id="28"><path id="" clip-rule="evenodd" transform="matrix(1 0 0 1 0 0)" d="M50.15 -505.80005L69.65 -505.80005L69.65 -505.80005L69.65 -493.05005L69.65 -493.05005L50.15 -493.05005z" /></clipPath><clipPath id="29"><path id="" clip-rule="evenodd" transform="matrix(1 0 0 1 0 0)" d="M69.65 -505.80005L72.65 -505.80005L72.65 -505.80005L72.65 -493.05005L72.65 -493.05005L69.65 -493.05005z" /></clipPath><clipPath id="30"><path id="" clip-rule="evenodd" transform="matrix(1 0 0 1 0 0)" d="M72.65 -505.80005L75.65 -505.80005L75.65 -505.80005L75.65 -493.05005L75.65 -493.05005L72.65 -493.05005z" /></clipPath><clipPath id="31"><path id="" clip-rule="evenodd" transform="matrix(1 0 0 1 0 0)" d="M75.65 -505.80005L78.65 -505.80005L78.65 -505.80005L78.65 -493.05005L78.65 -493.05005L75.65 -493.05005z" /></clipPath><clipPath id="32"><path id="" clip-rule="evenodd" transform="matrix(1 0 0 1 0 0)" d="M78.65 -505.80005L173.15 -505.80005L173.15 -505.80005L173.15 -493.05005L173.15 -493.05005L78.65 -493.05005z" /></clipPath><clipPath id="33"><path id="" clip-rule="evenodd" transform="matrix(1 0 0 1 0 0)" d="M173.149 -505.80005L176.149 -505.80005L176.149 -505.80005L176.149 -493.05005L176.149 -493.05005L173.149 -493.05005z" /></clipPath><clipPath id="34"><path id="" clip-rule="evenodd" transform="matrix(1 0 0 1 0 0)" d="M176.149 -505.80005L185.149 -505.80005L185.149 -505.80005L185.149 -493.05005L185.149 -493.05005L176.149 -493.05005z" /></clipPath><clipPath id="35"><path id="" clip-rule="evenodd" transform="matrix(1 0 0 1 0 0)" d="M185.149 -505.80005L188.149 -505.80005L188.149 -505.80005L188.149 -493.05005L188.149 -493.05005L185.149 -493.05005z" /></clipPath><clipPath id="36"><path id="" clip-rule="evenodd" transform="matrix(1 0 0 1 0 0)" d="M188.149 -505.80005L197.899 -505.80005L197.899 -505.80005L197.899 -493.05005L197.899 -493.05005L188.149 -493.05005z" /></clipPath><clipPath id="37"><path id="" clip-rule="evenodd" transform="matrix(1 0 0 1 0 0)" d="M197.899 -505.80005L200.899 -505.80005L200.899 -505.80005L200.899 -493.05005L200.899 -493.05005L197.899 -493.05005z" /></clipPath><clipPath id="38"><path id="" clip-rule="evenodd" transform="matrix(1 0 0 1 0 0)" d="M200.899 -505.80005L209.899 -505.80005L209.899 -505.80005L209.899 -493.05005L209.899 -493.05005L200.899 -493.05005z" /></clipPath><clipPath id="39"><path id="" clip-rule="evenodd" transform="matrix(1 0 0 1 0 0)" d="M209.899 -505.80005L212.899 -505.80005L212.899 -505.80005L212.899 -493.05005L212.899 -493.05005L209.899 -493.05005z" /></clipPath><clipPath id="40"><path id="" clip-rule="evenodd" transform="matrix(1 0 0 1 0 0)" d="M212.899 -505.80005L284.899 -505.80005L284.899 -505.80005L284.899 -493.05005L284.899 -493.05005L212.899 -493.05005z" /></clipPath><clipPath id="41"><path id="" clip-rule="evenodd" transform="matrix(1 0 0 1 0 0)" d="M284.899 -505.80005L287.899 -505.80005L287.899 -505.80005L287.899 -493.05005L287.899 -493.05005L284.899 -493.05005z" /></clipPath><clipPath id="42"><path id="" clip-rule="evenodd" transform="matrix(1 0 0 1 0 0)" d="M287.899 -505.80005L323.149 -505.80005L323.149 -505.80005L323.149 -493.05005L323.149 -493.05005L287.899 -493.05005z" /></clipPath><clipPath id="43"><path id="" clip-rule="evenodd" transform="matrix(1 0 0 1 0 0)" d="M323.149 -505.80005L326.149 -505.80005L326.149 -505.80005L326.149 -493.05005L326.149 -493.05005L323.149 -493.05005z" /></clipPath><clipPath id="44"><path id="" clip-rule="evenodd" transform="matrix(1 0 0 1 0 0)" d="M326.149 -505.80005L404.899 -505.80005L404.899 -505.80005L404.899 -493.05005L404.899 -493.05005L326.149 -493.05005z" /></clipPath><clipPath id="45"><path id="" clip-rule="evenodd" transform="matrix(1 0 0 1 0 0)" d="M50.15 -442.05005L69.65 -442.05005L69.65 -442.05005L69.65 -429.30005L69.65 -429.30005L50.15 -429.30005z" /></clipPath><clipPath id="46"><path id="" clip-rule="evenodd" transform="matrix(1 0 0 1 0 0)" d="M69.65 -442.05005L72.65 -442.05005L72.65 -442.05005L72.65 -429.30005L72.65 -429.30005L69.65 -429.30005z" /></clipPath><clipPath id="47"><path id="" clip-rule="evenodd" transform="matrix(1 0 0 1 0 0)" d="M72.65 -442.05005L75.65 -442.05005L75.65 -442.05005L75.65 -429.30005L75.65 -429.30005L72.65 -429.30005z" /></clipPath><clipPath id="48"><path id="" clip-rule="evenodd" transform="matrix(1 0 0 1 0 0)" d="M75.65 -442.05005L78.65 -442.05005L78.65 -442.05005L78.65 -429.30005L78.65 -429.30005L75.65 -429.30005z" /></clipPath><clipPath id="49"><path id="" clip-rule="evenodd" transform="matrix(1 0 0 1 0 0)" d="M78.65 -442.05005L173.15 -442.05005L173.15 -442.05005L173.15 -429.30005L173.15 -429.30005L78.65 -429.30005z" /></clipPath><clipPath id="50"><path id="" clip-rule="evenodd" transform="matrix(1 0 0 1 0 0)" d="M173.149 -442.05005L176.149 -442.05005L176.149 -442.05005L176.149 -429.30005L176.149 -429.30005L173.149 -429.30005z" /></clipPath><clipPath id="51"><path id="" clip-rule="evenodd" transform="matrix(1 0 0 1 0 0)" d="M176.149 -442.05005L185.149 -442.05005L185.149 -442.05005L185.149 -429.30005L185.149 -429.30005L176.149 -429.30005z" /></clipPath><clipPath id="52"><path id="" clip-rule="evenodd" transform="matrix(1 0 0 1 0 0)" d="M185.149 -442.05005L188.149 -442.05005L188.149 -442.05005L188.149 -429.30005L188.149 -429.30005L185.149 -429.30005z" /></clipPath><clipPath id="53"><path id="" clip-rule="evenodd" transform="matrix(1 0 0 1 0 0)" d="M188.149 -442.05005L197.899 -442.05005L197.899 -442.05005L197.899 -429.30005L197.899 -429.30005L188.149 -429.30005z" /></clipPath><clipPath id="54"><path id="" clip-rule="evenodd" transform="matrix(1 0 0 1 0 0)" d="M197.899 -442.05005L200.899 -442.05005L200.899 -442.05005L200.899 -429.30005L200.899 -429.30005L197.899 -429.30005z" /></clipPath><clipPath id="55"><path id="" clip-rule="evenodd" transform="matrix(1 0 0 1 0 0)" d="M200.899 -442.05005L209.899 -442.05005L209.899 -442.05005L209.899 -429.30005L209.899 -429.30005L200.899 -429.30005z" /></clipPath><clipPath id="56"><path id="" clip-rule="evenodd" transform="matrix(1 0 0 1 0 0)" d="M209.899 -442.05005L212.899 -442.05005L212.899 -442.05005L212.899 -429.30005L212.899 -429.30005L209.899 -429.30005z" /></clipPath><clipPath id="57"><path id="" clip-rule="evenodd" transform="matrix(1 0 0 1 0 0)" d="M212.899 -442.05005L284.899 -442.05005L284.899 -442.05005L284.899 -429.30005L284.899 -429.30005L212.899 -429.30005z" /></clipPath><clipPath id="58"><path id="" clip-rule="evenodd" transform="matrix(1 0 0 1 0 0)" d="M284.899 -442.05005L287.899 -442.05005L287.899 -442.05005L287.899 -429.30005L287.899 -429.30005L284.899 -429.30005z" /></clipPath><clipPath id="59"><path id="" clip-rule="evenodd" transform="matrix(1 0 0 1 0 0)" d="M287.899 -442.05005L323.149 -442.05005L323.149 -442.05005L323.149 -429.30005L323.149 -429.30005L287.899 -429.30005z" /></clipPath><clipPath id="60"><path id="" clip-rule="evenodd" transform="matrix(1 0 0 1 0 0)" d="M323.149 -442.05005L326.149 -442.05005L326.149 -442.05005L326.149 -429.30005L326.149 -429.30005L323.149 -429.30005z" /></clipPath><clipPath id="61"><path id="" clip-rule="evenodd" transform="matrix(1 0 0 1 0 0)" d="M326.149 -442.05005L391.399 -442.05005L391.399 -442.05005L391.399 -429.30005L391.399 -429.30005L326.149 -429.30005z" /></clipPath><clipPath id="62"><path id="" clip-rule="evenodd" transform="matrix(1 0 0 1 0 0)" d="M50.15 -161.53998L69.65 -161.53998L69.65 -161.53998L69.65 -148.78998L69.65 -148.78998L50.15 -148.78998z" /></clipPath><clipPath id="63"><path id="" clip-rule="evenodd" transform="matrix(1 0 0 1 0 0)" d="M69.65 -161.53998L72.65 -161.53998L72.65 -161.53998L72.65 -148.78998L72.65 -148.78998L69.65 -148.78998z" /></clipPath><clipPath id="64"><path id="" clip-rule="evenodd" transform="matrix(1 0 0 1 0 0)" d="M72.65 -161.53998L75.65 -161.53998L75.65 -161.53998L75.65 -148.78998L75.65 -148.78998L72.65 -148.78998z" /></clipPath><clipPath id="65"><path id="" clip-rule="evenodd" transform="matrix(1 0 0 1 0 0)" d="M75.65 -161.53998L78.65 -161.53998L78.65 -161.53998L78.65 -148.78998L78.65 -148.78998L75.65 -148.78998z" /></clipPath><clipPath id="66"><path id="" clip-rule="evenodd" transform="matrix(1 0 0 1 0 0)" d="M78.65 -161.53998L173.15 -161.53998L173.15 -161.53998L173.15 -148.78998L173.15 -148.78998L78.65 -148.78998z" /></clipPath><clipPath id="67"><path id="" clip-rule="evenodd" transform="matrix(1 0 0 1 0 0)" d="M173.149 -161.53998L176.149 -161.53998L176.149 -161.53998L176.149 -148.78998L176.149 -148.78998L173.149 -148.78998z" /></clipPath><clipPath id="68"><path id="" clip-rule="evenodd" transform="matrix(1 0 0 1 0 0)" d="M176.149 -161.53998L185.149 -161.53998L185.149 -161.53998L185.149 -148.78998L185.149 -148.78998L176.149 -148.78998z" /></clipPath><clipPath id="69"><path id="" clip-rule="evenodd" transform="matrix(1 0 0 1 0 0)" d="M185.149 -161.53998L188.149 -161.53998L188.149 -161.53998L188.149 -148.78998L188.149 -148.78998L185.149 -148.78998z" /></clipPath><clipPath id="70"><path id="" clip-rule="evenodd" transform="matrix(1 0 0 1 0 0)" d="M188.149 -161.53998L197.899 -161.53998L197.899 -161.53998L197.899 -148.78998L197.899 -148.78998L188.149 -148.78998z" /></clipPath><clipPath id="71"><path id="" clip-rule="evenodd" transform="matrix(1 0 0 1 0 0)" d="M197.899 -161.53998L200.899 -161.53998L200.899 -161.53998L200.899 -148.78998L200.899 -148.78998L197.899 -148.78998z" /></clipPath><clipPath id="72"><path id="" clip-rule="evenodd" transform="matrix(1 0 0 1 0 0)" d="M200.899 -161.53998L209.899 -161.53998L209.899 -161.53998L209.899 -148.78998L209.899 -148.78998L200.899 -148.78998z" /></clipPath><clipPath id="73"><path id="" clip-rule="evenodd" transform="matrix(1 0 0 1 0 0)" d="M209.899 -161.53998L212.899 -161.53998L212.899 -161.53998L212.899 -148.78998L212.899 -148.78998L209.899 -148.78998z" /></clipPath><clipPath id="74"><path id="" clip-rule="evenodd" transform="matrix(1 0 0 1 0 0)" d="M212.899 -161.53998L284.899 -161.53998L284.899 -161.53998L284.899 -148.78998L284.899 -148.78998L212.899 -148.78998z" /></clipPath><clipPath id="75"><path id="" clip-rule="evenodd" transform="matrix(1 0 0 1 0 0)" d="M284.899 -161.53998L287.899 -161.53998L287.899 -161.53998L287.899 -148.78998L287.899 -148.78998L284.899 -148.78998z" /></clipPath><clipPath id="76"><path id="" clip-rule="evenodd" transform="matrix(1 0 0 1 0 0)" d="M287.899 -161.53998L323.149 -161.53998L323.149 -161.53998L323.149 -148.78998L323.149 -148.78998L287.899 -148.78998z" /></clipPath><clipPath id="77"><path id="" clip-rule="evenodd" transform="matrix(1 0 0 1 0 0)" d="M323.149 -161.53998L326.149 -161.53998L326.149 -161.53998L326.149 -148.78998L326.149 -148.78998L323.149 -148.78998z" /></clipPath><clipPath id="78"><path id="" clip-rule="evenodd" transform="matrix(1 0 0 1 0 0)" d="M326.149 -161.53998L399.649 -161.53998L399.649 -161.53998L399.649 -148.78998L399.649 -148.78998L326.149 -148.78998z" /></clipPath><clipPath id="79"><path id="" clip-rule="evenodd" transform="matrix(1 0 0 1 0 0)" d="M50.15 -97.79901L69.65 -97.79901L69.65 -97.79901L69.65 -85.04901L69.65 -85.04901L50.15 -85.04901z" /></clipPath><clipPath id="80"><path id="" clip-rule="evenodd" transform="matrix(1 0 0 1 0 0)" d="M69.65 -97.79901L72.65 -97.79901L72.65 -97.79901L72.65 -85.04901L72.65 -85.04901L69.65 -85.04901z" /></clipPath><clipPath id="81"><path id="" clip-rule="evenodd" transform="matrix(1 0 0 1 0 0)" d="M72.65 -97.79901L75.65 -97.79901L75.65 -97.79901L75.65 -85.04901L75.65 -85.04901L72.65 -85.04901z" /></clipPath><clipPath id="82"><path id="" clip-rule="evenodd" transform="matrix(1 0 0 1 0 0)" d="M75.65 -97.79901L78.65 -97.79901L78.65 -97.79901L78.65 -85.04901L78.65 -85.04901L75.65 -85.04901z" /></clipPath><clipPath id="83"><path id="" clip-rule="evenodd" transform="matrix(1 0 0 1 0 0)" d="M78.65 -97.79901L173.15 -97.79901L173.15 -97.79901L173.15 -85.04901L173.15 -85.04901L78.65 -85.04901z" /></clipPath><clipPath id="84"><path id="" clip-rule="evenodd" transform="matrix(1 0 0 1 0 0)" d="M173.149 -97.79901L176.149 -97.79901L176.149 -97.79901L176.149 -85.04901L176.149 -85.04901L173.149 -85.04901z" /></clipPath><clipPath id="85"><path id="" clip-rule="evenodd" transform="matrix(1 0 0 1 0 0)" d="M176.149 -97.79901L185.149 -97.79901L185.149 -97.79901L185.149 -85.04901L185.149 -85.04901L176.149 -85.04901z" /></clipPath><clipPath id="86"><path id="" clip-rule="evenodd" transform="matrix(1 0 0 1 0 0)" d="M185.149 -97.79901L188.149 -97.79901L188.149 -97.79901L188.149 -85.04901L188.149 -85.04901L185.149 -85.04901z" /></clipPath><clipPath id="87"><path id="" clip-rule="evenodd" transform="matrix(1 0 0 1 0 0)" d="M188.149 -97.79901L197.899 -97.79901L197.899 -97.79901L197.899 -85.04901L197.899 -85.04901L188.149 -85.04901z" /></clipPath><clipPath id="88"><path id="" clip-rule="evenodd" transform="matrix(1 0 0 1 0 0)" d="M197.899 -97.79901L200.899 -97.79901L200.899 -97.79901L200.899 -85.04901L200.899 -85.04901L197.899 -85.04901z" /></clipPath><clipPath id="89"><path id="" clip-rule="evenodd" transform="matrix(1 0 0 1 0 0)" d="M200.899 -97.79901L209.899 -97.79901L209.899 -97.79901L209.899 -85.04901L209.899 -85.04901L200.899 -85.04901z" /></clipPath><clipPath id="90"><path id="" clip-rule="evenodd" transform="matrix(1 0 0 1 0 0)" d="M209.899 -97.79901L212.899 -97.79901L212.899 -97.79901L212.899 -85.04901L212.899 -85.04901L209.899 -85.04901z" /></clipPath><clipPath id="91"><path id="" clip-rule="evenodd" transform="matrix(1 0 0 1 0 0)" d="M212.899 -97.79901L284.899 -97.79901L284.899 -97.79901L284.899 -85.04901L284.899 -85.04901L212.899 -85.04901z" /></clipPath><clipPath id="92"><path id="" clip-rule="evenodd" transform="matrix(1 0 0 1 0 0)" d="M284.899 -97.79901L287.899 -97.79901L287.899 -97.79901L287.899 -85.04901L287.899 -85.04901L284.899 -85.04901z" /></clipPath><clipPath id="93"><path id="" clip-rule="evenodd" transform="matrix(1 0 0 1 0 0)" d="M287.899 -97.79901L323.149 -97.79901L323.149 -97.79901L323.149 -85.04901L323.149 -85.04901L287.899 -85.04901z" /></clipPath><clipPath id="94"><path id="" clip-rule="evenodd" transform="matrix(1 0 0 1 0 0)" d="M323.149 -97.79901L326.149 -97.79901L326.149 -97.79901L326.149 -85.04901L326.149 -85.04901L323.149 -85.04901z" /></clipPath><clipPath id="95"><path id="" clip-rule="evenodd" transform="matrix(1 0 0 1 0 0)" d="M326.149 -97.79901L451.399 -97.79901L451.399 -97.79901L451.399 -85.04901L451.399 -85.04901L326.149 -85.04901z" /></clipPath><clipPath id="96"><path id="" clip-rule="evenodd" transform="matrix(1 0 0 1 0 0)" d="M50.15 -72.29901L69.65 -72.29901L69.65 -72.29901L69.65 -59.54901L69.65 -59.54901L50.15 -59.54901z" /></clipPath><clipPath id="97"><path id="" clip-rule="evenodd" transform="matrix(1 0 0 1 0 0)" d="M69.65 -72.29901L72.65 -72.29901L72.65 -72.29901L72.65 -59.54901L72.65 -59.54901L69.65 -59.54901z" /></clipPath><clipPath id="98"><path id="" clip-rule="evenodd" transform="matrix(1 0 0 1 0 0)" d="M72.65 -72.29901L75.65 -72.29901L75.65 -72.29901L75.65 -59.54901L75.65 -59.54901L72.65 -59.54901z" /></clipPath><clipPath id="99"><path id="" clip-rule="evenodd" transform="matrix(1 0 0 1 0 0)" d="M75.65 -72.29901L78.65 -72.29901L78.65 -72.29901L78.65 -59.54901L78.65 -59.54901L75.65 -59.54901z" /></clipPath><clipPath id="100"><path id="" clip-rule="evenodd" transform="matrix(1 0 0 1 0 0)" d="M78.65 -72.29901L173.15 -72.29901L173.15 -72.29901L173.15 -59.54901L173.15 -59.54901L78.65 -59.54901z" /></clipPath><clipPath id="101"><path id="" clip-rule="evenodd" transform="matrix(1 0 0 1 0 0)" d="M173.149 -72.29901L176.149 -72.29901L176.149 -72.29901L176.149 -59.54901L176.149 -59.54901L173.149 -59.54901z" /></clipPath><clipPath id="102"><path id="" clip-rule="evenodd" transform="matrix(1 0 0 1 0 0)" d="M176.149 -72.29901L185.149 -72.29901L185.149 -72.29901L185.149 -59.54901L185.149 -59.54901L176.149 -59.54901z" /></clipPath><clipPath id="103"><path id="" clip-rule="evenodd" transform="matrix(1 0 0 1 0 0)" d="M185.149 -72.29901L188.149 -72.29901L188.149 -72.29901L188.149 -59.54901L188.149 -59.54901L185.149 -59.54901z" /></clipPath><clipPath id="104"><path id="" clip-rule="evenodd" transform="matrix(1 0 0 1 0 0)" d="M188.149 -72.29901L197.899 -72.29901L197.899 -72.29901L197.899 -59.54901L197.899 -59.54901L188.149 -59.54901z" /></clipPath><clipPath id="105"><path id="" clip-rule="evenodd" transform="matrix(1 0 0 1 0 0)" d="M197.899 -72.29901L200.899 -72.29901L200.899 -72.29901L200.899 -59.54901L200.899 -59.54901L197.899 -59.54901z" /></clipPath><clipPath id="106"><path id="" clip-rule="evenodd" transform="matrix(1 0 0 1 0 0)" d="M200.899 -72.29901L209.899 -72.29901L209.899 -72.29901L209.899 -59.54901L209.899 -59.54901L200.899 -59.54901z" /></clipPath><clipPath id="107"><path id="" clip-rule="evenodd" transform="matrix(1 0 0 1 0 0)" d="M209.899 -72.29901L212.899 -72.29901L212.899 -72.29901L212.899 -59.54901L212.899 -59.54901L209.899 -59.54901z" /></clipPath><clipPath id="108"><path id="" clip-rule="evenodd" transform="matrix(1 0 0 1 0 0)" d="M212.899 -72.29901L284.899 -72.29901L284.899 -72.29901L284.899 -59.54901L284.899 -59.54901L212.899 -59.54901z" /></clipPath><clipPath id="109"><path id="" clip-rule="evenodd" transform="matrix(1 0 0 1 0 0)" d="M284.899 -72.29901L287.899 -72.29901L287.899 -72.29901L287.899 -59.54901L287.899 -59.54901L284.899 -59.54901z" /></clipPath><clipPath id="110"><path id="" clip-rule="evenodd" transform="matrix(1 0 0 1 0 0)" d="M287.899 -72.29901L323.149 -72.29901L323.149 -72.29901L323.149 -59.54901L323.149 -59.54901L287.899 -59.54901z" /></clipPath><clipPath id="111"><path id="" clip-rule="evenodd" transform="matrix(1 0 0 1 0 0)" d="M323.149 -72.29901L326.149 -72.29901L326.149 -72.29901L326.149 -59.54901L326.149 -59.54901L323.149 -59.54901z" /></clipPath><clipPath id="112"><path id="" clip-rule="evenodd" transform="matrix(1 0 0 1 0 0)" d="M326.149 -72.29901L410.899 -72.29901L410.899 -72.29901L410.899 -59.54901L410.899 -59.54901L326.149 -59.54901z" /></clipPath><clipPath id="113"><path id="" clip-rule="evenodd" transform="matrix(1 0 0 1 0 0)" d="M50.15 -21.299011L69.65 -21.299011L69.65 -21.299011L69.65 -8.549011L69.65 -8.549011L50.15 -8.549011z" /></clipPath><clipPath id="114"><path id="" clip-rule="evenodd" transform="matrix(1 0 0 1 0 0)" d="M69.65 -21.299011L72.65 -21.299011L72.65 -21.299011L72.65 -8.549011L72.65 -8.549011L69.65 -8.549011z" /></clipPath><clipPath id="115"><path id="" clip-rule="evenodd" transform="matrix(1 0 0 1 0 0)" d="M72.65 -21.299011L75.65 -21.299011L75.65 -21.299011L75.65 -8.549011L75.65 -8.549011L72.65 -8.549011z" /></clipPath><clipPath id="116"><path id="" clip-rule="evenodd" transform="matrix(1 0 0 1 0 0)" d="M75.65 -21.299011L78.65 -21.299011L78.65 -21.299011L78.65 -8.549011L78.65 -8.549011L75.65 -8.549011z" /></clipPath><clipPath id="117"><path id="" clip-rule="evenodd" transform="matrix(1 0 0 1 0 0)" d="M78.65 -21.299011L173.15 -21.299011L173.15 -21.299011L173.15 -8.549011L173.15 -8.549011L78.65 -8.549011z" /></clipPath><clipPath id="118"><path id="" clip-rule="evenodd" transform="matrix(1 0 0 1 0 0)" d="M173.149 -21.299011L176.149 -21.299011L176.149 -21.299011L176.149 -8.549011L176.149 -8.549011L173.149 -8.549011z" /></clipPath><clipPath id="119"><path id="" clip-rule="evenodd" transform="matrix(1 0 0 1 0 0)" d="M176.149 -21.299011L185.149 -21.299011L185.149 -21.299011L185.149 -8.549011L185.149 -8.549011L176.149 -8.549011z" /></clipPath><clipPath id="120"><path id="" clip-rule="evenodd" transform="matrix(1 0 0 1 0 0)" d="M185.149 -21.299011L188.149 -21.299011L188.149 -21.299011L188.149 -8.549011L188.149 -8.549011L185.149 -8.549011z" /></clipPath><clipPath id="121"><path id="" clip-rule="evenodd" transform="matrix(1 0 0 1 0 0)" d="M188.149 -21.299011L197.899 -21.299011L197.899 -21.299011L197.899 -8.549011L197.899 -8.549011L188.149 -8.549011z" /></clipPath><clipPath id="122"><path id="" clip-rule="evenodd" transform="matrix(1 0 0 1 0 0)" d="M197.899 -21.299011L200.899 -21.299011L200.899 -21.299011L200.899 -8.549011L200.899 -8.549011L197.899 -8.549011z" /></clipPath><clipPath id="123"><path id="" clip-rule="evenodd" transform="matrix(1 0 0 1 0 0)" d="M200.899 -21.299011L209.899 -21.299011L209.899 -21.299011L209.899 -8.549011L209.899 -8.549011L200.899 -8.549011z" /></clipPath><clipPath id="124"><path id="" clip-rule="evenodd" transform="matrix(1 0 0 1 0 0)" d="M209.899 -21.299011L212.899 -21.299011L212.899 -21.299011L212.899 -8.549011L212.899 -8.549011L209.899 -8.549011z" /></clipPath><clipPath id="125"><path id="" clip-rule="evenodd" transform="matrix(1 0 0 1 0 0)" d="M212.899 -21.299011L284.899 -21.299011L284.899 -21.299011L284.899 -8.549011L284.899 -8.549011L212.899 -8.549011z" /></clipPath><clipPath id="126"><path id="" clip-rule="evenodd" transform="matrix(1 0 0 1 0 0)" d="M284.899 -21.299011L287.899 -21.299011L287.899 -21.299011L287.899 -8.549011L287.899 -8.549011L284.899 -8.549011z" /></clipPath><clipPath id="127"><path id="" clip-rule="evenodd" transform="matrix(1 0 0 1 0 0)" d="M287.899 -21.299011L323.149 -21.299011L323.149 -21.299011L323.149 -8.549011L323.149 -8.549011L287.899 -8.549011z" /></clipPath><clipPath id="128"><path id="" clip-rule="evenodd" transform="matrix(1 0 0 1 0 0)" d="M323.149 -21.299011L326.149 -21.299011L326.149 -21.299011L326.149 -8.549011L326.149 -8.549011L323.149 -8.549011z" /></clipPath><clipPath id="129"><path id="" clip-rule="evenodd" transform="matrix(1 0 0 1 0 0)" d="M326.149 -21.299011L383.899 -21.299011L383.899 -21.299011L383.899 -8.549011L383.899 -8.549011L326.149 -8.549011z" /></clipPath><clipPath id="130"><path id="" clip-rule="evenodd" transform="matrix(1 0 0 1 0 0)" d="M22.3999 -21.299011L383.8999 -21.299011L383.8999 -21.299011L383.8999 13.200989L383.8999 13.200989L22.3999 13.200989z" /></clipPath><clipPath id="131"><path id="" clip-rule="evenodd" transform="matrix(1 0 0 1 0 0)" d="M32.9 25.950989L52.4 25.950989L52.4 25.950989L52.4 38.70099L52.4 38.70099L32.9 38.70099z" /></clipPath><clipPath id="132"><path id="" clip-rule="evenodd" transform="matrix(1 0 0 1 0 0)" d="M52.4 25.950989L55.4 25.950989L55.4 25.950989L55.4 38.70099L55.4 38.70099L52.4 38.70099z" /></clipPath><clipPath id="133"><path id="" clip-rule="evenodd" transform="matrix(1 0 0 1 0 0)" d="M55.4 25.950989L58.4 25.950989L58.4 25.950989L58.4 38.70099L58.4 38.70099L55.4 38.70099z" /></clipPath><clipPath id="134"><path id="" clip-rule="evenodd" transform="matrix(1 0 0 1 0 0)" d="M58.4 25.950989L61.4 25.950989L61.4 25.950989L61.4 38.70099L61.4 38.70099L58.4 38.70099z" /></clipPath><clipPath id="135"><path id="" clip-rule="evenodd" transform="matrix(1 0 0 1 0 0)" d="M61.4 25.950989L155.9 25.950989L155.9 25.950989L155.9 38.70099L155.9 38.70099L61.4 38.70099z" /></clipPath><clipPath id="136"><path id="" clip-rule="evenodd" transform="matrix(1 0 0 1 0 0)" d="M155.899 25.950989L158.899 25.950989L158.899 25.950989L158.899 38.70099L158.899 38.70099L155.899 38.70099z" /></clipPath><clipPath id="137"><path id="" clip-rule="evenodd" transform="matrix(1 0 0 1 0 0)" d="M158.899 25.950989L167.899 25.950989L167.899 25.950989L167.899 38.70099L167.899 38.70099L158.899 38.70099z" /></clipPath><clipPath id="138"><path id="" clip-rule="evenodd" transform="matrix(1 0 0 1 0 0)" d="M167.899 25.950989L170.899 25.950989L170.899 25.950989L170.899 38.70099L170.899 38.70099L167.899 38.70099z" /></clipPath><clipPath id="139"><path id="" clip-rule="evenodd" transform="matrix(1 0 0 1 0 0)" d="M170.899 25.950989L180.649 25.950989L180.649 25.950989L180.649 38.70099L180.649 38.70099L170.899 38.70099z" /></clipPath><clipPath id="140"><path id="" clip-rule="evenodd" transform="matrix(1 0 0 1 0 0)" d="M180.649 25.950989L183.649 25.950989L183.649 25.950989L183.649 38.70099L183.649 38.70099L180.649 38.70099z" /></clipPath><clipPath id="141"><path id="" clip-rule="evenodd" transform="matrix(1 0 0 1 0 0)" d="M183.649 25.950989L215.149 25.950989L215.149 25.950989L215.149 38.70099L215.149 38.70099L183.649 38.70099z" /></clipPath><clipPath id="142"><path id="" clip-rule="evenodd" transform="matrix(1 0 0 1 0 0)" d="M215.149 25.950989L218.149 25.950989L218.149 25.950989L218.149 38.70099L218.149 38.70099L215.149 38.70099z" /></clipPath><clipPath id="143"><path id="" clip-rule="evenodd" transform="matrix(1 0 0 1 0 0)" d="M218.149 25.950989L285.649 25.950989L285.649 25.950989L285.649 38.70099L285.649 38.70099L218.149 38.70099z" /></clipPath><clipPath id="144"><path id="" clip-rule="evenodd" transform="matrix(1 0 0 1 0 0)" d="M285.649 25.950989L288.649 25.950989L288.649 25.950989L288.649 38.70099L288.649 38.70099L285.649 38.70099z" /></clipPath><clipPath id="145"><path id="" clip-rule="evenodd" transform="matrix(1 0 0 1 0 0)" d="M288.649 25.950989L366.649 25.950989L366.649 25.950989L366.649 38.70099L366.649 38.70099L288.649 38.70099z" /></clipPath><clipPath id="146"><path id="" clip-rule="evenodd" transform="matrix(1 0 0 1 0 0)" d="M22.3999 25.950989L366.6499 25.950989L366.6499 25.950989L366.6499 60.45099L366.6499 60.45099L22.3999 60.45099z" /></clipPath><clipPath id="147"><path id="" clip-rule="evenodd" transform="matrix(1 0 0 1 0 0)" d="M32.9 73.20099L52.4 73.20099L52.4 73.20099L52.4 85.95099L52.4 85.95099L32.9 85.95099z" /></clipPath><clipPath id="148"><path id="" clip-rule="evenodd" transform="matrix(1 0 0 1 0 0)" d="M52.4 73.20099L55.4 73.20099L55.4 73.20099L55.4 85.95099L55.4 85.95099L52.4 85.95099z" /></clipPath><clipPath id="149"><path id="" clip-rule="evenodd" transform="matrix(1 0 0 1 0 0)" d="M55.4 73.20099L58.4 73.20099L58.4 73.20099L58.4 85.95099L58.4 85.95099L55.4 85.95099z" /></clipPath><clipPath id="150"><path id="" clip-rule="evenodd" transform="matrix(1 0 0 1 0 0)" d="M58.4 73.20099L61.4 73.20099L61.4 73.20099L61.4 85.95099L61.4 85.95099L58.4 85.95099z" /></clipPath><clipPath id="151"><path id="" clip-rule="evenodd" transform="matrix(1 0 0 1 0 0)" d="M61.4 73.20099L157.4 73.20099L157.4 73.20099L157.4 85.95099L157.4 85.95099L61.4 85.95099z" /></clipPath><clipPath id="152"><path id="" clip-rule="evenodd" transform="matrix(1 0 0 1 0 0)" d="M157.399 73.20099L160.399 73.20099L160.399 73.20099L160.399 85.95099L160.399 85.95099L157.399 85.95099z" /></clipPath><clipPath id="153"><path id="" clip-rule="evenodd" transform="matrix(1 0 0 1 0 0)" d="M160.399 73.20099L209.899 73.20099L209.899 73.20099L209.899 85.95099L209.899 85.95099L160.399 85.95099z" /></clipPath><clipPath id="154"><path id="" clip-rule="evenodd" transform="matrix(1 0 0 1 0 0)" d="M209.899 73.20099L212.899 73.20099L212.899 73.20099L212.899 85.95099L212.899 85.95099L209.899 85.95099z" /></clipPath><clipPath id="155"><path id="" clip-rule="evenodd" transform="matrix(1 0 0 1 0 0)" d="M212.899 73.20099L278.149 73.20099L278.149 73.20099L278.149 85.95099L278.149 85.95099L212.899 85.95099z" /></clipPath><clipPath id="156"><path id="" clip-rule="evenodd" transform="matrix(1 0 0 1 0 0)" d="M278.149 73.20099L283.399 73.20099L283.399 73.20099L283.399 85.95099L283.399 85.95099L278.149 85.95099z" /></clipPath><clipPath id="157"><path id="" clip-rule="evenodd" transform="matrix(1 0 0 1 0 0)" d="M283.399 73.20099L300.649 73.20099L300.649 73.20099L300.649 85.95099L300.649 85.95099L283.399 85.95099z" /></clipPath><clipPath id="158"><path id="" clip-rule="evenodd" transform="matrix(1 0 0 1 0 0)" d="M300.649 73.20099L305.899 73.20099L305.899 73.20099L305.899 85.95099L305.899 85.95099L300.649 85.95099z" /></clipPath><clipPath id="159"><path id="" clip-rule="evenodd" transform="matrix(1 0 0 1 0 0)" d="M305.899 73.20099L332.899 73.20099L332.899 73.20099L332.899 85.95099L332.899 85.95099L305.899 85.95099z" /></clipPath><clipPath id="160"><path id="" clip-rule="evenodd" transform="matrix(1 0 0 1 0 0)" d="M332.899 73.20099L338.899 73.20099L338.899 73.20099L338.899 85.95099L338.899 85.95099L332.899 85.95099z" /></clipPath><clipPath id="161"><path id="" clip-rule="evenodd" transform="matrix(1 0 0 1 0 0)" d="M338.899 73.20099L368.899 73.20099L368.899 73.20099L368.899 85.95099L368.899 85.95099L338.899 85.95099z" /></clipPath><clipPath id="162"><path id="" clip-rule="evenodd" transform="matrix(1 0 0 1 0 0)" d="M368.899 73.20099L374.149 73.20099L374.149 73.20099L374.149 85.95099L374.149 85.95099L368.899 85.95099z" /></clipPath><clipPath id="163"><path id="" clip-rule="evenodd" transform="matrix(1 0 0 1 0 0)" d="M374.149 73.20099L383.149 73.20099L383.149 73.20099L383.149 85.95099L383.149 85.95099L374.149 85.95099z" /></clipPath><clipPath id="164"><path id="" clip-rule="evenodd" transform="matrix(1 0 0 1 0 0)" d="M383.149 73.20099L389.149 73.20099L389.149 73.20099L389.149 85.95099L389.149 85.95099L383.149 85.95099z" /></clipPath><clipPath id="165"><path id="" clip-rule="evenodd" transform="matrix(1 0 0 1 0 0)" d="M389.149 73.20099L413.149 73.20099L413.149 73.20099L413.149 85.95099L413.149 85.95099L389.149 85.95099z" /></clipPath><clipPath id="166"><path id="" clip-rule="evenodd" transform="matrix(1 0 0 1 0 0)" d="M413.149 73.20099L418.399 73.20099L418.399 73.20099L418.399 85.95099L418.399 85.95099L413.149 85.95099z" /></clipPath><clipPath id="167"><path id="" clip-rule="evenodd" transform="matrix(1 0 0 1 0 0)" d="M418.399 73.20099L428.149 73.20099L428.149 73.20099L428.149 85.95099L428.149 85.95099L418.399 85.95099z" /></clipPath><clipPath id="168"><path id="" clip-rule="evenodd" transform="matrix(1 0 0 1 0 0)" d="M22.3999 73.20099L428.1499 73.20099L428.1499 73.20099L428.1499 107.70099L428.1499 107.70099L22.3999 107.70099z" /></clipPath><clipPath id="169"><path id="" clip-rule="evenodd" transform="matrix(1 0 0 1 0 0)" d="M35.15 107.70099L54.65 107.70099L54.65 107.70099L54.65 120.45099L54.65 120.45099L35.15 120.45099z" /></clipPath><clipPath id="170"><path id="" clip-rule="evenodd" transform="matrix(1 0 0 1 0 0)" d="M54.65 107.70099L57.65 107.70099L57.65 107.70099L57.65 120.45099L57.65 120.45099L54.65 120.45099z" /></clipPath><clipPath id="171"><path id="" clip-rule="evenodd" transform="matrix(1 0 0 1 0 0)" d="M57.65 107.70099L60.65 107.70099L60.65 107.70099L60.65 120.45099L60.65 120.45099L57.65 120.45099z" /></clipPath><clipPath id="172"><path id="" clip-rule="evenodd" transform="matrix(1 0 0 1 0 0)" d="M60.65 107.70099L63.65 107.70099L63.65 107.70099L63.65 120.45099L63.65 120.45099L60.65 120.45099z" /></clipPath><clipPath id="173"><path id="" clip-rule="evenodd" transform="matrix(1 0 0 1 0 0)" d="M63.65 107.70099L158.15 107.70099L158.15 107.70099L158.15 120.45099L158.15 120.45099L63.65 120.45099z" /></clipPath><clipPath id="174"><path id="" clip-rule="evenodd" transform="matrix(1 0 0 1 0 0)" d="M158.149 107.70099L161.149 107.70099L161.149 107.70099L161.149 120.45099L161.149 120.45099L158.149 120.45099z" /></clipPath><clipPath id="175"><path id="" clip-rule="evenodd" transform="matrix(1 0 0 1 0 0)" d="M161.149 107.70099L170.899 107.70099L170.899 107.70099L170.899 120.45099L170.899 120.45099L161.149 120.45099z" /></clipPath><clipPath id="176"><path id="" clip-rule="evenodd" transform="matrix(1 0 0 1 0 0)" d="M170.899 107.70099L173.899 107.70099L173.899 107.70099L173.899 120.45099L173.899 120.45099L170.899 120.45099z" /></clipPath><clipPath id="177"><path id="" clip-rule="evenodd" transform="matrix(1 0 0 1 0 0)" d="M173.899 107.70099L183.649 107.70099L183.649 107.70099L183.649 120.45099L183.649 120.45099L173.899 120.45099z" /></clipPath><clipPath id="178"><path id="" clip-rule="evenodd" transform="matrix(1 0 0 1 0 0)" d="M183.649 107.70099L186.649 107.70099L186.649 107.70099L186.649 120.45099L186.649 120.45099L183.649 120.45099z" /></clipPath><clipPath id="179"><path id="" clip-rule="evenodd" transform="matrix(1 0 0 1 0 0)" d="M186.649 107.70099L218.149 107.70099L218.149 107.70099L218.149 120.45099L218.149 120.45099L186.649 120.45099z" /></clipPath><clipPath id="180"><path id="" clip-rule="evenodd" transform="matrix(1 0 0 1 0 0)" d="M218.149 107.70099L221.149 107.70099L221.149 107.70099L221.149 120.45099L221.149 120.45099L218.149 120.45099z" /></clipPath><clipPath id="181"><path id="" clip-rule="evenodd" transform="matrix(1 0 0 1 0 0)" d="M221.149 107.70099L288.649 107.70099L288.649 107.70099L288.649 120.45099L288.649 120.45099L221.149 120.45099z" /></clipPath><clipPath id="182"><path id="" clip-rule="evenodd" transform="matrix(1 0 0 1 0 0)" d="M288.649 107.70099L291.649 107.70099L291.649 107.70099L291.649 120.45099L291.649 120.45099L288.649 120.45099z" /></clipPath><clipPath id="183"><path id="" clip-rule="evenodd" transform="matrix(1 0 0 1 0 0)" d="M291.649 107.70099L400.399 107.70099L400.399 107.70099L400.399 120.45099L400.399 120.45099L291.649 120.45099z" /></clipPath><clipPath id="184"><path id="" clip-rule="evenodd" transform="matrix(1 0 0 1 0 0)" d="M22.3999 107.70099L400.3999 107.70099L400.3999 107.70099L400.3999 142.20099L400.3999 142.20099L22.3999 142.20099z" /></clipPath><clipPath id="185"><path id="" clip-rule="evenodd" transform="matrix(1 0 0 1 0 0)" d="M171.649 142.20099L191.149 142.20099L191.149 142.20099L191.149 154.95099L191.149 154.95099L171.649 154.95099z" /></clipPath><clipPath id="186"><path id="" clip-rule="evenodd" transform="matrix(1 0 0 1 0 0)" d="M191.149 142.20099L194.149 142.20099L194.149 142.20099L194.149 154.95099L194.149 154.95099L191.149 154.95099z" /></clipPath><clipPath id="187"><path id="" clip-rule="evenodd" transform="matrix(1 0 0 1 0 0)" d="M194.149 142.20099L197.149 142.20099L197.149 142.20099L197.149 154.95099L197.149 154.95099L194.149 154.95099z" /></clipPath><clipPath id="188"><path id="" clip-rule="evenodd" transform="matrix(1 0 0 1 0 0)" d="M197.149 142.20099L200.149 142.20099L200.149 142.20099L200.149 154.95099L200.149 154.95099L197.149 154.95099z" /></clipPath><clipPath id="189"><path id="" clip-rule="evenodd" transform="matrix(1 0 0 1 0 0)" d="M200.149 142.20099L296.149 142.20099L296.149 142.20099L296.149 154.95099L296.149 154.95099L200.149 154.95099z" /></clipPath><clipPath id="190"><path id="" clip-rule="evenodd" transform="matrix(1 0 0 1 0 0)" d="M296.149 142.20099L299.149 142.20099L299.149 142.20099L299.149 154.95099L299.149 154.95099L296.149 154.95099z" /></clipPath><clipPath id="191"><path id="" clip-rule="evenodd" transform="matrix(1 0 0 1 0 0)" d="M299.149 142.20099L315.649 142.20099L315.649 142.20099L315.649 154.95099L315.649 154.95099L299.149 154.95099z" /></clipPath><clipPath id="192"><path id="" clip-rule="evenodd" transform="matrix(1 0 0 1 0 0)" d="M315.649 142.20099L318.649 142.20099L318.649 142.20099L318.649 154.95099L318.649 154.95099L315.649 154.95099z" /></clipPath><clipPath id="193"><path id="" clip-rule="evenodd" transform="matrix(1 0 0 1 0 0)" d="M318.649 142.20099L346.399 142.20099L346.399 142.20099L346.399 154.95099L346.399 154.95099L318.649 154.95099z" /></clipPath><clipPath id="194"><path id="" clip-rule="evenodd" transform="matrix(1 0 0 1 0 0)" d="M346.399 142.20099L351.649 142.20099L351.649 142.20099L351.649 154.95099L351.649 154.95099L346.399 154.95099z" /></clipPath><clipPath id="195"><path id="" clip-rule="evenodd" transform="matrix(1 0 0 1 0 0)" d="M351.649 142.20099L381.649 142.20099L381.649 142.20099L381.649 154.95099L381.649 154.95099L351.649 154.95099z" /></clipPath><clipPath id="196"><path id="" clip-rule="evenodd" transform="matrix(1 0 0 1 0 0)" d="M381.649 142.20099L386.899 142.20099L386.899 142.20099L386.899 154.95099L386.899 154.95099L381.649 154.95099z" /></clipPath><clipPath id="197"><path id="" clip-rule="evenodd" transform="matrix(1 0 0 1 0 0)" d="M386.899 142.20099L395.899 142.20099L395.899 142.20099L395.899 154.95099L395.899 154.95099L386.899 154.95099z" /></clipPath><clipPath id="198"><path id="" clip-rule="evenodd" transform="matrix(1 0 0 1 0 0)" d="M395.899 142.20099L401.899 142.20099L401.899 142.20099L401.899 154.95099L401.899 154.95099L395.899 154.95099z" /></clipPath><clipPath id="199"><path id="" clip-rule="evenodd" transform="matrix(1 0 0 1 0 0)" d="M401.899 142.20099L425.899 142.20099L425.899 142.20099L425.899 154.95099L425.899 154.95099L401.899 154.95099z" /></clipPath><clipPath id="200"><path id="" clip-rule="evenodd" transform="matrix(1 0 0 1 0 0)" d="M425.899 142.20099L431.149 142.20099L431.149 142.20099L431.149 154.95099L431.149 154.95099L425.899 154.95099z" /></clipPath><clipPath id="201"><path id="" clip-rule="evenodd" transform="matrix(1 0 0 1 0 0)" d="M431.149 142.20099L448.399 142.20099L448.399 142.20099L448.399 154.95099L448.399 154.95099L431.149 154.95099z" /></clipPath><clipPath id="202"><path id="" clip-rule="evenodd" transform="matrix(1 0 0 1 0 0)" d="M117.65 154.95099L137.15 154.95099L137.15 154.95099L137.15 167.70099L137.15 167.70099L117.65 167.70099z" /></clipPath><clipPath id="203"><path id="" clip-rule="evenodd" transform="matrix(1 0 0 1 0 0)" d="M137.149 154.95099L140.149 154.95099L140.149 154.95099L140.149 167.70099L140.149 167.70099L137.149 167.70099z" /></clipPath><clipPath id="204"><path id="" clip-rule="evenodd" transform="matrix(1 0 0 1 0 0)" d="M140.149 154.95099L143.149 154.95099L143.149 154.95099L143.149 167.70099L143.149 167.70099L140.149 167.70099z" /></clipPath><clipPath id="205"><path id="" clip-rule="evenodd" transform="matrix(1 0 0 1 0 0)" d="M143.149 154.95099L146.149 154.95099L146.149 154.95099L146.149 167.70099L146.149 167.70099L143.149 167.70099z" /></clipPath><clipPath id="206"><path id="" clip-rule="evenodd" transform="matrix(1 0 0 1 0 0)" d="M146.149 154.95099L242.149 154.95099L242.149 154.95099L242.149 167.70099L242.149 167.70099L146.149 167.70099z" /></clipPath><clipPath id="207"><path id="" clip-rule="evenodd" transform="matrix(1 0 0 1 0 0)" d="M242.149 154.95099L245.149 154.95099L245.149 154.95099L245.149 167.70099L245.149 167.70099L242.149 167.70099z" /></clipPath><clipPath id="208"><path id="" clip-rule="evenodd" transform="matrix(1 0 0 1 0 0)" d="M245.149 154.95099L305.149 154.95099L305.149 154.95099L305.149 167.70099L305.149 167.70099L245.149 167.70099z" /></clipPath><clipPath id="209"><path id="" clip-rule="evenodd" transform="matrix(1 0 0 1 0 0)" d="M305.149 154.95099L308.149 154.95099L308.149 154.95099L308.149 167.70099L308.149 167.70099L305.149 167.70099z" /></clipPath><clipPath id="210"><path id="" clip-rule="evenodd" transform="matrix(1 0 0 1 0 0)" d="M308.149 154.95099L374.149 154.95099L374.149 154.95099L374.149 167.70099L374.149 167.70099L308.149 167.70099z" /></clipPath><clipPath id="211"><path id="" clip-rule="evenodd" transform="matrix(1 0 0 1 0 0)" d="M374.149 154.95099L379.399 154.95099L379.399 154.95099L379.399 167.70099L379.399 167.70099L374.149 167.70099z" /></clipPath><clipPath id="212"><path id="" clip-rule="evenodd" transform="matrix(1 0 0 1 0 0)" d="M379.399 154.95099L396.649 154.95099L396.649 154.95099L396.649 167.70099L396.649 167.70099L379.399 167.70099z" /></clipPath><clipPath id="213"><path id="" clip-rule="evenodd" transform="matrix(1 0 0 1 0 0)" d="M396.649 154.95099L401.899 154.95099L401.899 154.95099L401.899 167.70099L401.899 167.70099L396.649 167.70099z" /></clipPath><clipPath id="214"><path id="" clip-rule="evenodd" transform="matrix(1 0 0 1 0 0)" d="M401.899 154.95099L428.899 154.95099L428.899 154.95099L428.899 167.70099L428.899 167.70099L401.899 167.70099z" /></clipPath><clipPath id="215"><path id="" clip-rule="evenodd" transform="matrix(1 0 0 1 0 0)" d="M428.899 154.95099L434.899 154.95099L434.899 154.95099L434.899 167.70099L434.899 167.70099L428.899 167.70099z" /></clipPath><clipPath id="216"><path id="" clip-rule="evenodd" transform="matrix(1 0 0 1 0 0)" d="M434.899 154.95099L464.899 154.95099L464.899 154.95099L464.899 167.70099L464.899 167.70099L434.899 167.70099z" /></clipPath><clipPath id="217"><path id="" clip-rule="evenodd" transform="matrix(1 0 0 1 0 0)" d="M464.899 154.95099L470.149 154.95099L470.149 154.95099L470.149 167.70099L470.149 167.70099L464.899 167.70099z" /></clipPath><clipPath id="218"><path id="" clip-rule="evenodd" transform="matrix(1 0 0 1 0 0)" d="M470.149 154.95099L479.149 154.95099L479.149 154.95099L479.149 167.70099L479.149 167.70099L470.149 167.70099z" /></clipPath><clipPath id="219"><path id="" clip-rule="evenodd" transform="matrix(1 0 0 1 0 0)" d="M479.149 154.95099L485.149 154.95099L485.149 154.95099L485.149 167.70099L485.149 167.70099L479.149 167.70099z" /></clipPath><clipPath id="220"><path id="" clip-rule="evenodd" transform="matrix(1 0 0 1 0 0)" d="M485.149 154.95099L509.149 154.95099L509.149 154.95099L509.149 167.70099L509.149 167.70099L485.149 167.70099z" /></clipPath><clipPath id="221"><path id="" clip-rule="evenodd" transform="matrix(1 0 0 1 0 0)" d="M509.149 154.95099L514.399 154.95099L514.399 154.95099L514.399 167.70099L514.399 167.70099L509.149 167.70099z" /></clipPath><clipPath id="222"><path id="" clip-rule="evenodd" transform="matrix(1 0 0 1 0 0)" d="M514.4 154.95099L531.65 154.95099L531.65 154.95099L531.65 167.70099L531.65 167.70099L514.4 167.70099z" /></clipPath><clipPath id="223"><path id="" clip-rule="evenodd" transform="matrix(1 0 0 1 0 0)" d="M283.399 214.95099L328.399 214.95099L328.399 214.95099L328.399 227.70099L328.399 227.70099L283.399 227.70099z" /></clipPath><clipPath id="224"><path id="" clip-rule="evenodd" transform="matrix(1 0 0 1 0 0)" d="M346.399 214.95099L382.399 214.95099L382.399 214.95099L382.399 227.70099L382.399 227.70099L346.399 227.70099z" /></clipPath><clipPath id="225"><path id="" clip-rule="evenodd" transform="matrix(1 0 0 1 0 0)" d="M412.399 214.95099L451.399 214.95099L451.399 214.95099L451.399 227.70099L451.399 227.70099L412.399 227.70099z" /></clipPath><clipPath id="226"><path id="" clip-rule="evenodd" transform="matrix(1 0 0 1 0 0)" d="M451.399 214.95099L454.399 214.95099L454.399 214.95099L454.399 227.70099L454.399 227.70099L451.399 227.70099z" /></clipPath><clipPath id="227"><path id="" clip-rule="evenodd" transform="matrix(1 0 0 1 0 0)" d="M454.399 214.95099L512.899 214.95099L512.899 214.95099L512.899 227.70099L512.899 227.70099L454.399 227.70099z" /></clipPath><clipPath id="228"><path id="" clip-rule="evenodd" transform="matrix(1 0 0 1 0 0)" d="M512.9 214.95099L515.9 214.95099L515.9 214.95099L515.9 227.70099L515.9 227.70099L512.9 227.70099z" /></clipPath><clipPath id="229"><path id="" clip-rule="evenodd" transform="matrix(1 0 0 1 0 0)" d="M515.9 214.95099L545.9 214.95099L545.9 214.95099L545.9 227.70099L545.9 227.70099L515.9 227.70099z" /></clipPath><clipPath id="230"><path id="" clip-rule="evenodd" transform="matrix(1 0 0 1 0 0)" d="M545.9 214.95099L548.9 214.95099L548.9 214.95099L548.9 227.70099L548.9 227.70099L545.9 227.70099z" /></clipPath><clipPath id="231"><path id="" clip-rule="evenodd" transform="matrix(1 0 0 1 0 0)" d="M52.4 214.95099L548.9 214.95099L548.9 214.95099L548.9 240.45099L548.9 240.45099L52.4 240.45099z" /></clipPath><clipPath id="232"><path id="" clip-rule="evenodd" transform="matrix(1 0 0 1 0 0)" d="M139.399 265.951L175.399 265.951L175.399 265.951L175.399 278.701L175.399 278.701L139.399 278.701z" /></clipPath><clipPath id="233"><path id="" clip-rule="evenodd" transform="matrix(1 0 0 1 0 0)" d="M97.4 278.701L140.15 278.701L140.15 278.701L140.15 291.451L140.15 291.451L97.4 291.451z" /></clipPath><clipPath id="234"><path id="" clip-rule="evenodd" transform="matrix(1 0 0 1 0 0)" d="M261.649 278.701L288.649 278.701L288.649 278.701L288.649 291.451L288.649 291.451L261.649 291.451z" /></clipPath><clipPath id="235"><path id="" clip-rule="evenodd" transform="matrix(1 0 0 1 0 0)" d="M314.149 291.451L368.149 291.451L368.149 291.451L368.149 304.201L368.149 304.201L314.149 304.201z" /></clipPath><clipPath id="236"><path id="" clip-rule="evenodd" transform="matrix(1 0 0 1 0 0)" d="M177.649 342.451L197.149 342.451L197.149 342.451L197.149 355.201L197.149 355.201L177.649 355.201z" /></clipPath><clipPath id="237"><path id="" clip-rule="evenodd" transform="matrix(1 0 0 1 0 0)" d="M197.149 342.451L200.149 342.451L200.149 342.451L200.149 355.201L200.149 355.201L197.149 355.201z" /></clipPath><clipPath id="238"><path id="" clip-rule="evenodd" transform="matrix(1 0 0 1 0 0)" d="M200.149 342.451L203.149 342.451L203.149 342.451L203.149 355.201L203.149 355.201L200.149 355.201z" /></clipPath><clipPath id="239"><path id="" clip-rule="evenodd" transform="matrix(1 0 0 1 0 0)" d="M203.149 342.451L206.149 342.451L206.149 342.451L206.149 355.201L206.149 355.201L203.149 355.201z" /></clipPath><clipPath id="240"><path id="" clip-rule="evenodd" transform="matrix(1 0 0 1 0 0)" d="M206.149 342.451L300.649 342.451L300.649 342.451L300.649 355.201L300.649 355.201L206.149 355.201z" /></clipPath><clipPath id="241"><path id="" clip-rule="evenodd" transform="matrix(1 0 0 1 0 0)" d="M506.149 457.201L525.649 457.201L525.649 457.201L525.649 469.951L525.649 469.951L506.149 469.951z" /></clipPath><clipPath id="242"><path id="" clip-rule="evenodd" transform="matrix(1 0 0 1 0 0)" d="M525.65 457.201L528.65 457.201L528.65 457.201L528.65 469.951L528.65 469.951L525.65 469.951z" /></clipPath><clipPath id="243"><path id="" clip-rule="evenodd" transform="matrix(1 0 0 1 0 0)" d="M528.65 457.201L531.65 457.201L531.65 457.201L531.65 469.951L531.65 469.951L528.65 469.951z" /></clipPath><clipPath id="244"><path id="" clip-rule="evenodd" transform="matrix(1 0 0 1 0 0)" d="M52.4 457.201L531.65 457.201L531.65 457.201L531.65 482.701L531.65 482.701L52.4 482.701z" /></clipPath><clipPath id="245"><path id="" clip-rule="evenodd" transform="matrix(1 0 0 1 0 0)" d="M52.4 469.951L155.9 469.951L155.9 469.951L155.9 482.701L155.9 482.701L52.4 482.701z" /></clipPath><clipPath id="246"><path id="" clip-rule="evenodd" transform="matrix(1 0 0 1 0 0)" d="M155.899 469.951L158.899 469.951L158.899 469.951L158.899 482.701L158.899 482.701L155.899 482.701z" /></clipPath><clipPath id="247"><path id="" clip-rule="evenodd" transform="matrix(1 0 0 1 0 0)" d="M158.899 469.951L187.399 469.951L187.399 469.951L187.399 482.701L187.399 482.701L158.899 482.701z" /></clipPath><clipPath id="248"><path id="" clip-rule="evenodd" transform="matrix(1 0 0 1 0 0)" d="M109.4 542.701L163.4 542.701L163.4 542.701L163.4 555.451L163.4 555.451L109.4 555.451z" /></clipPath><clipPath id="249"><path id="" clip-rule="evenodd" transform="matrix(1 0 0 1 0 0)" d="M163.399 542.701L166.399 542.701L166.399 542.701L166.399 555.451L166.399 555.451L163.399 555.451z" /></clipPath></defs><g transform="matrix(1.3333333 0 0 1.3333333 0 0)"><g clip-path="url(#1)"><g clip-path="url(#2)"><g clip-path="url(#3)"><path id="34" transform="matrix(1 0 0 -1 0 841)" d="M32.899902 804.7193L52.399902 804.7193" stroke="#0000FF" stroke-width="0.395505" fill="none" /><path id="36" transform="matrix(1 0 0 -1 0 841)" d="M52.399902 804.7193L55.399902 804.7193" stroke="#0000FF" stroke-width="0.395505" fill="none" /><path id="38" transform="matrix(1 0 0 -1 0 841)" d="M55.399902 804.7193L58.399902 804.7193" stroke="#0000FF" stroke-width="0.395505" fill="none" /><path id="40" transform="matrix(1 0 0 -1 0 841)" d="M58.399902 804.7193L61.399902 804.7193" stroke="#0000FF" stroke-width="0.395505" fill="none" /><path id="63" transform="matrix(1 0 0 -1 0 841)" d="M61.399902 804.7193L155.8999 804.7193" stroke="#0000FF" stroke-width="0.395505" fill="none" /><path id="65" transform="matrix(1 0 0 -1 0 841)" d="M155.8999 804.7193L158.8999 804.7193" stroke="#0000FF" stroke-width="0.395505" fill="none" /><path id="68" transform="matrix(1 0 0 -1 0 841)" d="M158.8999 804.7193L167.8999 804.7193" stroke="#0000FF" stroke-width="0.395505" fill="none" /><path id="70" transform="matrix(1 0 0 -1 0 841)" d="M167.8999 804.7193L170.8999 804.7193" stroke="#0000FF" stroke-width="0.395505" fill="none" /><path id="73" transform="matrix(1 0 0 -1 0 841)" d="M170.8999 804.7193L180.6499 804.7193" stroke="#0000FF" stroke-width="0.395505" fill="none" /><path id="75" transform="matrix(1 0 0 -1 0 841)" d="M180.6499 804.7193L183.6499 804.7193" stroke="#0000FF" stroke-width="0.395505" fill="none" /><path id="83" transform="matrix(1 0 0 -1 0 841)" d="M183.6499 804.7193L215.1499 804.7193" stroke="#0000FF" stroke-width="0.395505" fill="none" /><path id="85" transform="matrix(1 0 0 -1 0 841)" d="M215.1499 804.7193L218.1499 804.7193" stroke="#0000FF" stroke-width="0.395505" fill="none" /><path id="100" transform="matrix(1 0 0 -1 0 841)" d="M218.1499 804.7193L285.6499 804.7193" stroke="#0000FF" stroke-width="0.395505" fill="none" /><path id="102" transform="matrix(1 0 0 -1 0 841)" d="M285.6499 804.7193L288.6499 804.7193" stroke="#0000FF" stroke-width="0.395505" fill="none" /><path id="119" transform="matrix(1 0 0 -1 0 841)" d="M288.6499 804.7193L366.6499 804.7193" stroke="#0000FF" stroke-width="0.395505" fill="none" /><path id="211" transform="matrix(1 0 0 -1 0 841)" d="M32.899902 757.4693L52.399902 757.4693" stroke="#0000FF" stroke-width="0.395505" fill="none" /><path id="213" transform="matrix(1 0 0 -1 0 841)" d="M52.399902 757.4693L55.399902 757.4693" stroke="#0000FF" stroke-width="0.395505" fill="none" /><path id="215" transform="matrix(1 0 0 -1 0 841)" d="M55.399902 757.4693L58.399902 757.4693" stroke="#0000FF" stroke-width="0.395505" fill="none" /><path id="217" transform="matrix(1 0 0 -1 0 841)" d="M58.399902 757.4693L61.399902 757.4693" stroke="#0000FF" stroke-width="0.395505" fill="none" /><path id="242" transform="matrix(1 0 0 -1 0 841)" d="M61.399902 757.4693L157.3999 757.4693" stroke="#0000FF" stroke-width="0.395505" fill="none" /><path id="244" transform="matrix(1 0 0 -1 0 841)" d="M157.3999 757.4693L160.3999 757.4693" stroke="#0000FF" stroke-width="0.395505" fill="none" /><path id="254" transform="matrix(1 0 0 -1 0 841)" d="M160.3999 757.4693L209.8999 757.4693" stroke="#0000FF" stroke-width="0.395505" fill="none" /><path id="256" transform="matrix(1 0 0 -1 0 841)" d="M209.8999 757.4693L212.8999 757.4693" stroke="#0000FF" stroke-width="0.395505" fill="none" /><path id="270" transform="matrix(1 0 0 -1 0 841)" d="M212.8999 757.4693L278.1499 757.4693" stroke="#0000FF" stroke-width="0.395505" fill="none" /><path id="272" transform="matrix(1 0 0 -1 0 841)" d="M278.1499 757.4693L283.3999 757.4693" stroke="#0000FF" stroke-width="0.395505" fill="none" /><path id="277" transform="matrix(1 0 0 -1 0 841)" d="M283.3999 757.4693L300.6499 757.4693" stroke="#0000FF" stroke-width="0.395505" fill="none" /><path id="279" transform="matrix(1 0 0 -1 0 841)" d="M300.6499 757.4693L305.8999 757.4693" stroke="#0000FF" stroke-width="0.395505" fill="none" /><path id="285" transform="matrix(1 0 0 -1 0 841)" d="M305.8999 757.4693L332.8999 757.4693" stroke="#0000FF" stroke-width="0.395505" fill="none" /><path id="287" transform="matrix(1 0 0 -1 0 841)" d="M332.8999 757.4693L338.8999 757.4693" stroke="#0000FF" stroke-width="0.395505" fill="none" /><path id="295" transform="matrix(1 0 0 -1 0 841)" d="M338.8999 757.4693L368.8999 757.4693" stroke="#0000FF" stroke-width="0.395505" fill="none" /><path id="297" transform="matrix(1 0 0 -1 0 841)" d="M368.8999 757.4693L374.1499 757.4693" stroke="#0000FF" stroke-width="0.395505" fill="none" /><path id="300" transform="matrix(1 0 0 -1 0 841)" d="M374.1499 757.4693L383.1499 757.4693" stroke="#0000FF" stroke-width="0.395505" fill="none" /><path id="302" transform="matrix(1 0 0 -1 0 841)" d="M383.1499 757.4693L389.1499 757.4693" stroke="#0000FF" stroke-width="0.395505" fill="none" /><path id="309" transform="matrix(1 0 0 -1 0 841)" d="M389.1499 757.4693L413.1499 757.4693" stroke="#0000FF" stroke-width="0.395505" fill="none" /><path id="311" transform="matrix(1 0 0 -1 0 841)" d="M413.1499 757.4693L418.3999 757.4693" stroke="#0000FF" stroke-width="0.395505" fill="none" /><path id="314" transform="matrix(1 0 0 -1 0 841)" d="M418.3999 757.4693L428.1499 757.4693" stroke="#0000FF" stroke-width="0.395505" fill="none" /><path id="380" transform="matrix(1 0 0 -1 0 841)" d="M35.149902 722.97003L54.649902 722.97003" stroke="#0000FF" stroke-width="0.395505" fill="none" /><path id="382" transform="matrix(1 0 0 -1 0 841)" d="M54.649902 722.97003L57.649902 722.97003" stroke="#0000FF" stroke-width="0.395505" fill="none" /><path id="384" transform="matrix(1 0 0 -1 0 841)" d="M57.649902 722.97003L60.649902 722.97003" stroke="#0000FF" stroke-width="0.395505" fill="none" /><path id="386" transform="matrix(1 0 0 -1 0 841)" d="M60.649902 722.97003L63.649902 722.97003" stroke="#0000FF" stroke-width="0.395505" fill="none" /><path id="409" transform="matrix(1 0 0 -1 0 841)" d="M63.649902 722.97003L158.1499 722.97003" stroke="#0000FF" stroke-width="0.395505" fill="none" /><path id="411" transform="matrix(1 0 0 -1 0 841)" d="M158.1499 722.97003L161.1499 722.97003" stroke="#0000FF" stroke-width="0.395505" fill="none" /><path id="414" transform="matrix(1 0 0 -1 0 841)" d="M161.1499 722.97003L170.8999 722.97003" stroke="#0000FF" stroke-width="0.395505" fill="none" /><path id="416" transform="matrix(1 0 0 -1 0 841)" d="M170.8999 722.97003L173.8999 722.97003" stroke="#0000FF" stroke-width="0.395505" fill="none" /><path id="419" transform="matrix(1 0 0 -1 0 841)" d="M173.8999 722.97003L183.6499 722.97003" stroke="#0000FF" stroke-width="0.395505" fill="none" /><path id="421" transform="matrix(1 0 0 -1 0 841)" d="M183.6499 722.97003L186.6499 722.97003" stroke="#0000FF" stroke-width="0.395505" fill="none" /><path id="429" transform="matrix(1 0 0 -1 0 841)" d="M186.6499 722.97003L218.1499 722.97003" stroke="#0000FF" stroke-width="0.395505" fill="none" /><path id="431" transform="matrix(1 0 0 -1 0 841)" d="M218.1499 722.97003L221.1499 722.97003" stroke="#0000FF" stroke-width="0.395505" fill="none" /><path id="446" transform="matrix(1 0 0 -1 0 841)" d="M221.1499 722.97003L288.6499 722.97003" stroke="#0000FF" stroke-width="0.395505" fill="none" /><path id="448" transform="matrix(1 0 0 -1 0 841)" d="M288.6499 722.97003L291.6499 722.97003" stroke="#0000FF" stroke-width="0.395505" fill="none" /><path id="476" transform="matrix(1 0 0 -1 0 841)" d="M291.6499 722.97003L400.3999 722.97003" stroke="#0000FF" stroke-width="0.395505" fill="none" /><path id="554" transform="matrix(1 0 0 -1 0 841)" d="M171.6499 688.47003L191.1499 688.47003" stroke="#0000FF" stroke-width="0.395505" fill="none" /><path id="556" transform="matrix(1 0 0 -1 0 841)" d="M191.1499 688.47003L194.1499 688.47003" stroke="#0000FF" stroke-width="0.395505" fill="none" /><path id="558" transform="matrix(1 0 0 -1 0 841)" d="M194.1499 688.47003L197.1499 688.47003" stroke="#0000FF" stroke-width="0.395505" fill="none" /><path id="560" transform="matrix(1 0 0 -1 0 841)" d="M197.1499 688.47003L200.1499 688.47003" stroke="#0000FF" stroke-width="0.395505" fill="none" /><path id="584" transform="matrix(1 0 0 -1 0 841)" d="M200.1499 688.47003L296.1499 688.47003" stroke="#0000FF" stroke-width="0.395505" fill="none" /><path id="586" transform="matrix(1 0 0 -1 0 841)" d="M296.1499 688.47003L299.1499 688.47003" stroke="#0000FF" stroke-width="0.395505" fill="none" /><path id="591" transform="matrix(1 0 0 -1 0 841)" d="M299.1499 688.47003L315.6499 688.47003" stroke="#0000FF" stroke-width="0.395505" fill="none" /><path id="593" transform="matrix(1 0 0 -1 0 841)" d="M315.6499 688.47003L318.6499 688.47003" stroke="#0000FF" stroke-width="0.395505" fill="none" /><path id="600" transform="matrix(1 0 0 -1 0 841)" d="M318.6499 688.47003L346.3999 688.47003" stroke="#0000FF" stroke-width="0.395505" fill="none" /><path id="602" transform="matrix(1 0 0 -1 0 841)" d="M346.3999 688.47003L351.6499 688.47003" stroke="#0000FF" stroke-width="0.395505" fill="none" /><path id="610" transform="matrix(1 0 0 -1 0 841)" d="M351.6499 688.47003L381.6499 688.47003" stroke="#0000FF" stroke-width="0.395505" fill="none" /><path id="612" transform="matrix(1 0 0 -1 0 841)" d="M381.6499 688.47003L386.8999 688.47003" stroke="#0000FF" stroke-width="0.395505" fill="none" /><path id="615" transform="matrix(1 0 0 -1 0 841)" d="M386.8999 688.47003L395.8999 688.47003" stroke="#0000FF" stroke-width="0.395505" fill="none" /><path id="617" transform="matrix(1 0 0 -1 0 841)" d="M395.8999 688.47003L401.8999 688.47003" stroke="#0000FF" stroke-width="0.395505" fill="none" /><path id="624" transform="matrix(1 0 0 -1 0 841)" d="M401.8999 688.47003L425.8999 688.47003" stroke="#0000FF" stroke-width="0.395505" fill="none" /><path id="626" transform="matrix(1 0 0 -1 0 841)" d="M425.8999 688.47003L431.1499 688.47003" stroke="#0000FF" stroke-width="0.395505" fill="none" /><path id="629" transform="matrix(1 0 0 -1 0 841)" d="M431.1499 688.47003L440.8999 688.47003" stroke="#0000FF" stroke-width="0.395505" fill="none" /><path id="646" transform="matrix(1 0 0 -1 0 841)" d="M117.6499 675.72003L137.1499 675.72003" stroke="#0000FF" stroke-width="0.395505" fill="none" /><path id="648" transform="matrix(1 0 0 -1 0 841)" d="M137.1499 675.72003L140.1499 675.72003" stroke="#0000FF" stroke-width="0.395505" fill="none" /><path id="650" transform="matrix(1 0 0 -1 0 841)" d="M140.1499 675.72003L143.1499 675.72003" stroke="#0000FF" stroke-width="0.395505" fill="none" /><path id="652" transform="matrix(1 0 0 -1 0 841)" d="M143.1499 675.72003L146.1499 675.72003" stroke="#0000FF" stroke-width="0.395505" fill="none" /><path id="677" transform="matrix(1 0 0 -1 0 841)" d="M146.1499 675.72003L242.1499 675.72003" stroke="#0000FF" stroke-width="0.395505" fill="none" /><path id="679" transform="matrix(1 0 0 -1 0 841)" d="M242.1499 675.72003L245.1499 675.72003" stroke="#0000FF" stroke-width="0.395505" fill="none" /><path id="694" transform="matrix(1 0 0 -1 0 841)" d="M245.1499 675.72003L305.1499 675.72003" stroke="#0000FF" stroke-width="0.395505" fill="none" /><path id="696" transform="matrix(1 0 0 -1 0 841)" d="M305.1499 675.72003L308.1499 675.72003" stroke="#0000FF" stroke-width="0.395505" fill="none" /><path id="712" transform="matrix(1 0 0 -1 0 841)" d="M308.1499 675.72003L374.1499 675.72003" stroke="#0000FF" stroke-width="0.395505" fill="none" /><path id="714" transform="matrix(1 0 0 -1 0 841)" d="M374.1499 675.72003L379.3999 675.72003" stroke="#0000FF" stroke-width="0.395505" fill="none" /><path id="719" transform="matrix(1 0 0 -1 0 841)" d="M379.3999 675.72003L396.6499 675.72003" stroke="#0000FF" stroke-width="0.395505" fill="none" /><path id="721" transform="matrix(1 0 0 -1 0 841)" d="M396.6499 675.72003L401.8999 675.72003" stroke="#0000FF" stroke-width="0.395505" fill="none" /><path id="727" transform="matrix(1 0 0 -1 0 841)" d="M401.8999 675.72003L428.8999 675.72003" stroke="#0000FF" stroke-width="0.395505" fill="none" /><path id="729" transform="matrix(1 0 0 -1 0 841)" d="M428.8999 675.72003L434.8999 675.72003" stroke="#0000FF" stroke-width="0.395505" fill="none" /><path id="737" transform="matrix(1 0 0 -1 0 841)" d="M434.8999 675.72003L464.8999 675.72003" stroke="#0000FF" stroke-width="0.395505" fill="none" /><path id="739" transform="matrix(1 0 0 -1 0 841)" d="M464.8999 675.72003L470.1499 675.72003" stroke="#0000FF" stroke-width="0.395505" fill="none" /><path id="742" transform="matrix(1 0 0 -1 0 841)" d="M470.1499 675.72003L479.1499 675.72003" stroke="#0000FF" stroke-width="0.395505" fill="none" /><path id="744" transform="matrix(1 0 0 -1 0 841)" d="M479.1499 675.72003L485.1499 675.72003" stroke="#0000FF" stroke-width="0.395505" fill="none" /><path id="751" transform="matrix(1 0 0 -1 0 841)" d="M485.1499 675.72003L509.1499 675.72003" stroke="#0000FF" stroke-width="0.395505" fill="none" /><path id="753" transform="matrix(1 0 0 -1 0 841)" d="M509.1499 675.72003L514.3999 675.72003" stroke="#0000FF" stroke-width="0.395505" fill="none" /><path id="756" transform="matrix(1 0 0 -1 0 841)" d="M514.3999 675.72003L524.1499 675.72003" stroke="#0000FF" stroke-width="0.395505" fill="none" /><path id="757" transform="matrix(1 0 0 -1 0 841)" d="M45.649902 644.79004C 45.649902 643.9651 44.978275 643.29004 44.149902 643.29004C 43.32145 643.29004 42.649902 643.9651 42.649902 644.79004C 42.649902 645.62256 43.32145 646.29004 44.149902 646.29004C 44.978275 646.29004 45.649902 645.62256 45.649902 644.79004z" stroke="none" fill="#000000" fill-rule="nonzero" /><path id="882" transform="matrix(1 0 0 -1 0 841)" d="M283.3999 615.72003L328.3999 615.72003" stroke="#0000FF" stroke-width="0.395505" fill="none" /><path id="889" transform="matrix(1 0 0 -1 0 841)" d="M346.3999 615.72003L382.3999 615.72003" stroke="#0000FF" stroke-width="0.395505" fill="none" /><path id="901" transform="matrix(1 0 0 -1 0 841)" d="M412.3999 615.72003L451.3999 615.72003" stroke="#0000FF" stroke-width="0.395505" fill="none" /><path id="902" transform="matrix(1 0 0 -1 0 841)" d="M451.3999 615.72003L454.3999 615.72003" stroke="#0000FF" stroke-width="0.395505" fill="none" /><path id="917" transform="matrix(1 0 0 -1 0 841)" d="M454.3999 615.72003L512.8999 615.72003" stroke="#0000FF" stroke-width="0.395505" fill="none" /><path id="918" transform="matrix(1 0 0 -1 0 841)" d="M512.8999 615.72003L515.8999 615.72003" stroke="#0000FF" stroke-width="0.395505" fill="none" /><path id="925" transform="matrix(1 0 0 -1 0 841)" d="M515.8999 615.72003L545.8999 615.72003" stroke="#0000FF" stroke-width="0.395505" fill="none" /><path id="926" transform="matrix(1 0 0 -1 0 841)" d="M545.8999 615.72003L548.8999 615.72003" stroke="#0000FF" stroke-width="0.395505" fill="none" /><path id="929" transform="matrix(1 0 0 -1 0 841)" d="M548.8999 615.72003L566.8999 615.72003" stroke="#0000FF" stroke-width="0.395505" fill="none" /><path id="1012" transform="matrix(1 0 0 -1 0 841)" d="M139.3999 564.72003L175.3999 564.72003" stroke="#0000FF" stroke-width="0.395505" fill="none" /><path id="1071" transform="matrix(1 0 0 -1 0 841)" d="M97.3999 551.97003L140.1499 551.97003" stroke="#0000FF" stroke-width="0.395505" fill="none" /><path id="1096" transform="matrix(1 0 0 -1 0 841)" d="M261.6499 551.97003L288.6499 551.97003" stroke="#0000FF" stroke-width="0.395505" fill="none" /><path id="1173" transform="matrix(1 0 0 -1 0 841)" d="M314.1499 539.22003L360.6499 539.22003" stroke="#0000FF" stroke-width="0.395505" fill="none" /><path id="1174" transform="matrix(1 0 0 -1 0 841)" d="M45.649902 517.29004C 45.649902 516.4651 44.978275 515.79004 44.149902 515.79004C 43.32145 515.79004 42.649902 516.4651 42.649902 517.29004C 42.649902 518.12256 43.32145 518.79004 44.149902 518.79004C 44.978275 518.79004 45.649902 518.12256 45.649902 517.29004z" stroke="none" fill="#000000" fill-rule="nonzero" /><path id="1418" transform="matrix(1 0 0 -1 0 841)" d="M177.6499 488.22003L197.1499 488.22003" stroke="#0000FF" stroke-width="0.395505" fill="none" /><path id="1420" transform="matrix(1 0 0 -1 0 841)" d="M197.1499 488.22003L200.1499 488.22003" stroke="#0000FF" stroke-width="0.395505" fill="none" /><path id="1422" transform="matrix(1 0 0 -1 0 841)" d="M200.1499 488.22003L203.1499 488.22003" stroke="#0000FF" stroke-width="0.395505" fill="none" /><path id="1424" transform="matrix(1 0 0 -1 0 841)" d="M203.1499 488.22003L206.1499 488.22003" stroke="#0000FF" stroke-width="0.395505" fill="none" /><path id="1447" transform="matrix(1 0 0 -1 0 841)" d="M206.1499 488.22003L300.6499 488.22003" stroke="#0000FF" stroke-width="0.395505" fill="none" /><path id="2223" transform="matrix(1 0 0 -1 0 841)" d="M45.649902 389.79004C 45.649902 388.9651 44.978275 388.29004 44.149902 388.29004C 43.32145 388.29004 42.649902 388.9651 42.649902 389.79004C 42.649902 390.62256 43.32145 391.29004 44.149902 391.29004C 44.978275 391.29004 45.649902 390.62256 45.649902 389.79004z" stroke="none" fill="#000000" fill-rule="nonzero" /><path id="2432" transform="matrix(1 0 0 -1 0 841)" d="M506.1499 373.46997L525.6499 373.46997" stroke="#0000FF" stroke-width="0.395505" fill="none" /><path id="2434" transform="matrix(1 0 0 -1 0 841)" d="M525.6499 373.46997L528.6499 373.46997" stroke="#0000FF" stroke-width="0.395505" fill="none" /><path id="2436" transform="matrix(1 0 0 -1 0 841)" d="M528.6499 373.46997L531.6499 373.46997" stroke="#0000FF" stroke-width="0.395505" fill="none" /><path id="2438" transform="matrix(1 0 0 -1 0 841)" d="M531.6499 373.46997L534.6499 373.46997" stroke="#0000FF" stroke-width="0.395505" fill="none" /><path id="2463" transform="matrix(1 0 0 -1 0 841)" d="M52.399902 360.71997L155.8999 360.71997" stroke="#0000FF" stroke-width="0.395505" fill="none" /><path id="2465" transform="matrix(1 0 0 -1 0 841)" d="M155.8999 360.71997L158.8999 360.71997" stroke="#0000FF" stroke-width="0.395505" fill="none" /><path id="2473" transform="matrix(1 0 0 -1 0 841)" d="M158.8999 360.71997L187.3999 360.71997" stroke="#0000FF" stroke-width="0.395505" fill="none" /><path id="2821" transform="matrix(1 0 0 -1 0 841)" d="M109.3999 287.96997L163.3999 287.96997" stroke="#0000FF" stroke-width="0.395505" fill="none" /></g></g><g clip-path="url(#4)"></g><g clip-path="url(#5)"></g><g clip-path="url(#6)"></g><g clip-path="url(#7)"></g><g clip-path="url(#8)"></g><g clip-path="url(#9)"></g><g clip-path="url(#10)"></g><g clip-path="url(#11)"></g><g clip-path="url(#12)"></g><g clip-path="url(#13)"></g><g clip-path="url(#14)"></g><g clip-path="url(#15)"></g><g clip-path="url(#16)"></g><g clip-path="url(#17)"></g><g clip-path="url(#18)"></g><g clip-path="url(#19)"></g><g clip-path="url(#20)"></g><g clip-path="url(#21)"></g><g clip-path="url(#22)"></g><g clip-path="url(#23)"></g><g clip-path="url(#24)"></g><g clip-path="url(#25)"></g><g clip-path="url(#26)"></g><g clip-path="url(#27)"></g><g clip-path="url(#28)"></g><g clip-path="url(#29)"></g><g clip-path="url(#30)"></g><g clip-path="url(#31)"></g><g clip-path="url(#32)"></g><g clip-path="url(#33)"></g><g clip-path="url(#34)"></g><g clip-path="url(#35)"></g><g clip-path="url(#36)"></g><g clip-path="url(#37)"></g><g clip-path="url(#38)"></g><g clip-path="url(#39)"></g><g clip-path="url(#40)"></g><g clip-path="url(#41)"></g><g clip-path="url(#42)"></g><g clip-path="url(#43)"></g><g clip-path="url(#44)"></g><g clip-path="url(#45)"></g><g clip-path="url(#46)"></g><g clip-path="url(#47)"></g><g clip-path="url(#48)"></g><g clip-path="url(#49)"></g><g clip-path="url(#50)"></g><g clip-path="url(#51)"></g><g clip-path="url(#52)"></g><g clip-path="url(#53)"></g><g clip-path="url(#54)"></g><g clip-path="url(#55)"></g><g clip-path="url(#56)"></g><g clip-path="url(#57)"></g><g clip-path="url(#58)"></g><g clip-path="url(#59)"></g><g clip-path="url(#60)"></g><g clip-path="url(#61)"></g><g clip-path="url(#62)"></g><g clip-path="url(#63)"></g><g clip-path="url(#64)"></g><g clip-path="url(#65)"></g><g clip-path="url(#66)"></g><g clip-path="url(#67)"></g><g clip-path="url(#68)"></g><g clip-path="url(#69)"></g><g clip-path="url(#70)"></g><g clip-path="url(#71)"></g><g clip-path="url(#72)"></g><g clip-path="url(#73)"></g><g clip-path="url(#74)"></g><g clip-path="url(#75)"></g><g clip-path="url(#76)"></g><g clip-path="url(#77)"></g><g clip-path="url(#78)"></g><g clip-path="url(#79)"></g><g clip-path="url(#80)"></g><g clip-path="url(#81)"></g><g clip-path="url(#82)"></g><g clip-path="url(#83)"></g><g clip-path="url(#84)"></g><g clip-path="url(#85)"></g><g clip-path="url(#86)"></g><g clip-path="url(#87)"></g><g clip-path="url(#88)"></g><g clip-path="url(#89)"></g><g clip-path="url(#90)"></g><g clip-path="url(#91)"></g><g clip-path="url(#92)"></g><g clip-path="url(#93)"></g><g clip-path="url(#94)"></g><g clip-path="url(#95)"></g><g clip-path="url(#96)"></g><g clip-path="url(#97)"></g><g clip-path="url(#98)"></g><g clip-path="url(#99)"></g><g clip-path="url(#100)"></g><g clip-path="url(#101)"></g><g clip-path="url(#102)"></g><g clip-path="url(#103)"></g><g clip-path="url(#104)"></g><g clip-path="url(#105)"></g><g clip-path="url(#106)"></g><g clip-path="url(#107)"></g><g clip-path="url(#108)"></g><g clip-path="url(#109)"></g><g clip-path="url(#110)"></g><g clip-path="url(#111)"></g><g clip-path="url(#112)"></g><g clip-path="url(#113)"></g><g clip-path="url(#114)"></g><g clip-path="url(#115)"></g><g clip-path="url(#116)"></g><g clip-path="url(#117)"></g><g clip-path="url(#118)"></g><g clip-path="url(#119)"></g><g clip-path="url(#120)"></g><g clip-path="url(#121)"></g><g clip-path="url(#122)"></g><g clip-path="url(#123)"></g><g clip-path="url(#124)"></g><g clip-path="url(#125)"></g><g clip-path="url(#126)"></g><g clip-path="url(#127)"></g><g clip-path="url(#128)"></g><g clip-path="url(#129)"></g><g clip-path="url(#130)"></g><g clip-path="url(#131)"></g><g clip-path="url(#132)"></g><g clip-path="url(#133)"></g><g clip-path="url(#134)"></g><g clip-path="url(#135)"></g><g clip-path="url(#136)"></g><g clip-path="url(#137)"></g><g clip-path="url(#138)"></g><g clip-path="url(#139)"></g><g clip-path="url(#140)"></g><g clip-path="url(#141)"></g><g clip-path="url(#142)"></g><g clip-path="url(#143)"></g><g clip-path="url(#144)"></g><g clip-path="url(#145)"></g><g clip-path="url(#146)"></g><g clip-path="url(#147)"></g><g clip-path="url(#148)"></g><g clip-path="url(#149)"></g><g clip-path="url(#150)"></g><g clip-path="url(#151)"></g><g clip-path="url(#152)"></g><g clip-path="url(#153)"></g><g clip-path="url(#154)"></g><g clip-path="url(#155)"></g><g clip-path="url(#156)"></g><g clip-path="url(#157)"></g><g clip-path="url(#158)"></g><g clip-path="url(#159)"></g><g clip-path="url(#160)"></g><g clip-path="url(#161)"></g><g clip-path="url(#162)"></g><g clip-path="url(#163)"></g><g clip-path="url(#164)"></g><g clip-path="url(#165)"></g><g clip-path="url(#166)"></g><g clip-path="url(#167)"></g><g clip-path="url(#168)"></g><g clip-path="url(#169)"></g><g clip-path="url(#170)"></g><g clip-path="url(#171)"></g><g clip-path="url(#172)"></g><g clip-path="url(#173)"></g><g clip-path="url(#174)"></g><g clip-path="url(#175)"></g><g clip-path="url(#176)"></g><g clip-path="url(#177)"></g><g clip-path="url(#178)"></g><g clip-path="url(#179)"></g><g clip-path="url(#180)"></g><g clip-path="url(#181)"></g><g clip-path="url(#182)"></g><g clip-path="url(#183)"></g><g clip-path="url(#184)"></g><g clip-path="url(#185)"></g><g clip-path="url(#186)"></g><g clip-path="url(#187)"></g><g clip-path="url(#188)"></g><g clip-path="url(#189)"></g><g clip-path="url(#190)"></g><g clip-path="url(#191)"></g><g clip-path="url(#192)"></g><g clip-path="url(#193)"></g><g clip-path="url(#194)"></g><g clip-path="url(#195)"></g><g clip-path="url(#196)"></g><g clip-path="url(#197)"></g><g clip-path="url(#198)"></g><g clip-path="url(#199)"></g><g clip-path="url(#200)"></g><g clip-path="url(#201)"></g><g clip-path="url(#202)"></g><g clip-path="url(#203)"></g><g clip-path="url(#204)"></g><g clip-path="url(#205)"></g><g clip-path="url(#206)"></g><g clip-path="url(#207)"></g><g clip-path="url(#208)"></g><g clip-path="url(#209)"></g><g clip-path="url(#210)"></g><g clip-path="url(#211)"></g><g clip-path="url(#212)"></g><g clip-path="url(#213)"></g><g clip-path="url(#214)"></g><g clip-path="url(#215)"></g><g clip-path="url(#216)"></g><g clip-path="url(#217)"></g><g clip-path="url(#218)"></g><g clip-path="url(#219)"></g><g clip-path="url(#220)"></g><g clip-path="url(#221)"></g><g clip-path="url(#222)"></g><g clip-path="url(#223)"></g><g clip-path="url(#224)"></g><g clip-path="url(#225)"></g><g clip-path="url(#226)"></g><g clip-path="url(#227)"></g><g clip-path="url(#228)"></g><g clip-path="url(#229)"></g><g clip-path="url(#230)"></g><g clip-path="url(#231)"></g><g clip-path="url(#232)"></g><g clip-path="url(#233)"></g><g clip-path="url(#234)"></g><g clip-path="url(#235)"></g><g clip-path="url(#236)"></g><g clip-path="url(#237)"></g><g clip-path="url(#238)"></g><g clip-path="url(#239)"></g><g clip-path="url(#240)"></g><g clip-path="url(#241)"></g><g clip-path="url(#242)"></g><g clip-path="url(#243)"></g><g clip-path="url(#244)"></g><g clip-path="url(#245)"></g><g clip-path="url(#246)"></g><g clip-path="url(#247)"></g><g clip-path="url(#248)"></g><g clip-path="url(#249)"></g></g></g></svg>