<svg xmlns="http://www.w3.org/2000/svg" xmlns:xlink="http://www.w3.org/1999/xlink" id="body_3" preserveAspectRatio="xMinYMin meet" viewBox="0 0 792 1121"><defs><clipPath id="1"><path id="" clip-rule="evenodd" transform="matrix(1 0 0 1 0 0)" d="M0 841L0 -0.9199829L0 -0.9199829L594.95996 -0.9199829L594.95996 -0.9199829L594.95996 841L594.95996 841L0 841z" /></clipPath><clipPath id="2"><path id="" clip-rule="evenodd" transform="matrix(1 0 0 1 0 0)" d="M35.00279 28.080078L561.7475 28.080078L561.7475 28.080078L561.7475 812.9447L561.7475 812.9447L35.00279 812.9447z" /></clipPath><clipPath id="3"><path id="" clip-rule="evenodd" transform="matrix(1 0 0 1 0 0)" d="M90.52859 30.331116L113.03905 30.331116L113.03905 30.331116L113.03905 46.838745L113.03905 46.838745L90.52859 46.838745z" /></clipPath><clipPath id="4"><path id="" clip-rule="evenodd" transform="matrix(1 0 0 1 0 0)" d="M471.7057 30.331116L494.21613 30.331116L494.21613 30.331116L494.21613 46.838745L494.21613 46.838745L471.7057 46.838745z" /></clipPath><clipPath id="5"><path id="" clip-rule="evenodd" transform="matrix(1 0 0 1 0 0)" d="M35.00279 28.080078L561.7475 28.080078L561.7475 28.080078L561.7475 812.9447L561.7475 812.9447L35.00279 812.9447z" /></clipPath></defs><g transform="matrix(1.3333334 0 0 1.3333334 0 0)"><g clip-path="url(#1)"><g clip-path="url(#2)"><path id="1" transform="matrix(1 0 0 -1 0 841)" d="M57.88842 959.61304L527.6066 959.61304L527.6066 959.61304L527.6066 676.73157L527.6066 676.73157L57.88842 676.73157z" stroke="#DDDDDD" stroke-width="0.75034857" fill="none" /><path id="2" transform="matrix(1 0 0 -1 0 841)" d="M58.638767 958.8627L526.85626 958.8627L526.85626 958.8627L526.85626 677.48193L526.85626 677.48193L58.638767 677.48193z" stroke="#DDDDDD" stroke-width="0.75034857" fill="none" /></g><g clip-path="url(#3)"></g><g clip-path="url(#4)"></g><g clip-path="url(#5)"><path id="55" transform="matrix(1 0 0 -1 0 841)" d="M90.52858 774.6521L494.21613 774.6521L494.21613 773.90173L90.52858 773.90173z" stroke="none" fill="#DFDFDF" fill-rule="nonzero" /><path id="56" transform="matrix(1 0 0 -1 0 841)" d="M90.52858 776.9031L91.27893 776.9031L91.27893 770.15L90.52858 770.15z" stroke="none" fill="#FFFFFF" fill-rule="nonzero" /><path id="57" transform="matrix(1 0 0 -1 0 841)" d="M315.63315 777.65344L316.3835 777.65344L316.3835 767.14856L315.63315 767.14856z" stroke="none" fill="#DFDFDF" fill-rule="nonzero" /><path id="58" transform="matrix(1 0 0 -1 0 841)" d="M268.36118 777.65344L269.11154 777.65344L269.11154 767.14856L268.36118 767.14856z" stroke="none" fill="#DFDFDF" fill-rule="nonzero" /><path id="66" transform="matrix(1 0 0 -1 0 841)" d="M493.46576 776.9031L494.21613 776.9031L494.21613 770.15L493.46576 770.15z" stroke="none" fill="#FFFFFF" fill-rule="nonzero" /><path id="67" transform="matrix(1 0 0 -1 0 841)" d="M90.52858 663.60046L115.290085 663.60046L115.290085 662.8501L90.52858 662.8501z" stroke="none" fill="#FFFFFF" fill-rule="nonzero" /><path id="68" transform="matrix(1 0 0 -1 0 841)" d="M57.88842 660.97424L527.6066 660.97424L527.6066 660.97424L527.6066 209.2644L527.6066 209.2644L57.88842 209.2644z" stroke="#DDDDDD" stroke-width="0.75034857" fill="none" /><path id="69" transform="matrix(1 0 0 -1 0 841)" d="M58.26359 660.5991L527.23145 660.5991L527.23145 623.08167L58.26359 623.08167z" stroke="none" fill="#FFFFFF" fill-rule="nonzero" /><path id="75" transform="matrix(1 0 0 -1 0 841)" d="M75.52161 582.1876C 75.52161 581.9391 75.47401 581.6998 75.378815 581.46985C 75.283615 581.24023 75.14807 581.03723 74.972176 580.8612C 74.79628 580.6853 74.59342 580.5497 74.3636 580.4547C 74.13377 580.3596 73.89449 580.3119 73.64574 580.31177C 73.39698 580.3119 73.157684 580.3596 72.927864 580.4547C 72.698044 580.5497 72.495186 580.6853 72.31929 580.8612C 72.143394 581.03723 72.00784 581.24023 71.91265 581.46985C 71.81746 581.6998 71.76987 581.9391 71.76987 582.1876C 71.76987 582.43665 71.81746 582.6758 71.91265 582.90576C 72.00784 583.1356 72.143394 583.3385 72.31929 583.51416C 72.495186 583.6902 72.698044 583.8257 72.927864 583.921C 73.157684 584.0161 73.39698 584.0635 73.64574 584.0635C 73.89449 584.0635 74.13377 584.0161 74.363594 583.921C 74.593414 583.8257 74.79628 583.6902 74.972176 583.51416C 75.14807 583.3385 75.283615 583.1356 75.378815 582.90576C 75.47401 582.6758 75.52161 582.43665 75.52161 582.1876z" stroke="none" fill="#000000" fill-rule="nonzero" /><path id="91" transform="matrix(1 0 0 -1 0 841)" d="M75.52161 564.1793C 75.52161 563.93066 75.47401 563.69165 75.378815 563.4617C 75.283615 563.2318 75.14807 563.02905 74.972176 562.853C 74.79628 562.67725 74.59342 562.54175 74.3636 562.4464C 74.13377 562.3512 73.89449 562.3036 73.64574 562.30334C 73.39698 562.3036 73.157684 562.3512 72.927864 562.4464C 72.698044 562.54175 72.495186 562.67725 72.31929 562.853C 72.143394 563.02905 72.00784 563.2318 71.91265 563.4617C 71.81746 563.69165 71.76987 563.93066 71.76987 564.1793C 71.76987 564.4282 71.81746 564.6675 71.91265 564.89734C 72.00784 565.1273 72.143394 565.3302 72.31929 565.506C 72.495186 565.68176 72.698044 565.8174 72.927864 565.9126C 73.157684 566.0077 73.39698 566.0552 73.64574 566.0552C 73.89449 566.0552 74.13377 566.0077 74.363594 565.9126C 74.593414 565.8174 74.79628 565.68176 74.972176 565.506C 75.14807 565.3302 75.283615 565.1273 75.378815 564.89734C 75.47401 564.6675 75.52161 564.4282 75.52161 564.1793z" stroke="none" fill="#000000" fill-rule="nonzero" /><path id="118" transform="matrix(1 0 0 -1 0 841)" d="M75.52161 546.1709C 75.52161 545.92236 75.47401 545.6831 75.378815 545.4531C 75.283615 545.2234 75.14807 545.0206 74.972176 544.8446C 74.79628 544.6687 74.59342 544.5332 74.3636 544.43787C 74.13377 544.3429 73.89449 544.29517 73.64574 544.29504C 73.39698 544.29517 73.157684 544.3429 72.927864 544.43787C 72.698044 544.5332 72.495186 544.6687 72.31929 544.8446C 72.143394 545.0206 72.00784 545.2234 71.91265 545.4531C 71.81746 545.6831 71.76987 545.92236 71.76987 546.1709C 71.76987 546.4198 71.81746 546.65906 71.91265 546.88904C 72.00784 547.1188 72.143394 547.32153 72.31929 547.49756C 72.495186 547.6736 72.698044 547.8092 72.927864 547.9043C 73.157684 547.9994 73.39698 548.04675 73.64574 548.04675C 73.89449 548.04675 74.13377 547.9994 74.363594 547.9043C 74.593414 547.8092 74.79628 547.6736 74.972176 547.49756C 75.14807 547.32153 75.283615 547.1188 75.378815 546.88904C 75.47401 546.65906 75.52161 546.4198 75.52161 546.1709z" stroke="none" fill="#000000" fill-rule="nonzero" /><path id="134" transform="matrix(1 0 0 -1 0 841)" d="M75.52161 528.1626C 75.52161 527.91394 75.47401 527.6747 75.378815 527.4448C 75.283615 527.21484 75.14807 527.0121 74.972176 526.83606C 74.79628 526.6604 74.59342 526.5248 74.3636 526.42957C 74.13377 526.3345 73.89449 526.28687 73.64574 526.2866C 73.39698 526.28687 73.157684 526.3345 72.927864 526.42957C 72.698044 526.5248 72.495186 526.6604 72.31929 526.83606C 72.143394 527.0121 72.00784 527.21484 71.91265 527.4448C 71.81746 527.6747 71.76987 527.91394 71.76987 528.1626C 71.76987 528.4115 71.81746 528.65076 71.91265 528.8805C 72.00784 529.11035 72.143394 529.31335 72.31929 529.489C 72.495186 529.6649 72.698044 529.8004 72.927864 529.89575C 73.157684 529.9907 73.39698 530.03845 73.64574 530.03845C 73.89449 530.03845 74.13377 529.9907 74.363594 529.89575C 74.593414 529.8004 74.79628 529.6649 74.972176 529.489C 75.14807 529.31335 75.283615 529.11035 75.378815 528.8805C 75.47401 528.65076 75.52161 528.4115 75.52161 528.1626z" stroke="none" fill="#000000" fill-rule="nonzero" /><g transform="matrix(0.3238915 0 -0 0.34498784 83.77545 321.46637)"><g transform="matrix(1 0 0 1 0 0)"><image x="0" y="0" xlink:href="img_06.png" width="278" height="261" /></g></g><path id="167" transform="matrix(1 0 0 -1 0 841)" d="M175.69315 470.76086L186.94838 470.76086L186.94838 470.0105L175.69315 470.0105z" stroke="none" fill="#000000" fill-rule="nonzero" /><g transform="matrix(0.3238915 0 -0 0.34498784 190.32494 321.46637)"><g transform="matrix(1 0 0 1 0 0)"><image x="0" y="0" xlink:href="img_07.png" width="278" height="261" /></g></g><path id="170" transform="matrix(1 0 0 -1 0 841)" d="M282.35986 470.76086L293.6151 470.76086L293.6151 470.0105L282.35986 470.0105z" stroke="none" fill="#000000" fill-rule="nonzero" /><g transform="matrix(0.3238915 0 -0 0.34498784 296.87445 321.46637)"><g transform="matrix(1 0 0 1 0 0)"><image x="0" y="0" xlink:href="img_08.png" width="278" height="261" /></g></g><path id="173" transform="matrix(1 0 0 -1 0 841)" d="M389.0266 470.76086L400.28186 470.76086L400.28186 470.0105L389.0266 470.0105z" stroke="none" fill="#000000" fill-rule="nonzero" /><g transform="matrix(0.3238915 0 -0 0.34498784 403.42395 321.46637)"><g transform="matrix(1 0 0 1 0 0)"><image x="0" y="0" xlink:href="img_09.png" width="278" height="261" /></g></g><path id="176" transform="matrix(1 0 0 -1 0 841)" d="M495.69336 470.76086L506.94858 470.76086L506.94858 470.0105L495.69336 470.0105z" stroke="none" fill="#000000" fill-rule="nonzero" /><g transform="matrix(0.3238915 0 -0 0.34498784 83.77545 411.50818)"><g transform="matrix(1 0 0 1 0 0)"><image x="0" y="0" xlink:href="img_10.png" width="278" height="261" /></g></g><path id="179" transform="matrix(1 0 0 -1 0 841)" d="M175.69315 380.719L186.94838 380.719L186.94838 379.96863L175.69315 379.96863z" stroke="none" fill="#000000" fill-rule="nonzero" /><g transform="matrix(0.3238915 0 -0 0.34498784 190.32494 411.50818)"><g transform="matrix(1 0 0 1 0 0)"><image x="0" y="0" xlink:href="img_11.png" width="278" height="261" /></g></g><path id="182" transform="matrix(1 0 0 -1 0 841)" d="M282.35986 380.719L293.6151 380.719L293.6151 379.96863L282.35986 379.96863z" stroke="none" fill="#000000" fill-rule="nonzero" /><g transform="matrix(0.3238915 0 -0 0.34498784 296.87445 411.50818)"><g transform="matrix(1 0 0 1 0 0)"><image x="0" y="0" xlink:href="img_12.png" width="278" height="261" /></g></g><path id="185" transform="matrix(1 0 0 -1 0 841)" d="M389.0266 380.719L400.28186 380.719L400.28186 379.96863L389.0266 379.96863z" stroke="none" fill="#000000" fill-rule="nonzero" /><g transform="matrix(0.3238915 0 -0 0.34498784 83.77545 501.55014)"><g transform="matrix(1 0 0 1 0 0)"><image x="0" y="0" xlink:href="img_13.png" width="278" height="261" /></g></g><path id="188" transform="matrix(1 0 0 -1 0 841)" d="M175.69315 290.67725L186.94838 290.67725L186.94838 289.92676L175.69315 289.92676z" stroke="none" fill="#000000" fill-rule="nonzero" /><g transform="matrix(0.3238915 0 -0 0.34498784 190.32494 501.55014)"><g transform="matrix(1 0 0 1 0 0)"><image x="0" y="0" xlink:href="img_14.png" width="278" height="261" /></g></g><path id="191" transform="matrix(1 0 0 -1 0 841)" d="M282.35986 290.67725L293.6151 290.67725L293.6151 289.92676L282.35986 289.92676z" stroke="none" fill="#000000" fill-rule="nonzero" /><path id="193" transform="matrix(1 0 0 -1 0 841)" d="M57.88842 193.50708L527.6066 193.50708L527.6066 193.50708L527.6066 -246.94751L527.6066 -246.94751L57.88842 -246.94751z" stroke="#DDDDDD" stroke-width="0.75034857" fill="none" /><path id="194" transform="matrix(1 0 0 -1 0 841)" d="M58.26359 193.13184L527.23145 193.13184L527.23145 154.86401L58.26359 154.86401z" stroke="none" fill="#FFFFFF" fill-rule="nonzero" /></g></g></g></svg>