<svg xmlns="http://www.w3.org/2000/svg" xmlns:xlink="http://www.w3.org/1999/xlink" id="body_1" preserveAspectRatio="xMinYMin meet" viewBox="0 0 816 1056"><defs><clipPath id="1"><path id="" clip-rule="evenodd" transform="matrix(1 0 0 1 0 0)" d="M0 792L0 0L0 0L612 0L612 0L612 792L612 792L0 792z" /></clipPath><clipPath id="2"><path id="" clip-rule="evenodd" transform="matrix(1 0 0 1 0 0)" d="M0 792L612 792L612 792L612 0L612 0L0 0z" /></clipPath><clipPath id="3"><path id="" clip-rule="evenodd" transform="matrix(1 0 0 1 0 0)" d="M0 792L612 792L612 792L612 0L612 0L0 0z" /></clipPath><clipPath id="4"><path id="" clip-rule="evenodd" transform="matrix(1 0 0 1 0 0)" d="M54 54L558 54L558 54L558 715.699L558 715.699L54 715.699z" /></clipPath><clipPath id="5"><path id="" clip-rule="evenodd" transform="matrix(1 0 0 1 0 0)" d="M54 54L558 54L558 54L558 715.699L558 715.699L54 715.699z" /></clipPath><clipPath id="6"><path id="" clip-rule="evenodd" transform="matrix(1 0 0 1 0 0)" d="M54 54L558 54L558 54L558 715.699L558 715.699L54 715.699z" /></clipPath><clipPath id="7"><path id="" clip-rule="evenodd" transform="matrix(1 0 0 1 0 0)" d="M54 54L558 54L558 54L558 715.699L558 715.699L54 715.699z" /></clipPath><pattern patternTransform="matrix(0.75 0 0 -0.75 413.25 679.5)" id="1171" x="0" y="0" width="2112" height="2112" patternUnits="userSpaceOnUse"><image x="0" y="0" width="2112" height="2112" xlink:href="img_01.png" /></pattern><pattern patternTransform="matrix(0.75 0 0 -0.75 81.2625 611.625)" id="1412" x="0" y="0" width="1968" height="1968" patternUnits="userSpaceOnUse"><image x="0" y="0" width="1968" height="1968" xlink:href="img_02.png" /></pattern><pattern patternTransform="matrix(0.75 0 0 -0.75 88.0125 492.625)" id="1656" x="0" y="0" width="1952" height="1952" patternUnits="userSpaceOnUse"><image x="0" y="0" width="1952" height="1952" xlink:href="img_03.png" /></pattern><pattern patternTransform="matrix(0.75 0 0 -0.75 88.65 367)" id="1900" x="0" y="0" width="1882" height="1882" patternUnits="userSpaceOnUse"><image x="0" y="0" width="1882" height="1882" xlink:href="img_04.png" /></pattern><pattern patternTransform="matrix(0.75 0 0 -0.75 88.65 322)" id="2138" x="0" y="0" width="1882" height="1882" patternUnits="userSpaceOnUse"><image x="0" y="0" width="1882" height="1882" xlink:href="img_04.png" /></pattern><pattern patternTransform="matrix(0.75 0 0 -0.75 88.65 307.25)" id="2376" x="0" y="0" width="1882" height="1882" patternUnits="userSpaceOnUse"><image x="0" y="0" width="1882" height="1882" xlink:href="img_04.png" /></pattern><pattern patternTransform="matrix(0.75 0 0 -0.75 88.65 281.5)" id="2617" x="0" y="0" width="1882" height="1882" patternUnits="userSpaceOnUse"><image x="0" y="0" width="1882" height="1882" xlink:href="img_04.png" /></pattern><pattern patternTransform="matrix(0.675 0 0 -0.75 69.75 181)" id="2857" x="0" y="0" width="2753" height="2753" patternUnits="userSpaceOnUse"><image x="0" y="0" width="2753" height="2753" xlink:href="img_05.png" /></pattern><clipPath id="8"><path id="" clip-rule="evenodd" transform="matrix(1 0 0 1 0 0)" d="M0 0L612 0L612 0L612 792L612 792L0 792z" /></clipPath><clipPath id="9"><path id="" clip-rule="evenodd" transform="matrix(1 0 0 1 0 0)" d="M0 0L612 0L612 0L612 792L612 792L0 792z" /></clipPath><clipPath id="10"><path id="" clip-rule="evenodd" transform="matrix(1 0 0 1 0 0)" d="M0 0L612 0L612 0L612 792L612 792L0 792z" /></clipPath><clipPath id="11"><path id="" clip-rule="evenodd" transform="matrix(1 0 0 1 0 0)" d="M0 0L612 0L612 0L612 792L612 792L0 792z" /></clipPath><clipPath id="12"><path id="" clip-rule="evenodd" transform="matrix(1 0 0 1 0 0)" d="M0 792L612 792L612 792L612 0L612 0L0 0z" /></clipPath><pattern patternTransform="matrix(0.24 0 0 -0.24 70 674.8)" id="3879" x="0" y="0" width="6000" height="6000" patternUnits="userSpaceOnUse"><image x="0" y="0" width="6000" height="6000" xlink:href="img_06.png" /></pattern><clipPath id="13"><path id="" clip-rule="evenodd" transform="matrix(1 0 0 1 0 0)" d="M0 792L612 792L612 792L612 0L612 0L0 0z" /></clipPath><pattern patternTransform="matrix(0.24 0 0 -0.24 145 587.84)" id="4273" x="0" y="0" width="6000" height="6000" patternUnits="userSpaceOnUse"><image x="0" y="0" width="6000" height="6000" xlink:href="img_07.png" /></pattern><clipPath id="14"><path id="" clip-rule="evenodd" transform="matrix(1 0 0 1 0 0)" d="M0 792L612 792L612 792L612 0L612 0L0 0z" /></clipPath><pattern patternTransform="matrix(0.24 0 0 -0.24 424 587.84)" id="4669" x="0" y="0" width="6000" height="6000" patternUnits="userSpaceOnUse"><image x="0" y="0" width="6000" height="6000" xlink:href="img_08.png" /></pattern><clipPath id="15"><path id="" clip-rule="evenodd" transform="matrix(1 0 0 1 0 0)" d="M0 792L612 792L612 792L612 0L612 0L0 0z" /></clipPath><pattern patternTransform="matrix(0.24 0 0 -0.24 71 579.8)" id="5065" x="0" y="0" width="6000" height="6000" patternUnits="userSpaceOnUse"><image x="0" y="0" width="6000" height="6000" xlink:href="img_09.png" /></pattern><clipPath id="16"><path id="" clip-rule="evenodd" transform="matrix(1 0 0 1 0 0)" d="M0 792L612 792L612 792L612 0L612 0L0 0z" /></clipPath><pattern patternTransform="matrix(0.24 0 0 -0.24 90 554.8)" id="5459" x="0" y="0" width="6000" height="6000" patternUnits="userSpaceOnUse"><image x="0" y="0" width="6000" height="6000" xlink:href="img_10.png" /></pattern><clipPath id="17"><path id="" clip-rule="evenodd" transform="matrix(1 0 0 1 0 0)" d="M0 792L612 792L612 792L612 0L612 0L0 0z" /></clipPath><pattern patternTransform="matrix(0.24 0 0 -0.24 145 469.84)" id="5853" x="0" y="0" width="6000" height="6000" patternUnits="userSpaceOnUse"><image x="0" y="0" width="6000" height="6000" xlink:href="img_11.png" /></pattern><clipPath id="18"><path id="" clip-rule="evenodd" transform="matrix(1 0 0 1 0 0)" d="M0 792L612 792L612 792L612 0L612 0L0 0z" /></clipPath><pattern patternTransform="matrix(0.24 0 0 -0.24 424 469.84)" id="6249" x="0" y="0" width="6000" height="6000" patternUnits="userSpaceOnUse"><image x="0" y="0" width="6000" height="6000" xlink:href="img_12.png" /></pattern><clipPath id="19"><path id="" clip-rule="evenodd" transform="matrix(1 0 0 1 0 0)" d="M0 792L612 792L612 792L612 0L612 0L0 0z" /></clipPath><pattern patternTransform="matrix(0.24 0 0 -0.24 71 461.8)" id="6645" x="0" y="0" width="6000" height="6000" patternUnits="userSpaceOnUse"><image x="0" y="0" width="6000" height="6000" xlink:href="img_13.png" /></pattern><clipPath id="20"><path id="" clip-rule="evenodd" transform="matrix(1 0 0 1 0 0)" d="M0 792L612 792L612 792L612 0L612 0L0 0z" /></clipPath><pattern patternTransform="matrix(0.24 0 0 -0.24 90 436.8)" id="7039" x="0" y="0" width="6000" height="6000" patternUnits="userSpaceOnUse"><image x="0" y="0" width="6000" height="6000" xlink:href="img_14.png" /></pattern><clipPath id="21"><path id="" clip-rule="evenodd" transform="matrix(1 0 0 1 0 0)" d="M0 792L612 792L612 792L612 0L612 0L0 0z" /></clipPath><pattern patternTransform="matrix(0.24 0 0 -0.24 70 381.84)" id="7433" x="0" y="0" width="6000" height="6000" patternUnits="userSpaceOnUse"><image x="0" y="0" width="6000" height="6000" xlink:href="img_15.png" /></pattern><clipPath id="22"><path id="" clip-rule="evenodd" transform="matrix(1 0 0 1 0 0)" d="M0 792L612 792L612 792L612 0L612 0L0 0z" /></clipPath><pattern patternTransform="matrix(0.24 0 0 -0.24 70 150.84)" id="7828" x="0" y="0" width="6000" height="6000" patternUnits="userSpaceOnUse"><image x="0" y="0" width="6000" height="6000" xlink:href="img_16.png" /></pattern></defs><g transform="matrix(1.3333334 0 0 1.3333334 0 0)"><g clip-path="url(#1)"><g><g clip-path="url(#2)"><g><g clip-path="url(#3)"><g clip-path="url(#4)"><path id="1" transform="matrix(1 0 0 -1 0 792)" d="M54 738L558 738L558 76.301025L54 76.301025z" stroke="none" fill="#FFFFFF" fill-rule="nonzero" /><path id="2" transform="matrix(1 0 0 -1 0 792)" d="M69.75 730.5L542.25 730.5L542.25 76.301025L69.75 76.301025z" stroke="none" fill="#FFFFFF" fill-rule="nonzero" /></g><g clip-path="url(#5)"><path id="3" transform="matrix(1 0 0 -1 0 792)" d="M70.5 640.5L541.5 640.5L541.5 640.5L541.5 532.5L541.5 532.5L70.5 532.5z" stroke="#2A6EBB" stroke-width="1" fill="none" /></g><g clip-path="url(#6)"><path id="4" transform="matrix(1 0 0 -1 0 792)" d="M70.5 522.5L541.5 522.5L541.5 522.5L541.5 414.5L541.5 414.5L70.5 414.5z" stroke="#2A6EBB" stroke-width="1" fill="none" /></g><g clip-path="url(#7)"><path id="72" transform="matrix(1 0 0 -1 0 792)" d="M413.25 730.5L542.25 730.5L542.25 679.5L413.25 679.5z" stroke="none" fill="url(#1171)" /><path id="103" transform="matrix(1 0 0 -1 0 792)" d="M81.262 630.375L134.512 630.375L134.512 611.625L81.262 611.625z" stroke="none" fill="url(#1412)" /><path id="315" transform="matrix(1 0 0 -1 0 792)" d="M88.012 512.875L127.762 512.875L127.762 492.625L88.012 492.625z" stroke="none" fill="url(#1656)" /><path id="552" transform="matrix(1 0 0 -1 0 792)" d="M88.648 370.75L92.398 370.75L92.398 367L88.648 367z" stroke="none" fill="url(#1900)" /><path id="738" transform="matrix(1 0 0 -1 0 792)" d="M88.648 325.75L92.398 325.75L92.398 322L88.648 322z" stroke="none" fill="url(#2138)" /><path id="798" transform="matrix(1 0 0 -1 0 792)" d="M88.648 311L92.398 311L92.398 307.25L88.648 307.25z" stroke="none" fill="url(#2376)" /><path id="960" transform="matrix(1 0 0 -1 0 792)" d="M88.648 285.25L92.398 285.25L92.398 281.5L88.648 281.5z" stroke="none" fill="url(#2617)" /><path id="1211" transform="matrix(1 0 0 -1 0 792)" d="M69.75 248.5L542.25 248.5L542.25 181L69.75 181z" stroke="none" fill="url(#2857)" /><path id="1319" transform="matrix(1 0 0 -1 0 792)" d="M293 115.5L369 115.5" stroke="#0000EE" stroke-width="1" fill="none" /></g><g clip-path="url(#8)"></g><g clip-path="url(#9)"></g><g clip-path="url(#10)"></g><g clip-path="url(#11)"></g></g></g><g><g clip-path="url(#12)"><path id="1640" transform="matrix(1 0 0 -1 0 792)" d="M0 0L612 0L612 792L0 792z" stroke="none" fill="url(#3879)" /></g></g><g><g clip-path="url(#13)"><path id="1641" transform="matrix(1 0 0 -1 0 792)" d="M0 0L612 0L612 792L0 792z" stroke="none" fill="url(#4273)" /></g></g><g><g clip-path="url(#14)"><path id="1642" transform="matrix(1 0 0 -1 0 792)" d="M0 0L612 0L612 792L0 792z" stroke="none" fill="url(#4669)" /></g></g><g><g clip-path="url(#15)"><path id="1643" transform="matrix(1 0 0 -1 0 792)" d="M0 0L612 0L612 792L0 792z" stroke="none" fill="url(#5065)" /></g></g><g><g clip-path="url(#16)"><path id="1644" transform="matrix(1 0 0 -1 0 792)" d="M0 0L612 0L612 792L0 792z" stroke="none" fill="url(#5459)" /></g></g><g><g clip-path="url(#17)"><path id="1645" transform="matrix(1 0 0 -1 0 792)" d="M0 0L612 0L612 792L0 792z" stroke="none" fill="url(#5853)" /></g></g><g><g clip-path="url(#18)"><path id="1646" transform="matrix(1 0 0 -1 0 792)" d="M0 0L612 0L612 792L0 792z" stroke="none" fill="url(#6249)" /></g></g><g><g clip-path="url(#19)"><path id="1647" transform="matrix(1 0 0 -1 0 792)" d="M0 0L612 0L612 792L0 792z" stroke="none" fill="url(#6645)" /></g></g><g><g clip-path="url(#20)"><path id="1648" transform="matrix(1 0 0 -1 0 792)" d="M0 0L612 0L612 792L0 792z" stroke="none" fill="url(#7039)" /></g></g><g><g clip-path="url(#21)"><path id="1649" transform="matrix(1 0 0 -1 0 792)" d="M0 0L612 0L612 792L0 792z" stroke="none" fill="url(#7433)" /></g></g><g><g clip-path="url(#22)"><path id="1650" transform="matrix(1 0 0 -1 0 792)" d="M0 0L612 0L612 792L0 792z" stroke="none" fill="url(#7828)" /></g></g></g></g></g></g></svg>