<svg xmlns="http://www.w3.org/2000/svg" xmlns:xlink="http://www.w3.org/1999/xlink" id="body_1" preserveAspectRatio="xMinYMin meet" viewBox="0 0 793 1123"><defs><clipPath id="1"><path id="" clip-rule="evenodd" transform="matrix(1 0 0 1 0 0)" d="M0 842L0 0L0 0L595 0L595 0L595 842L595 842L0 842z" /></clipPath><clipPath id="2"><path id="" clip-rule="evenodd" transform="matrix(1 0 0 1 0 0)" d="M-2 825L598 825L598 825L598 15L598 15L-2 15z" /></clipPath><clipPath id="3"><path id="" clip-rule="evenodd" transform="matrix(1 0 0 1 0 0)" d="M-2 15L598 15L598 15L598 825L598 825L-2 825z" /></clipPath><clipPath id="4"><path id="" clip-rule="evenodd" transform="matrix(1 0 0 1 0 0)" d="M567.25 452.75L568 452.75L568 452.75L568 453.5L568 453.5L567.25 453.5z" /></clipPath><clipPath id="5"><path id="" clip-rule="evenodd" transform="matrix(1 0 0 1 0 0)" d="M568 452.75L568 454.25L568 454.25L567.25 453.5z" /></clipPath><clipPath id="6"><path id="" clip-rule="evenodd" transform="matrix(1 0 0 1 0 0)" d="M28 452.75L568 452.75L568 452.75L567.25 453.5L567.25 453.5L28.75 453.5z" /></clipPath><clipPath id="7"><path id="" clip-rule="evenodd" transform="matrix(1 0 0 1 0 0)" d="M28 453.5L28.75 453.5L28.75 453.5L28.75 454.25L28.75 454.25L28 454.25z" /></clipPath><clipPath id="8"><path id="" clip-rule="evenodd" transform="matrix(1 0 0 1 0 0)" d="M28 454.25L28 452.75L28 452.75L28.75 453.5z" /></clipPath><clipPath id="9"><path id="" clip-rule="evenodd" transform="matrix(1 0 0 1 0 0)" d="M568 454.25L28 454.25L28 454.25L28.75 453.5L28.75 453.5L567.25 453.5z" /></clipPath><clipPath id="10"><path id="" clip-rule="evenodd" transform="matrix(1 0 0 1 0 0)" d="M28.75 452.75L567.25 452.75L567.25 452.75L567.25 453.5L567.25 453.5L28.75 453.5z" /></clipPath><clipPath id="11"><path id="" clip-rule="evenodd" transform="matrix(1 0 0 1 0 0)" d="M28.75 453.5L567.25 453.5L567.25 453.5L567.25 454.25L567.25 454.25L28.75 454.25z" /></clipPath><clipPath id="12"><path id="" clip-rule="evenodd" transform="matrix(1 0 0 1 0 0)" d="M567.25 477.5L568 477.5L568 477.5L568 478.25L568 478.25L567.25 478.25z" /></clipPath><clipPath id="13"><path id="" clip-rule="evenodd" transform="matrix(1 0 0 1 0 0)" d="M568 477.5L568 479L568 479L567.25 478.25z" /></clipPath><clipPath id="14"><path id="" clip-rule="evenodd" transform="matrix(1 0 0 1 0 0)" d="M28 477.5L568 477.5L568 477.5L567.25 478.25L567.25 478.25L28.75 478.25z" /></clipPath><clipPath id="15"><path id="" clip-rule="evenodd" transform="matrix(1 0 0 1 0 0)" d="M28 478.25L28.75 478.25L28.75 478.25L28.75 479L28.75 479L28 479z" /></clipPath><clipPath id="16"><path id="" clip-rule="evenodd" transform="matrix(1 0 0 1 0 0)" d="M28 479L28 477.5L28 477.5L28.75 478.25z" /></clipPath><clipPath id="17"><path id="" clip-rule="evenodd" transform="matrix(1 0 0 1 0 0)" d="M568 479L28 479L28 479L28.75 478.25L28.75 478.25L567.25 478.25z" /></clipPath><clipPath id="18"><path id="" clip-rule="evenodd" transform="matrix(1 0 0 1 0 0)" d="M28.75 477.5L567.25 477.5L567.25 477.5L567.25 478.25L567.25 478.25L28.75 478.25z" /></clipPath><clipPath id="19"><path id="" clip-rule="evenodd" transform="matrix(1 0 0 1 0 0)" d="M28.75 478.25L567.25 478.25L567.25 478.25L567.25 479L567.25 479L28.75 479z" /></clipPath><clipPath id="20"><path id="" clip-rule="evenodd" transform="matrix(1 0 0 1 0 0)" d="M567.25 650.75L568 650.75L568 650.75L568 651.5L568 651.5L567.25 651.5z" /></clipPath><clipPath id="21"><path id="" clip-rule="evenodd" transform="matrix(1 0 0 1 0 0)" d="M568 650.75L568 652.25L568 652.25L567.25 651.5z" /></clipPath><clipPath id="22"><path id="" clip-rule="evenodd" transform="matrix(1 0 0 1 0 0)" d="M28 650.75L568 650.75L568 650.75L567.25 651.5L567.25 651.5L28.75 651.5z" /></clipPath><clipPath id="23"><path id="" clip-rule="evenodd" transform="matrix(1 0 0 1 0 0)" d="M28 651.5L28.75 651.5L28.75 651.5L28.75 652.25L28.75 652.25L28 652.25z" /></clipPath><clipPath id="24"><path id="" clip-rule="evenodd" transform="matrix(1 0 0 1 0 0)" d="M28 652.25L28 650.75L28 650.75L28.75 651.5z" /></clipPath><clipPath id="25"><path id="" clip-rule="evenodd" transform="matrix(1 0 0 1 0 0)" d="M568 652.25L28 652.25L28 652.25L28.75 651.5L28.75 651.5L567.25 651.5z" /></clipPath><clipPath id="26"><path id="" clip-rule="evenodd" transform="matrix(1 0 0 1 0 0)" d="M28.75 650.75L567.25 650.75L567.25 650.75L567.25 651.5L567.25 651.5L28.75 651.5z" /></clipPath><clipPath id="27"><path id="" clip-rule="evenodd" transform="matrix(1 0 0 1 0 0)" d="M28.75 651.5L567.25 651.5L567.25 651.5L567.25 652.25L567.25 652.25L28.75 652.25z" /></clipPath><clipPath id="28"><path id="" clip-rule="evenodd" transform="matrix(1 0 0 1 0 0)" d="M567.25 684.5L568 684.5L568 684.5L568 685.25L568 685.25L567.25 685.25z" /></clipPath><clipPath id="29"><path id="" clip-rule="evenodd" transform="matrix(1 0 0 1 0 0)" d="M568 684.5L568 686L568 686L567.25 685.25z" /></clipPath><clipPath id="30"><path id="" clip-rule="evenodd" transform="matrix(1 0 0 1 0 0)" d="M28 684.5L568 684.5L568 684.5L567.25 685.25L567.25 685.25L28.75 685.25z" /></clipPath><clipPath id="31"><path id="" clip-rule="evenodd" transform="matrix(1 0 0 1 0 0)" d="M28 685.25L28.75 685.25L28.75 685.25L28.75 686L28.75 686L28 686z" /></clipPath><clipPath id="32"><path id="" clip-rule="evenodd" transform="matrix(1 0 0 1 0 0)" d="M28 686L28 684.5L28 684.5L28.75 685.25z" /></clipPath><clipPath id="33"><path id="" clip-rule="evenodd" transform="matrix(1 0 0 1 0 0)" d="M568 686L28 686L28 686L28.75 685.25L28.75 685.25L567.25 685.25z" /></clipPath><clipPath id="34"><path id="" clip-rule="evenodd" transform="matrix(1 0 0 1 0 0)" d="M28.75 684.5L567.25 684.5L567.25 684.5L567.25 685.25L567.25 685.25L28.75 685.25z" /></clipPath><clipPath id="35"><path id="" clip-rule="evenodd" transform="matrix(1 0 0 1 0 0)" d="M28.75 685.25L567.25 685.25L567.25 685.25L567.25 686L567.25 686L28.75 686z" /></clipPath><clipPath id="36"><path id="" clip-rule="evenodd" transform="matrix(1 0 0 1 0 0)" d="M567.25 705.875L568 705.875L568 705.875L568 706.625L568 706.625L567.25 706.625z" /></clipPath><clipPath id="37"><path id="" clip-rule="evenodd" transform="matrix(1 0 0 1 0 0)" d="M568 705.875L568 707.375L568 707.375L567.25 706.625z" /></clipPath><clipPath id="38"><path id="" clip-rule="evenodd" transform="matrix(1 0 0 1 0 0)" d="M28 705.875L568 705.875L568 705.875L567.25 706.625L567.25 706.625L28.75 706.625z" /></clipPath><clipPath id="39"><path id="" clip-rule="evenodd" transform="matrix(1 0 0 1 0 0)" d="M28 706.625L28.75 706.625L28.75 706.625L28.75 707.375L28.75 707.375L28 707.375z" /></clipPath><clipPath id="40"><path id="" clip-rule="evenodd" transform="matrix(1 0 0 1 0 0)" d="M28 707.375L28 705.875L28 705.875L28.75 706.625z" /></clipPath><clipPath id="41"><path id="" clip-rule="evenodd" transform="matrix(1 0 0 1 0 0)" d="M568 707.375L28 707.375L28 707.375L28.75 706.625L28.75 706.625L567.25 706.625z" /></clipPath><clipPath id="42"><path id="" clip-rule="evenodd" transform="matrix(1 0 0 1 0 0)" d="M28.75 705.875L567.25 705.875L567.25 705.875L567.25 706.625L567.25 706.625L28.75 706.625z" /></clipPath><clipPath id="43"><path id="" clip-rule="evenodd" transform="matrix(1 0 0 1 0 0)" d="M28.75 706.625L567.25 706.625L567.25 706.625L567.25 707.375L567.25 707.375L28.75 707.375z" /></clipPath><clipPath id="44"><path id="" clip-rule="evenodd" transform="matrix(1 0 0 1 0 0)" d="M567.25 739.625L568 739.625L568 739.625L568 740.375L568 740.375L567.25 740.375z" /></clipPath><clipPath id="45"><path id="" clip-rule="evenodd" transform="matrix(1 0 0 1 0 0)" d="M568 739.625L568 741.125L568 741.125L567.25 740.375z" /></clipPath><clipPath id="46"><path id="" clip-rule="evenodd" transform="matrix(1 0 0 1 0 0)" d="M28 739.625L568 739.625L568 739.625L567.25 740.375L567.25 740.375L28.75 740.375z" /></clipPath><clipPath id="47"><path id="" clip-rule="evenodd" transform="matrix(1 0 0 1 0 0)" d="M28 740.375L28.75 740.375L28.75 740.375L28.75 741.125L28.75 741.125L28 741.125z" /></clipPath><clipPath id="48"><path id="" clip-rule="evenodd" transform="matrix(1 0 0 1 0 0)" d="M28 741.125L28 739.625L28 739.625L28.75 740.375z" /></clipPath><clipPath id="49"><path id="" clip-rule="evenodd" transform="matrix(1 0 0 1 0 0)" d="M568 741.125L28 741.125L28 741.125L28.75 740.375L28.75 740.375L567.25 740.375z" /></clipPath><clipPath id="50"><path id="" clip-rule="evenodd" transform="matrix(1 0 0 1 0 0)" d="M28.75 739.625L567.25 739.625L567.25 739.625L567.25 740.375L567.25 740.375L28.75 740.375z" /></clipPath><clipPath id="51"><path id="" clip-rule="evenodd" transform="matrix(1 0 0 1 0 0)" d="M28.75 740.375L567.25 740.375L567.25 740.375L567.25 741.125L567.25 741.125L28.75 741.125z" /></clipPath><clipPath id="52"><path id="" clip-rule="evenodd" transform="matrix(1 0 0 1 0 0)" d="M567.25 761L568 761L568 761L568 761.75L568 761.75L567.25 761.75z" /></clipPath><clipPath id="53"><path id="" clip-rule="evenodd" transform="matrix(1 0 0 1 0 0)" d="M568 761L568 762.5L568 762.5L567.25 761.75z" /></clipPath><clipPath id="54"><path id="" clip-rule="evenodd" transform="matrix(1 0 0 1 0 0)" d="M28 761L568 761L568 761L567.25 761.75L567.25 761.75L28.75 761.75z" /></clipPath><clipPath id="55"><path id="" clip-rule="evenodd" transform="matrix(1 0 0 1 0 0)" d="M28 761.75L28.75 761.75L28.75 761.75L28.75 762.5L28.75 762.5L28 762.5z" /></clipPath><clipPath id="56"><path id="" clip-rule="evenodd" transform="matrix(1 0 0 1 0 0)" d="M28 762.5L28 761L28 761L28.75 761.75z" /></clipPath><clipPath id="57"><path id="" clip-rule="evenodd" transform="matrix(1 0 0 1 0 0)" d="M568 762.5L28 762.5L28 762.5L28.75 761.75L28.75 761.75L567.25 761.75z" /></clipPath><clipPath id="58"><path id="" clip-rule="evenodd" transform="matrix(1 0 0 1 0 0)" d="M28.75 761L567.25 761L567.25 761L567.25 761.75L567.25 761.75L28.75 761.75z" /></clipPath><clipPath id="59"><path id="" clip-rule="evenodd" transform="matrix(1 0 0 1 0 0)" d="M28.75 761.75L567.25 761.75L567.25 761.75L567.25 762.5L567.25 762.5L28.75 762.5z" /></clipPath><clipPath id="60"><path id="" clip-rule="evenodd" transform="matrix(1 0 0 1 0 0)" d="M421.7266 52.125L521.4766 52.125L521.4766 52.125L521.4766 78.375L521.4766 78.375L421.7266 78.375z" /></clipPath><clipPath id="61"><path id="" clip-rule="evenodd" transform="matrix(1 0 0 1 0 0)" d="M534.2891 52.125L560.5391 52.125L560.5391 52.125L560.5391 78.375L560.5391 78.375L534.2891 78.375z" /></clipPath><clipPath id="62"><path id="" clip-rule="evenodd" transform="matrix(1 0 0 1 0 0)" d="M33.03906 27.375L115.5391 27.375L115.5391 27.375L115.5391 109.875L115.5391 109.875L33.03906 109.875z" /></clipPath><mask id="m1"><clipPath id="63"><path id="" clip-rule="evenodd" transform="matrix(1 0 0 1 0 0)" d="M33.0375 27.375L481.5375 27.375L481.5375 27.375L481.5375 647.625L481.5375 647.625L33.0375 647.625z" /></clipPath><g><g><g clip-path="url(#63)"><path id="257" transform="matrix(1 0 0 -1 0 842)" d="M33.0375 814.625L481.5375 814.625L481.5375 194.375L33.0375 194.375z" stroke="none" fill="#000000" fill-rule="nonzero" /></g></g></g></mask><clipPath id="64"><path id="" clip-rule="evenodd" transform="matrix(1 0 0 1 0 0)" d="M33.03906 27.375L115.5391 27.375L115.5391 27.375L115.5391 109.875L115.5391 109.875L33.03906 109.875z" /></clipPath><clipPath id="65"><path id="" clip-rule="evenodd" transform="matrix(1 0 0 1 0 0)" d="M33.03906 27.375L115.5391 27.375L115.5391 27.375L115.5391 109.875L115.5391 109.875L33.03906 109.875z" /></clipPath><clipPath id="66"><path id="" clip-rule="evenodd" transform="matrix(1 0 0 1 0 0)" d="M33.0375 27.375L481.5375 27.375L481.5375 27.375L481.5375 647.625L481.5375 647.625L33.0375 647.625z" /></clipPath><clipPath id="67"><path id="" clip-rule="evenodd" transform="matrix(1 0 0 1 0 0)" d="M33.03888 27.37506L115.5385 27.37506L115.5385 27.37506L115.5385 109.8746L115.5385 109.8746L33.03888 109.8746z" /></clipPath></defs><g transform="matrix(1.333333 0 0 1.333333 0 0)"><g clip-path="url(#1)"><g clip-path="url(#2)"><g clip-path="url(#3)"><path id="1" transform="matrix(1 0 0 -1 0 842)" d="M-2 21L598 21L598 17L-2 17z" stroke="none" fill="#FFFFFF" fill-rule="nonzero" /><path id="2" transform="matrix(1 0 0 -1 0 842)" d="M-2 827L598 827L598 719.75L-2 719.75z" stroke="none" fill="#FFFFFF" fill-rule="nonzero" /><path id="3" transform="matrix(1 0 0 -1 0 842)" d="M-2 719.75L598 719.75L598 487.5L-2 487.5z" stroke="none" fill="#FFFFFF" fill-rule="nonzero" /><path id="4" transform="matrix(1 0 0 -1 0 842)" d="M28 642L568 642L568 508.125L28 508.125z" stroke="none" fill="#FFEB00" fill-rule="nonzero" /><path id="5" transform="matrix(1 0 0 -1 0 842)" d="M-2 487.5L598 487.5L598 242.25L-2 242.25z" stroke="none" fill="#FFFFFF" fill-rule="nonzero" /><path id="6" transform="matrix(1 0 0 -1 0 842)" d="M28 389.25L28.75 389.25L28.75 388.5L28 388.5z" stroke="none" fill="#474747" fill-rule="nonzero" /><g clip-path="url(#4)"><g clip-path="url(#5)"><path id="7" transform="matrix(1 0 0 -1 0 842)" d="M567.25 389.25L568 389.25L568 387.75L567.25 387.75z" stroke="none" fill="#D8D8D8" fill-rule="nonzero" /></g><g clip-path="url(#6)"><path id="8" transform="matrix(1 0 0 -1 0 842)" d="M28 389.25L568 389.25L568 388.5L28 388.5z" stroke="none" fill="#474747" fill-rule="nonzero" /></g></g><path id="9" transform="matrix(1 0 0 -1 0 842)" d="M567.25 388.5L568 388.5L568 387.75L567.25 387.75z" stroke="none" fill="#D8D8D8" fill-rule="nonzero" /><g clip-path="url(#7)"><g clip-path="url(#8)"><path id="10" transform="matrix(1 0 0 -1 0 842)" d="M28 389.25L28.75 389.25L28.75 387.75L28 387.75z" stroke="none" fill="#474747" fill-rule="nonzero" /></g><g clip-path="url(#9)"><path id="11" transform="matrix(1 0 0 -1 0 842)" d="M28 388.5L568 388.5L568 387.75L28 387.75z" stroke="none" fill="#D8D8D8" fill-rule="nonzero" /></g></g><g clip-path="url(#10)"><path id="12" transform="matrix(1 0 0 -1 0 842)" d="M28 389.25L568 389.25L568 388.5L28 388.5z" stroke="none" fill="#474747" fill-rule="nonzero" /></g><path id="13" transform="matrix(1 0 0 -1 0 842)" d="M567.25 389.25L568 389.25L568 387.75L567.25 387.75z" stroke="none" fill="#D8D8D8" fill-rule="nonzero" /><g clip-path="url(#11)"><path id="14" transform="matrix(1 0 0 -1 0 842)" d="M28 388.5L568 388.5L568 387.75L28 387.75z" stroke="none" fill="#D8D8D8" fill-rule="nonzero" /></g><path id="15" transform="matrix(1 0 0 -1 0 842)" d="M28 389.25L28.75 389.25L28.75 387.75L28 387.75z" stroke="none" fill="#474747" fill-rule="nonzero" /><path id="16" transform="matrix(1 0 0 -1 0 842)" d="M28 364.5L28.75 364.5L28.75 363.75L28 363.75z" stroke="none" fill="#474747" fill-rule="nonzero" /><g clip-path="url(#12)"><g clip-path="url(#13)"><path id="17" transform="matrix(1 0 0 -1 0 842)" d="M567.25 364.5L568 364.5L568 363L567.25 363z" stroke="none" fill="#D8D8D8" fill-rule="nonzero" /></g><g clip-path="url(#14)"><path id="18" transform="matrix(1 0 0 -1 0 842)" d="M28 364.5L568 364.5L568 363.75L28 363.75z" stroke="none" fill="#474747" fill-rule="nonzero" /></g></g><path id="19" transform="matrix(1 0 0 -1 0 842)" d="M567.25 363.75L568 363.75L568 363L567.25 363z" stroke="none" fill="#D8D8D8" fill-rule="nonzero" /><g clip-path="url(#15)"><g clip-path="url(#16)"><path id="20" transform="matrix(1 0 0 -1 0 842)" d="M28 364.5L28.75 364.5L28.75 363L28 363z" stroke="none" fill="#474747" fill-rule="nonzero" /></g><g clip-path="url(#17)"><path id="21" transform="matrix(1 0 0 -1 0 842)" d="M28 363.75L568 363.75L568 363L28 363z" stroke="none" fill="#D8D8D8" fill-rule="nonzero" /></g></g><g clip-path="url(#18)"><path id="22" transform="matrix(1 0 0 -1 0 842)" d="M28 364.5L568 364.5L568 363.75L28 363.75z" stroke="none" fill="#474747" fill-rule="nonzero" /></g><path id="23" transform="matrix(1 0 0 -1 0 842)" d="M567.25 364.5L568 364.5L568 363L567.25 363z" stroke="none" fill="#D8D8D8" fill-rule="nonzero" /><g clip-path="url(#19)"><path id="24" transform="matrix(1 0 0 -1 0 842)" d="M28 363.75L568 363.75L568 363L28 363z" stroke="none" fill="#D8D8D8" fill-rule="nonzero" /></g><path id="25" transform="matrix(1 0 0 -1 0 842)" d="M28 364.5L28.75 364.5L28.75 363L28 363z" stroke="none" fill="#474747" fill-rule="nonzero" /><path id="26" transform="matrix(1 0 0 -1 0 842)" d="M-2 242.25L598 242.25L598 21L-2 21z" stroke="none" fill="#FFFFFF" fill-rule="nonzero" /><path id="27" transform="matrix(1 0 0 -1 0 842)" d="M28 191.25L28.75 191.25L28.75 190.5L28 190.5z" stroke="none" fill="#474747" fill-rule="nonzero" /><g clip-path="url(#20)"><g clip-path="url(#21)"><path id="28" transform="matrix(1 0 0 -1 0 842)" d="M567.25 191.25L568 191.25L568 189.75L567.25 189.75z" stroke="none" fill="#D8D8D8" fill-rule="nonzero" /></g><g clip-path="url(#22)"><path id="29" transform="matrix(1 0 0 -1 0 842)" d="M28 191.25L568 191.25L568 190.5L28 190.5z" stroke="none" fill="#474747" fill-rule="nonzero" /></g></g><path id="30" transform="matrix(1 0 0 -1 0 842)" d="M567.25 190.5L568 190.5L568 189.75L567.25 189.75z" stroke="none" fill="#D8D8D8" fill-rule="nonzero" /><g clip-path="url(#23)"><g clip-path="url(#24)"><path id="31" transform="matrix(1 0 0 -1 0 842)" d="M28 191.25L28.75 191.25L28.75 189.75L28 189.75z" stroke="none" fill="#474747" fill-rule="nonzero" /></g><g clip-path="url(#25)"><path id="32" transform="matrix(1 0 0 -1 0 842)" d="M28 190.5L568 190.5L568 189.75L28 189.75z" stroke="none" fill="#D8D8D8" fill-rule="nonzero" /></g></g><g clip-path="url(#26)"><path id="33" transform="matrix(1 0 0 -1 0 842)" d="M28 191.25L568 191.25L568 190.5L28 190.5z" stroke="none" fill="#474747" fill-rule="nonzero" /></g><path id="34" transform="matrix(1 0 0 -1 0 842)" d="M567.25 191.25L568 191.25L568 189.75L567.25 189.75z" stroke="none" fill="#D8D8D8" fill-rule="nonzero" /><g clip-path="url(#27)"><path id="35" transform="matrix(1 0 0 -1 0 842)" d="M28 190.5L568 190.5L568 189.75L28 189.75z" stroke="none" fill="#D8D8D8" fill-rule="nonzero" /></g><path id="36" transform="matrix(1 0 0 -1 0 842)" d="M28 191.25L28.75 191.25L28.75 189.75L28 189.75z" stroke="none" fill="#474747" fill-rule="nonzero" /><path id="37" transform="matrix(1 0 0 -1 0 842)" d="M28 157.5L28.75 157.5L28.75 156.75L28 156.75z" stroke="none" fill="#474747" fill-rule="nonzero" /><g clip-path="url(#28)"><g clip-path="url(#29)"><path id="38" transform="matrix(1 0 0 -1 0 842)" d="M567.25 157.5L568 157.5L568 156L567.25 156z" stroke="none" fill="#D8D8D8" fill-rule="nonzero" /></g><g clip-path="url(#30)"><path id="39" transform="matrix(1 0 0 -1 0 842)" d="M28 157.5L568 157.5L568 156.75L28 156.75z" stroke="none" fill="#474747" fill-rule="nonzero" /></g></g><path id="40" transform="matrix(1 0 0 -1 0 842)" d="M567.25 156.75L568 156.75L568 156L567.25 156z" stroke="none" fill="#D8D8D8" fill-rule="nonzero" /><g clip-path="url(#31)"><g clip-path="url(#32)"><path id="41" transform="matrix(1 0 0 -1 0 842)" d="M28 157.5L28.75 157.5L28.75 156L28 156z" stroke="none" fill="#474747" fill-rule="nonzero" /></g><g clip-path="url(#33)"><path id="42" transform="matrix(1 0 0 -1 0 842)" d="M28 156.75L568 156.75L568 156L28 156z" stroke="none" fill="#D8D8D8" fill-rule="nonzero" /></g></g><g clip-path="url(#34)"><path id="43" transform="matrix(1 0 0 -1 0 842)" d="M28 157.5L568 157.5L568 156.75L28 156.75z" stroke="none" fill="#474747" fill-rule="nonzero" /></g><path id="44" transform="matrix(1 0 0 -1 0 842)" d="M567.25 157.5L568 157.5L568 156L567.25 156z" stroke="none" fill="#D8D8D8" fill-rule="nonzero" /><g clip-path="url(#35)"><path id="45" transform="matrix(1 0 0 -1 0 842)" d="M28 156.75L568 156.75L568 156L28 156z" stroke="none" fill="#D8D8D8" fill-rule="nonzero" /></g><path id="46" transform="matrix(1 0 0 -1 0 842)" d="M28 157.5L28.75 157.5L28.75 156L28 156z" stroke="none" fill="#474747" fill-rule="nonzero" /><path id="47" transform="matrix(1 0 0 -1 0 842)" d="M28 136.125L28.75 136.125L28.75 135.375L28 135.375z" stroke="none" fill="#474747" fill-rule="nonzero" /><g clip-path="url(#36)"><g clip-path="url(#37)"><path id="48" transform="matrix(1 0 0 -1 0 842)" d="M567.25 136.125L568 136.125L568 134.625L567.25 134.625z" stroke="none" fill="#D8D8D8" fill-rule="nonzero" /></g><g clip-path="url(#38)"><path id="49" transform="matrix(1 0 0 -1 0 842)" d="M28 136.125L568 136.125L568 135.375L28 135.375z" stroke="none" fill="#474747" fill-rule="nonzero" /></g></g><path id="50" transform="matrix(1 0 0 -1 0 842)" d="M567.25 135.375L568 135.375L568 134.625L567.25 134.625z" stroke="none" fill="#D8D8D8" fill-rule="nonzero" /><g clip-path="url(#39)"><g clip-path="url(#40)"><path id="51" transform="matrix(1 0 0 -1 0 842)" d="M28 136.125L28.75 136.125L28.75 134.625L28 134.625z" stroke="none" fill="#474747" fill-rule="nonzero" /></g><g clip-path="url(#41)"><path id="52" transform="matrix(1 0 0 -1 0 842)" d="M28 135.375L568 135.375L568 134.625L28 134.625z" stroke="none" fill="#D8D8D8" fill-rule="nonzero" /></g></g><g clip-path="url(#42)"><path id="53" transform="matrix(1 0 0 -1 0 842)" d="M28 136.125L568 136.125L568 135.375L28 135.375z" stroke="none" fill="#474747" fill-rule="nonzero" /></g><path id="54" transform="matrix(1 0 0 -1 0 842)" d="M567.25 136.125L568 136.125L568 134.625L567.25 134.625z" stroke="none" fill="#D8D8D8" fill-rule="nonzero" /><g clip-path="url(#43)"><path id="55" transform="matrix(1 0 0 -1 0 842)" d="M28 135.375L568 135.375L568 134.625L28 134.625z" stroke="none" fill="#D8D8D8" fill-rule="nonzero" /></g><path id="56" transform="matrix(1 0 0 -1 0 842)" d="M28 136.125L28.75 136.125L28.75 134.625L28 134.625z" stroke="none" fill="#474747" fill-rule="nonzero" /><path id="57" transform="matrix(1 0 0 -1 0 842)" d="M28 102.375L28.75 102.375L28.75 101.625L28 101.625z" stroke="none" fill="#474747" fill-rule="nonzero" /><g clip-path="url(#44)"><g clip-path="url(#45)"><path id="58" transform="matrix(1 0 0 -1 0 842)" d="M567.25 102.375L568 102.375L568 100.875L567.25 100.875z" stroke="none" fill="#D8D8D8" fill-rule="nonzero" /></g><g clip-path="url(#46)"><path id="59" transform="matrix(1 0 0 -1 0 842)" d="M28 102.375L568 102.375L568 101.625L28 101.625z" stroke="none" fill="#474747" fill-rule="nonzero" /></g></g><path id="60" transform="matrix(1 0 0 -1 0 842)" d="M567.25 101.625L568 101.625L568 100.875L567.25 100.875z" stroke="none" fill="#D8D8D8" fill-rule="nonzero" /><g clip-path="url(#47)"><g clip-path="url(#48)"><path id="61" transform="matrix(1 0 0 -1 0 842)" d="M28 102.375L28.75 102.375L28.75 100.875L28 100.875z" stroke="none" fill="#474747" fill-rule="nonzero" /></g><g clip-path="url(#49)"><path id="62" transform="matrix(1 0 0 -1 0 842)" d="M28 101.625L568 101.625L568 100.875L28 100.875z" stroke="none" fill="#D8D8D8" fill-rule="nonzero" /></g></g><g clip-path="url(#50)"><path id="63" transform="matrix(1 0 0 -1 0 842)" d="M28 102.375L568 102.375L568 101.625L28 101.625z" stroke="none" fill="#474747" fill-rule="nonzero" /></g><path id="64" transform="matrix(1 0 0 -1 0 842)" d="M567.25 102.375L568 102.375L568 100.875L567.25 100.875z" stroke="none" fill="#D8D8D8" fill-rule="nonzero" /><g clip-path="url(#51)"><path id="65" transform="matrix(1 0 0 -1 0 842)" d="M28 101.625L568 101.625L568 100.875L28 100.875z" stroke="none" fill="#D8D8D8" fill-rule="nonzero" /></g><path id="66" transform="matrix(1 0 0 -1 0 842)" d="M28 102.375L28.75 102.375L28.75 100.875L28 100.875z" stroke="none" fill="#474747" fill-rule="nonzero" /><path id="67" transform="matrix(1 0 0 -1 0 842)" d="M28 81L28.75 81L28.75 80.25L28 80.25z" stroke="none" fill="#474747" fill-rule="nonzero" /><g clip-path="url(#52)"><g clip-path="url(#53)"><path id="68" transform="matrix(1 0 0 -1 0 842)" d="M567.25 81L568 81L568 79.5L567.25 79.5z" stroke="none" fill="#D8D8D8" fill-rule="nonzero" /></g><g clip-path="url(#54)"><path id="69" transform="matrix(1 0 0 -1 0 842)" d="M28 81L568 81L568 80.25L28 80.25z" stroke="none" fill="#474747" fill-rule="nonzero" /></g></g><path id="70" transform="matrix(1 0 0 -1 0 842)" d="M567.25 80.25L568 80.25L568 79.5L567.25 79.5z" stroke="none" fill="#D8D8D8" fill-rule="nonzero" /><g clip-path="url(#55)"><g clip-path="url(#56)"><path id="71" transform="matrix(1 0 0 -1 0 842)" d="M28 81L28.75 81L28.75 79.5L28 79.5z" stroke="none" fill="#474747" fill-rule="nonzero" /></g><g clip-path="url(#57)"><path id="72" transform="matrix(1 0 0 -1 0 842)" d="M28 80.25L568 80.25L568 79.5L28 79.5z" stroke="none" fill="#D8D8D8" fill-rule="nonzero" /></g></g><g clip-path="url(#58)"><path id="73" transform="matrix(1 0 0 -1 0 842)" d="M28 81L568 81L568 80.25L28 80.25z" stroke="none" fill="#474747" fill-rule="nonzero" /></g><path id="74" transform="matrix(1 0 0 -1 0 842)" d="M567.25 81L568 81L568 79.5L567.25 79.5z" stroke="none" fill="#D8D8D8" fill-rule="nonzero" /><g clip-path="url(#59)"><path id="75" transform="matrix(1 0 0 -1 0 842)" d="M28 80.25L568 80.25L568 79.5L28 79.5z" stroke="none" fill="#D8D8D8" fill-rule="nonzero" /></g><path id="76" transform="matrix(1 0 0 -1 0 842)" d="M28 81L28.75 81L28.75 79.5L28 79.5z" stroke="none" fill="#474747" fill-rule="nonzero" /><path id="77" transform="matrix(1 0 0 -1 0 842)" d="M216.9766 814.625L562.9648 814.625L562.9648 789.875L216.9766 789.875z" stroke="none" fill="#FFFFFF" fill-rule="nonzero" /><path id="78" transform="matrix(1 0 0 -1 0 842)" d="M216.9766 789.875L562.9648 789.875L562.9648 762.625L216.9766 762.625z" stroke="none" fill="#FFFFFF" fill-rule="nonzero" /><g clip-path="url(#60)"><g transform="matrix(0.2817796 0 0 0.2763158 421.7266 52.125)"><g transform="matrix(1 0 0 1 0 0)"><image x="0" y="0" xlink:href="img_01.png" width="354" height="95" /></g></g></g><g clip-path="url(#61)"><g transform="matrix(0.2763158 0 0 0.2763158 534.2891 52.125)"><g transform="matrix(1 0 0 1 0 0)"><image x="0" y="0" xlink:href="img_02.png" width="95" height="95" /></g></g></g><path id="250" transform="matrix(1 0 0 -1 0 842)" d="M525 487.5L568 487.5L568 467.625L525 467.625z" stroke="none" fill="#FFD313" fill-rule="nonzero" /><g clip-path="url(#62)"><g><g mask="url(#m1)"><g clip-path="url(#65)"><g clip-path="url(#66)"><g clip-path="url(#67)"><path id="258" transform="matrix(1 0 0 -1 0 842)" d="M114.6278 773.3752C 114.6278 751.1019 96.56158 733.0317 74.28833 733.0317C 52.01111 733.0317 33.94482 751.1019 33.94482 773.3752C 33.94482 795.6485 52.01111 813.7187 74.28833 813.7187C 96.56158 813.7187 114.6278 795.6485 114.6278 773.3752" stroke="none" fill="#FFFFFF" fill-rule="nonzero" /><path id="259" transform="matrix(1 0 0 -1 0 842)" d="M74.37036 747.3871C 88.72577 747.3871 100.4404 759.0198 100.4404 773.4573C 100.4404 787.8126 88.80774 799.5274 74.37036 799.5274C 60.01501 799.5274 48.30023 787.8947 48.30023 773.4573C 48.30023 759.0198 59.93292 747.3871 74.37036 747.3871" stroke="none" fill="#FFE900" fill-rule="nonzero" /><path id="260" transform="matrix(1 0 0 -1 0 842)" d="M99.12012 774.7776L101.5928 775.4377L103.5732 767.3518L107.3701 768.262L107.2881 770.4885L106.2139 770.2385L104.7296 776.1799L107.3701 776.84L106.71 779.8088L104.0693 779.1486L103.2451 782.4493L100.3585 780.4689L100.8506 778.4064L98.37793 777.7463L99.03815 774.7776" stroke="none" fill="#1D1D1B" fill-rule="nonzero" /><path id="261" transform="matrix(1 0 0 -1 0 842)" d="M61.99542 775.7658L65.21033 775.7658C 64.96417 778.6564 62.48767 779.1486 61.00323 779.1486C 58.77673 779.1486 56.79633 777.7463 56.79633 775.4377C 56.79633 773.9534 57.95251 773.0471 59.35486 772.6331C 61.41736 771.8088 62.24158 771.7268 62.24158 770.9846C 62.24158 770.4885 61.66339 770.1565 61.08533 770.1565C 60.92126 770.1565 60.01501 770.1565 59.85095 771.1487L59.85095 771.1487L56.63214 771.1487C 56.96039 768.262 59.43683 767.5159 61.08533 767.5159C 63.47986 767.5159 65.54236 768.9221 65.54236 771.3127C 65.54236 773.6213 63.56183 774.1995 61.74548 774.6956C 60.92126 774.9417 60.09698 775.2737 60.09698 775.7658C 60.09698 776.0978 60.34314 776.5119 61.00323 776.5119C 61.91345 776.5939 61.99542 776.0159 61.99542 775.7658M73.62811 774.6135L76.92505 774.6135C 76.35083 777.2541 74.03833 779.1486 71.15161 779.1486C 67.93292 779.1486 65.46027 776.5939 65.46027 773.3752C 65.46027 770.1565 68.01489 767.6018 71.2337 767.6018C 74.20233 767.6018 76.35083 769.5784 76.92505 772.0549L76.92505 772.0549L73.62811 772.0549C 73.2962 771.3948 72.63593 770.5706 71.31567 770.5706C 69.74927 770.5706 68.76105 771.7268 68.76105 773.2932C 68.76105 774.0354 69.00708 774.7776 69.50317 775.2737C 69.99542 775.7658 70.65552 776.0978 71.39777 776.0159C 72.55396 776.1799 73.21411 775.3557 73.62811 774.6135M85.3429 773.3752C 85.3429 771.8088 84.18665 770.6526 82.70233 770.6526C 81.29999 770.6526 80.06171 771.8088 80.06171 773.3752C 80.06171 774.9417 81.2179 776.0978 82.70233 776.0978C 84.10468 776.0978 85.3429 774.9417 85.3429 773.3752M88.55774 773.3752C 88.55774 776.0159 86.66327 779.1486 82.70233 779.1486C 78.74146 779.1486 76.84302 776.0159 76.84302 773.3752C 76.84302 770.7346 78.74146 767.6018 82.70233 767.6018C 86.66327 767.6018 88.55774 770.7346 88.55774 773.3752M97.05768 773.3752C 97.05768 771.8088 95.90143 770.6526 94.41711 770.6526C 93.01477 770.6526 91.77649 771.8088 91.77649 773.3752C 91.77649 774.9417 92.93268 776.0978 94.41711 776.0978C 95.90143 776.0978 97.05768 774.9417 97.05768 773.3752M98.70612 777.5002C 97.71777 778.4885 96.31543 779.1486 94.49908 779.1486C 90.53815 779.1486 88.63977 776.0159 88.63977 773.3752C 88.63977 770.7346 90.53815 767.6018 94.49908 767.6018C 98.46002 767.6018 100.3585 770.7346 100.3585 773.3752C 100.3585 774.5315 100.0264 775.6838 99.36627 776.676z" stroke="none" fill="#1D1D1B" fill-rule="nonzero" /></g></g></g></g></g></g><path id="880" transform="matrix(1 0 0 -1 0 842)" d="M498 582.5L543 582.5" stroke="#0000EE" stroke-width="1" fill="none" /><path id="991" transform="matrix(1 0 0 -1 0 842)" d="M43 558.5L88 558.5" stroke="#0000EE" stroke-width="1" fill="none" /><path id="1132" transform="matrix(1 0 0 -1 0 842)" d="M212 533.5L256 533.5" stroke="#0000EE" stroke-width="1" fill="none" /></g></g></g></g></svg>