<svg xmlns="http://www.w3.org/2000/svg" xmlns:xlink="http://www.w3.org/1999/xlink" id="body_2" preserveAspectRatio="xMinYMin meet" viewBox="0 0 793 1123"><defs><clipPath id="1"><path id="" clip-rule="evenodd" transform="matrix(1 0 0 1 0 0)" d="M0 842L0 0L0 0L595 0L595 0L595 842L595 842L0 842z" /></clipPath><clipPath id="2"><path id="" clip-rule="evenodd" transform="matrix(1 0 0 1 0 0)" d="M-2 825L598 825L598 825L598 15L598 15L-2 15z" /></clipPath><clipPath id="3"><path id="" clip-rule="evenodd" transform="matrix(1 0 0 1 0 0)" d="M-2 15L598 15L598 15L598 825L598 825L-2 825z" /></clipPath></defs><g transform="matrix(1.333333 0 0 1.333333 0 0)"><g clip-path="url(#1)"><g clip-path="url(#2)"><g clip-path="url(#3)"><path id="1" transform="matrix(1 0 0 -1 0 842)" d="M-2 132.125L598 132.125L598 17L-2 17z" stroke="none" fill="#FFFFFF" fill-rule="nonzero" /><path id="2" transform="matrix(1 0 0 -1 0 842)" d="M-2 827L598 827L598 743.375L-2 743.375z" stroke="none" fill="#FFFFFF" fill-rule="nonzero" /><path id="3" transform="matrix(1 0 0 -1 0 842)" d="M-2 743.375L598 743.375L598 505.625L-2 505.625z" stroke="none" fill="#FFFFFF" fill-rule="nonzero" /><path id="4" transform="matrix(1 0 0 -1 0 842)" d="M-2 505.625L598 505.625L598 366.875L-2 366.875z" stroke="none" fill="#FFFFFF" fill-rule="nonzero" /><path id="5" transform="matrix(1 0 0 -1 0 842)" d="M-2 366.875L598 366.875L598 354.5L-2 354.5z" stroke="none" fill="#FFFFFF" fill-rule="nonzero" /><path id="6" transform="matrix(1 0 0 -1 0 842)" d="M-2 354.5L598 354.5L598 132.125L-2 132.125z" stroke="none" fill="#FFFFFF" fill-rule="nonzero" /><path id="7" transform="matrix(1 0 0 -1 0 842)" d="M28 294.875L568 294.875L568 144.5L28 144.5z" stroke="none" fill="#DFDFDF" fill-rule="nonzero" /><path id="1990" transform="matrix(1 0 0 -1 0 842)" d="M152 323.5L205 323.5" stroke="#0000EE" stroke-width="1" fill="none" /><path id="2026" transform="matrix(1 0 0 -1 0 842)" d="M128 304.5L144 304.5" stroke="#0000EE" stroke-width="1" fill="none" /><path id="2036" transform="matrix(1 0 0 -1 0 842)" d="M180 304.5L199 304.5" stroke="#0000EE" stroke-width="1" fill="none" /><path id="2082" transform="matrix(1 0 0 -1 0 842)" d="M389 304.5L427 304.5" stroke="#0000EE" stroke-width="1" fill="none" /></g></g></g></g></svg>