<svg xmlns="http://www.w3.org/2000/svg" xmlns:xlink="http://www.w3.org/1999/xlink" id="body_1" preserveAspectRatio="xMinYMin meet" viewBox="0 0 793 1121"><defs><clipPath id="1"><path id="" clip-rule="evenodd" transform="matrix(1 0 0 1 0 0)" d="M0 841L0 -0.9199829L0 -0.9199829L595.32 -0.9199829L595.32 -0.9199829L595.32 841L595.32 841L0 841z" /></clipPath><clipPath id="2"><path id="" clip-rule="evenodd" transform="matrix(1 0 0 1 0 0)" d="M36.36 83.34998L558.72 83.34998L558.72 83.34998L558.72 48.88L558.72 48.88L36.36 48.88z" /></clipPath><clipPath id="3"><path id="" clip-rule="evenodd" transform="matrix(1 0 0 1 0 0)" d="M36.36 83.34003L558.72 83.34003L558.72 83.34003L558.72 48.87604L558.72 48.87604L36.36 48.87604z" /></clipPath><clipPath id="4"><path id="" clip-rule="evenodd" transform="matrix(1 0 0 1 0 0)" d="M36.36 83.34003L558.72 83.34003L558.72 83.34003L558.72 48.87604L558.72 48.87604L36.36 48.87604z" /></clipPath><clipPath id="5"><path id="" clip-rule="evenodd" transform="matrix(1 0 0 1 0 0)" d="M36.36 83.34003L558.72 83.34003L558.72 83.34003L558.72 48.87604L558.72 48.87604L36.36 48.87604z" /></clipPath><clipPath id="6"><path id="" clip-rule="evenodd" transform="matrix(1 0 0 1 0 0)" d="M36.36 83.34003L558.72 83.34003L558.72 83.34003L558.72 48.87604L558.72 48.87604L36.36 48.87604z" /></clipPath><clipPath id="7"><path id="" clip-rule="evenodd" transform="matrix(1 0 0 1 0 0)" d="M36.36 83.34003L558.72 83.34003L558.72 83.34003L558.72 48.87604L558.72 48.87604L36.36 48.87604z" /></clipPath><clipPath id="8"><path id="" clip-rule="evenodd" transform="matrix(1 0 0 1 0 0)" d="M36.36 83.34003L558.72 83.34003L558.72 83.34003L558.72 48.87604L558.72 48.87604L36.36 48.87604z" /></clipPath><clipPath id="9"><path id="" clip-rule="evenodd" transform="matrix(1 0 0 1 0 0)" d="M36.36 83.34003L558.72 83.34003L558.72 83.34003L558.72 48.87604L558.72 48.87604L36.36 48.87604z" /></clipPath><clipPath id="10"><path id="" clip-rule="evenodd" transform="matrix(1 0 0 1 0 0)" d="M36.36 83.34003L558.72 83.34003L558.72 83.34003L558.72 48.87604L558.72 48.87604L36.36 48.87604z" /></clipPath><clipPath id="11"><path id="" clip-rule="evenodd" transform="matrix(1 0 0 1 0 0)" d="M36.36 97.15002L558.72 97.15002L558.72 97.15002L558.72 83.35004L558.72 83.35004L36.36 83.35004z" /></clipPath><clipPath id="12"><path id="" clip-rule="evenodd" transform="matrix(1 0 0 1 0 0)" d="M36.36 97.14001L558.72 97.14001L558.72 97.14001L558.72 83.34003L558.72 83.34003L36.36 83.34003z" /></clipPath><clipPath id="13"><path id="" clip-rule="evenodd" transform="matrix(1 0 0 1 0 0)" d="M36.36 97.14001L558.72 97.14001L558.72 97.14001L558.72 83.34003L558.72 83.34003L36.36 83.34003z" /></clipPath><clipPath id="14"><path id="" clip-rule="evenodd" transform="matrix(1 0 0 1 0 0)" d="M36.36 108.67L135.27 108.67L135.27 108.67L135.27 97.14996L135.27 97.14996L36.36 97.14996z" /></clipPath><clipPath id="15"><path id="" clip-rule="evenodd" transform="matrix(1 0 0 1 0 0)" d="M36.36 108.66L135.264 108.66L135.264 108.66L135.264 97.13995L135.264 97.13995L36.36 97.13995z" /></clipPath><clipPath id="16"><path id="" clip-rule="evenodd" transform="matrix(1 0 0 1 0 0)" d="M36.36 108.66L135.264 108.66L135.264 108.66L135.264 97.13995L135.264 97.13995L36.36 97.13995z" /></clipPath><clipPath id="17"><path id="" clip-rule="evenodd" transform="matrix(1 0 0 1 0 0)" d="M135.27 108.67L311.12 108.67L311.12 108.67L311.12 97.14996L311.12 97.14996L135.27 97.14996z" /></clipPath><clipPath id="18"><path id="" clip-rule="evenodd" transform="matrix(1 0 0 1 0 0)" d="M135.26 108.66L311.11 108.66L311.11 108.66L311.11 97.13995L311.11 97.13995L135.26 97.13995z" /></clipPath><clipPath id="19"><path id="" clip-rule="evenodd" transform="matrix(1 0 0 1 0 0)" d="M135.26 108.66L311.11 108.66L311.11 108.66L311.11 97.13995L311.11 97.13995L135.26 97.13995z" /></clipPath><clipPath id="20"><path id="" clip-rule="evenodd" transform="matrix(1 0 0 1 0 0)" d="M311.12 108.67L411.57 108.67L411.57 108.67L411.57 97.14996L411.57 97.14996L311.12 97.14996z" /></clipPath><clipPath id="21"><path id="" clip-rule="evenodd" transform="matrix(1 0 0 1 0 0)" d="M311.11 108.66L411.57 108.66L411.57 108.66L411.57 97.13995L411.57 97.13995L311.11 97.13995z" /></clipPath><clipPath id="22"><path id="" clip-rule="evenodd" transform="matrix(1 0 0 1 0 0)" d="M311.11 108.66L411.57 108.66L411.57 108.66L411.57 97.13995L411.57 97.13995L311.11 97.13995z" /></clipPath><clipPath id="23"><path id="" clip-rule="evenodd" transform="matrix(1 0 0 1 0 0)" d="M411.57 108.67L558.72 108.67L558.72 108.67L558.72 97.14996L558.72 97.14996L411.57 97.14996z" /></clipPath><clipPath id="24"><path id="" clip-rule="evenodd" transform="matrix(1 0 0 1 0 0)" d="M411.58 108.66L558.72 108.66L558.72 108.66L558.72 97.13995L558.72 97.13995L411.58 97.13995z" /></clipPath><clipPath id="25"><path id="" clip-rule="evenodd" transform="matrix(1 0 0 1 0 0)" d="M411.58 108.66L558.72 108.66L558.72 108.66L558.72 97.13995L558.72 97.13995L411.58 97.13995z" /></clipPath><clipPath id="26"><path id="" clip-rule="evenodd" transform="matrix(1 0 0 1 0 0)" d="M36.36 120.19L135.27 120.19L135.27 120.19L135.27 108.67L135.27 108.67L36.36 108.67z" /></clipPath><clipPath id="27"><path id="" clip-rule="evenodd" transform="matrix(1 0 0 1 0 0)" d="M36.36 120.18L135.264 120.18L135.264 120.18L135.264 108.66L135.264 108.66L36.36 108.66z" /></clipPath><clipPath id="28"><path id="" clip-rule="evenodd" transform="matrix(1 0 0 1 0 0)" d="M36.36 120.18L135.264 120.18L135.264 120.18L135.264 108.66L135.264 108.66L36.36 108.66z" /></clipPath><clipPath id="29"><path id="" clip-rule="evenodd" transform="matrix(1 0 0 1 0 0)" d="M135.27 120.19L311.12 120.19L311.12 120.19L311.12 108.67L311.12 108.67L135.27 108.67z" /></clipPath><clipPath id="30"><path id="" clip-rule="evenodd" transform="matrix(1 0 0 1 0 0)" d="M135.26 120.18L311.11 120.18L311.11 120.18L311.11 108.66L311.11 108.66L135.26 108.66z" /></clipPath><clipPath id="31"><path id="" clip-rule="evenodd" transform="matrix(1 0 0 1 0 0)" d="M135.26 120.18L311.11 120.18L311.11 120.18L311.11 108.66L311.11 108.66L135.26 108.66z" /></clipPath><clipPath id="32"><path id="" clip-rule="evenodd" transform="matrix(1 0 0 1 0 0)" d="M311.12 120.19L411.57 120.19L411.57 120.19L411.57 108.67L411.57 108.67L311.12 108.67z" /></clipPath><clipPath id="33"><path id="" clip-rule="evenodd" transform="matrix(1 0 0 1 0 0)" d="M311.11 120.18L411.57 120.18L411.57 120.18L411.57 108.66L411.57 108.66L311.11 108.66z" /></clipPath><clipPath id="34"><path id="" clip-rule="evenodd" transform="matrix(1 0 0 1 0 0)" d="M311.11 120.18L411.57 120.18L411.57 120.18L411.57 108.66L411.57 108.66L311.11 108.66z" /></clipPath><clipPath id="35"><path id="" clip-rule="evenodd" transform="matrix(1 0 0 1 0 0)" d="M411.57 120.19L558.72 120.19L558.72 120.19L558.72 108.67L558.72 108.67L411.57 108.67z" /></clipPath><clipPath id="36"><path id="" clip-rule="evenodd" transform="matrix(1 0 0 1 0 0)" d="M411.58 120.18L558.72 120.18L558.72 120.18L558.72 108.66L558.72 108.66L411.58 108.66z" /></clipPath><clipPath id="37"><path id="" clip-rule="evenodd" transform="matrix(1 0 0 1 0 0)" d="M411.58 120.18L558.72 120.18L558.72 120.18L558.72 108.66L558.72 108.66L411.58 108.66z" /></clipPath><clipPath id="38"><path id="" clip-rule="evenodd" transform="matrix(1 0 0 1 0 0)" d="M36.36 131.71L135.27 131.71L135.27 131.71L135.27 120.19L135.27 120.19L36.36 120.19z" /></clipPath><clipPath id="39"><path id="" clip-rule="evenodd" transform="matrix(1 0 0 1 0 0)" d="M36.36 131.7L135.264 131.7L135.264 131.7L135.264 120.18L135.264 120.18L36.36 120.18z" /></clipPath><clipPath id="40"><path id="" clip-rule="evenodd" transform="matrix(1 0 0 1 0 0)" d="M36.36 131.7L135.264 131.7L135.264 131.7L135.264 120.18L135.264 120.18L36.36 120.18z" /></clipPath><clipPath id="41"><path id="" clip-rule="evenodd" transform="matrix(1 0 0 1 0 0)" d="M135.27 131.71L311.12 131.71L311.12 131.71L311.12 120.19L311.12 120.19L135.27 120.19z" /></clipPath><clipPath id="42"><path id="" clip-rule="evenodd" transform="matrix(1 0 0 1 0 0)" d="M135.26 131.7L311.11 131.7L311.11 131.7L311.11 120.18L311.11 120.18L135.26 120.18z" /></clipPath><clipPath id="43"><path id="" clip-rule="evenodd" transform="matrix(1 0 0 1 0 0)" d="M135.26 131.7L311.11 131.7L311.11 131.7L311.11 120.18L311.11 120.18L135.26 120.18z" /></clipPath><clipPath id="44"><path id="" clip-rule="evenodd" transform="matrix(1 0 0 1 0 0)" d="M311.12 131.71L411.57 131.71L411.57 131.71L411.57 120.19L411.57 120.19L311.12 120.19z" /></clipPath><clipPath id="45"><path id="" clip-rule="evenodd" transform="matrix(1 0 0 1 0 0)" d="M311.11 131.7L411.57 131.7L411.57 131.7L411.57 120.18L411.57 120.18L311.11 120.18z" /></clipPath><clipPath id="46"><path id="" clip-rule="evenodd" transform="matrix(1 0 0 1 0 0)" d="M311.11 131.7L411.57 131.7L411.57 131.7L411.57 120.18L411.57 120.18L311.11 120.18z" /></clipPath><clipPath id="47"><path id="" clip-rule="evenodd" transform="matrix(1 0 0 1 0 0)" d="M411.57 131.71L558.72 131.71L558.72 131.71L558.72 120.19L558.72 120.19L411.57 120.19z" /></clipPath><clipPath id="48"><path id="" clip-rule="evenodd" transform="matrix(1 0 0 1 0 0)" d="M411.58 131.7L558.72 131.7L558.72 131.7L558.72 120.18L558.72 120.18L411.58 120.18z" /></clipPath><clipPath id="49"><path id="" clip-rule="evenodd" transform="matrix(1 0 0 1 0 0)" d="M411.58 131.7L558.72 131.7L558.72 131.7L558.72 120.18L558.72 120.18L411.58 120.18z" /></clipPath><clipPath id="50"><path id="" clip-rule="evenodd" transform="matrix(1 0 0 1 0 0)" d="M36.36 143.23L135.27 143.23L135.27 143.23L135.27 131.71L135.27 131.71L36.36 131.71z" /></clipPath><clipPath id="51"><path id="" clip-rule="evenodd" transform="matrix(1 0 0 1 0 0)" d="M36.36 143.22L135.264 143.22L135.264 143.22L135.264 131.7L135.264 131.7L36.36 131.7z" /></clipPath><clipPath id="52"><path id="" clip-rule="evenodd" transform="matrix(1 0 0 1 0 0)" d="M36.36 143.22L135.264 143.22L135.264 143.22L135.264 131.7L135.264 131.7L36.36 131.7z" /></clipPath><clipPath id="53"><path id="" clip-rule="evenodd" transform="matrix(1 0 0 1 0 0)" d="M135.27 143.23L311.12 143.23L311.12 143.23L311.12 131.71L311.12 131.71L135.27 131.71z" /></clipPath><clipPath id="54"><path id="" clip-rule="evenodd" transform="matrix(1 0 0 1 0 0)" d="M135.26 143.22L311.11 143.22L311.11 143.22L311.11 131.7L311.11 131.7L135.26 131.7z" /></clipPath><clipPath id="55"><path id="" clip-rule="evenodd" transform="matrix(1 0 0 1 0 0)" d="M311.12 143.23L411.57 143.23L411.57 143.23L411.57 131.71L411.57 131.71L311.12 131.71z" /></clipPath><clipPath id="56"><path id="" clip-rule="evenodd" transform="matrix(1 0 0 1 0 0)" d="M311.11 143.22L411.57 143.22L411.57 143.22L411.57 131.7L411.57 131.7L311.11 131.7z" /></clipPath><clipPath id="57"><path id="" clip-rule="evenodd" transform="matrix(1 0 0 1 0 0)" d="M311.11 143.22L411.57 143.22L411.57 143.22L411.57 131.7L411.57 131.7L311.11 131.7z" /></clipPath><clipPath id="58"><path id="" clip-rule="evenodd" transform="matrix(1 0 0 1 0 0)" d="M411.57 143.23L558.72 143.23L558.72 143.23L558.72 131.71L558.72 131.71L411.57 131.71z" /></clipPath><clipPath id="59"><path id="" clip-rule="evenodd" transform="matrix(1 0 0 1 0 0)" d="M411.58 143.22L558.72 143.22L558.72 143.22L558.72 131.7L558.72 131.7L411.58 131.7z" /></clipPath><clipPath id="60"><path id="" clip-rule="evenodd" transform="matrix(1 0 0 1 0 0)" d="M36.36 154.63L135.27 154.63L135.27 154.63L135.27 143.23L135.27 143.23L36.36 143.23z" /></clipPath><clipPath id="61"><path id="" clip-rule="evenodd" transform="matrix(1 0 0 1 0 0)" d="M36.36 154.62L135.264 154.62L135.264 154.62L135.264 143.22L135.264 143.22L36.36 143.22z" /></clipPath><clipPath id="62"><path id="" clip-rule="evenodd" transform="matrix(1 0 0 1 0 0)" d="M36.36 154.62L135.264 154.62L135.264 154.62L135.264 143.22L135.264 143.22L36.36 143.22z" /></clipPath><clipPath id="63"><path id="" clip-rule="evenodd" transform="matrix(1 0 0 1 0 0)" d="M135.27 154.63L311.12 154.63L311.12 154.63L311.12 143.23L311.12 143.23L135.27 143.23z" /></clipPath><clipPath id="64"><path id="" clip-rule="evenodd" transform="matrix(1 0 0 1 0 0)" d="M135.26 154.62L311.11 154.62L311.11 154.62L311.11 143.22L311.11 143.22L135.26 143.22z" /></clipPath><clipPath id="65"><path id="" clip-rule="evenodd" transform="matrix(1 0 0 1 0 0)" d="M135.26 154.62L311.11 154.62L311.11 154.62L311.11 143.22L311.11 143.22L135.26 143.22z" /></clipPath><clipPath id="66"><path id="" clip-rule="evenodd" transform="matrix(1 0 0 1 0 0)" d="M311.12 154.63L411.57 154.63L411.57 154.63L411.57 143.23L411.57 143.23L311.12 143.23z" /></clipPath><clipPath id="67"><path id="" clip-rule="evenodd" transform="matrix(1 0 0 1 0 0)" d="M311.11 154.62L411.57 154.62L411.57 154.62L411.57 143.22L411.57 143.22L311.11 143.22z" /></clipPath><clipPath id="68"><path id="" clip-rule="evenodd" transform="matrix(1 0 0 1 0 0)" d="M311.11 154.62L411.57 154.62L411.57 154.62L411.57 143.22L411.57 143.22L311.11 143.22z" /></clipPath><clipPath id="69"><path id="" clip-rule="evenodd" transform="matrix(1 0 0 1 0 0)" d="M411.57 154.63L558.72 154.63L558.72 154.63L558.72 143.23L558.72 143.23L411.57 143.23z" /></clipPath><clipPath id="70"><path id="" clip-rule="evenodd" transform="matrix(1 0 0 1 0 0)" d="M411.58 154.62L558.72 154.62L558.72 154.62L558.72 143.22L558.72 143.22L411.58 143.22z" /></clipPath><clipPath id="71"><path id="" clip-rule="evenodd" transform="matrix(1 0 0 1 0 0)" d="M36.36 166.15L311.12 166.15L311.12 166.15L311.12 154.63L311.12 154.63L36.36 154.63z" /></clipPath><clipPath id="72"><path id="" clip-rule="evenodd" transform="matrix(1 0 0 1 0 0)" d="M36.36 166.14L311.11 166.14L311.11 166.14L311.11 154.62L311.11 154.62L36.36 154.62z" /></clipPath><clipPath id="73"><path id="" clip-rule="evenodd" transform="matrix(1 0 0 1 0 0)" d="M36.36 166.14L311.11 166.14L311.11 166.14L311.11 154.62L311.11 154.62L36.36 154.62z" /></clipPath><clipPath id="74"><path id="" clip-rule="evenodd" transform="matrix(1 0 0 1 0 0)" d="M311.12 166.15L411.57 166.15L411.57 166.15L411.57 154.63L411.57 154.63L311.12 154.63z" /></clipPath><clipPath id="75"><path id="" clip-rule="evenodd" transform="matrix(1 0 0 1 0 0)" d="M311.11 166.14L411.57 166.14L411.57 166.14L411.57 154.62L411.57 154.62L311.11 154.62z" /></clipPath><clipPath id="76"><path id="" clip-rule="evenodd" transform="matrix(1 0 0 1 0 0)" d="M311.11 166.14L411.57 166.14L411.57 166.14L411.57 154.62L411.57 154.62L311.11 154.62z" /></clipPath><clipPath id="77"><path id="" clip-rule="evenodd" transform="matrix(1 0 0 1 0 0)" d="M411.57 166.15L558.72 166.15L558.72 166.15L558.72 154.63L558.72 154.63L411.57 154.63z" /></clipPath><clipPath id="78"><path id="" clip-rule="evenodd" transform="matrix(1 0 0 1 0 0)" d="M411.58 166.14L558.72 166.14L558.72 166.14L558.72 154.62L558.72 154.62L411.58 154.62z" /></clipPath><clipPath id="79"><path id="" clip-rule="evenodd" transform="matrix(1 0 0 1 0 0)" d="M36.36 179.95L558.72 179.95L558.72 179.95L558.72 166.15L558.72 166.15L36.36 166.15z" /></clipPath><clipPath id="80"><path id="" clip-rule="evenodd" transform="matrix(1 0 0 1 0 0)" d="M36.36 179.94L558.72 179.94L558.72 179.94L558.72 166.14L558.72 166.14L36.36 166.14z" /></clipPath><clipPath id="81"><path id="" clip-rule="evenodd" transform="matrix(1 0 0 1 0 0)" d="M36.36 202.99L75.63 202.99L75.63 202.99L75.63 179.95L75.63 179.95L36.36 179.95z" /></clipPath><clipPath id="82"><path id="" clip-rule="evenodd" transform="matrix(1 0 0 1 0 0)" d="M36.36 202.98L75.624 202.98L75.624 202.98L75.624 179.94L75.624 179.94L36.36 179.94z" /></clipPath><clipPath id="83"><path id="" clip-rule="evenodd" transform="matrix(1 0 0 1 0 0)" d="M36.36 202.98L75.624 202.98L75.624 202.98L75.624 179.94L75.624 179.94L36.36 179.94z" /></clipPath><clipPath id="84"><path id="" clip-rule="evenodd" transform="matrix(1 0 0 1 0 0)" d="M75.63 202.99L132.39 202.99L132.39 202.99L132.39 179.95L132.39 179.95L75.63 179.95z" /></clipPath><clipPath id="85"><path id="" clip-rule="evenodd" transform="matrix(1 0 0 1 0 0)" d="M75.624 202.98L132.384 202.98L132.384 202.98L132.384 179.94L132.384 179.94L75.624 179.94z" /></clipPath><clipPath id="86"><path id="" clip-rule="evenodd" transform="matrix(1 0 0 1 0 0)" d="M75.624 202.98L132.384 202.98L132.384 202.98L132.384 179.94L132.384 179.94L75.624 179.94z" /></clipPath><clipPath id="87"><path id="" clip-rule="evenodd" transform="matrix(1 0 0 1 0 0)" d="M132.39 202.99L190.125 202.99L190.125 202.99L190.125 179.95L190.125 179.95L132.39 179.95z" /></clipPath><clipPath id="88"><path id="" clip-rule="evenodd" transform="matrix(1 0 0 1 0 0)" d="M132.38 202.98L190.124 202.98L190.124 202.98L190.124 179.94L190.124 179.94L132.38 179.94z" /></clipPath><clipPath id="89"><path id="" clip-rule="evenodd" transform="matrix(1 0 0 1 0 0)" d="M132.38 202.98L190.124 202.98L190.124 202.98L190.124 179.94L190.124 179.94L132.38 179.94z" /></clipPath><clipPath id="90"><path id="" clip-rule="evenodd" transform="matrix(1 0 0 1 0 0)" d="M190.13 202.99L238.61 202.99L238.61 202.99L238.61 179.95L238.61 179.95L190.13 179.95z" /></clipPath><clipPath id="91"><path id="" clip-rule="evenodd" transform="matrix(1 0 0 1 0 0)" d="M190.13 202.98L238.61 202.98L238.61 202.98L238.61 179.94L238.61 179.94L190.13 179.94z" /></clipPath><clipPath id="92"><path id="" clip-rule="evenodd" transform="matrix(1 0 0 1 0 0)" d="M238.61 202.99L357.92 202.99L357.92 202.99L357.92 179.95L357.92 179.95L238.61 179.95z" /></clipPath><clipPath id="93"><path id="" clip-rule="evenodd" transform="matrix(1 0 0 1 0 0)" d="M238.61 202.98L357.91 202.98L357.91 202.98L357.91 179.94L357.91 179.94L238.61 179.94z" /></clipPath><clipPath id="94"><path id="" clip-rule="evenodd" transform="matrix(1 0 0 1 0 0)" d="M238.61 202.98L357.91 202.98L357.91 202.98L357.91 179.94L357.91 179.94L238.61 179.94z" /></clipPath><clipPath id="95"><path id="" clip-rule="evenodd" transform="matrix(1 0 0 1 0 0)" d="M238.61 202.98L357.91 202.98L357.91 202.98L357.91 179.94L357.91 179.94L238.61 179.94z" /></clipPath><clipPath id="96"><path id="" clip-rule="evenodd" transform="matrix(1 0 0 1 0 0)" d="M238.61 202.98L357.91 202.98L357.91 202.98L357.91 179.94L357.91 179.94L238.61 179.94z" /></clipPath><clipPath id="97"><path id="" clip-rule="evenodd" transform="matrix(1 0 0 1 0 0)" d="M238.61 202.98L357.91 202.98L357.91 202.98L357.91 179.94L357.91 179.94L238.61 179.94z" /></clipPath><clipPath id="98"><path id="" clip-rule="evenodd" transform="matrix(1 0 0 1 0 0)" d="M357.92 202.99L398.96 202.99L398.96 202.99L398.96 179.95L398.96 179.95L357.92 179.95z" /></clipPath><clipPath id="99"><path id="" clip-rule="evenodd" transform="matrix(1 0 0 1 0 0)" d="M357.91 202.98L398.95 202.98L398.95 202.98L398.95 179.94L398.95 179.94L357.91 179.94z" /></clipPath><clipPath id="100"><path id="" clip-rule="evenodd" transform="matrix(1 0 0 1 0 0)" d="M357.91 202.98L398.95 202.98L398.95 202.98L398.95 179.94L398.95 179.94L357.91 179.94z" /></clipPath><clipPath id="101"><path id="" clip-rule="evenodd" transform="matrix(1 0 0 1 0 0)" d="M398.96 202.99L497.015 202.99L497.015 202.99L497.015 179.95L497.015 179.95L398.96 179.95z" /></clipPath><clipPath id="102"><path id="" clip-rule="evenodd" transform="matrix(1 0 0 1 0 0)" d="M398.95 202.98L497.014 202.98L497.014 202.98L497.014 179.94L497.014 179.94L398.95 179.94z" /></clipPath><clipPath id="103"><path id="" clip-rule="evenodd" transform="matrix(1 0 0 1 0 0)" d="M398.95 202.98L497.014 202.98L497.014 202.98L497.014 179.94L497.014 179.94L398.95 179.94z" /></clipPath><clipPath id="104"><path id="" clip-rule="evenodd" transform="matrix(1 0 0 1 0 0)" d="M497.01 202.99L558.72 202.99L558.72 202.99L558.72 179.95L558.72 179.95L497.01 179.95z" /></clipPath><clipPath id="105"><path id="" clip-rule="evenodd" transform="matrix(1 0 0 1 0 0)" d="M497.02 202.98L558.724 202.98L558.724 202.98L558.724 179.94L558.724 179.94L497.02 179.94z" /></clipPath><clipPath id="106"><path id="" clip-rule="evenodd" transform="matrix(1 0 0 1 0 0)" d="M497.02 202.98L558.724 202.98L558.724 202.98L558.724 179.94L558.724 179.94L497.02 179.94z" /></clipPath><clipPath id="107"><path id="" clip-rule="evenodd" transform="matrix(1 0 0 1 0 0)" d="M497.02 202.98L558.724 202.98L558.724 202.98L558.724 179.94L558.724 179.94L497.02 179.94z" /></clipPath><clipPath id="108"><path id="" clip-rule="evenodd" transform="matrix(1 0 0 1 0 0)" d="M36.36 214.27L558.72 214.27L558.72 214.27L558.72 202.99L558.72 202.99L36.36 202.99z" /></clipPath><clipPath id="109"><path id="" clip-rule="evenodd" transform="matrix(1 0 0 1 0 0)" d="M36.36 214.26L558.72 214.26L558.72 214.26L558.72 202.98L558.72 202.98L36.36 202.98z" /></clipPath><clipPath id="110"><path id="" clip-rule="evenodd" transform="matrix(1 0 0 1 0 0)" d="M36.36 214.26L558.72 214.26L558.72 214.26L558.72 202.98L558.72 202.98L36.36 202.98z" /></clipPath><clipPath id="111"><path id="" clip-rule="evenodd" transform="matrix(1 0 0 1 0 0)" d="M36.36 260.36L75.63 260.36L75.63 260.36L75.63 214.265L75.63 214.265L36.36 214.265z" /></clipPath><clipPath id="112"><path id="" clip-rule="evenodd" transform="matrix(1 0 0 1 0 0)" d="M36.36 260.37L75.624 260.37L75.624 260.37L75.624 214.266L75.624 214.266L36.36 214.266z" /></clipPath><clipPath id="113"><path id="" clip-rule="evenodd" transform="matrix(1 0 0 1 0 0)" d="M36.36 260.37L75.624 260.37L75.624 260.37L75.624 214.266L75.624 214.266L36.36 214.266z" /></clipPath><clipPath id="114"><path id="" clip-rule="evenodd" transform="matrix(1 0 0 1 0 0)" d="M75.63 260.36L132.39 260.36L132.39 260.36L132.39 214.265L132.39 214.265L75.63 214.265z" /></clipPath><clipPath id="115"><path id="" clip-rule="evenodd" transform="matrix(1 0 0 1 0 0)" d="M75.624 260.37L132.384 260.37L132.384 260.37L132.384 214.266L132.384 214.266L75.624 214.266z" /></clipPath><clipPath id="116"><path id="" clip-rule="evenodd" transform="matrix(1 0 0 1 0 0)" d="M75.624 260.37L132.384 260.37L132.384 260.37L132.384 214.266L132.384 214.266L75.624 214.266z" /></clipPath><clipPath id="117"><path id="" clip-rule="evenodd" transform="matrix(1 0 0 1 0 0)" d="M75.624 260.37L132.384 260.37L132.384 260.37L132.384 214.266L132.384 214.266L75.624 214.266z" /></clipPath><clipPath id="118"><path id="" clip-rule="evenodd" transform="matrix(1 0 0 1 0 0)" d="M75.624 260.37L132.384 260.37L132.384 260.37L132.384 214.266L132.384 214.266L75.624 214.266z" /></clipPath><clipPath id="119"><path id="" clip-rule="evenodd" transform="matrix(1 0 0 1 0 0)" d="M75.624 260.37L132.384 260.37L132.384 260.37L132.384 214.266L132.384 214.266L75.624 214.266z" /></clipPath><clipPath id="120"><path id="" clip-rule="evenodd" transform="matrix(1 0 0 1 0 0)" d="M75.624 260.37L132.384 260.37L132.384 260.37L132.384 214.266L132.384 214.266L75.624 214.266z" /></clipPath><clipPath id="121"><path id="" clip-rule="evenodd" transform="matrix(1 0 0 1 0 0)" d="M75.624 260.37L132.384 260.37L132.384 260.37L132.384 214.266L132.384 214.266L75.624 214.266z" /></clipPath><clipPath id="122"><path id="" clip-rule="evenodd" transform="matrix(1 0 0 1 0 0)" d="M132.39 260.36L190.125 260.36L190.125 260.36L190.125 214.265L190.125 214.265L132.39 214.265z" /></clipPath><clipPath id="123"><path id="" clip-rule="evenodd" transform="matrix(1 0 0 1 0 0)" d="M132.38 260.37L190.124 260.37L190.124 260.37L190.124 214.266L190.124 214.266L132.38 214.266z" /></clipPath><clipPath id="124"><path id="" clip-rule="evenodd" transform="matrix(1 0 0 1 0 0)" d="M132.38 260.37L190.124 260.37L190.124 260.37L190.124 214.266L190.124 214.266L132.38 214.266z" /></clipPath><clipPath id="125"><path id="" clip-rule="evenodd" transform="matrix(1 0 0 1 0 0)" d="M190.13 260.36L238.61 260.36L238.61 260.36L238.61 214.265L238.61 214.265L190.13 214.265z" /></clipPath><clipPath id="126"><path id="" clip-rule="evenodd" transform="matrix(1 0 0 1 0 0)" d="M190.13 260.37L238.61 260.37L238.61 260.37L238.61 214.266L238.61 214.266L190.13 214.266z" /></clipPath><clipPath id="127"><path id="" clip-rule="evenodd" transform="matrix(1 0 0 1 0 0)" d="M190.13 260.37L238.61 260.37L238.61 260.37L238.61 214.266L238.61 214.266L190.13 214.266z" /></clipPath><clipPath id="128"><path id="" clip-rule="evenodd" transform="matrix(1 0 0 1 0 0)" d="M190.13 260.37L238.61 260.37L238.61 260.37L238.61 214.266L238.61 214.266L190.13 214.266z" /></clipPath><clipPath id="129"><path id="" clip-rule="evenodd" transform="matrix(1 0 0 1 0 0)" d="M190.13 260.37L238.61 260.37L238.61 260.37L238.61 214.266L238.61 214.266L190.13 214.266z" /></clipPath><clipPath id="130"><path id="" clip-rule="evenodd" transform="matrix(1 0 0 1 0 0)" d="M190.13 260.37L238.61 260.37L238.61 260.37L238.61 214.266L238.61 214.266L190.13 214.266z" /></clipPath><clipPath id="131"><path id="" clip-rule="evenodd" transform="matrix(1 0 0 1 0 0)" d="M190.13 260.37L238.61 260.37L238.61 260.37L238.61 214.266L238.61 214.266L190.13 214.266z" /></clipPath><clipPath id="132"><path id="" clip-rule="evenodd" transform="matrix(1 0 0 1 0 0)" d="M190.13 260.37L238.61 260.37L238.61 260.37L238.61 214.266L238.61 214.266L190.13 214.266z" /></clipPath><clipPath id="133"><path id="" clip-rule="evenodd" transform="matrix(1 0 0 1 0 0)" d="M238.61 260.36L357.92 260.36L357.92 260.36L357.92 214.265L357.92 214.265L238.61 214.265z" /></clipPath><clipPath id="134"><path id="" clip-rule="evenodd" transform="matrix(1 0 0 1 0 0)" d="M238.61 260.37L357.91 260.37L357.91 260.37L357.91 214.266L357.91 214.266L238.61 214.266z" /></clipPath><clipPath id="135"><path id="" clip-rule="evenodd" transform="matrix(1 0 0 1 0 0)" d="M238.61 260.37L357.91 260.37L357.91 260.37L357.91 214.266L357.91 214.266L238.61 214.266z" /></clipPath><clipPath id="136"><path id="" clip-rule="evenodd" transform="matrix(1 0 0 1 0 0)" d="M238.61 260.37L357.91 260.37L357.91 260.37L357.91 214.266L357.91 214.266L238.61 214.266z" /></clipPath><clipPath id="137"><path id="" clip-rule="evenodd" transform="matrix(1 0 0 1 0 0)" d="M238.61 260.37L357.91 260.37L357.91 260.37L357.91 214.266L357.91 214.266L238.61 214.266z" /></clipPath><clipPath id="138"><path id="" clip-rule="evenodd" transform="matrix(1 0 0 1 0 0)" d="M238.61 260.37L357.91 260.37L357.91 260.37L357.91 214.266L357.91 214.266L238.61 214.266z" /></clipPath><clipPath id="139"><path id="" clip-rule="evenodd" transform="matrix(1 0 0 1 0 0)" d="M238.61 260.37L357.91 260.37L357.91 260.37L357.91 214.266L357.91 214.266L238.61 214.266z" /></clipPath><clipPath id="140"><path id="" clip-rule="evenodd" transform="matrix(1 0 0 1 0 0)" d="M238.61 260.37L357.91 260.37L357.91 260.37L357.91 214.266L357.91 214.266L238.61 214.266z" /></clipPath><clipPath id="141"><path id="" clip-rule="evenodd" transform="matrix(1 0 0 1 0 0)" d="M238.61 260.37L357.91 260.37L357.91 260.37L357.91 214.266L357.91 214.266L238.61 214.266z" /></clipPath><clipPath id="142"><path id="" clip-rule="evenodd" transform="matrix(1 0 0 1 0 0)" d="M238.61 260.37L357.91 260.37L357.91 260.37L357.91 214.266L357.91 214.266L238.61 214.266z" /></clipPath><clipPath id="143"><path id="" clip-rule="evenodd" transform="matrix(1 0 0 1 0 0)" d="M238.61 260.37L357.91 260.37L357.91 260.37L357.91 214.266L357.91 214.266L238.61 214.266z" /></clipPath><clipPath id="144"><path id="" clip-rule="evenodd" transform="matrix(1 0 0 1 0 0)" d="M238.61 260.37L357.91 260.37L357.91 260.37L357.91 214.266L357.91 214.266L238.61 214.266z" /></clipPath><clipPath id="145"><path id="" clip-rule="evenodd" transform="matrix(1 0 0 1 0 0)" d="M357.92 260.36L398.96 260.36L398.96 260.36L398.96 214.265L398.96 214.265L357.92 214.265z" /></clipPath><clipPath id="146"><path id="" clip-rule="evenodd" transform="matrix(1 0 0 1 0 0)" d="M357.91 260.37L398.95 260.37L398.95 260.37L398.95 214.266L398.95 214.266L357.91 214.266z" /></clipPath><clipPath id="147"><path id="" clip-rule="evenodd" transform="matrix(1 0 0 1 0 0)" d="M357.91 260.37L398.95 260.37L398.95 260.37L398.95 214.266L398.95 214.266L357.91 214.266z" /></clipPath><clipPath id="148"><path id="" clip-rule="evenodd" transform="matrix(1 0 0 1 0 0)" d="M357.91 260.37L398.95 260.37L398.95 260.37L398.95 214.266L398.95 214.266L357.91 214.266z" /></clipPath><clipPath id="149"><path id="" clip-rule="evenodd" transform="matrix(1 0 0 1 0 0)" d="M357.91 260.37L398.95 260.37L398.95 260.37L398.95 214.266L398.95 214.266L357.91 214.266z" /></clipPath><clipPath id="150"><path id="" clip-rule="evenodd" transform="matrix(1 0 0 1 0 0)" d="M357.91 260.37L398.95 260.37L398.95 260.37L398.95 214.266L398.95 214.266L357.91 214.266z" /></clipPath><clipPath id="151"><path id="" clip-rule="evenodd" transform="matrix(1 0 0 1 0 0)" d="M357.91 260.37L398.95 260.37L398.95 260.37L398.95 214.266L398.95 214.266L357.91 214.266z" /></clipPath><clipPath id="152"><path id="" clip-rule="evenodd" transform="matrix(1 0 0 1 0 0)" d="M357.91 260.37L398.95 260.37L398.95 260.37L398.95 214.266L398.95 214.266L357.91 214.266z" /></clipPath><clipPath id="153"><path id="" clip-rule="evenodd" transform="matrix(1 0 0 1 0 0)" d="M398.96 260.36L497.015 260.36L497.015 260.36L497.015 214.265L497.015 214.265L398.96 214.265z" /></clipPath><clipPath id="154"><path id="" clip-rule="evenodd" transform="matrix(1 0 0 1 0 0)" d="M398.95 260.37L497.014 260.37L497.014 260.37L497.014 214.266L497.014 214.266L398.95 214.266z" /></clipPath><clipPath id="155"><path id="" clip-rule="evenodd" transform="matrix(1 0 0 1 0 0)" d="M398.95 260.37L497.014 260.37L497.014 260.37L497.014 214.266L497.014 214.266L398.95 214.266z" /></clipPath><clipPath id="156"><path id="" clip-rule="evenodd" transform="matrix(1 0 0 1 0 0)" d="M398.95 260.37L497.014 260.37L497.014 260.37L497.014 214.266L497.014 214.266L398.95 214.266z" /></clipPath><clipPath id="157"><path id="" clip-rule="evenodd" transform="matrix(1 0 0 1 0 0)" d="M398.95 260.37L497.014 260.37L497.014 260.37L497.014 214.266L497.014 214.266L398.95 214.266z" /></clipPath><clipPath id="158"><path id="" clip-rule="evenodd" transform="matrix(1 0 0 1 0 0)" d="M398.95 260.37L497.014 260.37L497.014 260.37L497.014 214.266L497.014 214.266L398.95 214.266z" /></clipPath><clipPath id="159"><path id="" clip-rule="evenodd" transform="matrix(1 0 0 1 0 0)" d="M497.01 260.36L558.72 260.36L558.72 260.36L558.72 214.265L558.72 214.265L497.01 214.265z" /></clipPath><clipPath id="160"><path id="" clip-rule="evenodd" transform="matrix(1 0 0 1 0 0)" d="M497.02 260.37L558.724 260.37L558.724 260.37L558.724 214.266L558.724 214.266L497.02 214.266z" /></clipPath><clipPath id="161"><path id="" clip-rule="evenodd" transform="matrix(1 0 0 1 0 0)" d="M497.02 260.37L558.724 260.37L558.724 260.37L558.724 214.266L558.724 214.266L497.02 214.266z" /></clipPath><clipPath id="162"><path id="" clip-rule="evenodd" transform="matrix(1 0 0 1 0 0)" d="M36.36 271.77L558.72 271.77L558.72 271.77L558.72 260.37L558.72 260.37L36.36 260.37z" /></clipPath><clipPath id="163"><path id="" clip-rule="evenodd" transform="matrix(1 0 0 1 0 0)" d="M36.36 271.77L558.72 271.77L558.72 271.77L558.72 260.37L558.72 260.37L36.36 260.37z" /></clipPath><clipPath id="164"><path id="" clip-rule="evenodd" transform="matrix(1 0 0 1 0 0)" d="M36.36 306.33L238.61 306.33L238.61 306.33L238.61 271.77L238.61 271.77L36.36 271.77z" /></clipPath><clipPath id="165"><path id="" clip-rule="evenodd" transform="matrix(1 0 0 1 0 0)" d="M36.36 306.33L238.61 306.33L238.61 306.33L238.61 271.77L238.61 271.77L36.36 271.77z" /></clipPath><clipPath id="166"><path id="" clip-rule="evenodd" transform="matrix(1 0 0 1 0 0)" d="M36.36 306.33L238.61 306.33L238.61 306.33L238.61 271.77L238.61 271.77L36.36 271.77z" /></clipPath><clipPath id="167"><path id="" clip-rule="evenodd" transform="matrix(1 0 0 1 0 0)" d="M238.61 306.33L357.92 306.33L357.92 306.33L357.92 271.77L357.92 271.77L238.61 271.77z" /></clipPath><clipPath id="168"><path id="" clip-rule="evenodd" transform="matrix(1 0 0 1 0 0)" d="M238.61 306.33L357.91 306.33L357.91 306.33L357.91 271.77L357.91 271.77L238.61 271.77z" /></clipPath><clipPath id="169"><path id="" clip-rule="evenodd" transform="matrix(1 0 0 1 0 0)" d="M238.61 306.33L357.91 306.33L357.91 306.33L357.91 271.77L357.91 271.77L238.61 271.77z" /></clipPath><clipPath id="170"><path id="" clip-rule="evenodd" transform="matrix(1 0 0 1 0 0)" d="M238.61 306.33L357.91 306.33L357.91 306.33L357.91 271.77L357.91 271.77L238.61 271.77z" /></clipPath><clipPath id="171"><path id="" clip-rule="evenodd" transform="matrix(1 0 0 1 0 0)" d="M357.92 306.33L558.73 306.33L558.73 306.33L558.73 271.77L558.73 271.77L357.92 271.77z" /></clipPath><clipPath id="172"><path id="" clip-rule="evenodd" transform="matrix(1 0 0 1 0 0)" d="M357.91 306.33L558.72 306.33L558.72 306.33L558.72 271.77L558.72 271.77L357.91 271.77z" /></clipPath><clipPath id="173"><path id="" clip-rule="evenodd" transform="matrix(1 0 0 1 0 0)" d="M357.91 306.33L558.72 306.33L558.72 306.33L558.72 271.77L558.72 271.77L357.91 271.77z" /></clipPath><clipPath id="174"><path id="" clip-rule="evenodd" transform="matrix(1 0 0 1 0 0)" d="M357.91 306.33L558.72 306.33L558.72 306.33L558.72 271.77L558.72 271.77L357.91 271.77z" /></clipPath><clipPath id="175"><path id="" clip-rule="evenodd" transform="matrix(1 0 0 1 0 0)" d="M357.91 306.33L558.72 306.33L558.72 306.33L558.72 271.77L558.72 271.77L357.91 271.77z" /></clipPath><clipPath id="176"><path id="" clip-rule="evenodd" transform="matrix(1 0 0 1 0 0)" d="M357.91 306.33L558.72 306.33L558.72 306.33L558.72 271.77L558.72 271.77L357.91 271.77z" /></clipPath><clipPath id="177"><path id="" clip-rule="evenodd" transform="matrix(1 0 0 1 0 0)" d="M357.91 306.33L558.72 306.33L558.72 306.33L558.72 271.77L558.72 271.77L357.91 271.77z" /></clipPath><clipPath id="178"><path id="" clip-rule="evenodd" transform="matrix(1 0 0 1 0 0)" d="M357.91 306.33L558.72 306.33L558.72 306.33L558.72 271.77L558.72 271.77L357.91 271.77z" /></clipPath><clipPath id="179"><path id="" clip-rule="evenodd" transform="matrix(1 0 0 1 0 0)" d="M357.91 306.33L558.72 306.33L558.72 306.33L558.72 271.77L558.72 271.77L357.91 271.77z" /></clipPath><clipPath id="180"><path id="" clip-rule="evenodd" transform="matrix(1 0 0 1 0 0)" d="M357.91 306.33L558.72 306.33L558.72 306.33L558.72 271.77L558.72 271.77L357.91 271.77z" /></clipPath><clipPath id="181"><path id="" clip-rule="evenodd" transform="matrix(1 0 0 1 0 0)" d="M36.36 329.25L558.72 329.25L558.72 329.25L558.72 306.33L558.72 306.33L36.36 306.33z" /></clipPath><clipPath id="182"><path id="" clip-rule="evenodd" transform="matrix(1 0 0 1 0 0)" d="M36.36 329.25L558.72 329.25L558.72 329.25L558.72 306.33L558.72 306.33L36.36 306.33z" /></clipPath><clipPath id="183"><path id="" clip-rule="evenodd" transform="matrix(1 0 0 1 0 0)" d="M36.36 329.25L558.72 329.25L558.72 329.25L558.72 306.33L558.72 306.33L36.36 306.33z" /></clipPath><clipPath id="184"><path id="" clip-rule="evenodd" transform="matrix(1 0 0 1 0 0)" d="M36.36 329.25L558.72 329.25L558.72 329.25L558.72 306.33L558.72 306.33L36.36 306.33z" /></clipPath><clipPath id="185"><path id="" clip-rule="evenodd" transform="matrix(1 0 0 1 0 0)" d="M36.36 329.25L558.72 329.25L558.72 329.25L558.72 306.33L558.72 306.33L36.36 306.33z" /></clipPath><clipPath id="186"><path id="" clip-rule="evenodd" transform="matrix(1 0 0 1 0 0)" d="M36.36 329.25L558.72 329.25L558.72 329.25L558.72 306.33L558.72 306.33L36.36 306.33z" /></clipPath><clipPath id="187"><path id="" clip-rule="evenodd" transform="matrix(1 0 0 1 0 0)" d="M36.36 329.25L558.72 329.25L558.72 329.25L558.72 306.33L558.72 306.33L36.36 306.33z" /></clipPath><clipPath id="188"><path id="" clip-rule="evenodd" transform="matrix(1 0 0 1 0 0)" d="M36.36 329.25L558.72 329.25L558.72 329.25L558.72 306.33L558.72 306.33L36.36 306.33z" /></clipPath><clipPath id="189"><path id="" clip-rule="evenodd" transform="matrix(1 0 0 1 0 0)" d="M36.36 329.25L558.72 329.25L558.72 329.25L558.72 306.33L558.72 306.33L36.36 306.33z" /></clipPath><clipPath id="190"><path id="" clip-rule="evenodd" transform="matrix(1 0 0 1 0 0)" d="M36.36 329.25L558.72 329.25L558.72 329.25L558.72 306.33L558.72 306.33L36.36 306.33z" /></clipPath><clipPath id="191"><path id="" clip-rule="evenodd" transform="matrix(1 0 0 1 0 0)" d="M36.36 340.65L558.72 340.65L558.72 340.65L558.72 329.25L558.72 329.25L36.36 329.25z" /></clipPath><clipPath id="192"><path id="" clip-rule="evenodd" transform="matrix(1 0 0 1 0 0)" d="M36.36 340.65L558.72 340.65L558.72 340.65L558.72 329.25L558.72 329.25L36.36 329.25z" /></clipPath><clipPath id="193"><path id="" clip-rule="evenodd" transform="matrix(1 0 0 1 0 0)" d="M36.36 340.65L558.72 340.65L558.72 340.65L558.72 329.25L558.72 329.25L36.36 329.25z" /></clipPath><clipPath id="194"><path id="" clip-rule="evenodd" transform="matrix(1 0 0 1 0 0)" d="M36.36 340.65L558.72 340.65L558.72 340.65L558.72 329.25L558.72 329.25L36.36 329.25z" /></clipPath><clipPath id="195"><path id="" clip-rule="evenodd" transform="matrix(1 0 0 1 0 0)" d="M36.36 386.61L75.63 386.61L75.63 386.61L75.63 340.65L75.63 340.65L36.36 340.65z" /></clipPath><clipPath id="196"><path id="" clip-rule="evenodd" transform="matrix(1 0 0 1 0 0)" d="M36.36 386.61L75.624 386.61L75.624 386.61L75.624 340.65L75.624 340.65L36.36 340.65z" /></clipPath><clipPath id="197"><path id="" clip-rule="evenodd" transform="matrix(1 0 0 1 0 0)" d="M36.36 386.61L75.624 386.61L75.624 386.61L75.624 340.65L75.624 340.65L36.36 340.65z" /></clipPath><clipPath id="198"><path id="" clip-rule="evenodd" transform="matrix(1 0 0 1 0 0)" d="M75.63 386.61L132.39 386.61L132.39 386.61L132.39 340.65L132.39 340.65L75.63 340.65z" /></clipPath><clipPath id="199"><path id="" clip-rule="evenodd" transform="matrix(1 0 0 1 0 0)" d="M75.624 386.61L132.384 386.61L132.384 386.61L132.384 340.65L132.384 340.65L75.624 340.65z" /></clipPath><clipPath id="200"><path id="" clip-rule="evenodd" transform="matrix(1 0 0 1 0 0)" d="M75.624 386.61L132.384 386.61L132.384 386.61L132.384 340.65L132.384 340.65L75.624 340.65z" /></clipPath><clipPath id="201"><path id="" clip-rule="evenodd" transform="matrix(1 0 0 1 0 0)" d="M75.624 386.61L132.384 386.61L132.384 386.61L132.384 340.65L132.384 340.65L75.624 340.65z" /></clipPath><clipPath id="202"><path id="" clip-rule="evenodd" transform="matrix(1 0 0 1 0 0)" d="M75.624 386.61L132.384 386.61L132.384 386.61L132.384 340.65L132.384 340.65L75.624 340.65z" /></clipPath><clipPath id="203"><path id="" clip-rule="evenodd" transform="matrix(1 0 0 1 0 0)" d="M75.624 386.61L132.384 386.61L132.384 386.61L132.384 340.65L132.384 340.65L75.624 340.65z" /></clipPath><clipPath id="204"><path id="" clip-rule="evenodd" transform="matrix(1 0 0 1 0 0)" d="M75.624 386.61L132.384 386.61L132.384 386.61L132.384 340.65L132.384 340.65L75.624 340.65z" /></clipPath><clipPath id="205"><path id="" clip-rule="evenodd" transform="matrix(1 0 0 1 0 0)" d="M75.624 386.61L132.384 386.61L132.384 386.61L132.384 340.65L132.384 340.65L75.624 340.65z" /></clipPath><clipPath id="206"><path id="" clip-rule="evenodd" transform="matrix(1 0 0 1 0 0)" d="M132.39 386.61L190.125 386.61L190.125 386.61L190.125 340.65L190.125 340.65L132.39 340.65z" /></clipPath><clipPath id="207"><path id="" clip-rule="evenodd" transform="matrix(1 0 0 1 0 0)" d="M132.38 386.61L190.124 386.61L190.124 386.61L190.124 340.65L190.124 340.65L132.38 340.65z" /></clipPath><clipPath id="208"><path id="" clip-rule="evenodd" transform="matrix(1 0 0 1 0 0)" d="M132.38 386.61L190.124 386.61L190.124 386.61L190.124 340.65L190.124 340.65L132.38 340.65z" /></clipPath><clipPath id="209"><path id="" clip-rule="evenodd" transform="matrix(1 0 0 1 0 0)" d="M190.13 386.61L238.61 386.61L238.61 386.61L238.61 340.65L238.61 340.65L190.13 340.65z" /></clipPath><clipPath id="210"><path id="" clip-rule="evenodd" transform="matrix(1 0 0 1 0 0)" d="M190.13 386.61L238.61 386.61L238.61 386.61L238.61 340.65L238.61 340.65L190.13 340.65z" /></clipPath><clipPath id="211"><path id="" clip-rule="evenodd" transform="matrix(1 0 0 1 0 0)" d="M190.13 386.61L238.61 386.61L238.61 386.61L238.61 340.65L238.61 340.65L190.13 340.65z" /></clipPath><clipPath id="212"><path id="" clip-rule="evenodd" transform="matrix(1 0 0 1 0 0)" d="M190.13 386.61L238.61 386.61L238.61 386.61L238.61 340.65L238.61 340.65L190.13 340.65z" /></clipPath><clipPath id="213"><path id="" clip-rule="evenodd" transform="matrix(1 0 0 1 0 0)" d="M190.13 386.61L238.61 386.61L238.61 386.61L238.61 340.65L238.61 340.65L190.13 340.65z" /></clipPath><clipPath id="214"><path id="" clip-rule="evenodd" transform="matrix(1 0 0 1 0 0)" d="M190.13 386.61L238.61 386.61L238.61 386.61L238.61 340.65L238.61 340.65L190.13 340.65z" /></clipPath><clipPath id="215"><path id="" clip-rule="evenodd" transform="matrix(1 0 0 1 0 0)" d="M190.13 386.61L238.61 386.61L238.61 386.61L238.61 340.65L238.61 340.65L190.13 340.65z" /></clipPath><clipPath id="216"><path id="" clip-rule="evenodd" transform="matrix(1 0 0 1 0 0)" d="M190.13 386.61L238.61 386.61L238.61 386.61L238.61 340.65L238.61 340.65L190.13 340.65z" /></clipPath><clipPath id="217"><path id="" clip-rule="evenodd" transform="matrix(1 0 0 1 0 0)" d="M238.61 386.61L357.92 386.61L357.92 386.61L357.92 340.65L357.92 340.65L238.61 340.65z" /></clipPath><clipPath id="218"><path id="" clip-rule="evenodd" transform="matrix(1 0 0 1 0 0)" d="M238.61 386.61L357.91 386.61L357.91 386.61L357.91 340.65L357.91 340.65L238.61 340.65z" /></clipPath><clipPath id="219"><path id="" clip-rule="evenodd" transform="matrix(1 0 0 1 0 0)" d="M238.61 386.61L357.91 386.61L357.91 386.61L357.91 340.65L357.91 340.65L238.61 340.65z" /></clipPath><clipPath id="220"><path id="" clip-rule="evenodd" transform="matrix(1 0 0 1 0 0)" d="M238.61 386.61L357.91 386.61L357.91 386.61L357.91 340.65L357.91 340.65L238.61 340.65z" /></clipPath><clipPath id="221"><path id="" clip-rule="evenodd" transform="matrix(1 0 0 1 0 0)" d="M238.61 386.61L357.91 386.61L357.91 386.61L357.91 340.65L357.91 340.65L238.61 340.65z" /></clipPath><clipPath id="222"><path id="" clip-rule="evenodd" transform="matrix(1 0 0 1 0 0)" d="M238.61 386.61L357.91 386.61L357.91 386.61L357.91 340.65L357.91 340.65L238.61 340.65z" /></clipPath><clipPath id="223"><path id="" clip-rule="evenodd" transform="matrix(1 0 0 1 0 0)" d="M238.61 386.61L357.91 386.61L357.91 386.61L357.91 340.65L357.91 340.65L238.61 340.65z" /></clipPath><clipPath id="224"><path id="" clip-rule="evenodd" transform="matrix(1 0 0 1 0 0)" d="M238.61 386.61L357.91 386.61L357.91 386.61L357.91 340.65L357.91 340.65L238.61 340.65z" /></clipPath><clipPath id="225"><path id="" clip-rule="evenodd" transform="matrix(1 0 0 1 0 0)" d="M238.61 386.61L357.91 386.61L357.91 386.61L357.91 340.65L357.91 340.65L238.61 340.65z" /></clipPath><clipPath id="226"><path id="" clip-rule="evenodd" transform="matrix(1 0 0 1 0 0)" d="M238.61 386.61L357.91 386.61L357.91 386.61L357.91 340.65L357.91 340.65L238.61 340.65z" /></clipPath><clipPath id="227"><path id="" clip-rule="evenodd" transform="matrix(1 0 0 1 0 0)" d="M238.61 386.61L357.91 386.61L357.91 386.61L357.91 340.65L357.91 340.65L238.61 340.65z" /></clipPath><clipPath id="228"><path id="" clip-rule="evenodd" transform="matrix(1 0 0 1 0 0)" d="M238.61 386.61L357.91 386.61L357.91 386.61L357.91 340.65L357.91 340.65L238.61 340.65z" /></clipPath><clipPath id="229"><path id="" clip-rule="evenodd" transform="matrix(1 0 0 1 0 0)" d="M357.92 386.61L398.96 386.61L398.96 386.61L398.96 340.65L398.96 340.65L357.92 340.65z" /></clipPath><clipPath id="230"><path id="" clip-rule="evenodd" transform="matrix(1 0 0 1 0 0)" d="M357.91 386.61L398.95 386.61L398.95 386.61L398.95 340.65L398.95 340.65L357.91 340.65z" /></clipPath><clipPath id="231"><path id="" clip-rule="evenodd" transform="matrix(1 0 0 1 0 0)" d="M357.91 386.61L398.95 386.61L398.95 386.61L398.95 340.65L398.95 340.65L357.91 340.65z" /></clipPath><clipPath id="232"><path id="" clip-rule="evenodd" transform="matrix(1 0 0 1 0 0)" d="M357.91 386.61L398.95 386.61L398.95 386.61L398.95 340.65L398.95 340.65L357.91 340.65z" /></clipPath><clipPath id="233"><path id="" clip-rule="evenodd" transform="matrix(1 0 0 1 0 0)" d="M357.91 386.61L398.95 386.61L398.95 386.61L398.95 340.65L398.95 340.65L357.91 340.65z" /></clipPath><clipPath id="234"><path id="" clip-rule="evenodd" transform="matrix(1 0 0 1 0 0)" d="M357.91 386.61L398.95 386.61L398.95 386.61L398.95 340.65L398.95 340.65L357.91 340.65z" /></clipPath><clipPath id="235"><path id="" clip-rule="evenodd" transform="matrix(1 0 0 1 0 0)" d="M357.91 386.61L398.95 386.61L398.95 386.61L398.95 340.65L398.95 340.65L357.91 340.65z" /></clipPath><clipPath id="236"><path id="" clip-rule="evenodd" transform="matrix(1 0 0 1 0 0)" d="M357.91 386.61L398.95 386.61L398.95 386.61L398.95 340.65L398.95 340.65L357.91 340.65z" /></clipPath><clipPath id="237"><path id="" clip-rule="evenodd" transform="matrix(1 0 0 1 0 0)" d="M398.96 386.61L497.015 386.61L497.015 386.61L497.015 340.65L497.015 340.65L398.96 340.65z" /></clipPath><clipPath id="238"><path id="" clip-rule="evenodd" transform="matrix(1 0 0 1 0 0)" d="M398.95 386.61L497.014 386.61L497.014 386.61L497.014 340.65L497.014 340.65L398.95 340.65z" /></clipPath><clipPath id="239"><path id="" clip-rule="evenodd" transform="matrix(1 0 0 1 0 0)" d="M398.95 386.61L497.014 386.61L497.014 386.61L497.014 340.65L497.014 340.65L398.95 340.65z" /></clipPath><clipPath id="240"><path id="" clip-rule="evenodd" transform="matrix(1 0 0 1 0 0)" d="M398.95 386.61L497.014 386.61L497.014 386.61L497.014 340.65L497.014 340.65L398.95 340.65z" /></clipPath><clipPath id="241"><path id="" clip-rule="evenodd" transform="matrix(1 0 0 1 0 0)" d="M398.95 386.61L497.014 386.61L497.014 386.61L497.014 340.65L497.014 340.65L398.95 340.65z" /></clipPath><clipPath id="242"><path id="" clip-rule="evenodd" transform="matrix(1 0 0 1 0 0)" d="M398.95 386.61L497.014 386.61L497.014 386.61L497.014 340.65L497.014 340.65L398.95 340.65z" /></clipPath><clipPath id="243"><path id="" clip-rule="evenodd" transform="matrix(1 0 0 1 0 0)" d="M497.01 386.61L558.72 386.61L558.72 386.61L558.72 340.65L558.72 340.65L497.01 340.65z" /></clipPath><clipPath id="244"><path id="" clip-rule="evenodd" transform="matrix(1 0 0 1 0 0)" d="M497.02 386.61L558.724 386.61L558.724 386.61L558.724 340.65L558.724 340.65L497.02 340.65z" /></clipPath><clipPath id="245"><path id="" clip-rule="evenodd" transform="matrix(1 0 0 1 0 0)" d="M497.02 386.61L558.724 386.61L558.724 386.61L558.724 340.65L558.724 340.65L497.02 340.65z" /></clipPath><clipPath id="246"><path id="" clip-rule="evenodd" transform="matrix(1 0 0 1 0 0)" d="M36.36 398.16L558.72 398.16L558.72 398.16L558.72 386.61L558.72 386.61L36.36 386.61z" /></clipPath><clipPath id="247"><path id="" clip-rule="evenodd" transform="matrix(1 0 0 1 0 0)" d="M36.36 398.15L558.72 398.15L558.72 398.15L558.72 386.606L558.72 386.606L36.36 386.606z" /></clipPath><clipPath id="248"><path id="" clip-rule="evenodd" transform="matrix(1 0 0 1 0 0)" d="M36.36 432.6L238.61 432.6L238.61 432.6L238.61 398.16L238.61 398.16L36.36 398.16z" /></clipPath><clipPath id="249"><path id="" clip-rule="evenodd" transform="matrix(1 0 0 1 0 0)" d="M36.36 432.59L238.61 432.59L238.61 432.59L238.61 398.15L238.61 398.15L36.36 398.15z" /></clipPath><clipPath id="250"><path id="" clip-rule="evenodd" transform="matrix(1 0 0 1 0 0)" d="M36.36 432.59L238.61 432.59L238.61 432.59L238.61 398.15L238.61 398.15L36.36 398.15z" /></clipPath><clipPath id="251"><path id="" clip-rule="evenodd" transform="matrix(1 0 0 1 0 0)" d="M238.61 432.6L357.92 432.6L357.92 432.6L357.92 398.16L357.92 398.16L238.61 398.16z" /></clipPath><clipPath id="252"><path id="" clip-rule="evenodd" transform="matrix(1 0 0 1 0 0)" d="M238.61 432.59L357.91 432.59L357.91 432.59L357.91 398.15L357.91 398.15L238.61 398.15z" /></clipPath><clipPath id="253"><path id="" clip-rule="evenodd" transform="matrix(1 0 0 1 0 0)" d="M238.61 432.59L357.91 432.59L357.91 432.59L357.91 398.15L357.91 398.15L238.61 398.15z" /></clipPath><clipPath id="254"><path id="" clip-rule="evenodd" transform="matrix(1 0 0 1 0 0)" d="M238.61 432.59L357.91 432.59L357.91 432.59L357.91 398.15L357.91 398.15L238.61 398.15z" /></clipPath><clipPath id="255"><path id="" clip-rule="evenodd" transform="matrix(1 0 0 1 0 0)" d="M357.92 432.6L558.73 432.6L558.73 432.6L558.73 398.16L558.73 398.16L357.92 398.16z" /></clipPath><clipPath id="256"><path id="" clip-rule="evenodd" transform="matrix(1 0 0 1 0 0)" d="M357.91 432.59L558.72 432.59L558.72 432.59L558.72 398.15L558.72 398.15L357.91 398.15z" /></clipPath><clipPath id="257"><path id="" clip-rule="evenodd" transform="matrix(1 0 0 1 0 0)" d="M357.91 432.59L558.72 432.59L558.72 432.59L558.72 398.15L558.72 398.15L357.91 398.15z" /></clipPath><clipPath id="258"><path id="" clip-rule="evenodd" transform="matrix(1 0 0 1 0 0)" d="M357.91 432.59L558.72 432.59L558.72 432.59L558.72 398.15L558.72 398.15L357.91 398.15z" /></clipPath><clipPath id="259"><path id="" clip-rule="evenodd" transform="matrix(1 0 0 1 0 0)" d="M357.91 432.59L558.72 432.59L558.72 432.59L558.72 398.15L558.72 398.15L357.91 398.15z" /></clipPath><clipPath id="260"><path id="" clip-rule="evenodd" transform="matrix(1 0 0 1 0 0)" d="M357.91 432.59L558.72 432.59L558.72 432.59L558.72 398.15L558.72 398.15L357.91 398.15z" /></clipPath><clipPath id="261"><path id="" clip-rule="evenodd" transform="matrix(1 0 0 1 0 0)" d="M357.91 432.59L558.72 432.59L558.72 432.59L558.72 398.15L558.72 398.15L357.91 398.15z" /></clipPath><clipPath id="262"><path id="" clip-rule="evenodd" transform="matrix(1 0 0 1 0 0)" d="M357.91 432.59L558.72 432.59L558.72 432.59L558.72 398.15L558.72 398.15L357.91 398.15z" /></clipPath><clipPath id="263"><path id="" clip-rule="evenodd" transform="matrix(1 0 0 1 0 0)" d="M357.91 432.59L558.72 432.59L558.72 432.59L558.72 398.15L558.72 398.15L357.91 398.15z" /></clipPath><clipPath id="264"><path id="" clip-rule="evenodd" transform="matrix(1 0 0 1 0 0)" d="M357.91 432.59L558.72 432.59L558.72 432.59L558.72 398.15L558.72 398.15L357.91 398.15z" /></clipPath><clipPath id="265"><path id="" clip-rule="evenodd" transform="matrix(1 0 0 1 0 0)" d="M36.36 444.12L558.72 444.12L558.72 444.12L558.72 432.6L558.72 432.6L36.36 432.6z" /></clipPath><clipPath id="266"><path id="" clip-rule="evenodd" transform="matrix(1 0 0 1 0 0)" d="M36.36 444.11L558.72 444.11L558.72 444.11L558.72 432.59L558.72 432.59L36.36 432.59z" /></clipPath><clipPath id="267"><path id="" clip-rule="evenodd" transform="matrix(1 0 0 1 0 0)" d="M36.36 444.11L558.72 444.11L558.72 444.11L558.72 432.59L558.72 432.59L36.36 432.59z" /></clipPath><clipPath id="268"><path id="" clip-rule="evenodd" transform="matrix(1 0 0 1 0 0)" d="M36.36 444.11L558.72 444.11L558.72 444.11L558.72 432.59L558.72 432.59L36.36 432.59z" /></clipPath><clipPath id="269"><path id="" clip-rule="evenodd" transform="matrix(1 0 0 1 0 0)" d="M36.36 444.11L558.72 444.11L558.72 444.11L558.72 432.59L558.72 432.59L36.36 432.59z" /></clipPath><clipPath id="270"><path id="" clip-rule="evenodd" transform="matrix(1 0 0 1 0 0)" d="M36.36 455.52L558.72 455.52L558.72 455.52L558.72 444.12L558.72 444.12L36.36 444.12z" /></clipPath><clipPath id="271"><path id="" clip-rule="evenodd" transform="matrix(1 0 0 1 0 0)" d="M36.36 455.51L558.72 455.51L558.72 455.51L558.72 444.11L558.72 444.11L36.36 444.11z" /></clipPath><clipPath id="272"><path id="" clip-rule="evenodd" transform="matrix(1 0 0 1 0 0)" d="M36.36 455.51L558.72 455.51L558.72 455.51L558.72 444.11L558.72 444.11L36.36 444.11z" /></clipPath><clipPath id="273"><path id="" clip-rule="evenodd" transform="matrix(1 0 0 1 0 0)" d="M36.36 466.92L170.79 466.92L170.79 466.92L170.79 455.52L170.79 455.52L36.36 455.52z" /></clipPath><clipPath id="274"><path id="" clip-rule="evenodd" transform="matrix(1 0 0 1 0 0)" d="M36.36 466.91L170.78 466.91L170.78 466.91L170.78 455.51L170.78 455.51L36.36 455.51z" /></clipPath><clipPath id="275"><path id="" clip-rule="evenodd" transform="matrix(1 0 0 1 0 0)" d="M36.36 466.91L170.78 466.91L170.78 466.91L170.78 455.51L170.78 455.51L36.36 455.51z" /></clipPath><clipPath id="276"><path id="" clip-rule="evenodd" transform="matrix(1 0 0 1 0 0)" d="M170.67 466.92L558.72 466.92L558.72 466.92L558.72 455.52L558.72 455.52L170.67 455.52z" /></clipPath><clipPath id="277"><path id="" clip-rule="evenodd" transform="matrix(1 0 0 1 0 0)" d="M170.66 466.91L558.72 466.91L558.72 466.91L558.72 455.51L558.72 455.51L170.66 455.51z" /></clipPath><clipPath id="278"><path id="" clip-rule="evenodd" transform="matrix(1 0 0 1 0 0)" d="M170.66 466.91L558.72 466.91L558.72 466.91L558.72 455.51L558.72 455.51L170.66 455.51z" /></clipPath><clipPath id="279"><path id="" clip-rule="evenodd" transform="matrix(1 0 0 1 0 0)" d="M36.36 489.96L170.79 489.96L170.79 489.96L170.79 466.92L170.79 466.92L36.36 466.92z" /></clipPath><clipPath id="280"><path id="" clip-rule="evenodd" transform="matrix(1 0 0 1 0 0)" d="M36.36 489.95L170.78 489.95L170.78 489.95L170.78 466.91L170.78 466.91L36.36 466.91z" /></clipPath><clipPath id="281"><path id="" clip-rule="evenodd" transform="matrix(1 0 0 1 0 0)" d="M36.36 489.95L170.78 489.95L170.78 489.95L170.78 466.91L170.78 466.91L36.36 466.91z" /></clipPath><clipPath id="282"><path id="" clip-rule="evenodd" transform="matrix(1 0 0 1 0 0)" d="M170.67 489.96L558.72 489.96L558.72 489.96L558.72 466.92L558.72 466.92L170.67 466.92z" /></clipPath><clipPath id="283"><path id="" clip-rule="evenodd" transform="matrix(1 0 0 1 0 0)" d="M170.66 489.95L558.72 489.95L558.72 489.95L558.72 466.91L558.72 466.91L170.66 466.91z" /></clipPath><clipPath id="284"><path id="" clip-rule="evenodd" transform="matrix(1 0 0 1 0 0)" d="M170.66 489.95L558.72 489.95L558.72 489.95L558.72 466.91L558.72 466.91L170.66 466.91z" /></clipPath><clipPath id="285"><path id="" clip-rule="evenodd" transform="matrix(1 0 0 1 0 0)" d="M170.66 489.95L558.72 489.95L558.72 489.95L558.72 466.91L558.72 466.91L170.66 466.91z" /></clipPath><clipPath id="286"><path id="" clip-rule="evenodd" transform="matrix(1 0 0 1 0 0)" d="M170.66 489.95L558.72 489.95L558.72 489.95L558.72 466.91L558.72 466.91L170.66 466.91z" /></clipPath><clipPath id="287"><path id="" clip-rule="evenodd" transform="matrix(1 0 0 1 0 0)" d="M170.66 489.95L558.72 489.95L558.72 489.95L558.72 466.91L558.72 466.91L170.66 466.91z" /></clipPath><clipPath id="288"><path id="" clip-rule="evenodd" transform="matrix(1 0 0 1 0 0)" d="M36.36 501.36L558.72 501.36L558.72 501.36L558.72 489.96L558.72 489.96L36.36 489.96z" /></clipPath><clipPath id="289"><path id="" clip-rule="evenodd" transform="matrix(1 0 0 1 0 0)" d="M36.36 501.35L558.72 501.35L558.72 501.35L558.72 489.95L558.72 489.95L36.36 489.95z" /></clipPath><clipPath id="290"><path id="" clip-rule="evenodd" transform="matrix(1 0 0 1 0 0)" d="M36.36 501.35L558.72 501.35L558.72 501.35L558.72 489.95L558.72 489.95L36.36 489.95z" /></clipPath><clipPath id="291"><path id="" clip-rule="evenodd" transform="matrix(1 0 0 1 0 0)" d="M36.36 515.04L558.72 515.04L558.72 515.04L558.72 501.36L558.72 501.36L36.36 501.36z" /></clipPath><clipPath id="292"><path id="" clip-rule="evenodd" transform="matrix(1 0 0 1 0 0)" d="M36.36 515.03L558.72 515.03L558.72 515.03L558.72 501.35L558.72 501.35L36.36 501.35z" /></clipPath><clipPath id="293"><path id="" clip-rule="evenodd" transform="matrix(1 0 0 1 0 0)" d="M36.36 526.56L558.72 526.56L558.72 526.56L558.72 515.04L558.72 515.04L36.36 515.04z" /></clipPath><clipPath id="294"><path id="" clip-rule="evenodd" transform="matrix(1 0 0 1 0 0)" d="M36.36 526.55L558.72 526.55L558.72 526.55L558.72 515.03L558.72 515.03L36.36 515.03z" /></clipPath><clipPath id="295"><path id="" clip-rule="evenodd" transform="matrix(1 0 0 1 0 0)" d="M36.36 538.08L558.72 538.08L558.72 538.08L558.72 526.56L558.72 526.56L36.36 526.56z" /></clipPath><clipPath id="296"><path id="" clip-rule="evenodd" transform="matrix(1 0 0 1 0 0)" d="M36.36 538.07L558.72 538.07L558.72 538.07L558.72 526.55L558.72 526.55L36.36 526.55z" /></clipPath><clipPath id="297"><path id="" clip-rule="evenodd" transform="matrix(1 0 0 1 0 0)" d="M36.36 538.07L558.72 538.07L558.72 538.07L558.72 526.55L558.72 526.55L36.36 526.55z" /></clipPath><clipPath id="298"><path id="" clip-rule="evenodd" transform="matrix(1 0 0 1 0 0)" d="M36.36 538.07L558.72 538.07L558.72 538.07L558.72 526.55L558.72 526.55L36.36 526.55z" /></clipPath><clipPath id="299"><path id="" clip-rule="evenodd" transform="matrix(1 0 0 1 0 0)" d="M36.36 538.07L558.72 538.07L558.72 538.07L558.72 526.55L558.72 526.55L36.36 526.55z" /></clipPath><clipPath id="300"><path id="" clip-rule="evenodd" transform="matrix(1 0 0 1 0 0)" d="M36.36 538.07L558.72 538.07L558.72 538.07L558.72 526.55L558.72 526.55L36.36 526.55z" /></clipPath><clipPath id="301"><path id="" clip-rule="evenodd" transform="matrix(1 0 0 1 0 0)" d="M36.36 569.17L558.72 569.17L558.72 569.17L558.72 538.075L558.72 538.075L36.36 538.075z" /></clipPath><clipPath id="302"><path id="" clip-rule="evenodd" transform="matrix(1 0 0 1 0 0)" d="M36.36 569.18L558.72 569.18L558.72 569.18L558.72 538.076L558.72 538.076L36.36 538.076z" /></clipPath><clipPath id="303"><path id="" clip-rule="evenodd" transform="matrix(1 0 0 1 0 0)" d="M36.36 569.18L558.72 569.18L558.72 569.18L558.72 538.076L558.72 538.076L36.36 538.076z" /></clipPath><clipPath id="304"><path id="" clip-rule="evenodd" transform="matrix(1 0 0 1 0 0)" d="M36.36 569.18L558.72 569.18L558.72 569.18L558.72 538.076L558.72 538.076L36.36 538.076z" /></clipPath><clipPath id="305"><path id="" clip-rule="evenodd" transform="matrix(1 0 0 1 0 0)" d="M36.36 569.18L558.72 569.18L558.72 569.18L558.72 538.076L558.72 538.076L36.36 538.076z" /></clipPath><clipPath id="306"><path id="" clip-rule="evenodd" transform="matrix(1 0 0 1 0 0)" d="M36.36 569.18L558.72 569.18L558.72 569.18L558.72 538.076L558.72 538.076L36.36 538.076z" /></clipPath><clipPath id="307"><path id="" clip-rule="evenodd" transform="matrix(1 0 0 1 0 0)" d="M36.36 569.18L558.72 569.18L558.72 569.18L558.72 538.076L558.72 538.076L36.36 538.076z" /></clipPath><clipPath id="308"><path id="" clip-rule="evenodd" transform="matrix(1 0 0 1 0 0)" d="M36.36 569.18L558.72 569.18L558.72 569.18L558.72 538.076L558.72 538.076L36.36 538.076z" /></clipPath><clipPath id="309"><path id="" clip-rule="evenodd" transform="matrix(1 0 0 1 0 0)" d="M36.36 569.18L558.72 569.18L558.72 569.18L558.72 538.076L558.72 538.076L36.36 538.076z" /></clipPath><clipPath id="310"><path id="" clip-rule="evenodd" transform="matrix(1 0 0 1 0 0)" d="M36.36 569.18L558.72 569.18L558.72 569.18L558.72 538.076L558.72 538.076L36.36 538.076z" /></clipPath><clipPath id="311"><path id="" clip-rule="evenodd" transform="matrix(1 0 0 1 0 0)" d="M36.36 569.18L558.72 569.18L558.72 569.18L558.72 538.076L558.72 538.076L36.36 538.076z" /></clipPath><clipPath id="312"><path id="" clip-rule="evenodd" transform="matrix(1 0 0 1 0 0)" d="M36.36 631.21L558.72 631.21L558.72 631.21L558.72 569.17L558.72 569.17L36.36 569.17z" /></clipPath><clipPath id="313"><path id="" clip-rule="evenodd" transform="matrix(1 0 0 1 0 0)" d="M36.36 631.22L558.72 631.22L558.72 631.22L558.72 569.18L558.72 569.18L36.36 569.18z" /></clipPath><clipPath id="314"><path id="" clip-rule="evenodd" transform="matrix(1 0 0 1 0 0)" d="M36.36 631.22L558.72 631.22L558.72 631.22L558.72 569.18L558.72 569.18L36.36 569.18z" /></clipPath><clipPath id="315"><path id="" clip-rule="evenodd" transform="matrix(1 0 0 1 0 0)" d="M36.36 631.22L558.72 631.22L558.72 631.22L558.72 569.18L558.72 569.18L36.36 569.18z" /></clipPath><clipPath id="316"><path id="" clip-rule="evenodd" transform="matrix(1 0 0 1 0 0)" d="M36.36 631.22L558.72 631.22L558.72 631.22L558.72 569.18L558.72 569.18L36.36 569.18z" /></clipPath><clipPath id="317"><path id="" clip-rule="evenodd" transform="matrix(1 0 0 1 0 0)" d="M36.36 631.22L558.72 631.22L558.72 631.22L558.72 569.18L558.72 569.18L36.36 569.18z" /></clipPath><clipPath id="318"><path id="" clip-rule="evenodd" transform="matrix(1 0 0 1 0 0)" d="M36.36 631.22L558.72 631.22L558.72 631.22L558.72 569.18L558.72 569.18L36.36 569.18z" /></clipPath><clipPath id="319"><path id="" clip-rule="evenodd" transform="matrix(1 0 0 1 0 0)" d="M36.36 631.22L558.72 631.22L558.72 631.22L558.72 569.18L558.72 569.18L36.36 569.18z" /></clipPath><clipPath id="320"><path id="" clip-rule="evenodd" transform="matrix(1 0 0 1 0 0)" d="M36.36 631.22L558.72 631.22L558.72 631.22L558.72 569.18L558.72 569.18L36.36 569.18z" /></clipPath><clipPath id="321"><path id="" clip-rule="evenodd" transform="matrix(1 0 0 1 0 0)" d="M36.36 631.22L558.72 631.22L558.72 631.22L558.72 569.18L558.72 569.18L36.36 569.18z" /></clipPath><clipPath id="322"><path id="" clip-rule="evenodd" transform="matrix(1 0 0 1 0 0)" d="M36.36 631.22L558.72 631.22L558.72 631.22L558.72 569.18L558.72 569.18L36.36 569.18z" /></clipPath><clipPath id="323"><path id="" clip-rule="evenodd" transform="matrix(1 0 0 1 0 0)" d="M36.36 631.22L558.72 631.22L558.72 631.22L558.72 569.18L558.72 569.18L36.36 569.18z" /></clipPath><clipPath id="324"><path id="" clip-rule="evenodd" transform="matrix(1 0 0 1 0 0)" d="M36.36 631.22L558.72 631.22L558.72 631.22L558.72 569.18L558.72 569.18L36.36 569.18z" /></clipPath><clipPath id="325"><path id="" clip-rule="evenodd" transform="matrix(1 0 0 1 0 0)" d="M36.36 631.22L558.72 631.22L558.72 631.22L558.72 569.18L558.72 569.18L36.36 569.18z" /></clipPath><clipPath id="326"><path id="" clip-rule="evenodd" transform="matrix(1 0 0 1 0 0)" d="M36.36 631.22L558.72 631.22L558.72 631.22L558.72 569.18L558.72 569.18L36.36 569.18z" /></clipPath><clipPath id="327"><path id="" clip-rule="evenodd" transform="matrix(1 0 0 1 0 0)" d="M36.36 724.36L558.72 724.36L558.72 724.36L558.72 631.21L558.72 631.21L36.36 631.21z" /></clipPath><clipPath id="328"><path id="" clip-rule="evenodd" transform="matrix(1 0 0 1 0 0)" d="M36.36 724.36L558.72 724.36L558.72 724.36L558.72 631.216L558.72 631.216L36.36 631.216z" /></clipPath><clipPath id="329"><path id="" clip-rule="evenodd" transform="matrix(1 0 0 1 0 0)" d="M36.36 724.36L558.72 724.36L558.72 724.36L558.72 631.216L558.72 631.216L36.36 631.216z" /></clipPath><clipPath id="330"><path id="" clip-rule="evenodd" transform="matrix(1 0 0 1 0 0)" d="M36.36 724.36L558.72 724.36L558.72 724.36L558.72 631.216L558.72 631.216L36.36 631.216z" /></clipPath><clipPath id="331"><path id="" clip-rule="evenodd" transform="matrix(1 0 0 1 0 0)" d="M36.36 724.36L558.72 724.36L558.72 724.36L558.72 631.216L558.72 631.216L36.36 631.216z" /></clipPath><clipPath id="332"><path id="" clip-rule="evenodd" transform="matrix(1 0 0 1 0 0)" d="M36.36 724.36L558.72 724.36L558.72 724.36L558.72 631.216L558.72 631.216L36.36 631.216z" /></clipPath><clipPath id="333"><path id="" clip-rule="evenodd" transform="matrix(1 0 0 1 0 0)" d="M36.36 724.36L558.72 724.36L558.72 724.36L558.72 631.216L558.72 631.216L36.36 631.216z" /></clipPath><clipPath id="334"><path id="" clip-rule="evenodd" transform="matrix(1 0 0 1 0 0)" d="M36.36 724.36L558.72 724.36L558.72 724.36L558.72 631.216L558.72 631.216L36.36 631.216z" /></clipPath><clipPath id="335"><path id="" clip-rule="evenodd" transform="matrix(1 0 0 1 0 0)" d="M36.36 724.36L558.72 724.36L558.72 724.36L558.72 631.216L558.72 631.216L36.36 631.216z" /></clipPath><clipPath id="336"><path id="" clip-rule="evenodd" transform="matrix(1 0 0 1 0 0)" d="M36.36 724.36L558.72 724.36L558.72 724.36L558.72 631.216L558.72 631.216L36.36 631.216z" /></clipPath><clipPath id="337"><path id="" clip-rule="evenodd" transform="matrix(1 0 0 1 0 0)" d="M36.36 724.36L558.72 724.36L558.72 724.36L558.72 631.216L558.72 631.216L36.36 631.216z" /></clipPath><clipPath id="338"><path id="" clip-rule="evenodd" transform="matrix(1 0 0 1 0 0)" d="M36.36 724.36L558.72 724.36L558.72 724.36L558.72 631.216L558.72 631.216L36.36 631.216z" /></clipPath><clipPath id="339"><path id="" clip-rule="evenodd" transform="matrix(1 0 0 1 0 0)" d="M36.36 724.36L558.72 724.36L558.72 724.36L558.72 631.216L558.72 631.216L36.36 631.216z" /></clipPath><clipPath id="340"><path id="" clip-rule="evenodd" transform="matrix(1 0 0 1 0 0)" d="M36.36 724.36L558.72 724.36L558.72 724.36L558.72 631.216L558.72 631.216L36.36 631.216z" /></clipPath><clipPath id="341"><path id="" clip-rule="evenodd" transform="matrix(1 0 0 1 0 0)" d="M36.36 724.36L558.72 724.36L558.72 724.36L558.72 631.216L558.72 631.216L36.36 631.216z" /></clipPath><clipPath id="342"><path id="" clip-rule="evenodd" transform="matrix(1 0 0 1 0 0)" d="M36.36 724.36L558.72 724.36L558.72 724.36L558.72 631.216L558.72 631.216L36.36 631.216z" /></clipPath><clipPath id="343"><path id="" clip-rule="evenodd" transform="matrix(1 0 0 1 0 0)" d="M36.36 724.36L558.72 724.36L558.72 724.36L558.72 631.216L558.72 631.216L36.36 631.216z" /></clipPath><clipPath id="344"><path id="" clip-rule="evenodd" transform="matrix(1 0 0 1 0 0)" d="M36.36 745.12L558.72 745.12L558.72 745.12L558.72 724.36L558.72 724.36L36.36 724.36z" /></clipPath><clipPath id="345"><path id="" clip-rule="evenodd" transform="matrix(1 0 0 1 0 0)" d="M36.36 745.12L558.72 745.12L558.72 745.12L558.72 724.36L558.72 724.36L36.36 724.36z" /></clipPath><clipPath id="346"><path id="" clip-rule="evenodd" transform="matrix(1 0 0 1 0 0)" d="M36.36 745.12L558.72 745.12L558.72 745.12L558.72 724.36L558.72 724.36L36.36 724.36z" /></clipPath><clipPath id="347"><path id="" clip-rule="evenodd" transform="matrix(1 0 0 1 0 0)" d="M36.36 745.12L558.72 745.12L558.72 745.12L558.72 724.36L558.72 724.36L36.36 724.36z" /></clipPath><clipPath id="348"><path id="" clip-rule="evenodd" transform="matrix(1 0 0 1 0 0)" d="M36.36 745.12L558.72 745.12L558.72 745.12L558.72 724.36L558.72 724.36L36.36 724.36z" /></clipPath><clipPath id="349"><path id="" clip-rule="evenodd" transform="matrix(1 0 0 1 0 0)" d="M36.36 745.12L558.72 745.12L558.72 745.12L558.72 724.36L558.72 724.36L36.36 724.36z" /></clipPath><clipPath id="350"><path id="" clip-rule="evenodd" transform="matrix(1 0 0 1 0 0)" d="M36.36 745.12L558.72 745.12L558.72 745.12L558.72 724.36L558.72 724.36L36.36 724.36z" /></clipPath><clipPath id="351"><path id="" clip-rule="evenodd" transform="matrix(1 0 0 1 0 0)" d="M36.36 745.12L558.72 745.12L558.72 745.12L558.72 724.36L558.72 724.36L36.36 724.36z" /></clipPath><clipPath id="352"><path id="" clip-rule="evenodd" transform="matrix(1 0 0 1 0 0)" d="M36.36 745.12L558.72 745.12L558.72 745.12L558.72 724.36L558.72 724.36L36.36 724.36z" /></clipPath><clipPath id="353"><path id="" clip-rule="evenodd" transform="matrix(1 0 0 1 0 0)" d="M36.36 745.12L558.72 745.12L558.72 745.12L558.72 724.36L558.72 724.36L36.36 724.36z" /></clipPath><clipPath id="354"><path id="" clip-rule="evenodd" transform="matrix(1 0 0 1 0 0)" d="M36.36 745.12L558.72 745.12L558.72 745.12L558.72 724.36L558.72 724.36L36.36 724.36z" /></clipPath><clipPath id="355"><path id="" clip-rule="evenodd" transform="matrix(1 0 0 1 0 0)" d="M36.36 745.12L558.72 745.12L558.72 745.12L558.72 724.36L558.72 724.36L36.36 724.36z" /></clipPath><clipPath id="356"><path id="" clip-rule="evenodd" transform="matrix(1 0 0 1 0 0)" d="M36.36 755.44L558.72 755.44L558.72 755.44L558.72 745.12L558.72 745.12L36.36 745.12z" /></clipPath><clipPath id="357"><path id="" clip-rule="evenodd" transform="matrix(1 0 0 1 0 0)" d="M36.36 755.44L558.72 755.44L558.72 755.44L558.72 745.12L558.72 745.12L36.36 745.12z" /></clipPath></defs><g transform="matrix(1.333333 0 0 1.333333 0 0)"><g clip-path="url(#1)"><g clip-path="url(#2)"><g clip-path="url(#3)"></g><g clip-path="url(#4)"></g><g clip-path="url(#5)"></g><g clip-path="url(#6)"></g><g clip-path="url(#7)"></g><g clip-path="url(#8)"></g><g clip-path="url(#9)"></g><g clip-path="url(#10)"></g></g><g clip-path="url(#11)"><g clip-path="url(#12)"></g><g clip-path="url(#13)"></g></g><g clip-path="url(#14)"><g clip-path="url(#15)"></g><g clip-path="url(#16)"></g></g><g clip-path="url(#17)"><g clip-path="url(#18)"></g><g clip-path="url(#19)"></g></g><g clip-path="url(#20)"><g clip-path="url(#21)"></g><g clip-path="url(#22)"></g></g><g clip-path="url(#23)"><g clip-path="url(#24)"></g><g clip-path="url(#25)"></g></g><g clip-path="url(#26)"><g clip-path="url(#27)"></g><g clip-path="url(#28)"></g></g><g clip-path="url(#29)"><g clip-path="url(#30)"></g><g clip-path="url(#31)"></g></g><g clip-path="url(#32)"><g clip-path="url(#33)"></g><g clip-path="url(#34)"></g></g><g clip-path="url(#35)"><g clip-path="url(#36)"></g><g clip-path="url(#37)"></g></g><g clip-path="url(#38)"><g clip-path="url(#39)"></g><g clip-path="url(#40)"></g></g><g clip-path="url(#41)"><g clip-path="url(#42)"></g><g clip-path="url(#43)"></g></g><g clip-path="url(#44)"><g clip-path="url(#45)"></g><g clip-path="url(#46)"></g></g><g clip-path="url(#47)"><g clip-path="url(#48)"></g><g clip-path="url(#49)"></g></g><g clip-path="url(#50)"><g clip-path="url(#51)"></g><g clip-path="url(#52)"></g></g><g clip-path="url(#53)"><g clip-path="url(#54)"></g></g><g clip-path="url(#55)"><g clip-path="url(#56)"></g><g clip-path="url(#57)"></g></g><g clip-path="url(#58)"><g clip-path="url(#59)"></g></g><g clip-path="url(#60)"><g clip-path="url(#61)"></g><g clip-path="url(#62)"></g></g><g clip-path="url(#63)"><g clip-path="url(#64)"></g><g clip-path="url(#65)"></g></g><g clip-path="url(#66)"><g clip-path="url(#67)"></g><g clip-path="url(#68)"></g></g><g clip-path="url(#69)"><g clip-path="url(#70)"></g></g><g clip-path="url(#71)"><g clip-path="url(#72)"></g><g clip-path="url(#73)"></g></g><g clip-path="url(#74)"><g clip-path="url(#75)"></g><g clip-path="url(#76)"></g></g><g clip-path="url(#77)"><g clip-path="url(#78)"></g></g><g clip-path="url(#79)"><g clip-path="url(#80)"></g></g><g clip-path="url(#81)"><g clip-path="url(#82)"></g><g clip-path="url(#83)"></g></g><g clip-path="url(#84)"><g clip-path="url(#85)"></g><g clip-path="url(#86)"></g></g><g clip-path="url(#87)"><g clip-path="url(#88)"></g><g clip-path="url(#89)"></g></g><g clip-path="url(#90)"><g clip-path="url(#91)"></g></g><g clip-path="url(#92)"><g clip-path="url(#93)"></g><g clip-path="url(#94)"></g><g clip-path="url(#95)"></g><g clip-path="url(#96)"></g><g clip-path="url(#97)"></g></g><g clip-path="url(#98)"><g clip-path="url(#99)"></g><g clip-path="url(#100)"></g></g><g clip-path="url(#101)"><g clip-path="url(#102)"></g><g clip-path="url(#103)"></g></g><g clip-path="url(#104)"><g clip-path="url(#105)"></g><g clip-path="url(#106)"></g><g clip-path="url(#107)"></g></g><g clip-path="url(#108)"><g clip-path="url(#109)"></g><g clip-path="url(#110)"></g></g><g clip-path="url(#111)"><g clip-path="url(#112)"></g><g clip-path="url(#113)"></g></g><g clip-path="url(#114)"><g clip-path="url(#115)"></g><g clip-path="url(#116)"></g><g clip-path="url(#117)"></g><g clip-path="url(#118)"></g><g clip-path="url(#119)"></g><g clip-path="url(#120)"></g><g clip-path="url(#121)"></g></g><g clip-path="url(#122)"><g clip-path="url(#123)"></g><g clip-path="url(#124)"></g></g><g clip-path="url(#125)"><g clip-path="url(#126)"></g><g clip-path="url(#127)"></g><g clip-path="url(#128)"></g><g clip-path="url(#129)"></g><g clip-path="url(#130)"></g><g clip-path="url(#131)"></g><g clip-path="url(#132)"></g></g><g clip-path="url(#133)"><g clip-path="url(#134)"></g><g clip-path="url(#135)"></g><g clip-path="url(#136)"></g><g clip-path="url(#137)"></g><g clip-path="url(#138)"></g><g clip-path="url(#139)"></g><g clip-path="url(#140)"></g><g clip-path="url(#141)"></g><g clip-path="url(#142)"></g><g clip-path="url(#143)"></g><g clip-path="url(#144)"></g></g><g clip-path="url(#145)"><g clip-path="url(#146)"></g><g clip-path="url(#147)"></g><g clip-path="url(#148)"></g><g clip-path="url(#149)"></g><g clip-path="url(#150)"></g><g clip-path="url(#151)"></g><g clip-path="url(#152)"></g></g><g clip-path="url(#153)"><g clip-path="url(#154)"></g><g clip-path="url(#155)"></g><g clip-path="url(#156)"></g><g clip-path="url(#157)"></g><g clip-path="url(#158)"></g></g><g clip-path="url(#159)"><g clip-path="url(#160)"></g><g clip-path="url(#161)"></g></g><g clip-path="url(#162)"><g clip-path="url(#163)"></g></g><g clip-path="url(#164)"><g clip-path="url(#165)"></g><g clip-path="url(#166)"></g></g><g clip-path="url(#167)"><g clip-path="url(#168)"></g><g clip-path="url(#169)"></g><g clip-path="url(#170)"></g></g><g clip-path="url(#171)"><g clip-path="url(#172)"></g><g clip-path="url(#173)"></g><g clip-path="url(#174)"></g><g clip-path="url(#175)"></g><g clip-path="url(#176)"></g><g clip-path="url(#177)"></g><g clip-path="url(#178)"></g><g clip-path="url(#179)"></g><g clip-path="url(#180)"></g></g><g clip-path="url(#181)"><g clip-path="url(#182)"></g><g clip-path="url(#183)"></g><g clip-path="url(#184)"></g><g clip-path="url(#185)"></g><g clip-path="url(#186)"></g><g clip-path="url(#187)"></g><g clip-path="url(#188)"></g><g clip-path="url(#189)"></g><g clip-path="url(#190)"></g></g><g clip-path="url(#191)"><g clip-path="url(#192)"></g><g clip-path="url(#193)"></g><g clip-path="url(#194)"></g></g><g clip-path="url(#195)"><g clip-path="url(#196)"></g><g clip-path="url(#197)"></g></g><g clip-path="url(#198)"><g clip-path="url(#199)"></g><g clip-path="url(#200)"></g><g clip-path="url(#201)"></g><g clip-path="url(#202)"></g><g clip-path="url(#203)"></g><g clip-path="url(#204)"></g><g clip-path="url(#205)"></g></g><g clip-path="url(#206)"><g clip-path="url(#207)"></g><g clip-path="url(#208)"></g></g><g clip-path="url(#209)"><g clip-path="url(#210)"></g><g clip-path="url(#211)"></g><g clip-path="url(#212)"></g><g clip-path="url(#213)"></g><g clip-path="url(#214)"></g><g clip-path="url(#215)"></g><g clip-path="url(#216)"></g></g><g clip-path="url(#217)"><g clip-path="url(#218)"></g><g clip-path="url(#219)"></g><g clip-path="url(#220)"></g><g clip-path="url(#221)"></g><g clip-path="url(#222)"></g><g clip-path="url(#223)"></g><g clip-path="url(#224)"></g><g clip-path="url(#225)"></g><g clip-path="url(#226)"></g><g clip-path="url(#227)"></g><g clip-path="url(#228)"></g></g><g clip-path="url(#229)"><g clip-path="url(#230)"></g><g clip-path="url(#231)"></g><g clip-path="url(#232)"></g><g clip-path="url(#233)"></g><g clip-path="url(#234)"></g><g clip-path="url(#235)"></g><g clip-path="url(#236)"></g></g><g clip-path="url(#237)"><g clip-path="url(#238)"></g><g clip-path="url(#239)"></g><g clip-path="url(#240)"></g><g clip-path="url(#241)"></g><g clip-path="url(#242)"></g></g><g clip-path="url(#243)"><g clip-path="url(#244)"></g><g clip-path="url(#245)"></g></g><g clip-path="url(#246)"><g clip-path="url(#247)"></g></g><g clip-path="url(#248)"><g clip-path="url(#249)"></g><g clip-path="url(#250)"></g></g><g clip-path="url(#251)"><g clip-path="url(#252)"></g><g clip-path="url(#253)"></g><g clip-path="url(#254)"></g></g><g clip-path="url(#255)"><g clip-path="url(#256)"></g><g clip-path="url(#257)"></g><g clip-path="url(#258)"></g><g clip-path="url(#259)"></g><g clip-path="url(#260)"></g><g clip-path="url(#261)"></g><g clip-path="url(#262)"></g><g clip-path="url(#263)"></g><g clip-path="url(#264)"></g></g><g clip-path="url(#265)"><g clip-path="url(#266)"></g><g clip-path="url(#267)"></g><g clip-path="url(#268)"></g><g clip-path="url(#269)"></g></g><g clip-path="url(#270)"><g clip-path="url(#271)"></g><g clip-path="url(#272)"></g></g><g clip-path="url(#273)"><g clip-path="url(#274)"></g><g clip-path="url(#275)"></g></g><g clip-path="url(#276)"><g clip-path="url(#277)"></g><g clip-path="url(#278)"></g></g><g clip-path="url(#279)"><g clip-path="url(#280)"></g><g clip-path="url(#281)"></g></g><g clip-path="url(#282)"><g clip-path="url(#283)"></g><g clip-path="url(#284)"></g><g clip-path="url(#285)"></g><g clip-path="url(#286)"></g><g clip-path="url(#287)"></g></g><g clip-path="url(#288)"><g clip-path="url(#289)"></g><g clip-path="url(#290)"></g></g><g clip-path="url(#291)"><g clip-path="url(#292)"></g></g><g clip-path="url(#293)"><g clip-path="url(#294)"></g></g><g clip-path="url(#295)"><g clip-path="url(#296)"></g><g clip-path="url(#297)"></g><g clip-path="url(#298)"></g><g clip-path="url(#299)"></g><g clip-path="url(#300)"></g></g><g clip-path="url(#301)"><g clip-path="url(#302)"></g><g clip-path="url(#303)"></g><g clip-path="url(#304)"></g><g clip-path="url(#305)"></g><g clip-path="url(#306)"></g><g clip-path="url(#307)"></g><g clip-path="url(#308)"></g><g clip-path="url(#309)"></g><g clip-path="url(#310)"></g><g clip-path="url(#311)"></g></g><g clip-path="url(#312)"><g clip-path="url(#313)"></g><g clip-path="url(#314)"></g><g clip-path="url(#315)"></g><g clip-path="url(#316)"></g><g clip-path="url(#317)"></g><g clip-path="url(#318)"></g><g clip-path="url(#319)"></g><g clip-path="url(#320)"></g><g clip-path="url(#321)"></g><path id="1755" transform="matrix(1 0 0 -1 0 841)" d="M251.57 241.22L468.1 241.22L468.1 241.22L468.1 241.82L468.1 241.82L251.57 241.82z" stroke="none" fill="#0000FF" fill-rule="evenodd" /><g clip-path="url(#322)"></g><g clip-path="url(#323)"></g><g clip-path="url(#324)"></g><g clip-path="url(#325)"></g><g clip-path="url(#326)"></g></g><g clip-path="url(#327)"><g clip-path="url(#328)"></g><g clip-path="url(#329)"></g><g clip-path="url(#330)"></g><g clip-path="url(#331)"></g><g clip-path="url(#332)"></g><g clip-path="url(#333)"></g><g clip-path="url(#334)"></g><g clip-path="url(#335)"></g><g clip-path="url(#336)"></g><g clip-path="url(#337)"></g><g clip-path="url(#338)"></g><g clip-path="url(#339)"></g><g clip-path="url(#340)"></g><g clip-path="url(#341)"></g><g clip-path="url(#342)"></g><g clip-path="url(#343)"></g></g><g clip-path="url(#344)"><g clip-path="url(#345)"></g><g clip-path="url(#346)"></g><g clip-path="url(#347)"></g><g clip-path="url(#348)"></g><g clip-path="url(#349)"></g><g clip-path="url(#350)"></g><g clip-path="url(#351)"></g><g clip-path="url(#352)"></g><g clip-path="url(#353)"></g><path id="2707" transform="matrix(1 0 0 -1 0 841)" d="M134.3 106.92L465.81 106.92L465.81 106.92L465.81 107.52L465.81 107.52L134.3 107.52z" stroke="none" fill="#0000FF" fill-rule="evenodd" /><g clip-path="url(#354)"></g><g clip-path="url(#355)"></g></g><g clip-path="url(#356)"><g clip-path="url(#357)"></g></g></g></g></svg>